<?xml version="1.0" encoding="UTF-8" standalone="no"?>
<!DOCTYPE svg PUBLIC "-//W3C//DTD SVG 1.1//EN" "http://www.w3.org/Graphics/SVG/1.1/DTD/svg11.dtd">
<svg width="100%" height="100%" viewBox="0 0 15471 2539" version="1.1" xmlns="http://www.w3.org/2000/svg" xmlns:xlink="http://www.w3.org/1999/xlink" xml:space="preserve" xmlns:serif="http://www.serif.com/" style="fill-rule:evenodd;clip-rule:evenodd;stroke-linejoin:round;stroke-miterlimit:2;">
    <g transform="matrix(4.16667,0,0,4.16667,-1931.23,-24564)">
        <g transform="matrix(1,0,0,1,-5.95603,-216.855)">
            <g transform="matrix(523.517,0,0,523.517,483,6591)">
                <path d="M0.31,-0.679C0.316,-0.679 0.323,-0.677 0.329,-0.673C0.336,-0.67 0.341,-0.663 0.345,-0.654L0.581,-0.102C0.585,-0.091 0.589,-0.083 0.594,-0.077C0.598,-0.071 0.601,-0.066 0.605,-0.063C0.609,-0.059 0.612,-0.056 0.614,-0.054C0.617,-0.052 0.619,-0.049 0.62,-0.046C0.622,-0.043 0.623,-0.039 0.623,-0.033C0.623,-0.025 0.621,-0.019 0.616,-0.014C0.612,-0.01 0.606,-0.006 0.596,-0.004C0.587,-0.002 0.574,-0.001 0.558,-0.001C0.542,-0.001 0.521,-0 0.497,-0C0.473,-0 0.451,-0.001 0.431,-0.001C0.411,-0.001 0.394,-0.003 0.379,-0.005C0.365,-0.007 0.353,-0.01 0.345,-0.015C0.337,-0.019 0.333,-0.026 0.333,-0.034C0.333,-0.041 0.335,-0.047 0.339,-0.051C0.343,-0.054 0.347,-0.058 0.351,-0.062C0.355,-0.065 0.357,-0.071 0.357,-0.078C0.357,-0.084 0.355,-0.092 0.352,-0.102L0.325,-0.166L0.115,-0.166L0.08,-0.082C0.079,-0.08 0.078,-0.079 0.078,-0.077C0.077,-0.076 0.077,-0.075 0.077,-0.073C0.077,-0.072 0.077,-0.071 0.077,-0.069C0.077,-0.063 0.079,-0.059 0.083,-0.056C0.087,-0.052 0.092,-0.05 0.097,-0.048C0.102,-0.045 0.107,-0.043 0.111,-0.04C0.116,-0.038 0.118,-0.034 0.118,-0.028C0.118,-0.023 0.117,-0.019 0.115,-0.015C0.112,-0.012 0.108,-0.009 0.103,-0.007C0.097,-0.004 0.089,-0.003 0.078,-0.002C0.067,-0.001 0.053,-0 0.036,-0C0.026,-0 0.018,-0.001 0.011,-0.001C0.004,-0.002 -0.001,-0.002 -0.006,-0.003C-0.01,-0.004 -0.014,-0.005 -0.017,-0.007C-0.02,-0.008 -0.022,-0.01 -0.023,-0.012C-0.024,-0.014 -0.025,-0.016 -0.025,-0.019C-0.026,-0.022 -0.026,-0.025 -0.026,-0.028C-0.026,-0.034 -0.024,-0.039 -0.02,-0.041C-0.015,-0.044 -0.01,-0.046 -0.003,-0.048C0.003,-0.05 0.01,-0.053 0.016,-0.058C0.023,-0.063 0.029,-0.072 0.034,-0.083C0.113,-0.273 0.193,-0.464 0.273,-0.654C0.277,-0.663 0.283,-0.669 0.289,-0.673C0.296,-0.677 0.303,-0.679 0.31,-0.679ZM0.307,-0.21L0.222,-0.417L0.134,-0.21L0.307,-0.21Z" style="fill:rgb(239,65,114);fill-rule:nonzero;"/>
            </g>
            <g transform="matrix(523.517,0,0,523.517,791.282,6591)">
                <path d="M0.462,-0.157C0.466,-0.157 0.47,-0.155 0.473,-0.152C0.476,-0.149 0.478,-0.144 0.478,-0.139C0.478,-0.119 0.466,-0.098 0.443,-0.077C0.42,-0.056 0.39,-0.038 0.354,-0.023C0.318,-0.008 0.281,-0 0.243,-0C0.203,-0 0.168,-0.008 0.138,-0.023C0.108,-0.038 0.082,-0.057 0.061,-0.083C0.041,-0.108 0.025,-0.136 0.014,-0.167C0.004,-0.199 -0.001,-0.231 -0.001,-0.264C-0.001,-0.297 0.004,-0.329 0.015,-0.36C0.026,-0.391 0.042,-0.419 0.064,-0.444C0.086,-0.469 0.114,-0.489 0.148,-0.504C0.181,-0.519 0.221,-0.526 0.267,-0.526C0.317,-0.526 0.358,-0.519 0.391,-0.504C0.423,-0.489 0.447,-0.469 0.462,-0.444C0.478,-0.418 0.485,-0.389 0.485,-0.356C0.485,-0.343 0.481,-0.333 0.471,-0.324C0.462,-0.315 0.45,-0.309 0.436,-0.305C0.421,-0.3 0.405,-0.298 0.389,-0.298C0.372,-0.298 0.354,-0.301 0.338,-0.305C0.321,-0.31 0.308,-0.317 0.297,-0.326C0.287,-0.336 0.281,-0.347 0.281,-0.36C0.281,-0.366 0.282,-0.375 0.284,-0.388C0.287,-0.401 0.288,-0.416 0.288,-0.433C0.288,-0.446 0.286,-0.458 0.283,-0.468C0.281,-0.478 0.275,-0.483 0.267,-0.483C0.257,-0.483 0.247,-0.475 0.238,-0.46C0.229,-0.444 0.222,-0.424 0.217,-0.399C0.212,-0.374 0.209,-0.347 0.209,-0.319C0.209,-0.294 0.211,-0.27 0.216,-0.246C0.221,-0.222 0.229,-0.201 0.24,-0.181C0.25,-0.162 0.265,-0.146 0.283,-0.135C0.301,-0.123 0.323,-0.117 0.349,-0.117C0.355,-0.117 0.361,-0.117 0.367,-0.117C0.372,-0.118 0.377,-0.119 0.382,-0.12C0.387,-0.121 0.392,-0.122 0.396,-0.123C0.401,-0.124 0.405,-0.126 0.408,-0.127C0.412,-0.129 0.416,-0.13 0.419,-0.132C0.422,-0.133 0.425,-0.135 0.428,-0.137C0.431,-0.138 0.433,-0.14 0.436,-0.142C0.438,-0.143 0.452,-0.153 0.453,-0.154C0.455,-0.155 0.456,-0.156 0.458,-0.156C0.459,-0.156 0.461,-0.157 0.462,-0.157Z" style="fill:rgb(239,65,114);fill-rule:nonzero;"/>
            </g>
            <g transform="matrix(523.517,0,0,523.517,1054.83,6591)">
                <path d="M0.462,-0.157C0.466,-0.157 0.47,-0.155 0.473,-0.152C0.476,-0.149 0.478,-0.144 0.478,-0.139C0.478,-0.119 0.466,-0.098 0.443,-0.077C0.42,-0.056 0.39,-0.038 0.354,-0.023C0.318,-0.008 0.281,-0 0.243,-0C0.203,-0 0.168,-0.008 0.138,-0.023C0.108,-0.038 0.082,-0.057 0.061,-0.083C0.041,-0.108 0.025,-0.136 0.014,-0.167C0.004,-0.199 -0.001,-0.231 -0.001,-0.264C-0.001,-0.297 0.004,-0.329 0.015,-0.36C0.026,-0.391 0.042,-0.419 0.064,-0.444C0.086,-0.469 0.114,-0.489 0.148,-0.504C0.181,-0.519 0.221,-0.526 0.267,-0.526C0.317,-0.526 0.358,-0.519 0.391,-0.504C0.423,-0.489 0.447,-0.469 0.462,-0.444C0.478,-0.418 0.485,-0.389 0.485,-0.356C0.485,-0.343 0.481,-0.333 0.471,-0.324C0.462,-0.315 0.45,-0.309 0.436,-0.305C0.421,-0.3 0.405,-0.298 0.389,-0.298C0.372,-0.298 0.354,-0.301 0.338,-0.305C0.321,-0.31 0.308,-0.317 0.297,-0.326C0.287,-0.336 0.281,-0.347 0.281,-0.36C0.281,-0.366 0.282,-0.375 0.284,-0.388C0.287,-0.401 0.288,-0.416 0.288,-0.433C0.288,-0.446 0.286,-0.458 0.283,-0.468C0.281,-0.478 0.275,-0.483 0.267,-0.483C0.257,-0.483 0.247,-0.475 0.238,-0.46C0.229,-0.444 0.222,-0.424 0.217,-0.399C0.212,-0.374 0.209,-0.347 0.209,-0.319C0.209,-0.294 0.211,-0.27 0.216,-0.246C0.221,-0.222 0.229,-0.201 0.24,-0.181C0.25,-0.162 0.265,-0.146 0.283,-0.135C0.301,-0.123 0.323,-0.117 0.349,-0.117C0.355,-0.117 0.361,-0.117 0.367,-0.117C0.372,-0.118 0.377,-0.119 0.382,-0.12C0.387,-0.121 0.392,-0.122 0.396,-0.123C0.401,-0.124 0.405,-0.126 0.408,-0.127C0.412,-0.129 0.416,-0.13 0.419,-0.132C0.422,-0.133 0.425,-0.135 0.428,-0.137C0.431,-0.138 0.433,-0.14 0.436,-0.142C0.438,-0.143 0.452,-0.153 0.453,-0.154C0.455,-0.155 0.456,-0.156 0.458,-0.156C0.459,-0.156 0.461,-0.157 0.462,-0.157Z" style="fill:rgb(239,65,114);fill-rule:nonzero;"/>
            </g>
            <g transform="matrix(523.517,0,0,523.517,1318.38,6591)">
                <path d="M0.253,-0.032C0.258,-0.032 0.263,-0.034 0.267,-0.038C0.271,-0.042 0.275,-0.048 0.28,-0.055C0.284,-0.062 0.287,-0.07 0.291,-0.08C0.294,-0.09 0.297,-0.101 0.3,-0.114C0.303,-0.126 0.306,-0.139 0.308,-0.153C0.311,-0.166 0.313,-0.181 0.315,-0.196C0.316,-0.21 0.318,-0.226 0.319,-0.241C0.321,-0.256 0.322,-0.272 0.322,-0.287C0.323,-0.303 0.323,-0.318 0.323,-0.333C0.323,-0.363 0.322,-0.39 0.319,-0.414C0.317,-0.438 0.313,-0.458 0.307,-0.473C0.301,-0.488 0.294,-0.495 0.285,-0.495C0.276,-0.495 0.268,-0.489 0.261,-0.477C0.253,-0.465 0.247,-0.448 0.241,-0.428C0.235,-0.407 0.23,-0.384 0.226,-0.358C0.222,-0.332 0.219,-0.305 0.217,-0.277C0.214,-0.249 0.213,-0.222 0.213,-0.195C0.213,-0.173 0.214,-0.152 0.216,-0.132C0.217,-0.112 0.22,-0.095 0.223,-0.08C0.226,-0.065 0.231,-0.053 0.236,-0.045C0.241,-0.036 0.247,-0.032 0.253,-0.032ZM0.29,-0.539C0.332,-0.539 0.369,-0.532 0.4,-0.518C0.431,-0.504 0.457,-0.485 0.478,-0.462C0.498,-0.438 0.513,-0.412 0.523,-0.382C0.534,-0.352 0.539,-0.321 0.539,-0.289C0.539,-0.252 0.532,-0.217 0.52,-0.181C0.507,-0.145 0.489,-0.113 0.464,-0.084C0.44,-0.055 0.41,-0.032 0.374,-0.015C0.337,0.003 0.296,0.011 0.249,0.011C0.206,0.011 0.169,0.004 0.138,-0.009C0.107,-0.023 0.08,-0.042 0.06,-0.065C0.039,-0.088 0.024,-0.115 0.014,-0.145C0.004,-0.174 -0.001,-0.205 -0.001,-0.237C-0.001,-0.274 0.005,-0.31 0.018,-0.345C0.03,-0.381 0.049,-0.413 0.073,-0.442C0.098,-0.471 0.128,-0.495 0.165,-0.512C0.201,-0.53 0.243,-0.539 0.29,-0.539Z" style="fill:rgb(239,65,114);fill-rule:nonzero;"/>
            </g>
            <g transform="matrix(523.517,0,0,523.517,1605.96,6591)">
                <path d="M0.899,-0.318L0.899,-0.169C0.899,-0.136 0.904,-0.106 0.915,-0.081C0.926,-0.056 0.94,-0.034 0.958,-0.016C0.976,0.002 0.995,0.017 1.016,0.029C1.037,0.04 1.059,0.049 1.08,0.054C1.102,0.059 1.121,0.062 1.139,0.062C1.149,0.062 1.156,0.061 1.162,0.06C1.168,0.059 1.173,0.057 1.177,0.056C1.181,0.054 1.184,0.053 1.187,0.051C1.19,0.05 1.192,0.049 1.195,0.049C1.206,0.049 1.212,0.056 1.214,0.07C1.214,0.073 1.213,0.076 1.211,0.079C1.21,0.082 1.207,0.085 1.203,0.087C1.154,0.115 1.097,0.129 1.033,0.129C0.992,0.129 0.952,0.123 0.911,0.112C0.87,0.1 0.832,0.083 0.798,0.06C0.764,0.037 0.737,0.009 0.716,-0.026C0.695,-0.061 0.684,-0.101 0.684,-0.148C0.684,-0.192 0.684,-0.211 0.685,-0.207C0.685,-0.203 0.686,-0.204 0.686,-0.21C0.686,-0.216 0.687,-0.256 0.687,-0.33C0.687,-0.338 0.686,-0.348 0.685,-0.359C0.684,-0.371 0.682,-0.382 0.678,-0.392C0.675,-0.403 0.67,-0.412 0.663,-0.419C0.656,-0.426 0.646,-0.43 0.634,-0.43C0.627,-0.43 0.62,-0.425 0.613,-0.417C0.606,-0.408 0.601,-0.397 0.595,-0.383C0.59,-0.37 0.587,-0.355 0.584,-0.34C0.581,-0.325 0.58,-0.311 0.58,-0.299L0.58,-0.102C0.58,-0.094 0.58,-0.087 0.581,-0.082C0.582,-0.077 0.583,-0.073 0.585,-0.069C0.587,-0.066 0.589,-0.063 0.591,-0.06C0.593,-0.058 0.601,-0.05 0.603,-0.048C0.605,-0.045 0.606,-0.043 0.607,-0.04C0.608,-0.037 0.608,-0.033 0.608,-0.028C0.608,-0.024 0.607,-0.021 0.605,-0.018C0.602,-0.016 0.599,-0.013 0.595,-0.011C0.59,-0.009 0.585,-0.007 0.58,-0.006C0.574,-0.005 0.567,-0.004 0.56,-0.003C0.553,-0.002 0.546,-0.002 0.538,-0.001C0.53,-0.001 0.522,-0.001 0.514,-0.001C0.506,-0.001 0.498,-0 0.49,-0L0.455,-0C0.437,-0 0.418,-0.001 0.4,-0.002C0.382,-0.003 0.367,-0.005 0.355,-0.009C0.343,-0.013 0.337,-0.02 0.337,-0.028C0.337,-0.035 0.338,-0.04 0.34,-0.043C0.342,-0.047 0.344,-0.05 0.347,-0.052C0.35,-0.055 0.353,-0.058 0.356,-0.062C0.358,-0.065 0.361,-0.07 0.363,-0.076C0.365,-0.082 0.366,-0.091 0.366,-0.102C0.366,-0.162 0.367,-0.191 0.367,-0.186C0.367,-0.181 0.367,-0.228 0.367,-0.328C0.367,-0.336 0.367,-0.346 0.366,-0.358C0.365,-0.369 0.363,-0.38 0.36,-0.391C0.356,-0.402 0.351,-0.411 0.344,-0.419C0.337,-0.426 0.327,-0.43 0.315,-0.43C0.305,-0.43 0.296,-0.422 0.287,-0.407C0.279,-0.393 0.272,-0.375 0.268,-0.355C0.263,-0.334 0.26,-0.316 0.26,-0.299C0.26,-0.167 0.26,-0.101 0.261,-0.102C0.261,-0.088 0.263,-0.078 0.266,-0.072C0.269,-0.065 0.272,-0.06 0.276,-0.057C0.279,-0.053 0.283,-0.049 0.286,-0.046C0.289,-0.042 0.29,-0.036 0.29,-0.028C0.29,-0.023 0.288,-0.019 0.283,-0.015C0.279,-0.012 0.272,-0.009 0.264,-0.007C0.256,-0.005 0.247,-0.003 0.237,-0.002C0.227,-0.001 0.217,-0.001 0.205,-0.001C0.194,-0.001 0.183,-0 0.171,-0L0.137,-0C0.123,-0 0.109,-0.001 0.094,-0.001C0.08,-0.002 0.068,-0.003 0.056,-0.004C0.045,-0.006 0.036,-0.009 0.029,-0.012C0.022,-0.016 0.018,-0.021 0.018,-0.028C0.018,-0.034 0.019,-0.038 0.02,-0.041C0.022,-0.044 0.024,-0.047 0.026,-0.05C0.028,-0.052 0.03,-0.054 0.033,-0.057C0.035,-0.059 0.038,-0.062 0.04,-0.066C0.042,-0.069 0.044,-0.074 0.045,-0.079C0.047,-0.085 0.047,-0.092 0.047,-0.102L0.047,-0.203C0.047,-0.207 0.048,-0.237 0.048,-0.293C0.048,-0.324 0.046,-0.347 0.043,-0.363C0.04,-0.379 0.037,-0.39 0.033,-0.397C0.03,-0.404 0.026,-0.41 0.024,-0.413C0.021,-0.417 0.02,-0.422 0.02,-0.429C0.02,-0.439 0.027,-0.447 0.041,-0.453C0.055,-0.459 0.072,-0.464 0.093,-0.469C0.114,-0.475 0.135,-0.48 0.156,-0.487C0.177,-0.494 0.194,-0.502 0.208,-0.513C0.22,-0.522 0.229,-0.526 0.237,-0.526C0.245,-0.526 0.25,-0.523 0.254,-0.516C0.257,-0.51 0.259,-0.501 0.259,-0.491L0.26,-0.436C0.276,-0.467 0.296,-0.491 0.32,-0.505C0.343,-0.519 0.367,-0.526 0.392,-0.526C0.426,-0.526 0.454,-0.521 0.478,-0.51C0.501,-0.499 0.519,-0.484 0.534,-0.466C0.548,-0.448 0.559,-0.428 0.566,-0.406C0.582,-0.448 0.603,-0.479 0.629,-0.498C0.655,-0.517 0.683,-0.526 0.711,-0.526C0.748,-0.526 0.778,-0.52 0.802,-0.507C0.826,-0.495 0.845,-0.478 0.86,-0.458C0.874,-0.437 0.884,-0.415 0.89,-0.39C0.896,-0.366 0.899,-0.342 0.899,-0.318Z" style="fill:rgb(239,65,114);fill-rule:nonzero;"/>
            </g>
            <g transform="matrix(523.517,0,0,523.517,2099.31,6591)">
                <path d="M0.253,-0.032C0.258,-0.032 0.263,-0.034 0.267,-0.038C0.271,-0.042 0.275,-0.048 0.28,-0.055C0.284,-0.062 0.287,-0.07 0.291,-0.08C0.294,-0.09 0.297,-0.101 0.3,-0.114C0.303,-0.126 0.306,-0.139 0.308,-0.153C0.311,-0.166 0.313,-0.181 0.315,-0.196C0.316,-0.21 0.318,-0.226 0.319,-0.241C0.321,-0.256 0.322,-0.272 0.322,-0.287C0.323,-0.303 0.323,-0.318 0.323,-0.333C0.323,-0.363 0.322,-0.39 0.319,-0.414C0.317,-0.438 0.313,-0.458 0.307,-0.473C0.301,-0.488 0.294,-0.495 0.285,-0.495C0.276,-0.495 0.268,-0.489 0.261,-0.477C0.253,-0.465 0.247,-0.448 0.241,-0.428C0.235,-0.407 0.23,-0.384 0.226,-0.358C0.222,-0.332 0.219,-0.305 0.217,-0.277C0.214,-0.249 0.213,-0.222 0.213,-0.195C0.213,-0.173 0.214,-0.152 0.216,-0.132C0.217,-0.112 0.22,-0.095 0.223,-0.08C0.226,-0.065 0.231,-0.053 0.236,-0.045C0.241,-0.036 0.247,-0.032 0.253,-0.032ZM0.29,-0.539C0.332,-0.539 0.369,-0.532 0.4,-0.518C0.431,-0.504 0.457,-0.485 0.478,-0.462C0.498,-0.438 0.513,-0.412 0.523,-0.382C0.534,-0.352 0.539,-0.321 0.539,-0.289C0.539,-0.252 0.532,-0.217 0.52,-0.181C0.507,-0.145 0.489,-0.113 0.464,-0.084C0.44,-0.055 0.41,-0.032 0.374,-0.015C0.337,0.003 0.296,0.011 0.249,0.011C0.206,0.011 0.169,0.004 0.138,-0.009C0.107,-0.023 0.08,-0.042 0.06,-0.065C0.039,-0.088 0.024,-0.115 0.014,-0.145C0.004,-0.174 -0.001,-0.205 -0.001,-0.237C-0.001,-0.274 0.005,-0.31 0.018,-0.345C0.03,-0.381 0.049,-0.413 0.073,-0.442C0.098,-0.471 0.128,-0.495 0.165,-0.512C0.201,-0.53 0.243,-0.539 0.29,-0.539Z" style="fill:rgb(239,65,114);fill-rule:nonzero;"/>
            </g>
            <g transform="matrix(523.517,0,0,523.517,2399.92,6591)">
                <path d="M0.537,-0.652L0.537,-0.102C0.537,-0.096 0.537,-0.09 0.538,-0.086C0.538,-0.081 0.539,-0.077 0.54,-0.074C0.541,-0.071 0.543,-0.068 0.544,-0.066C0.546,-0.063 0.547,-0.061 0.549,-0.059C0.55,-0.058 0.557,-0.051 0.558,-0.05C0.56,-0.048 0.561,-0.046 0.562,-0.044C0.563,-0.042 0.564,-0.04 0.565,-0.038C0.566,-0.035 0.566,-0.032 0.566,-0.028C0.566,-0.02 0.56,-0.013 0.549,-0.009C0.537,-0.005 0.523,-0.003 0.505,-0.002C0.488,-0.001 0.47,-0 0.451,-0C0.434,-0 0.419,-0.001 0.404,-0.002C0.39,-0.003 0.377,-0.007 0.365,-0.013C0.353,-0.019 0.344,-0.029 0.335,-0.042C0.323,-0.029 0.309,-0.018 0.294,-0.011C0.278,-0.004 0.262,-0 0.246,-0C0.172,-0 0.113,-0.026 0.069,-0.078C0.025,-0.129 0.003,-0.2 0.003,-0.291C0.003,-0.321 0.007,-0.351 0.015,-0.379C0.023,-0.407 0.035,-0.432 0.051,-0.454C0.067,-0.476 0.087,-0.494 0.11,-0.507C0.134,-0.52 0.161,-0.526 0.192,-0.526C0.217,-0.526 0.242,-0.519 0.265,-0.505C0.288,-0.491 0.307,-0.468 0.324,-0.436C0.323,-0.458 0.321,-0.476 0.318,-0.487C0.315,-0.499 0.312,-0.508 0.309,-0.513C0.305,-0.519 0.302,-0.523 0.3,-0.527C0.298,-0.53 0.296,-0.535 0.296,-0.541C0.296,-0.548 0.301,-0.554 0.309,-0.559C0.317,-0.564 0.328,-0.569 0.341,-0.574C0.355,-0.58 0.369,-0.586 0.386,-0.593C0.415,-0.607 0.439,-0.622 0.456,-0.637C0.474,-0.653 0.493,-0.672 0.513,-0.693C0.537,-0.72 0.563,-0.746 0.589,-0.772C0.616,-0.798 0.642,-0.821 0.669,-0.843C0.696,-0.864 0.722,-0.882 0.749,-0.895C0.775,-0.908 0.799,-0.915 0.823,-0.915C0.855,-0.915 0.882,-0.91 0.902,-0.899C0.922,-0.889 0.937,-0.876 0.947,-0.86C0.957,-0.844 0.961,-0.827 0.961,-0.81C0.961,-0.792 0.957,-0.775 0.948,-0.759C0.939,-0.742 0.926,-0.729 0.909,-0.718C0.892,-0.707 0.871,-0.702 0.848,-0.702C0.832,-0.702 0.819,-0.705 0.81,-0.709C0.8,-0.714 0.791,-0.72 0.783,-0.726C0.775,-0.733 0.767,-0.738 0.758,-0.743C0.749,-0.748 0.737,-0.75 0.722,-0.75C0.7,-0.75 0.673,-0.743 0.643,-0.728C0.612,-0.713 0.577,-0.688 0.537,-0.652ZM0.322,-0.114C0.322,-0.16 0.323,-0.186 0.323,-0.194C0.323,-0.202 0.323,-0.238 0.323,-0.3C0.323,-0.317 0.321,-0.335 0.316,-0.355C0.311,-0.376 0.305,-0.393 0.297,-0.408C0.289,-0.422 0.28,-0.43 0.27,-0.43C0.258,-0.43 0.248,-0.423 0.24,-0.409C0.233,-0.395 0.227,-0.377 0.223,-0.355C0.219,-0.332 0.217,-0.308 0.217,-0.283C0.217,-0.251 0.22,-0.219 0.226,-0.188C0.232,-0.156 0.241,-0.13 0.252,-0.11C0.263,-0.089 0.278,-0.079 0.294,-0.079C0.303,-0.079 0.309,-0.083 0.313,-0.09C0.317,-0.097 0.32,-0.105 0.322,-0.114Z" style="fill:rgb(239,65,114);fill-rule:nonzero;"/>
            </g>
            <g transform="matrix(523.517,0,0,523.517,2704.11,6591)">
                <path d="M0.025,-0.402C0.025,-0.43 0.034,-0.453 0.053,-0.471C0.071,-0.489 0.097,-0.503 0.13,-0.512C0.163,-0.522 0.201,-0.526 0.244,-0.526C0.3,-0.526 0.349,-0.518 0.389,-0.502C0.43,-0.486 0.46,-0.462 0.482,-0.428C0.503,-0.394 0.514,-0.351 0.514,-0.297L0.512,-0.1C0.512,-0.087 0.514,-0.077 0.517,-0.071C0.52,-0.065 0.523,-0.06 0.527,-0.056C0.531,-0.053 0.534,-0.049 0.537,-0.046C0.54,-0.042 0.542,-0.036 0.542,-0.028C0.542,-0.02 0.536,-0.013 0.524,-0.009C0.513,-0.005 0.499,-0.003 0.481,-0.002C0.463,-0.001 0.445,-0 0.427,-0C0.405,-0 0.385,-0.001 0.367,-0.004C0.349,-0.007 0.334,-0.014 0.322,-0.025C0.311,-0.036 0.303,-0.054 0.299,-0.077C0.286,-0.054 0.27,-0.035 0.25,-0.02C0.231,-0.005 0.207,0.003 0.18,0.003C0.142,0.003 0.11,-0.004 0.085,-0.018C0.061,-0.031 0.042,-0.049 0.031,-0.072C0.019,-0.094 0.013,-0.118 0.013,-0.143C0.013,-0.165 0.017,-0.187 0.026,-0.209C0.035,-0.231 0.048,-0.251 0.065,-0.269C0.083,-0.287 0.104,-0.301 0.129,-0.312C0.154,-0.323 0.183,-0.329 0.216,-0.329C0.248,-0.329 0.276,-0.319 0.3,-0.3C0.301,-0.313 0.301,-0.327 0.301,-0.341C0.301,-0.351 0.3,-0.364 0.299,-0.379C0.298,-0.395 0.295,-0.411 0.291,-0.427C0.288,-0.442 0.282,-0.456 0.275,-0.467C0.268,-0.477 0.259,-0.483 0.248,-0.483C0.242,-0.483 0.239,-0.481 0.237,-0.479C0.234,-0.476 0.233,-0.472 0.233,-0.467C0.233,-0.458 0.235,-0.449 0.239,-0.44C0.242,-0.43 0.244,-0.421 0.244,-0.41C0.244,-0.392 0.238,-0.377 0.226,-0.367C0.214,-0.356 0.199,-0.348 0.18,-0.344C0.162,-0.339 0.142,-0.337 0.123,-0.337C0.106,-0.337 0.09,-0.339 0.075,-0.344C0.06,-0.348 0.048,-0.355 0.039,-0.365C0.03,-0.375 0.025,-0.387 0.025,-0.402ZM0.299,-0.237C0.293,-0.246 0.287,-0.25 0.28,-0.25C0.269,-0.25 0.259,-0.243 0.25,-0.23C0.241,-0.217 0.234,-0.202 0.228,-0.184C0.223,-0.166 0.22,-0.149 0.22,-0.133C0.22,-0.122 0.222,-0.113 0.225,-0.105C0.229,-0.098 0.234,-0.094 0.242,-0.094C0.255,-0.094 0.266,-0.102 0.275,-0.117C0.283,-0.132 0.289,-0.151 0.293,-0.173C0.297,-0.195 0.299,-0.216 0.299,-0.237Z" style="fill:rgb(239,65,114);fill-rule:nonzero;"/>
            </g>
            <g transform="matrix(523.517,0,0,523.517,2983.26,6591)">
                <path d="M0.009,-0.504C0.009,-0.511 0.01,-0.516 0.012,-0.52C0.014,-0.524 0.018,-0.526 0.024,-0.526C0.038,-0.526 0.053,-0.532 0.07,-0.542C0.088,-0.552 0.105,-0.565 0.122,-0.58C0.14,-0.595 0.156,-0.61 0.17,-0.625C0.184,-0.64 0.195,-0.652 0.204,-0.662C0.214,-0.673 0.223,-0.679 0.232,-0.679C0.239,-0.679 0.246,-0.675 0.251,-0.668C0.256,-0.661 0.258,-0.653 0.258,-0.642L0.259,-0.526L0.328,-0.526C0.334,-0.526 0.338,-0.524 0.341,-0.52C0.344,-0.516 0.345,-0.511 0.345,-0.504C0.345,-0.498 0.344,-0.493 0.341,-0.489C0.338,-0.485 0.334,-0.482 0.328,-0.482L0.259,-0.482L0.26,-0.167C0.26,-0.155 0.26,-0.143 0.261,-0.131C0.262,-0.118 0.264,-0.108 0.269,-0.1C0.273,-0.092 0.28,-0.087 0.291,-0.087C0.297,-0.087 0.302,-0.089 0.305,-0.091C0.309,-0.094 0.312,-0.096 0.316,-0.099C0.319,-0.101 0.323,-0.103 0.328,-0.103C0.333,-0.103 0.337,-0.101 0.34,-0.098C0.344,-0.095 0.345,-0.091 0.345,-0.086C0.345,-0.075 0.338,-0.062 0.324,-0.049C0.311,-0.035 0.293,-0.024 0.271,-0.015C0.25,-0.005 0.228,-0 0.205,-0C0.179,-0 0.154,-0.006 0.129,-0.017C0.105,-0.029 0.085,-0.047 0.07,-0.072C0.054,-0.097 0.046,-0.131 0.046,-0.172L0.046,-0.405C0.046,-0.437 0.045,-0.457 0.041,-0.467C0.038,-0.477 0.032,-0.482 0.024,-0.482C0.018,-0.482 0.014,-0.485 0.012,-0.489C0.01,-0.493 0.009,-0.498 0.009,-0.504Z" style="fill:rgb(239,65,114);fill-rule:nonzero;"/>
            </g>
            <g transform="matrix(523.517,0,0,523.517,3157.85,6591)">
                <path d="M0.286,-0.028C0.286,-0.023 0.283,-0.019 0.279,-0.015C0.275,-0.012 0.269,-0.009 0.261,-0.007C0.253,-0.005 0.245,-0.003 0.235,-0.002C0.225,-0.001 0.215,-0.001 0.204,-0.001C0.193,-0.001 0.182,-0 0.171,-0L0.138,-0C0.12,-0 0.102,-0.001 0.084,-0.002C0.067,-0.003 0.052,-0.005 0.041,-0.009C0.029,-0.013 0.023,-0.02 0.023,-0.028C0.023,-0.034 0.024,-0.038 0.025,-0.041C0.027,-0.044 0.028,-0.047 0.031,-0.05C0.033,-0.052 0.035,-0.054 0.037,-0.057C0.04,-0.059 0.042,-0.062 0.044,-0.066C0.046,-0.069 0.048,-0.074 0.049,-0.079C0.051,-0.085 0.051,-0.092 0.051,-0.102L0.052,-0.3C0.052,-0.33 0.05,-0.353 0.048,-0.369C0.045,-0.384 0.042,-0.395 0.038,-0.402C0.035,-0.409 0.032,-0.414 0.029,-0.418C0.026,-0.422 0.025,-0.427 0.025,-0.434C0.025,-0.444 0.031,-0.453 0.045,-0.461C0.058,-0.469 0.073,-0.477 0.091,-0.484C0.109,-0.491 0.126,-0.497 0.143,-0.502C0.159,-0.509 0.175,-0.514 0.19,-0.519C0.205,-0.524 0.217,-0.526 0.226,-0.526C0.234,-0.526 0.241,-0.524 0.247,-0.518C0.253,-0.513 0.256,-0.503 0.256,-0.49L0.257,-0.102C0.257,-0.096 0.258,-0.091 0.258,-0.087C0.259,-0.083 0.26,-0.079 0.26,-0.076C0.261,-0.073 0.262,-0.07 0.264,-0.068C0.265,-0.066 0.266,-0.064 0.268,-0.062C0.269,-0.06 0.27,-0.058 0.272,-0.057C0.273,-0.055 0.275,-0.054 0.276,-0.052C0.277,-0.051 0.278,-0.05 0.28,-0.048C0.281,-0.047 0.282,-0.045 0.283,-0.043C0.284,-0.041 0.284,-0.039 0.285,-0.037C0.285,-0.034 0.286,-0.032 0.286,-0.028ZM0.251,-0.654C0.251,-0.625 0.24,-0.599 0.217,-0.576C0.193,-0.553 0.166,-0.542 0.135,-0.542C0.111,-0.542 0.09,-0.55 0.072,-0.565C0.055,-0.58 0.046,-0.6 0.046,-0.624C0.046,-0.653 0.058,-0.679 0.082,-0.701C0.105,-0.723 0.133,-0.734 0.164,-0.734C0.188,-0.734 0.208,-0.727 0.226,-0.711C0.243,-0.696 0.251,-0.677 0.251,-0.654Z" style="fill:rgb(239,65,114);fill-rule:nonzero;"/>
            </g>
            <g transform="matrix(523.517,0,0,523.517,3317.1,6591)">
                <path d="M0.253,-0.032C0.258,-0.032 0.263,-0.034 0.267,-0.038C0.271,-0.042 0.275,-0.048 0.28,-0.055C0.284,-0.062 0.287,-0.07 0.291,-0.08C0.294,-0.09 0.297,-0.101 0.3,-0.114C0.303,-0.126 0.306,-0.139 0.308,-0.153C0.311,-0.166 0.313,-0.181 0.315,-0.196C0.316,-0.21 0.318,-0.226 0.319,-0.241C0.321,-0.256 0.322,-0.272 0.322,-0.287C0.323,-0.303 0.323,-0.318 0.323,-0.333C0.323,-0.363 0.322,-0.39 0.319,-0.414C0.317,-0.438 0.313,-0.458 0.307,-0.473C0.301,-0.488 0.294,-0.495 0.285,-0.495C0.276,-0.495 0.268,-0.489 0.261,-0.477C0.253,-0.465 0.247,-0.448 0.241,-0.428C0.235,-0.407 0.23,-0.384 0.226,-0.358C0.222,-0.332 0.219,-0.305 0.217,-0.277C0.214,-0.249 0.213,-0.222 0.213,-0.195C0.213,-0.173 0.214,-0.152 0.216,-0.132C0.217,-0.112 0.22,-0.095 0.223,-0.08C0.226,-0.065 0.231,-0.053 0.236,-0.045C0.241,-0.036 0.247,-0.032 0.253,-0.032ZM0.29,-0.539C0.332,-0.539 0.369,-0.532 0.4,-0.518C0.431,-0.504 0.457,-0.485 0.478,-0.462C0.498,-0.438 0.513,-0.412 0.523,-0.382C0.534,-0.352 0.539,-0.321 0.539,-0.289C0.539,-0.252 0.532,-0.217 0.52,-0.181C0.507,-0.145 0.489,-0.113 0.464,-0.084C0.44,-0.055 0.41,-0.032 0.374,-0.015C0.337,0.003 0.296,0.011 0.249,0.011C0.206,0.011 0.169,0.004 0.138,-0.009C0.107,-0.023 0.08,-0.042 0.06,-0.065C0.039,-0.088 0.024,-0.115 0.014,-0.145C0.004,-0.174 -0.001,-0.205 -0.001,-0.237C-0.001,-0.274 0.005,-0.31 0.018,-0.345C0.03,-0.381 0.049,-0.413 0.073,-0.442C0.098,-0.471 0.128,-0.495 0.165,-0.512C0.201,-0.53 0.243,-0.539 0.29,-0.539Z" style="fill:rgb(239,65,114);fill-rule:nonzero;"/>
            </g>
            <g transform="matrix(523.517,0,0,523.517,3604.68,6591)">
                <path d="M0.26,-0.433C0.276,-0.466 0.296,-0.49 0.32,-0.504C0.343,-0.519 0.368,-0.526 0.393,-0.526C0.43,-0.526 0.46,-0.52 0.484,-0.507C0.508,-0.495 0.527,-0.478 0.541,-0.458C0.555,-0.437 0.566,-0.415 0.572,-0.39C0.578,-0.366 0.581,-0.342 0.581,-0.318L0.581,-0.102C0.581,-0.083 0.588,-0.065 0.602,-0.047C0.616,-0.029 0.634,-0.012 0.656,0.004C0.678,0.02 0.702,0.034 0.727,0.046C0.752,0.058 0.776,0.067 0.799,0.074C0.822,0.081 0.84,0.085 0.854,0.085C0.869,0.085 0.881,0.083 0.89,0.078C0.899,0.073 0.908,0.067 0.916,0.061C0.924,0.054 0.933,0.049 0.942,0.044C0.952,0.039 0.964,0.037 0.98,0.037C1.004,0.037 1.024,0.042 1.041,0.052C1.058,0.063 1.071,0.076 1.08,0.093C1.089,0.109 1.094,0.126 1.094,0.144C1.094,0.162 1.089,0.178 1.079,0.194C1.07,0.21 1.055,0.223 1.035,0.234C1.014,0.244 0.988,0.249 0.956,0.249C0.926,0.249 0.898,0.243 0.873,0.231C0.848,0.219 0.824,0.203 0.801,0.184C0.778,0.166 0.755,0.146 0.732,0.124C0.709,0.103 0.685,0.083 0.659,0.064C0.634,0.045 0.606,0.03 0.576,0.018C0.545,0.006 0.511,-0 0.474,-0L0.457,-0C0.443,-0 0.428,-0.001 0.414,-0.001C0.4,-0.002 0.387,-0.003 0.376,-0.004C0.365,-0.006 0.355,-0.009 0.348,-0.012C0.341,-0.016 0.338,-0.021 0.338,-0.028C0.338,-0.034 0.339,-0.038 0.34,-0.041C0.342,-0.044 0.343,-0.047 0.345,-0.05C0.348,-0.052 0.35,-0.054 0.352,-0.057C0.355,-0.059 0.357,-0.062 0.359,-0.066C0.362,-0.069 0.364,-0.074 0.365,-0.08C0.366,-0.085 0.367,-0.093 0.367,-0.102C0.368,-0.162 0.368,-0.191 0.368,-0.186C0.368,-0.181 0.368,-0.228 0.368,-0.328C0.368,-0.336 0.368,-0.346 0.367,-0.358C0.366,-0.369 0.364,-0.38 0.361,-0.391C0.357,-0.402 0.352,-0.411 0.345,-0.419C0.338,-0.426 0.329,-0.43 0.316,-0.43C0.306,-0.43 0.297,-0.422 0.289,-0.407C0.28,-0.393 0.273,-0.375 0.269,-0.354C0.264,-0.334 0.261,-0.315 0.261,-0.299C0.261,-0.183 0.261,-0.117 0.261,-0.101C0.261,-0.095 0.261,-0.09 0.262,-0.085C0.262,-0.081 0.263,-0.077 0.264,-0.074C0.266,-0.07 0.267,-0.068 0.268,-0.065C0.27,-0.063 0.271,-0.061 0.273,-0.059C0.275,-0.057 0.281,-0.051 0.282,-0.049C0.284,-0.048 0.285,-0.046 0.286,-0.044C0.288,-0.042 0.288,-0.04 0.289,-0.037C0.29,-0.035 0.29,-0.032 0.29,-0.028C0.29,-0.02 0.284,-0.013 0.272,-0.009C0.26,-0.005 0.245,-0.003 0.227,-0.002C0.209,-0.001 0.19,-0 0.171,-0L0.137,-0C0.123,-0 0.109,-0.001 0.094,-0.001C0.08,-0.002 0.068,-0.003 0.056,-0.004C0.045,-0.006 0.036,-0.009 0.029,-0.012C0.022,-0.016 0.018,-0.021 0.018,-0.028C0.018,-0.034 0.019,-0.038 0.02,-0.041C0.022,-0.044 0.024,-0.047 0.026,-0.05C0.028,-0.052 0.03,-0.054 0.033,-0.057C0.035,-0.059 0.038,-0.062 0.04,-0.066C0.042,-0.069 0.044,-0.074 0.045,-0.079C0.047,-0.085 0.047,-0.092 0.047,-0.102L0.047,-0.203C0.047,-0.207 0.048,-0.237 0.048,-0.293C0.048,-0.324 0.046,-0.347 0.043,-0.363C0.04,-0.379 0.037,-0.39 0.034,-0.397C0.03,-0.404 0.027,-0.41 0.024,-0.413C0.021,-0.417 0.02,-0.422 0.02,-0.429C0.02,-0.439 0.027,-0.447 0.041,-0.453C0.055,-0.459 0.073,-0.464 0.094,-0.469C0.114,-0.475 0.135,-0.48 0.156,-0.487C0.177,-0.494 0.194,-0.502 0.208,-0.513C0.214,-0.518 0.22,-0.521 0.225,-0.523C0.229,-0.525 0.234,-0.526 0.237,-0.526C0.245,-0.526 0.25,-0.523 0.254,-0.516C0.257,-0.51 0.259,-0.501 0.259,-0.491L0.26,-0.433Z" style="fill:rgb(239,65,114);fill-rule:nonzero;"/>
            </g>
            <g transform="matrix(523.517,0,0,523.517,3922.67,6591)">
                <path d="M0.496,-0.166C0.496,-0.136 0.49,-0.112 0.479,-0.092C0.468,-0.072 0.453,-0.056 0.435,-0.044C0.416,-0.032 0.396,-0.023 0.373,-0.016C0.351,-0.01 0.328,-0.006 0.304,-0.004C0.281,-0.002 0.259,-0 0.239,-0C0.196,-0 0.158,-0.005 0.125,-0.014C0.093,-0.024 0.067,-0.038 0.048,-0.056C0.03,-0.074 0.021,-0.097 0.021,-0.125C0.021,-0.14 0.025,-0.152 0.034,-0.162C0.044,-0.171 0.056,-0.179 0.071,-0.183C0.085,-0.188 0.101,-0.19 0.118,-0.19C0.138,-0.19 0.157,-0.188 0.176,-0.183C0.194,-0.179 0.21,-0.171 0.222,-0.16C0.234,-0.15 0.24,-0.135 0.24,-0.117C0.24,-0.106 0.238,-0.096 0.234,-0.087C0.231,-0.078 0.229,-0.069 0.229,-0.06C0.229,-0.055 0.23,-0.051 0.232,-0.048C0.234,-0.045 0.238,-0.044 0.244,-0.044C0.251,-0.044 0.258,-0.048 0.264,-0.057C0.269,-0.066 0.273,-0.076 0.276,-0.087C0.279,-0.098 0.281,-0.107 0.281,-0.114C0.281,-0.132 0.274,-0.147 0.262,-0.159C0.249,-0.171 0.233,-0.182 0.213,-0.191C0.193,-0.201 0.173,-0.21 0.151,-0.219C0.129,-0.229 0.108,-0.24 0.088,-0.252C0.068,-0.264 0.052,-0.279 0.04,-0.296C0.027,-0.314 0.021,-0.335 0.021,-0.361C0.021,-0.388 0.026,-0.411 0.037,-0.43C0.049,-0.449 0.063,-0.465 0.082,-0.478C0.101,-0.49 0.121,-0.5 0.144,-0.507C0.166,-0.514 0.189,-0.519 0.212,-0.522C0.235,-0.525 0.257,-0.526 0.277,-0.526C0.321,-0.526 0.359,-0.522 0.391,-0.512C0.424,-0.503 0.45,-0.489 0.468,-0.471C0.487,-0.453 0.496,-0.43 0.496,-0.402C0.496,-0.387 0.491,-0.375 0.482,-0.365C0.473,-0.355 0.461,-0.348 0.446,-0.344C0.431,-0.339 0.415,-0.337 0.398,-0.337C0.379,-0.337 0.359,-0.339 0.341,-0.344C0.322,-0.348 0.307,-0.356 0.295,-0.367C0.283,-0.377 0.277,-0.392 0.277,-0.41C0.277,-0.421 0.279,-0.43 0.282,-0.44C0.286,-0.449 0.288,-0.458 0.288,-0.467C0.288,-0.472 0.287,-0.476 0.284,-0.479C0.282,-0.481 0.278,-0.483 0.273,-0.483C0.265,-0.483 0.258,-0.478 0.252,-0.468C0.247,-0.458 0.242,-0.448 0.239,-0.436C0.236,-0.424 0.235,-0.414 0.235,-0.407C0.235,-0.39 0.241,-0.376 0.254,-0.364C0.267,-0.352 0.283,-0.342 0.302,-0.333C0.322,-0.324 0.343,-0.315 0.365,-0.306C0.388,-0.297 0.409,-0.287 0.428,-0.275C0.448,-0.263 0.464,-0.248 0.477,-0.231C0.49,-0.213 0.496,-0.192 0.496,-0.166Z" style="fill:rgb(239,65,114);fill-rule:nonzero;"/>
            </g>
        </g>
    </g>
</svg>
