<?xml version="1.0" encoding="UTF-8" standalone="no"?>
<!DOCTYPE svg PUBLIC "-//W3C//DTD SVG 1.1//EN" "http://www.w3.org/Graphics/SVG/1.1/DTD/svg11.dtd">
<svg width="100%" height="100%" viewBox="0 0 1395 1591" version="1.1" xmlns="http://www.w3.org/2000/svg" xmlns:xlink="http://www.w3.org/1999/xlink" xml:space="preserve" xmlns:serif="http://www.serif.com/" style="fill-rule:evenodd;clip-rule:evenodd;stroke-linejoin:round;stroke-miterlimit:2;">
    <g transform="matrix(4.16667,0,0,4.16667,-1664.66,-10115)">
        <g transform="matrix(1.44238,3.65859e-16,-3.53281e-16,1.49373,-4119.66,-8245.72)">
            <g transform="matrix(0.6933,-1.69809e-16,1.63971e-16,0.669464,478.329,5831.06)">
                <path d="M4138.72,2224.72C4138.72,2252.54 4133.01,2275.34 4121.61,2293.1C4110.21,2310.86 4094.3,2323.95 4073.88,2332.37C4053.46,2340.79 4029.73,2345 4002.68,2345C3988.18,2345 3972.98,2344.13 3957.07,2342.39C3941.16,2340.65 3925.64,2337.49 3910.53,2332.92C3895.41,2328.34 3881.76,2321.93 3869.56,2313.69C3857.36,2305.45 3847.59,2294.93 3840.25,2282.11C3832.92,2269.3 3829.25,2253.73 3829.25,2235.43C3829.25,2222.43 3831.59,2209.89 3836.28,2197.8C3840.96,2185.72 3848.92,2174.92 3860.14,2165.4C3871.37,2155.88 3886.7,2148.37 3906.15,2142.88C3885.11,2132.44 3869.69,2120.31 3859.88,2106.49C3850.07,2092.67 3845.16,2078.53 3845.16,2064.06C3845.16,2047.04 3851.04,2030.83 3862.8,2015.45C3874.55,2000.07 3890.99,1987.53 3912.12,1977.83C3933.24,1968.13 3957.86,1963.28 3985.97,1963.28C4006.66,1963.28 4025.75,1965.11 4043.25,1968.77C4060.75,1972.43 4076,1978.65 4088.99,1987.44C4101.99,1996.23 4112.11,2008.27 4119.36,2023.56C4126.61,2038.84 4130.23,2058.11 4130.23,2081.36C4130.23,2093.26 4125.85,2102.46 4117.1,2108.96C4108.35,2115.46 4095.22,2118.71 4077.72,2118.71C4068.18,2118.71 4058.94,2117.34 4050.01,2114.59C4041.08,2111.85 4033.75,2107.82 4028,2102.51C4022.26,2097.2 4019.38,2090.7 4019.38,2083.01C4019.38,2078.07 4020.14,2071.39 4021.64,2062.96C4023.14,2054.54 4023.89,2043.47 4023.89,2029.73C4023.89,2022.41 4023.32,2015.64 4022.17,2009.41C4021.02,2003.19 4019.03,1998.11 4016.2,1994.17C4013.37,1990.23 4009.22,1988.27 4003.74,1988.27C3994.19,1988.27 3986.46,1991.7 3980.54,1998.56C3974.61,2005.43 3970.28,2014.58 3967.54,2026.03C3964.8,2037.47 3963.43,2049.96 3963.43,2063.51C3963.43,2077.43 3964.98,2089.83 3968.07,2100.72C3971.16,2111.62 3976.12,2120.13 3982.92,2126.26C3989.73,2132.4 3998.61,2135.46 4009.57,2135.46L4151.44,2135.46C4155.51,2135.46 4158.6,2136.79 4160.73,2139.45C4162.85,2142.1 4163.91,2144.98 4163.91,2148.1C4163.91,2154.32 4161.65,2157.94 4157.15,2158.94C4152.64,2159.95 4146.49,2160.45 4138.72,2160.45L4138.72,2224.72ZM4048.82,2160.45L3987.83,2160.45C3974.04,2160.45 3963.56,2167.69 3956.4,2182.15C3949.24,2196.61 3945.66,2215.65 3945.66,2239.27C3945.66,2253 3947.17,2266.09 3950.17,2278.54C3953.18,2290.99 3958.83,2301.11 3967.14,2308.89C3975.45,2316.67 3987.39,2320.56 4002.94,2320.56C4012.67,2320.56 4020.93,2317.77 4027.74,2312.18C4034.54,2306.6 4039.76,2299.37 4043.38,2290.49C4047.01,2281.61 4048.82,2272.22 4048.82,2262.34L4048.82,2160.45Z" style="fill:rgb(244,156,29);"/>
            </g>
        </g>
    </g>
</svg>
