<?xml version="1.0" encoding="UTF-8" standalone="no"?>
<!DOCTYPE svg PUBLIC "-//W3C//DTD SVG 1.1//EN" "http://www.w3.org/Graphics/SVG/1.1/DTD/svg11.dtd">
<svg width="100%" height="100%" viewBox="0 0 1844 374" version="1.1" xmlns="http://www.w3.org/2000/svg" xmlns:xlink="http://www.w3.org/1999/xlink" xml:space="preserve" xmlns:serif="http://www.serif.com/" style="fill-rule:evenodd;clip-rule:evenodd;stroke-linejoin:round;stroke-miterlimit:2;">
    <g transform="matrix(4.16667,0,0,4.16667,-9319.85,-26371.2)">
        <g transform="matrix(0.431579,0,0,0.215706,-3807.07,4782.4)">
            <g transform="matrix(1.98162,0,0,3.96477,-12200.2,-22926.1)">
                <g transform="matrix(126.369,0,0,126.504,13222.2,7676.86)">
                    <path d="M0.253,-0.435C0.27,-0.467 0.29,-0.49 0.313,-0.505C0.336,-0.519 0.36,-0.526 0.385,-0.526C0.417,-0.526 0.444,-0.52 0.468,-0.507C0.491,-0.494 0.511,-0.476 0.527,-0.454C0.542,-0.432 0.554,-0.407 0.562,-0.379C0.57,-0.351 0.574,-0.321 0.574,-0.291C0.574,-0.2 0.552,-0.129 0.508,-0.078C0.464,-0.026 0.405,-0 0.332,-0C0.305,-0 0.283,-0.008 0.265,-0.022C0.246,-0.036 0.231,-0.054 0.22,-0.077C0.19,-0.061 0.164,-0.047 0.143,-0.036C0.121,-0.024 0.104,-0.016 0.09,-0.01C0.076,-0.003 0.066,-0 0.059,-0C0.054,-0 0.05,-0.002 0.048,-0.005C0.045,-0.007 0.043,-0.012 0.042,-0.017C0.042,-0.023 0.041,-0.03 0.041,-0.039L0.04,-0.405C0.039,-0.436 0.038,-0.459 0.035,-0.475C0.032,-0.491 0.029,-0.502 0.025,-0.509C0.022,-0.516 0.019,-0.521 0.016,-0.525C0.013,-0.528 0.012,-0.534 0.012,-0.541C0.012,-0.55 0.018,-0.557 0.031,-0.563C0.043,-0.569 0.06,-0.576 0.079,-0.583C0.099,-0.591 0.119,-0.601 0.14,-0.613C0.161,-0.625 0.18,-0.641 0.198,-0.662C0.208,-0.673 0.217,-0.679 0.226,-0.679C0.234,-0.679 0.24,-0.675 0.245,-0.668C0.25,-0.661 0.252,-0.653 0.252,-0.642C0.253,-0.573 0.253,-0.504 0.253,-0.435ZM0.283,-0.079C0.3,-0.079 0.314,-0.089 0.326,-0.11C0.337,-0.13 0.346,-0.156 0.352,-0.188C0.357,-0.219 0.36,-0.251 0.36,-0.283C0.36,-0.308 0.358,-0.332 0.355,-0.355C0.351,-0.377 0.345,-0.395 0.337,-0.409C0.33,-0.423 0.32,-0.43 0.308,-0.43C0.295,-0.43 0.285,-0.424 0.278,-0.414C0.27,-0.403 0.265,-0.391 0.261,-0.376C0.258,-0.361 0.256,-0.346 0.255,-0.332C0.254,-0.318 0.254,-0.307 0.254,-0.3L0.254,-0.2C0.254,-0.196 0.254,-0.171 0.254,-0.125C0.255,-0.118 0.256,-0.112 0.258,-0.105C0.26,-0.098 0.263,-0.092 0.267,-0.087C0.271,-0.082 0.277,-0.079 0.283,-0.079Z" style="fill:rgb(244,156,29);fill-rule:nonzero;"/>
                </g>
                <g transform="matrix(126.369,0,0,126.504,13292.5,7676.86)">
                    <path d="M-0.008,-0.494C-0.008,-0.502 -0.006,-0.508 -0.002,-0.513C0.002,-0.517 0.009,-0.521 0.019,-0.522C0.028,-0.524 0.041,-0.526 0.057,-0.526C0.073,-0.526 0.093,-0.526 0.118,-0.526C0.142,-0.526 0.164,-0.526 0.184,-0.526C0.203,-0.526 0.221,-0.524 0.235,-0.522C0.25,-0.52 0.261,-0.517 0.269,-0.512C0.277,-0.508 0.281,-0.502 0.281,-0.493C0.281,-0.486 0.279,-0.48 0.275,-0.476C0.271,-0.473 0.267,-0.469 0.263,-0.465C0.259,-0.461 0.257,-0.456 0.257,-0.449C0.257,-0.443 0.259,-0.435 0.263,-0.425L0.347,-0.25C0.373,-0.315 0.4,-0.38 0.427,-0.445C0.427,-0.446 0.428,-0.448 0.428,-0.449C0.429,-0.451 0.429,-0.452 0.429,-0.454C0.43,-0.455 0.43,-0.457 0.43,-0.458C0.43,-0.464 0.428,-0.468 0.424,-0.471C0.42,-0.475 0.415,-0.477 0.409,-0.479C0.404,-0.482 0.399,-0.484 0.395,-0.487C0.391,-0.489 0.389,-0.493 0.389,-0.499C0.389,-0.505 0.391,-0.511 0.395,-0.515C0.399,-0.519 0.407,-0.522 0.419,-0.524C0.431,-0.525 0.449,-0.526 0.472,-0.526C0.481,-0.526 0.488,-0.526 0.494,-0.526C0.5,-0.526 0.505,-0.525 0.51,-0.524C0.514,-0.524 0.518,-0.523 0.521,-0.522C0.523,-0.521 0.526,-0.52 0.528,-0.518C0.529,-0.517 0.531,-0.515 0.531,-0.513C0.532,-0.511 0.533,-0.509 0.533,-0.507C0.533,-0.505 0.533,-0.502 0.533,-0.499C0.533,-0.492 0.531,-0.488 0.527,-0.485C0.523,-0.483 0.517,-0.481 0.511,-0.479C0.504,-0.477 0.498,-0.474 0.491,-0.469C0.484,-0.463 0.479,-0.455 0.474,-0.444C0.474,-0.444 0.453,-0.394 0.411,-0.295C0.37,-0.196 0.333,-0.106 0.3,-0.025C0.293,-0.005 0.285,0.014 0.277,0.035C0.269,0.055 0.259,0.074 0.249,0.091C0.239,0.108 0.226,0.122 0.212,0.133C0.198,0.144 0.181,0.149 0.161,0.149C0.133,0.149 0.11,0.144 0.092,0.133C0.073,0.123 0.059,0.109 0.05,0.091C0.041,0.074 0.037,0.054 0.037,0.033C0.037,0.019 0.04,0.008 0.048,-0C0.055,-0.009 0.065,-0.015 0.077,-0.019C0.089,-0.023 0.101,-0.025 0.114,-0.025C0.134,-0.025 0.15,-0.022 0.161,-0.016C0.172,-0.009 0.179,-0.001 0.184,0.009C0.188,0.019 0.19,0.03 0.19,0.041C0.19,0.05 0.188,0.057 0.184,0.063C0.181,0.068 0.179,0.074 0.179,0.079C0.179,0.084 0.182,0.087 0.189,0.087C0.2,0.087 0.208,0.08 0.212,0.066C0.217,0.052 0.22,0.035 0.22,0.016C0.22,-0.002 0.218,-0.019 0.215,-0.037C0.211,-0.055 0.206,-0.071 0.2,-0.084L0.034,-0.425C0.028,-0.438 0.022,-0.448 0.017,-0.454C0.012,-0.46 0.007,-0.465 0.004,-0.468C-0,-0.472 -0.003,-0.475 -0.005,-0.478C-0.007,-0.481 -0.008,-0.486 -0.008,-0.494Z" style="fill:rgb(244,156,29);fill-rule:nonzero;"/>
                </g>
                <g transform="matrix(126.369,0,0,126.504,13387.7,7676.86)">
                    <path d="M0.203,-0.044C0.217,-0.044 0.228,-0.049 0.237,-0.059C0.246,-0.07 0.253,-0.083 0.258,-0.099C0.263,-0.115 0.267,-0.132 0.269,-0.151C0.271,-0.17 0.273,-0.188 0.273,-0.206C0.274,-0.223 0.274,-0.238 0.274,-0.25L0.274,-0.578C0.274,-0.583 0.274,-0.589 0.273,-0.593C0.272,-0.598 0.271,-0.602 0.27,-0.605C0.269,-0.608 0.268,-0.611 0.266,-0.613C0.265,-0.616 0.263,-0.618 0.262,-0.62C0.26,-0.622 0.254,-0.628 0.252,-0.629C0.251,-0.631 0.249,-0.633 0.248,-0.635C0.247,-0.637 0.246,-0.639 0.246,-0.641C0.245,-0.644 0.245,-0.647 0.245,-0.65C0.245,-0.66 0.251,-0.666 0.263,-0.67C0.275,-0.674 0.29,-0.676 0.308,-0.677C0.326,-0.678 0.345,-0.679 0.363,-0.679L0.398,-0.679C0.417,-0.679 0.435,-0.678 0.453,-0.677C0.471,-0.676 0.486,-0.674 0.498,-0.67C0.51,-0.666 0.516,-0.66 0.516,-0.65C0.516,-0.643 0.514,-0.637 0.511,-0.633C0.508,-0.629 0.505,-0.626 0.501,-0.622C0.497,-0.619 0.494,-0.614 0.491,-0.607C0.488,-0.601 0.487,-0.591 0.487,-0.578L0.487,-0.273C0.487,-0.18 0.463,-0.111 0.414,-0.067C0.366,-0.023 0.295,-0 0.201,-0C0.164,-0 0.131,-0.007 0.103,-0.02C0.075,-0.032 0.051,-0.05 0.032,-0.072C0.013,-0.094 -0.001,-0.118 -0.011,-0.146C-0.021,-0.174 -0.025,-0.203 -0.025,-0.233C-0.025,-0.248 -0.021,-0.26 -0.011,-0.269C-0.002,-0.279 0.01,-0.285 0.024,-0.29C0.039,-0.295 0.055,-0.297 0.071,-0.297C0.088,-0.297 0.105,-0.294 0.122,-0.29C0.139,-0.285 0.152,-0.277 0.163,-0.268C0.173,-0.258 0.179,-0.247 0.179,-0.233C0.179,-0.222 0.178,-0.213 0.177,-0.205C0.175,-0.198 0.174,-0.188 0.173,-0.176C0.171,-0.164 0.17,-0.145 0.17,-0.121C0.17,-0.106 0.171,-0.093 0.173,-0.082C0.175,-0.07 0.179,-0.061 0.183,-0.054C0.188,-0.047 0.194,-0.044 0.203,-0.044Z" style="fill:rgb(244,156,29);fill-rule:nonzero;"/>
                </g>
                <g transform="matrix(126.369,0,0,126.504,13454.5,7676.86)">
                    <path d="M0.586,-0.028C0.586,-0.022 0.583,-0.017 0.577,-0.013C0.57,-0.009 0.561,-0.006 0.551,-0.004C0.54,-0.002 0.527,-0.001 0.514,-0.001C0.5,-0 0.487,-0 0.473,-0L0.446,-0C0.428,-0 0.411,-0.003 0.396,-0.009C0.381,-0.015 0.369,-0.024 0.36,-0.037C0.351,-0.05 0.346,-0.068 0.344,-0.089C0.328,-0.058 0.308,-0.035 0.285,-0.021C0.262,-0.007 0.238,-0 0.213,-0C0.177,-0 0.147,-0.007 0.123,-0.02C0.098,-0.032 0.079,-0.049 0.065,-0.069C0.051,-0.09 0.041,-0.112 0.035,-0.137C0.029,-0.161 0.026,-0.185 0.026,-0.209L0.026,-0.293C0.026,-0.324 0.024,-0.348 0.022,-0.363C0.019,-0.379 0.016,-0.39 0.012,-0.397C0.008,-0.404 0.005,-0.41 0.002,-0.413C-0.001,-0.417 -0.002,-0.422 -0.002,-0.429C-0.002,-0.439 0.005,-0.447 0.019,-0.453C0.033,-0.459 0.051,-0.464 0.072,-0.469C0.093,-0.475 0.113,-0.48 0.134,-0.487C0.155,-0.494 0.172,-0.502 0.187,-0.513C0.192,-0.518 0.198,-0.521 0.203,-0.523C0.208,-0.525 0.212,-0.526 0.216,-0.526C0.223,-0.526 0.229,-0.523 0.232,-0.516C0.236,-0.51 0.238,-0.501 0.238,-0.491L0.238,-0.201C0.238,-0.193 0.238,-0.183 0.239,-0.171C0.24,-0.16 0.242,-0.148 0.245,-0.137C0.248,-0.126 0.253,-0.116 0.26,-0.109C0.267,-0.101 0.277,-0.097 0.29,-0.097C0.3,-0.097 0.309,-0.105 0.317,-0.12C0.326,-0.135 0.332,-0.152 0.337,-0.172C0.342,-0.192 0.344,-0.211 0.345,-0.228L0.345,-0.306C0.345,-0.328 0.344,-0.346 0.342,-0.359C0.34,-0.372 0.338,-0.382 0.335,-0.389C0.333,-0.396 0.33,-0.402 0.327,-0.406C0.325,-0.41 0.322,-0.413 0.32,-0.416C0.318,-0.419 0.317,-0.424 0.317,-0.429C0.317,-0.439 0.324,-0.447 0.339,-0.453C0.353,-0.459 0.37,-0.464 0.391,-0.469C0.412,-0.475 0.433,-0.48 0.453,-0.487C0.474,-0.494 0.492,-0.502 0.506,-0.513C0.512,-0.518 0.517,-0.521 0.522,-0.523C0.527,-0.525 0.531,-0.526 0.535,-0.526C0.543,-0.526 0.548,-0.523 0.552,-0.516C0.555,-0.51 0.557,-0.501 0.557,-0.491L0.558,-0.102C0.558,-0.094 0.558,-0.087 0.559,-0.082C0.56,-0.077 0.561,-0.073 0.563,-0.069C0.565,-0.066 0.567,-0.063 0.569,-0.06C0.571,-0.058 0.579,-0.05 0.581,-0.048C0.583,-0.045 0.584,-0.043 0.585,-0.04C0.586,-0.037 0.586,-0.033 0.586,-0.028Z" style="fill:rgb(244,156,29);fill-rule:nonzero;"/>
                </g>
                <g transform="matrix(126.369,0,0,126.504,13530.2,7676.86)">
                    <path d="M0.29,-0.028C0.29,-0.023 0.288,-0.019 0.283,-0.015C0.279,-0.012 0.272,-0.009 0.264,-0.007C0.256,-0.005 0.247,-0.003 0.237,-0.002C0.227,-0.001 0.217,-0.001 0.205,-0.001C0.194,-0.001 0.183,-0 0.171,-0L0.137,-0C0.123,-0 0.109,-0.001 0.094,-0.001C0.08,-0.002 0.068,-0.003 0.056,-0.004C0.045,-0.006 0.036,-0.009 0.029,-0.012C0.022,-0.016 0.018,-0.021 0.018,-0.028C0.018,-0.035 0.019,-0.04 0.021,-0.043C0.023,-0.047 0.025,-0.05 0.028,-0.052C0.031,-0.055 0.034,-0.058 0.037,-0.062C0.04,-0.065 0.042,-0.07 0.044,-0.076C0.046,-0.082 0.047,-0.091 0.047,-0.102C0.047,-0.102 0.047,-0.203 0.047,-0.405C0.047,-0.436 0.046,-0.459 0.043,-0.475C0.04,-0.491 0.037,-0.502 0.033,-0.509C0.03,-0.516 0.026,-0.521 0.024,-0.525C0.021,-0.528 0.02,-0.534 0.02,-0.541C0.02,-0.55 0.026,-0.557 0.039,-0.563C0.051,-0.569 0.067,-0.576 0.087,-0.583C0.106,-0.591 0.126,-0.601 0.147,-0.613C0.168,-0.625 0.187,-0.641 0.205,-0.662C0.209,-0.668 0.214,-0.672 0.219,-0.675C0.224,-0.677 0.229,-0.679 0.233,-0.679C0.24,-0.679 0.247,-0.675 0.252,-0.668C0.257,-0.661 0.259,-0.653 0.259,-0.642L0.261,-0.102C0.261,-0.096 0.261,-0.09 0.262,-0.086C0.262,-0.081 0.263,-0.077 0.264,-0.074C0.266,-0.071 0.267,-0.068 0.268,-0.066C0.27,-0.063 0.271,-0.061 0.273,-0.059C0.275,-0.058 0.281,-0.051 0.282,-0.05C0.284,-0.048 0.285,-0.046 0.286,-0.044C0.288,-0.042 0.288,-0.04 0.289,-0.038C0.29,-0.035 0.29,-0.032 0.29,-0.028Z" style="fill:rgb(244,156,29);fill-rule:nonzero;"/>
                </g>
                <g transform="matrix(126.369,0,0,126.504,13567,7676.86)">
                    <path d="M-0.008,-0.494C-0.008,-0.502 -0.006,-0.508 -0.002,-0.513C0.002,-0.517 0.009,-0.521 0.019,-0.522C0.028,-0.524 0.041,-0.526 0.057,-0.526C0.073,-0.526 0.093,-0.526 0.118,-0.526C0.142,-0.526 0.164,-0.526 0.184,-0.526C0.203,-0.526 0.221,-0.524 0.235,-0.522C0.25,-0.52 0.261,-0.517 0.269,-0.512C0.277,-0.508 0.281,-0.502 0.281,-0.493C0.281,-0.486 0.279,-0.48 0.275,-0.476C0.271,-0.473 0.267,-0.469 0.263,-0.465C0.259,-0.461 0.257,-0.456 0.257,-0.449C0.257,-0.443 0.259,-0.435 0.263,-0.425L0.347,-0.25C0.373,-0.315 0.4,-0.38 0.427,-0.445C0.427,-0.446 0.428,-0.448 0.428,-0.449C0.429,-0.451 0.429,-0.452 0.429,-0.454C0.43,-0.455 0.43,-0.457 0.43,-0.458C0.43,-0.464 0.428,-0.468 0.424,-0.471C0.42,-0.475 0.415,-0.477 0.409,-0.479C0.404,-0.482 0.399,-0.484 0.395,-0.487C0.391,-0.489 0.389,-0.493 0.389,-0.499C0.389,-0.505 0.391,-0.511 0.395,-0.515C0.399,-0.519 0.407,-0.522 0.419,-0.524C0.431,-0.525 0.449,-0.526 0.472,-0.526C0.481,-0.526 0.488,-0.526 0.494,-0.526C0.5,-0.526 0.505,-0.525 0.51,-0.524C0.514,-0.524 0.518,-0.523 0.521,-0.522C0.523,-0.521 0.526,-0.52 0.528,-0.518C0.529,-0.517 0.531,-0.515 0.531,-0.513C0.532,-0.511 0.533,-0.509 0.533,-0.507C0.533,-0.505 0.533,-0.502 0.533,-0.499C0.533,-0.492 0.531,-0.488 0.527,-0.485C0.523,-0.483 0.517,-0.481 0.511,-0.479C0.504,-0.477 0.498,-0.474 0.491,-0.469C0.484,-0.463 0.479,-0.455 0.474,-0.444C0.474,-0.444 0.453,-0.394 0.411,-0.295C0.37,-0.196 0.333,-0.106 0.3,-0.025C0.293,-0.005 0.285,0.014 0.277,0.035C0.269,0.055 0.259,0.074 0.249,0.091C0.239,0.108 0.226,0.122 0.212,0.133C0.198,0.144 0.181,0.149 0.161,0.149C0.133,0.149 0.11,0.144 0.092,0.133C0.073,0.123 0.059,0.109 0.05,0.091C0.041,0.074 0.037,0.054 0.037,0.033C0.037,0.019 0.04,0.008 0.048,-0C0.055,-0.009 0.065,-0.015 0.077,-0.019C0.089,-0.023 0.101,-0.025 0.114,-0.025C0.134,-0.025 0.15,-0.022 0.161,-0.016C0.172,-0.009 0.179,-0.001 0.184,0.009C0.188,0.019 0.19,0.03 0.19,0.041C0.19,0.05 0.188,0.057 0.184,0.063C0.181,0.068 0.179,0.074 0.179,0.079C0.179,0.084 0.182,0.087 0.189,0.087C0.2,0.087 0.208,0.08 0.212,0.066C0.217,0.052 0.22,0.035 0.22,0.016C0.22,-0.002 0.218,-0.019 0.215,-0.037C0.211,-0.055 0.206,-0.071 0.2,-0.084L0.034,-0.425C0.028,-0.438 0.022,-0.448 0.017,-0.454C0.012,-0.46 0.007,-0.465 0.004,-0.468C-0,-0.472 -0.003,-0.475 -0.005,-0.478C-0.007,-0.481 -0.008,-0.486 -0.008,-0.494Z" style="fill:rgb(244,156,29);fill-rule:nonzero;"/>
                </g>
                <g transform="matrix(126.369,0,0,126.504,13662.2,7676.86)">
                    <path d="M0.304,-0.028C0.304,-0.024 0.303,-0.021 0.301,-0.018C0.298,-0.016 0.295,-0.013 0.291,-0.011C0.286,-0.009 0.281,-0.007 0.275,-0.006C0.27,-0.005 0.263,-0.004 0.256,-0.003C0.249,-0.002 0.242,-0.002 0.234,-0.001C0.226,-0.001 0.218,-0.001 0.21,-0.001C0.202,-0.001 0.194,-0 0.186,-0L0.151,-0C0.137,-0 0.123,-0.001 0.109,-0.001C0.095,-0.002 0.082,-0.003 0.071,-0.004C0.059,-0.006 0.05,-0.009 0.043,-0.012C0.036,-0.016 0.033,-0.021 0.033,-0.028C0.033,-0.035 0.034,-0.04 0.036,-0.043C0.038,-0.047 0.04,-0.05 0.043,-0.052C0.046,-0.055 0.049,-0.058 0.052,-0.062C0.054,-0.065 0.057,-0.07 0.059,-0.076C0.061,-0.082 0.062,-0.091 0.062,-0.102L0.062,-0.491C0.062,-0.5 0.061,-0.508 0.059,-0.513C0.058,-0.518 0.056,-0.523 0.054,-0.526C0.052,-0.529 0.05,-0.531 0.047,-0.533C0.045,-0.535 0.042,-0.537 0.04,-0.539C0.038,-0.541 0.036,-0.543 0.035,-0.546C0.033,-0.549 0.033,-0.553 0.033,-0.559C0.033,-0.568 0.037,-0.577 0.046,-0.584C0.054,-0.592 0.067,-0.599 0.083,-0.607L0.199,-0.668C0.212,-0.675 0.224,-0.679 0.234,-0.679C0.246,-0.679 0.256,-0.674 0.264,-0.664C0.272,-0.655 0.275,-0.64 0.275,-0.62L0.275,-0.102C0.275,-0.094 0.276,-0.087 0.277,-0.082C0.278,-0.077 0.279,-0.073 0.281,-0.069C0.283,-0.066 0.285,-0.063 0.287,-0.06C0.289,-0.058 0.297,-0.05 0.299,-0.048C0.3,-0.045 0.302,-0.043 0.303,-0.04C0.304,-0.037 0.304,-0.033 0.304,-0.028Z" style="fill:rgb(244,156,29);fill-rule:nonzero;"/>
                </g>
                <g transform="matrix(126.369,0,0,126.504,13702.6,7676.86)">
                    <path d="M0.304,-0.028C0.304,-0.024 0.303,-0.021 0.301,-0.018C0.298,-0.016 0.295,-0.013 0.291,-0.011C0.286,-0.009 0.281,-0.007 0.275,-0.006C0.27,-0.005 0.263,-0.004 0.256,-0.003C0.249,-0.002 0.242,-0.002 0.234,-0.001C0.226,-0.001 0.218,-0.001 0.21,-0.001C0.202,-0.001 0.194,-0 0.186,-0L0.151,-0C0.137,-0 0.123,-0.001 0.109,-0.001C0.095,-0.002 0.082,-0.003 0.071,-0.004C0.059,-0.006 0.05,-0.009 0.043,-0.012C0.036,-0.016 0.033,-0.021 0.033,-0.028C0.033,-0.035 0.034,-0.04 0.036,-0.043C0.038,-0.047 0.04,-0.05 0.043,-0.052C0.046,-0.055 0.049,-0.058 0.052,-0.062C0.054,-0.065 0.057,-0.07 0.059,-0.076C0.061,-0.082 0.062,-0.091 0.062,-0.102L0.062,-0.491C0.062,-0.5 0.061,-0.508 0.059,-0.513C0.058,-0.518 0.056,-0.523 0.054,-0.526C0.052,-0.529 0.05,-0.531 0.047,-0.533C0.045,-0.535 0.042,-0.537 0.04,-0.539C0.038,-0.541 0.036,-0.543 0.035,-0.546C0.033,-0.549 0.033,-0.553 0.033,-0.559C0.033,-0.568 0.037,-0.577 0.046,-0.584C0.054,-0.592 0.067,-0.599 0.083,-0.607L0.199,-0.668C0.212,-0.675 0.224,-0.679 0.234,-0.679C0.246,-0.679 0.256,-0.674 0.264,-0.664C0.272,-0.655 0.275,-0.64 0.275,-0.62L0.275,-0.102C0.275,-0.094 0.276,-0.087 0.277,-0.082C0.278,-0.077 0.279,-0.073 0.281,-0.069C0.283,-0.066 0.285,-0.063 0.287,-0.06C0.289,-0.058 0.297,-0.05 0.299,-0.048C0.3,-0.045 0.302,-0.043 0.303,-0.04C0.304,-0.037 0.304,-0.033 0.304,-0.028Z" style="fill:rgb(244,156,29);fill-rule:nonzero;"/>
                </g>
            </g>
        </g>
    </g>
</svg>
