<?xml version="1.0" encoding="UTF-8" standalone="no"?>
<!DOCTYPE svg PUBLIC "-//W3C//DTD SVG 1.1//EN" "http://www.w3.org/Graphics/SVG/1.1/DTD/svg11.dtd">
<svg width="100%" height="100%" viewBox="0 0 5243 752" version="1.1" xmlns="http://www.w3.org/2000/svg" xmlns:xlink="http://www.w3.org/1999/xlink" xml:space="preserve" xmlns:serif="http://www.serif.com/" style="fill-rule:evenodd;clip-rule:evenodd;stroke-linejoin:round;stroke-miterlimit:2;">
    <g transform="matrix(4.16667,0,0,4.16667,-8743.12,-17402.3)">
        <g transform="matrix(1.26268,3.09267e-16,-3.09267e-16,1.26268,-3287.78,-6292.06)">
            <g transform="matrix(0.791968,-1.93976e-16,1.93976e-16,0.791968,3188.41,710.322)">
                <g transform="matrix(183.333,0,0,183.333,1361.19,9706.33)">
                    <path d="M0.534,-0.17C0.538,-0.17 0.542,-0.169 0.544,-0.166C0.547,-0.163 0.549,-0.159 0.549,-0.153C0.549,-0.15 0.548,-0.146 0.547,-0.143C0.539,-0.119 0.524,-0.097 0.501,-0.076C0.478,-0.054 0.449,-0.036 0.414,-0.022C0.378,-0.008 0.339,-0 0.295,-0C0.246,-0 0.202,-0.01 0.165,-0.029C0.128,-0.047 0.096,-0.072 0.071,-0.104C0.046,-0.135 0.027,-0.171 0.014,-0.21C0.001,-0.25 -0.005,-0.291 -0.005,-0.333C-0.005,-0.375 0.001,-0.418 0.015,-0.459C0.029,-0.5 0.049,-0.537 0.077,-0.57C0.105,-0.603 0.14,-0.629 0.181,-0.649C0.223,-0.669 0.272,-0.679 0.329,-0.679C0.366,-0.679 0.398,-0.672 0.427,-0.66C0.455,-0.647 0.478,-0.63 0.497,-0.608C0.516,-0.587 0.531,-0.562 0.541,-0.534C0.55,-0.506 0.555,-0.477 0.555,-0.447C0.555,-0.426 0.547,-0.41 0.53,-0.399C0.512,-0.388 0.489,-0.383 0.458,-0.383C0.44,-0.383 0.424,-0.385 0.407,-0.39C0.391,-0.395 0.378,-0.402 0.367,-0.411C0.356,-0.421 0.351,-0.432 0.351,-0.446C0.351,-0.457 0.352,-0.466 0.353,-0.473C0.354,-0.481 0.356,-0.491 0.357,-0.503C0.358,-0.515 0.359,-0.534 0.359,-0.559C0.359,-0.573 0.358,-0.586 0.356,-0.597C0.354,-0.609 0.351,-0.618 0.347,-0.625C0.342,-0.632 0.336,-0.635 0.327,-0.635C0.308,-0.635 0.29,-0.622 0.272,-0.595C0.254,-0.569 0.239,-0.534 0.227,-0.493C0.216,-0.451 0.21,-0.408 0.21,-0.363C0.21,-0.33 0.214,-0.299 0.221,-0.268C0.229,-0.237 0.24,-0.209 0.256,-0.184C0.271,-0.16 0.292,-0.14 0.316,-0.125C0.34,-0.111 0.369,-0.104 0.403,-0.104C0.42,-0.104 0.436,-0.107 0.452,-0.115C0.468,-0.123 0.482,-0.131 0.493,-0.14C0.504,-0.149 0.511,-0.155 0.515,-0.16C0.521,-0.167 0.528,-0.17 0.534,-0.17Z" style="fill:rgb(17,98,113);fill-rule:nonzero;"/>
                </g>
                <g transform="matrix(183.333,0,0,183.333,1463.42,9706.33)">
                    <path d="M0.253,-0.032C0.258,-0.032 0.263,-0.034 0.267,-0.038C0.271,-0.042 0.275,-0.048 0.28,-0.055C0.284,-0.062 0.287,-0.07 0.291,-0.08C0.294,-0.09 0.297,-0.101 0.3,-0.114C0.303,-0.126 0.306,-0.139 0.308,-0.153C0.311,-0.166 0.313,-0.181 0.315,-0.196C0.316,-0.21 0.318,-0.226 0.319,-0.241C0.321,-0.256 0.322,-0.272 0.322,-0.287C0.323,-0.303 0.323,-0.318 0.323,-0.333C0.323,-0.363 0.322,-0.39 0.319,-0.414C0.317,-0.438 0.313,-0.458 0.307,-0.473C0.301,-0.488 0.294,-0.495 0.285,-0.495C0.276,-0.495 0.268,-0.489 0.261,-0.477C0.253,-0.465 0.247,-0.448 0.241,-0.428C0.235,-0.407 0.23,-0.384 0.226,-0.358C0.222,-0.332 0.219,-0.305 0.217,-0.277C0.214,-0.249 0.213,-0.222 0.213,-0.195C0.213,-0.173 0.214,-0.152 0.216,-0.132C0.217,-0.112 0.22,-0.095 0.223,-0.08C0.226,-0.065 0.231,-0.053 0.236,-0.045C0.241,-0.036 0.247,-0.032 0.253,-0.032ZM0.29,-0.539C0.332,-0.539 0.369,-0.532 0.4,-0.518C0.431,-0.504 0.457,-0.485 0.478,-0.462C0.498,-0.438 0.513,-0.412 0.523,-0.382C0.534,-0.352 0.539,-0.321 0.539,-0.289C0.539,-0.252 0.532,-0.217 0.52,-0.181C0.507,-0.145 0.489,-0.113 0.464,-0.084C0.44,-0.055 0.41,-0.032 0.374,-0.015C0.337,0.003 0.296,0.011 0.249,0.011C0.206,0.011 0.169,0.004 0.138,-0.009C0.107,-0.023 0.08,-0.042 0.06,-0.065C0.039,-0.088 0.024,-0.115 0.014,-0.145C0.004,-0.174 -0.001,-0.205 -0.001,-0.237C-0.001,-0.274 0.005,-0.31 0.018,-0.345C0.03,-0.381 0.049,-0.413 0.073,-0.442C0.098,-0.471 0.128,-0.495 0.165,-0.512C0.201,-0.53 0.243,-0.539 0.29,-0.539Z" style="fill:rgb(17,98,113);fill-rule:nonzero;"/>
                </g>
                <g transform="matrix(183.333,0,0,183.333,1564.13,9706.33)">
                    <path d="M0.26,-0.426C0.268,-0.444 0.278,-0.461 0.29,-0.476C0.302,-0.491 0.315,-0.503 0.33,-0.512C0.345,-0.522 0.362,-0.526 0.38,-0.526C0.401,-0.526 0.418,-0.522 0.431,-0.515C0.445,-0.507 0.454,-0.497 0.46,-0.484C0.467,-0.471 0.47,-0.458 0.47,-0.443C0.47,-0.427 0.466,-0.411 0.458,-0.395C0.451,-0.379 0.44,-0.366 0.427,-0.355C0.413,-0.345 0.396,-0.34 0.377,-0.34C0.365,-0.34 0.354,-0.342 0.346,-0.347C0.338,-0.351 0.332,-0.357 0.326,-0.365C0.32,-0.373 0.314,-0.381 0.308,-0.391C0.305,-0.396 0.301,-0.398 0.297,-0.398C0.291,-0.398 0.285,-0.391 0.28,-0.377C0.274,-0.362 0.269,-0.347 0.266,-0.331C0.262,-0.315 0.26,-0.304 0.26,-0.299L0.261,-0.102C0.261,-0.096 0.261,-0.09 0.262,-0.086C0.262,-0.081 0.263,-0.077 0.264,-0.074C0.266,-0.071 0.267,-0.068 0.268,-0.066C0.27,-0.063 0.271,-0.061 0.273,-0.059C0.275,-0.058 0.281,-0.051 0.282,-0.05C0.284,-0.048 0.285,-0.046 0.286,-0.044C0.288,-0.042 0.288,-0.04 0.289,-0.038C0.29,-0.035 0.29,-0.032 0.29,-0.028C0.29,-0.023 0.288,-0.019 0.283,-0.015C0.279,-0.012 0.272,-0.009 0.264,-0.007C0.256,-0.005 0.247,-0.003 0.237,-0.002C0.227,-0.001 0.217,-0.001 0.205,-0.001C0.194,-0.001 0.183,-0 0.171,-0L0.137,-0C0.123,-0 0.109,-0.001 0.094,-0.001C0.08,-0.002 0.068,-0.003 0.056,-0.004C0.045,-0.006 0.036,-0.009 0.029,-0.012C0.022,-0.016 0.018,-0.021 0.018,-0.028C0.018,-0.035 0.019,-0.04 0.021,-0.043C0.023,-0.047 0.025,-0.05 0.028,-0.052C0.031,-0.055 0.034,-0.058 0.037,-0.062C0.04,-0.065 0.042,-0.07 0.044,-0.076C0.046,-0.082 0.047,-0.091 0.047,-0.102C0.047,-0.101 0.047,-0.165 0.047,-0.293C0.047,-0.324 0.046,-0.348 0.043,-0.363C0.04,-0.379 0.037,-0.39 0.033,-0.397C0.03,-0.404 0.026,-0.41 0.024,-0.413C0.021,-0.417 0.02,-0.422 0.02,-0.429C0.02,-0.439 0.027,-0.447 0.041,-0.453C0.055,-0.459 0.072,-0.464 0.093,-0.469C0.114,-0.475 0.135,-0.48 0.156,-0.487C0.177,-0.494 0.194,-0.502 0.208,-0.513C0.22,-0.522 0.229,-0.526 0.237,-0.526C0.245,-0.526 0.25,-0.523 0.254,-0.516C0.257,-0.51 0.259,-0.501 0.259,-0.491L0.26,-0.426Z" style="fill:rgb(17,98,113);fill-rule:nonzero;"/>
                </g>
                <g transform="matrix(183.333,0,0,183.333,1651.23,9706.33)">
                    <path d="M0.024,-0.402C0.024,-0.43 0.034,-0.453 0.052,-0.471C0.07,-0.489 0.096,-0.503 0.129,-0.512C0.162,-0.522 0.2,-0.526 0.243,-0.526C0.299,-0.526 0.348,-0.518 0.388,-0.502C0.429,-0.486 0.459,-0.462 0.481,-0.428C0.502,-0.394 0.513,-0.351 0.513,-0.297C0.513,-0.223 0.513,-0.182 0.513,-0.176C0.513,-0.17 0.513,-0.168 0.512,-0.17C0.512,-0.173 0.512,-0.15 0.512,-0.101C0.512,-0.081 0.522,-0.059 0.543,-0.038C0.564,-0.016 0.589,0.004 0.619,0.023C0.649,0.041 0.68,0.056 0.71,0.068C0.741,0.079 0.766,0.085 0.785,0.085C0.8,0.085 0.812,0.083 0.821,0.078C0.83,0.073 0.838,0.067 0.846,0.061C0.854,0.054 0.863,0.049 0.873,0.044C0.883,0.039 0.896,0.037 0.911,0.037C0.935,0.037 0.955,0.042 0.972,0.052C0.989,0.063 1.002,0.076 1.011,0.093C1.02,0.109 1.024,0.126 1.024,0.144C1.024,0.162 1.02,0.178 1.01,0.194C1,0.21 0.986,0.223 0.965,0.234C0.945,0.244 0.919,0.249 0.887,0.249C0.856,0.249 0.828,0.243 0.803,0.231C0.778,0.219 0.754,0.203 0.731,0.184C0.709,0.166 0.686,0.146 0.663,0.124C0.64,0.103 0.616,0.083 0.59,0.064C0.565,0.045 0.536,0.03 0.505,0.018C0.474,0.006 0.438,-0 0.398,-0C0.373,-0 0.351,-0.006 0.333,-0.018C0.315,-0.03 0.303,-0.049 0.298,-0.077C0.286,-0.054 0.269,-0.035 0.25,-0.02C0.23,-0.005 0.206,0.003 0.179,0.003C0.141,0.003 0.109,-0.004 0.085,-0.018C0.06,-0.031 0.042,-0.049 0.03,-0.072C0.018,-0.094 0.012,-0.118 0.012,-0.143C0.012,-0.165 0.017,-0.187 0.026,-0.209C0.035,-0.231 0.048,-0.251 0.065,-0.269C0.082,-0.287 0.103,-0.301 0.129,-0.312C0.154,-0.323 0.183,-0.329 0.215,-0.329C0.248,-0.329 0.276,-0.319 0.3,-0.3C0.3,-0.313 0.3,-0.326 0.3,-0.341C0.3,-0.351 0.3,-0.364 0.298,-0.379C0.297,-0.395 0.295,-0.411 0.291,-0.427C0.287,-0.442 0.282,-0.456 0.275,-0.467C0.268,-0.477 0.258,-0.483 0.247,-0.483C0.242,-0.483 0.238,-0.481 0.236,-0.479C0.234,-0.476 0.233,-0.472 0.233,-0.467C0.233,-0.458 0.235,-0.449 0.238,-0.44C0.242,-0.43 0.244,-0.421 0.244,-0.41C0.244,-0.392 0.238,-0.377 0.226,-0.367C0.214,-0.356 0.198,-0.348 0.18,-0.344C0.161,-0.339 0.142,-0.337 0.122,-0.337C0.105,-0.337 0.089,-0.339 0.074,-0.344C0.06,-0.348 0.048,-0.355 0.038,-0.365C0.029,-0.375 0.024,-0.387 0.024,-0.402ZM0.299,-0.237C0.293,-0.246 0.287,-0.25 0.28,-0.25C0.269,-0.25 0.259,-0.243 0.25,-0.23C0.24,-0.217 0.233,-0.202 0.228,-0.184C0.222,-0.166 0.22,-0.149 0.22,-0.133C0.22,-0.122 0.221,-0.113 0.225,-0.105C0.228,-0.098 0.234,-0.094 0.241,-0.094C0.255,-0.094 0.266,-0.102 0.274,-0.117C0.282,-0.132 0.289,-0.151 0.292,-0.173C0.296,-0.195 0.299,-0.216 0.299,-0.237Z" style="fill:rgb(17,98,113);fill-rule:nonzero;"/>
                </g>
                <g transform="matrix(183.333,0,0,183.333,1752.65,9706.33)">
                    <path d="M0.253,-0.032C0.258,-0.032 0.263,-0.034 0.267,-0.038C0.271,-0.042 0.275,-0.048 0.28,-0.055C0.284,-0.062 0.287,-0.07 0.291,-0.08C0.294,-0.09 0.297,-0.101 0.3,-0.114C0.303,-0.126 0.306,-0.139 0.308,-0.153C0.311,-0.166 0.313,-0.181 0.315,-0.196C0.316,-0.21 0.318,-0.226 0.319,-0.241C0.321,-0.256 0.322,-0.272 0.322,-0.287C0.323,-0.303 0.323,-0.318 0.323,-0.333C0.323,-0.363 0.322,-0.39 0.319,-0.414C0.317,-0.438 0.313,-0.458 0.307,-0.473C0.301,-0.488 0.294,-0.495 0.285,-0.495C0.276,-0.495 0.268,-0.489 0.261,-0.477C0.253,-0.465 0.247,-0.448 0.241,-0.428C0.235,-0.407 0.23,-0.384 0.226,-0.358C0.222,-0.332 0.219,-0.305 0.217,-0.277C0.214,-0.249 0.213,-0.222 0.213,-0.195C0.213,-0.173 0.214,-0.152 0.216,-0.132C0.217,-0.112 0.22,-0.095 0.223,-0.08C0.226,-0.065 0.231,-0.053 0.236,-0.045C0.241,-0.036 0.247,-0.032 0.253,-0.032ZM0.29,-0.539C0.332,-0.539 0.369,-0.532 0.4,-0.518C0.431,-0.504 0.457,-0.485 0.478,-0.462C0.498,-0.438 0.513,-0.412 0.523,-0.382C0.534,-0.352 0.539,-0.321 0.539,-0.289C0.539,-0.252 0.532,-0.217 0.52,-0.181C0.507,-0.145 0.489,-0.113 0.464,-0.084C0.44,-0.055 0.41,-0.032 0.374,-0.015C0.337,0.003 0.296,0.011 0.249,0.011C0.206,0.011 0.169,0.004 0.138,-0.009C0.107,-0.023 0.08,-0.042 0.06,-0.065C0.039,-0.088 0.024,-0.115 0.014,-0.145C0.004,-0.174 -0.001,-0.205 -0.001,-0.237C-0.001,-0.274 0.005,-0.31 0.018,-0.345C0.03,-0.381 0.049,-0.413 0.073,-0.442C0.098,-0.471 0.128,-0.495 0.165,-0.512C0.201,-0.53 0.243,-0.539 0.29,-0.539Z" style="fill:rgb(17,98,113);fill-rule:nonzero;"/>
                </g>
                <g transform="matrix(183.333,0,0,183.333,1853.36,9706.33)">
                    <path d="M0.255,-0.436C0.272,-0.468 0.292,-0.491 0.315,-0.505C0.338,-0.519 0.361,-0.526 0.386,-0.526C0.417,-0.526 0.445,-0.52 0.469,-0.507C0.492,-0.494 0.512,-0.476 0.528,-0.454C0.543,-0.432 0.555,-0.407 0.563,-0.379C0.571,-0.351 0.575,-0.321 0.575,-0.291C0.575,-0.228 0.565,-0.176 0.545,-0.132C0.526,-0.089 0.497,-0.056 0.461,-0.034C0.425,-0.012 0.382,-0 0.333,-0C0.307,-0 0.281,-0.01 0.256,-0.03L0.256,0.106C0.256,0.112 0.257,0.118 0.257,0.122C0.258,0.127 0.259,0.131 0.26,0.134C0.261,0.137 0.262,0.14 0.264,0.142C0.265,0.145 0.267,0.147 0.269,0.149C0.27,0.15 0.277,0.157 0.278,0.158C0.28,0.16 0.281,0.162 0.282,0.164C0.283,0.166 0.284,0.168 0.285,0.17C0.285,0.173 0.286,0.176 0.286,0.18C0.286,0.188 0.28,0.195 0.268,0.199C0.256,0.203 0.24,0.206 0.222,0.207C0.204,0.208 0.186,0.208 0.167,0.208L0.132,0.208C0.118,0.208 0.104,0.208 0.09,0.207C0.076,0.207 0.063,0.206 0.052,0.204C0.04,0.202 0.031,0.199 0.024,0.196C0.017,0.192 0.014,0.187 0.014,0.18C0.014,0.173 0.015,0.168 0.017,0.165C0.019,0.161 0.021,0.158 0.024,0.156C0.027,0.153 0.03,0.15 0.032,0.146C0.035,0.143 0.038,0.138 0.04,0.132C0.042,0.126 0.042,0.117 0.042,0.106C0.043,0.107 0.043,-0.026 0.043,-0.293C0.043,-0.324 0.042,-0.348 0.039,-0.363C0.036,-0.379 0.033,-0.39 0.029,-0.397C0.025,-0.404 0.022,-0.41 0.019,-0.413C0.017,-0.417 0.015,-0.422 0.015,-0.429C0.015,-0.439 0.022,-0.447 0.036,-0.453C0.051,-0.459 0.068,-0.464 0.089,-0.469C0.11,-0.475 0.131,-0.48 0.151,-0.487C0.172,-0.494 0.19,-0.502 0.204,-0.513C0.215,-0.522 0.225,-0.526 0.233,-0.526C0.24,-0.526 0.246,-0.523 0.25,-0.516C0.253,-0.51 0.255,-0.501 0.255,-0.491L0.255,-0.436ZM0.284,-0.079C0.301,-0.079 0.316,-0.089 0.327,-0.11C0.339,-0.13 0.347,-0.156 0.353,-0.188C0.358,-0.219 0.361,-0.251 0.361,-0.283C0.361,-0.302 0.36,-0.32 0.358,-0.338C0.356,-0.356 0.353,-0.372 0.348,-0.385C0.344,-0.399 0.339,-0.41 0.332,-0.418C0.326,-0.426 0.318,-0.43 0.31,-0.43C0.3,-0.43 0.292,-0.424 0.285,-0.413C0.278,-0.402 0.273,-0.389 0.269,-0.374C0.264,-0.359 0.261,-0.344 0.259,-0.33C0.257,-0.316 0.256,-0.306 0.255,-0.298C0.256,-0.299 0.256,-0.239 0.256,-0.12C0.257,-0.11 0.26,-0.101 0.264,-0.092C0.269,-0.083 0.275,-0.079 0.284,-0.079Z" style="fill:rgb(17,98,113);fill-rule:nonzero;"/>
                </g>
                <g transform="matrix(183.333,0,0,183.333,1966.15,9706.33)">
                    <path d="M0.253,-0.032C0.258,-0.032 0.263,-0.034 0.267,-0.038C0.271,-0.042 0.275,-0.048 0.28,-0.055C0.284,-0.062 0.287,-0.07 0.291,-0.08C0.294,-0.09 0.297,-0.101 0.3,-0.114C0.303,-0.126 0.306,-0.139 0.308,-0.153C0.311,-0.166 0.313,-0.181 0.315,-0.196C0.316,-0.21 0.318,-0.226 0.319,-0.241C0.321,-0.256 0.322,-0.272 0.322,-0.287C0.323,-0.303 0.323,-0.318 0.323,-0.333C0.323,-0.363 0.322,-0.39 0.319,-0.414C0.317,-0.438 0.313,-0.458 0.307,-0.473C0.301,-0.488 0.294,-0.495 0.285,-0.495C0.276,-0.495 0.268,-0.489 0.261,-0.477C0.253,-0.465 0.247,-0.448 0.241,-0.428C0.235,-0.407 0.23,-0.384 0.226,-0.358C0.222,-0.332 0.219,-0.305 0.217,-0.277C0.214,-0.249 0.213,-0.222 0.213,-0.195C0.213,-0.173 0.214,-0.152 0.216,-0.132C0.217,-0.112 0.22,-0.095 0.223,-0.08C0.226,-0.065 0.231,-0.053 0.236,-0.045C0.241,-0.036 0.247,-0.032 0.253,-0.032ZM0.29,-0.539C0.332,-0.539 0.369,-0.532 0.4,-0.518C0.431,-0.504 0.457,-0.485 0.478,-0.462C0.498,-0.438 0.513,-0.412 0.523,-0.382C0.534,-0.352 0.539,-0.321 0.539,-0.289C0.539,-0.252 0.532,-0.217 0.52,-0.181C0.507,-0.145 0.489,-0.113 0.464,-0.084C0.44,-0.055 0.41,-0.032 0.374,-0.015C0.337,0.003 0.296,0.011 0.249,0.011C0.206,0.011 0.169,0.004 0.138,-0.009C0.107,-0.023 0.08,-0.042 0.06,-0.065C0.039,-0.088 0.024,-0.115 0.014,-0.145C0.004,-0.174 -0.001,-0.205 -0.001,-0.237C-0.001,-0.274 0.005,-0.31 0.018,-0.345C0.03,-0.381 0.049,-0.413 0.073,-0.442C0.098,-0.471 0.128,-0.495 0.165,-0.512C0.201,-0.53 0.243,-0.539 0.29,-0.539Z" style="fill:rgb(17,98,113);fill-rule:nonzero;"/>
                </g>
                <g transform="matrix(183.333,0,0,183.333,2064.8,9706.33)">
                    <path d="M0.29,-0.028C0.29,-0.023 0.288,-0.019 0.283,-0.015C0.279,-0.012 0.272,-0.009 0.264,-0.007C0.256,-0.005 0.247,-0.003 0.237,-0.002C0.227,-0.001 0.217,-0.001 0.205,-0.001C0.194,-0.001 0.183,-0 0.171,-0L0.137,-0C0.123,-0 0.109,-0.001 0.094,-0.001C0.08,-0.002 0.068,-0.003 0.056,-0.004C0.045,-0.006 0.036,-0.009 0.029,-0.012C0.022,-0.016 0.018,-0.021 0.018,-0.028C0.018,-0.035 0.019,-0.04 0.021,-0.043C0.023,-0.047 0.025,-0.05 0.028,-0.052C0.031,-0.055 0.034,-0.058 0.037,-0.062C0.04,-0.065 0.042,-0.07 0.044,-0.076C0.046,-0.082 0.047,-0.091 0.047,-0.102C0.047,-0.102 0.047,-0.203 0.047,-0.405C0.047,-0.436 0.046,-0.459 0.043,-0.475C0.04,-0.491 0.037,-0.502 0.033,-0.509C0.03,-0.516 0.026,-0.521 0.024,-0.525C0.021,-0.528 0.02,-0.534 0.02,-0.541C0.02,-0.55 0.026,-0.557 0.039,-0.563C0.051,-0.569 0.067,-0.576 0.087,-0.583C0.106,-0.591 0.126,-0.601 0.147,-0.613C0.168,-0.625 0.187,-0.641 0.205,-0.662C0.209,-0.668 0.214,-0.672 0.219,-0.675C0.224,-0.677 0.229,-0.679 0.233,-0.679C0.24,-0.679 0.247,-0.675 0.252,-0.668C0.257,-0.661 0.259,-0.653 0.259,-0.642L0.261,-0.102C0.261,-0.096 0.261,-0.09 0.262,-0.086C0.262,-0.081 0.263,-0.077 0.264,-0.074C0.266,-0.071 0.267,-0.068 0.268,-0.066C0.27,-0.063 0.271,-0.061 0.273,-0.059C0.275,-0.058 0.281,-0.051 0.282,-0.05C0.284,-0.048 0.285,-0.046 0.286,-0.044C0.288,-0.042 0.288,-0.04 0.289,-0.038C0.29,-0.035 0.29,-0.032 0.29,-0.028Z" style="fill:rgb(17,98,113);fill-rule:nonzero;"/>
                </g>
                <g transform="matrix(183.333,0,0,183.333,2120.84,9706.33)">
                    <path d="M0.286,-0.028C0.286,-0.023 0.283,-0.019 0.279,-0.015C0.275,-0.012 0.269,-0.009 0.261,-0.007C0.253,-0.005 0.245,-0.003 0.235,-0.002C0.225,-0.001 0.215,-0.001 0.204,-0.001C0.193,-0.001 0.182,-0 0.171,-0L0.138,-0C0.12,-0 0.102,-0.001 0.084,-0.002C0.067,-0.003 0.052,-0.005 0.041,-0.009C0.029,-0.013 0.023,-0.02 0.023,-0.028C0.023,-0.034 0.024,-0.038 0.025,-0.041C0.027,-0.044 0.028,-0.047 0.031,-0.05C0.033,-0.052 0.035,-0.054 0.037,-0.057C0.04,-0.059 0.042,-0.062 0.044,-0.066C0.046,-0.069 0.048,-0.074 0.049,-0.079C0.051,-0.085 0.051,-0.092 0.051,-0.102L0.052,-0.3C0.052,-0.33 0.05,-0.353 0.048,-0.369C0.045,-0.384 0.042,-0.395 0.038,-0.402C0.035,-0.409 0.032,-0.414 0.029,-0.418C0.026,-0.422 0.025,-0.427 0.025,-0.434C0.025,-0.444 0.031,-0.453 0.045,-0.461C0.058,-0.469 0.073,-0.477 0.091,-0.484C0.109,-0.491 0.126,-0.497 0.143,-0.502C0.159,-0.509 0.175,-0.514 0.19,-0.519C0.205,-0.524 0.217,-0.526 0.226,-0.526C0.234,-0.526 0.241,-0.524 0.247,-0.518C0.253,-0.513 0.256,-0.503 0.256,-0.49L0.257,-0.102C0.257,-0.096 0.258,-0.091 0.258,-0.087C0.259,-0.083 0.26,-0.079 0.26,-0.076C0.261,-0.073 0.262,-0.07 0.264,-0.068C0.265,-0.066 0.266,-0.064 0.268,-0.062C0.269,-0.06 0.27,-0.058 0.272,-0.057C0.273,-0.055 0.275,-0.054 0.276,-0.052C0.277,-0.051 0.278,-0.05 0.28,-0.048C0.281,-0.047 0.282,-0.045 0.283,-0.043C0.284,-0.041 0.284,-0.039 0.285,-0.037C0.285,-0.034 0.286,-0.032 0.286,-0.028ZM0.251,-0.654C0.251,-0.625 0.24,-0.599 0.217,-0.576C0.193,-0.553 0.166,-0.542 0.135,-0.542C0.111,-0.542 0.09,-0.55 0.072,-0.565C0.055,-0.58 0.046,-0.6 0.046,-0.624C0.046,-0.653 0.058,-0.679 0.082,-0.701C0.105,-0.723 0.133,-0.734 0.164,-0.734C0.188,-0.734 0.208,-0.727 0.226,-0.711C0.243,-0.696 0.251,-0.677 0.251,-0.654Z" style="fill:rgb(17,98,113);fill-rule:nonzero;"/>
                </g>
                <g transform="matrix(183.333,0,0,183.333,2174.28,9706.33)">
                    <path d="M0.496,-0.166C0.496,-0.136 0.49,-0.112 0.479,-0.092C0.468,-0.072 0.453,-0.056 0.435,-0.044C0.416,-0.032 0.396,-0.023 0.373,-0.016C0.351,-0.01 0.328,-0.006 0.304,-0.004C0.281,-0.002 0.259,-0 0.239,-0C0.196,-0 0.158,-0.005 0.125,-0.014C0.093,-0.024 0.067,-0.038 0.048,-0.056C0.03,-0.074 0.021,-0.097 0.021,-0.125C0.021,-0.14 0.025,-0.152 0.034,-0.162C0.044,-0.171 0.056,-0.179 0.071,-0.183C0.085,-0.188 0.101,-0.19 0.118,-0.19C0.138,-0.19 0.157,-0.188 0.176,-0.183C0.194,-0.179 0.21,-0.171 0.222,-0.16C0.234,-0.15 0.24,-0.135 0.24,-0.117C0.24,-0.106 0.238,-0.096 0.234,-0.087C0.231,-0.078 0.229,-0.069 0.229,-0.06C0.229,-0.055 0.23,-0.051 0.232,-0.048C0.234,-0.045 0.238,-0.044 0.244,-0.044C0.251,-0.044 0.258,-0.048 0.264,-0.057C0.269,-0.066 0.273,-0.076 0.276,-0.087C0.279,-0.098 0.281,-0.107 0.281,-0.114C0.281,-0.132 0.274,-0.147 0.262,-0.159C0.249,-0.171 0.233,-0.182 0.213,-0.191C0.193,-0.201 0.173,-0.21 0.151,-0.219C0.129,-0.229 0.108,-0.24 0.088,-0.252C0.068,-0.264 0.052,-0.279 0.04,-0.296C0.027,-0.314 0.021,-0.335 0.021,-0.361C0.021,-0.388 0.026,-0.411 0.037,-0.43C0.049,-0.449 0.063,-0.465 0.082,-0.478C0.101,-0.49 0.121,-0.5 0.144,-0.507C0.166,-0.514 0.189,-0.519 0.212,-0.522C0.235,-0.525 0.257,-0.526 0.277,-0.526C0.321,-0.526 0.359,-0.522 0.391,-0.512C0.424,-0.503 0.45,-0.489 0.468,-0.471C0.487,-0.453 0.496,-0.43 0.496,-0.402C0.496,-0.387 0.491,-0.375 0.482,-0.365C0.473,-0.355 0.461,-0.348 0.446,-0.344C0.431,-0.339 0.415,-0.337 0.398,-0.337C0.379,-0.337 0.359,-0.339 0.341,-0.344C0.322,-0.348 0.307,-0.356 0.295,-0.367C0.283,-0.377 0.277,-0.392 0.277,-0.41C0.277,-0.421 0.279,-0.43 0.282,-0.44C0.286,-0.449 0.288,-0.458 0.288,-0.467C0.288,-0.472 0.287,-0.476 0.284,-0.479C0.282,-0.481 0.278,-0.483 0.273,-0.483C0.265,-0.483 0.258,-0.478 0.252,-0.468C0.247,-0.458 0.242,-0.448 0.239,-0.436C0.236,-0.424 0.235,-0.414 0.235,-0.407C0.235,-0.39 0.241,-0.376 0.254,-0.364C0.267,-0.352 0.283,-0.342 0.302,-0.333C0.322,-0.324 0.343,-0.315 0.365,-0.306C0.388,-0.297 0.409,-0.287 0.428,-0.275C0.448,-0.263 0.464,-0.248 0.477,-0.231C0.49,-0.213 0.496,-0.192 0.496,-0.166Z" style="fill:rgb(17,98,113);fill-rule:nonzero;"/>
                </g>
                <g transform="matrix(183.333,0,0,183.333,2268.1,9706.33)">
                    <path d="M0.109,-0C0.085,-0 0.066,-0.008 0.049,-0.022C0.033,-0.037 0.024,-0.056 0.024,-0.078C0.024,-0.106 0.036,-0.131 0.058,-0.153C0.081,-0.174 0.107,-0.185 0.136,-0.185C0.161,-0.185 0.18,-0.18 0.192,-0.169C0.204,-0.158 0.213,-0.144 0.217,-0.127C0.221,-0.111 0.224,-0.093 0.224,-0.074C0.224,-0.026 0.213,0.016 0.191,0.052C0.17,0.088 0.137,0.117 0.094,0.139C0.09,0.14 0.087,0.141 0.084,0.141C0.078,0.141 0.073,0.139 0.068,0.134C0.064,0.129 0.062,0.124 0.062,0.118C0.062,0.111 0.066,0.104 0.074,0.099C0.127,0.074 0.16,0.034 0.174,-0.021C0.155,-0.007 0.133,-0 0.109,-0Z" style="fill:rgb(17,98,113);fill-rule:nonzero;"/>
                </g>
                <g transform="matrix(183.333,0,0,183.333,2359.05,9706.33)">
                    <path d="M0.267,-0.286L0.267,-0.102C0.267,-0.096 0.267,-0.09 0.268,-0.086C0.268,-0.081 0.269,-0.077 0.27,-0.074C0.271,-0.071 0.273,-0.068 0.274,-0.066C0.276,-0.063 0.277,-0.061 0.279,-0.059C0.28,-0.058 0.287,-0.051 0.288,-0.05C0.29,-0.048 0.291,-0.046 0.292,-0.044C0.293,-0.042 0.294,-0.04 0.295,-0.038C0.296,-0.035 0.296,-0.032 0.296,-0.028C0.296,-0.023 0.294,-0.019 0.289,-0.015C0.285,-0.012 0.278,-0.009 0.27,-0.007C0.262,-0.005 0.253,-0.003 0.243,-0.002C0.233,-0.001 0.222,-0.001 0.211,-0.001C0.2,-0.001 0.189,-0 0.177,-0L0.143,-0C0.129,-0 0.115,-0.001 0.1,-0.001C0.086,-0.002 0.073,-0.003 0.062,-0.004C0.051,-0.006 0.041,-0.009 0.034,-0.012C0.027,-0.016 0.024,-0.021 0.024,-0.028C0.024,-0.035 0.025,-0.04 0.027,-0.043C0.029,-0.047 0.031,-0.05 0.034,-0.052C0.037,-0.055 0.04,-0.058 0.043,-0.062C0.045,-0.065 0.048,-0.07 0.05,-0.076C0.052,-0.082 0.053,-0.091 0.053,-0.102L0.053,-0.578C0.053,-0.588 0.052,-0.597 0.05,-0.603C0.048,-0.609 0.046,-0.614 0.043,-0.617C0.04,-0.621 0.038,-0.624 0.035,-0.626C0.032,-0.629 0.03,-0.632 0.028,-0.636C0.026,-0.639 0.025,-0.644 0.025,-0.65C0.025,-0.66 0.031,-0.667 0.043,-0.67C0.055,-0.674 0.069,-0.677 0.084,-0.677C0.099,-0.678 0.111,-0.679 0.12,-0.679L0.331,-0.679C0.373,-0.679 0.41,-0.673 0.442,-0.662C0.474,-0.651 0.501,-0.636 0.522,-0.617C0.544,-0.599 0.559,-0.578 0.57,-0.554C0.581,-0.531 0.586,-0.507 0.586,-0.482C0.586,-0.458 0.581,-0.434 0.57,-0.411C0.559,-0.387 0.544,-0.366 0.522,-0.347C0.501,-0.329 0.474,-0.314 0.442,-0.303C0.41,-0.292 0.373,-0.286 0.331,-0.286L0.267,-0.286ZM0.287,-0.634C0.273,-0.634 0.266,-0.615 0.267,-0.578L0.267,-0.331L0.28,-0.331C0.301,-0.331 0.318,-0.338 0.332,-0.354C0.346,-0.369 0.356,-0.389 0.363,-0.413C0.37,-0.437 0.374,-0.462 0.374,-0.487C0.374,-0.512 0.37,-0.536 0.364,-0.558C0.358,-0.581 0.348,-0.599 0.335,-0.613C0.322,-0.627 0.306,-0.634 0.287,-0.634Z" style="fill:rgb(17,98,113);fill-rule:nonzero;"/>
                </g>
                <g transform="matrix(183.333,0,0,183.333,2465.48,9706.33)">
                    <path d="M0.298,-0.075C0.285,-0.052 0.269,-0.034 0.249,-0.019C0.23,-0.004 0.207,0.003 0.18,0.003C0.142,0.003 0.11,-0.004 0.086,-0.018C0.061,-0.031 0.043,-0.049 0.031,-0.072C0.019,-0.094 0.013,-0.118 0.013,-0.143C0.013,-0.165 0.017,-0.187 0.026,-0.209C0.035,-0.231 0.048,-0.251 0.065,-0.269C0.083,-0.287 0.104,-0.301 0.129,-0.312C0.154,-0.323 0.183,-0.329 0.216,-0.329C0.248,-0.329 0.276,-0.319 0.301,-0.3C0.301,-0.328 0.301,-0.341 0.301,-0.341C0.301,-0.351 0.301,-0.364 0.299,-0.379C0.298,-0.395 0.295,-0.411 0.292,-0.427C0.288,-0.442 0.283,-0.456 0.276,-0.467C0.269,-0.477 0.259,-0.483 0.248,-0.483C0.243,-0.483 0.239,-0.481 0.237,-0.479C0.235,-0.476 0.233,-0.472 0.233,-0.467C0.233,-0.458 0.235,-0.449 0.239,-0.44C0.242,-0.43 0.244,-0.421 0.244,-0.41C0.244,-0.392 0.238,-0.377 0.226,-0.367C0.214,-0.356 0.199,-0.348 0.18,-0.344C0.162,-0.339 0.142,-0.337 0.123,-0.337C0.106,-0.337 0.09,-0.339 0.075,-0.344C0.06,-0.348 0.048,-0.355 0.039,-0.365C0.03,-0.375 0.025,-0.387 0.025,-0.402C0.025,-0.43 0.034,-0.453 0.053,-0.471C0.071,-0.489 0.097,-0.503 0.13,-0.512C0.163,-0.522 0.201,-0.526 0.244,-0.526C0.3,-0.526 0.349,-0.518 0.389,-0.502C0.43,-0.486 0.46,-0.462 0.482,-0.428C0.503,-0.394 0.514,-0.351 0.514,-0.297C0.514,-0.192 0.514,-0.148 0.513,-0.164C0.513,-0.181 0.513,-0.16 0.513,-0.101C0.513,-0.063 0.516,-0.032 0.524,-0.006C0.531,0.019 0.541,0.04 0.553,0.056C0.565,0.071 0.579,0.083 0.594,0.089C0.609,0.096 0.625,0.1 0.64,0.1C0.669,0.1 0.694,0.091 0.717,0.073C0.74,0.055 0.751,0.034 0.751,0.01C0.751,-0.007 0.746,-0.02 0.735,-0.031C0.725,-0.042 0.711,-0.051 0.696,-0.059C0.68,-0.067 0.665,-0.075 0.649,-0.084C0.633,-0.092 0.62,-0.103 0.609,-0.115C0.599,-0.127 0.593,-0.143 0.593,-0.163C0.593,-0.182 0.598,-0.201 0.607,-0.219C0.616,-0.238 0.629,-0.253 0.645,-0.265C0.66,-0.277 0.679,-0.283 0.699,-0.283C0.726,-0.283 0.749,-0.276 0.769,-0.263C0.79,-0.25 0.806,-0.23 0.817,-0.205C0.829,-0.179 0.834,-0.147 0.834,-0.11C0.834,-0.062 0.827,-0.02 0.812,0.015C0.796,0.05 0.776,0.079 0.75,0.102C0.724,0.125 0.695,0.142 0.663,0.154C0.631,0.165 0.598,0.17 0.564,0.17C0.531,0.17 0.498,0.165 0.467,0.155C0.435,0.144 0.406,0.128 0.381,0.108C0.355,0.087 0.335,0.062 0.32,0.032C0.305,0.001 0.298,-0.033 0.298,-0.072L0.298,-0.075ZM0.3,-0.237C0.294,-0.246 0.287,-0.25 0.281,-0.25C0.27,-0.25 0.26,-0.243 0.25,-0.23C0.241,-0.217 0.234,-0.202 0.229,-0.184C0.223,-0.166 0.221,-0.149 0.221,-0.133C0.221,-0.122 0.222,-0.113 0.226,-0.105C0.229,-0.098 0.235,-0.094 0.242,-0.094C0.256,-0.094 0.267,-0.102 0.275,-0.117C0.283,-0.132 0.289,-0.151 0.293,-0.173C0.297,-0.195 0.299,-0.216 0.3,-0.237Z" style="fill:rgb(17,98,113);fill-rule:nonzero;"/>
                </g>
            </g>
        </g>
    </g>
</svg>
