<?xml version="1.0" encoding="UTF-8" standalone="no"?>
<!DOCTYPE svg PUBLIC "-//W3C//DTD SVG 1.1//EN" "http://www.w3.org/Graphics/SVG/1.1/DTD/svg11.dtd">
<svg width="100%" height="100%" viewBox="0 0 5772 709" version="1.1" xmlns="http://www.w3.org/2000/svg" xmlns:xlink="http://www.w3.org/1999/xlink" xml:space="preserve" xmlns:serif="http://www.serif.com/" style="fill-rule:evenodd;clip-rule:evenodd;stroke-linejoin:round;stroke-miterlimit:2;">
    <g transform="matrix(4.16667,0,0,4.16667,-8231.02,-14452.1)">
        <g transform="matrix(1.26268,3.09267e-16,-3.09267e-16,1.26268,-3287.78,-6292.06)">
            <g transform="matrix(0.109289,-2.67682e-17,2.67682e-17,0.109289,4137.75,6770.13)">
                <g transform="matrix(1328.53,0,0,1328.53,313.98,9685)">
                    <path d="M0.31,-0.679C0.316,-0.679 0.323,-0.677 0.329,-0.673C0.336,-0.67 0.341,-0.663 0.345,-0.654L0.581,-0.102C0.585,-0.091 0.589,-0.083 0.594,-0.077C0.598,-0.071 0.601,-0.066 0.605,-0.063C0.609,-0.059 0.612,-0.056 0.614,-0.054C0.617,-0.052 0.619,-0.049 0.62,-0.046C0.622,-0.043 0.623,-0.039 0.623,-0.033C0.623,-0.025 0.621,-0.019 0.616,-0.014C0.612,-0.01 0.606,-0.006 0.596,-0.004C0.587,-0.002 0.574,-0.001 0.558,-0.001C0.542,-0.001 0.521,-0 0.497,-0C0.473,-0 0.451,-0.001 0.431,-0.001C0.411,-0.001 0.394,-0.003 0.379,-0.005C0.365,-0.007 0.353,-0.01 0.345,-0.015C0.337,-0.019 0.333,-0.026 0.333,-0.034C0.333,-0.041 0.335,-0.047 0.339,-0.051C0.343,-0.054 0.347,-0.058 0.351,-0.062C0.355,-0.065 0.357,-0.071 0.357,-0.078C0.357,-0.084 0.355,-0.092 0.352,-0.102L0.325,-0.166L0.115,-0.166L0.08,-0.082C0.079,-0.08 0.078,-0.079 0.078,-0.077C0.077,-0.076 0.077,-0.075 0.077,-0.073C0.077,-0.072 0.077,-0.071 0.077,-0.069C0.077,-0.063 0.079,-0.059 0.083,-0.056C0.087,-0.052 0.092,-0.05 0.097,-0.048C0.102,-0.045 0.107,-0.043 0.111,-0.04C0.116,-0.038 0.118,-0.034 0.118,-0.028C0.118,-0.023 0.117,-0.019 0.115,-0.015C0.112,-0.012 0.108,-0.009 0.103,-0.007C0.097,-0.004 0.089,-0.003 0.078,-0.002C0.067,-0.001 0.053,-0 0.036,-0C0.026,-0 0.018,-0.001 0.011,-0.001C0.004,-0.002 -0.001,-0.002 -0.006,-0.003C-0.01,-0.004 -0.014,-0.005 -0.017,-0.007C-0.02,-0.008 -0.022,-0.01 -0.023,-0.012C-0.024,-0.014 -0.025,-0.016 -0.025,-0.019C-0.026,-0.022 -0.026,-0.025 -0.026,-0.028C-0.026,-0.034 -0.024,-0.039 -0.02,-0.041C-0.015,-0.044 -0.01,-0.046 -0.003,-0.048C0.003,-0.05 0.01,-0.053 0.016,-0.058C0.023,-0.063 0.029,-0.072 0.034,-0.083C0.113,-0.273 0.193,-0.464 0.273,-0.654C0.277,-0.663 0.283,-0.669 0.289,-0.673C0.296,-0.677 0.303,-0.679 0.31,-0.679ZM0.307,-0.21L0.222,-0.417L0.134,-0.21L0.307,-0.21Z" style="fill:rgb(9,154,155);fill-rule:nonzero;"/>
                </g>
                <g transform="matrix(1328.53,0,0,1328.53,1088.52,9685)">
                    <path d="M0.586,-0.028C0.586,-0.022 0.583,-0.017 0.577,-0.013C0.57,-0.009 0.561,-0.006 0.551,-0.004C0.54,-0.002 0.527,-0.001 0.514,-0.001C0.5,-0 0.487,-0 0.473,-0L0.446,-0C0.428,-0 0.411,-0.003 0.396,-0.009C0.381,-0.015 0.369,-0.024 0.36,-0.037C0.351,-0.05 0.346,-0.068 0.344,-0.089C0.328,-0.058 0.308,-0.035 0.285,-0.021C0.262,-0.007 0.238,-0 0.213,-0C0.177,-0 0.147,-0.007 0.123,-0.02C0.098,-0.032 0.079,-0.049 0.065,-0.069C0.051,-0.09 0.041,-0.112 0.035,-0.137C0.029,-0.161 0.026,-0.185 0.026,-0.209L0.026,-0.293C0.026,-0.324 0.024,-0.348 0.022,-0.363C0.019,-0.379 0.016,-0.39 0.012,-0.397C0.008,-0.404 0.005,-0.41 0.002,-0.413C-0.001,-0.417 -0.002,-0.422 -0.002,-0.429C-0.002,-0.439 0.005,-0.447 0.019,-0.453C0.033,-0.459 0.051,-0.464 0.072,-0.469C0.093,-0.475 0.113,-0.48 0.134,-0.487C0.155,-0.494 0.172,-0.502 0.187,-0.513C0.192,-0.518 0.198,-0.521 0.203,-0.523C0.208,-0.525 0.212,-0.526 0.216,-0.526C0.223,-0.526 0.229,-0.523 0.232,-0.516C0.236,-0.51 0.238,-0.501 0.238,-0.491L0.238,-0.201C0.238,-0.193 0.238,-0.183 0.239,-0.171C0.24,-0.16 0.242,-0.148 0.245,-0.137C0.248,-0.126 0.253,-0.116 0.26,-0.109C0.267,-0.101 0.277,-0.097 0.29,-0.097C0.3,-0.097 0.309,-0.105 0.317,-0.12C0.326,-0.135 0.332,-0.152 0.337,-0.172C0.342,-0.192 0.344,-0.211 0.345,-0.228L0.345,-0.306C0.345,-0.328 0.344,-0.346 0.342,-0.359C0.34,-0.372 0.338,-0.382 0.335,-0.389C0.333,-0.396 0.33,-0.402 0.327,-0.406C0.325,-0.41 0.322,-0.413 0.32,-0.416C0.318,-0.419 0.317,-0.424 0.317,-0.429C0.317,-0.439 0.324,-0.447 0.339,-0.453C0.353,-0.459 0.37,-0.464 0.391,-0.469C0.412,-0.475 0.433,-0.48 0.453,-0.487C0.474,-0.494 0.492,-0.502 0.506,-0.513C0.512,-0.518 0.517,-0.521 0.522,-0.523C0.527,-0.525 0.531,-0.526 0.535,-0.526C0.543,-0.526 0.548,-0.523 0.552,-0.516C0.555,-0.51 0.557,-0.501 0.557,-0.491L0.558,-0.102C0.558,-0.094 0.558,-0.087 0.559,-0.082C0.56,-0.077 0.561,-0.073 0.563,-0.069C0.565,-0.066 0.567,-0.063 0.569,-0.06C0.571,-0.058 0.579,-0.05 0.581,-0.048C0.583,-0.045 0.584,-0.043 0.585,-0.04C0.586,-0.037 0.586,-0.033 0.586,-0.028Z" style="fill:rgb(9,154,155);fill-rule:nonzero;"/>
                </g>
                <g transform="matrix(1328.53,0,0,1328.53,1884.47,9685)">
                    <path d="M0.287,-0.194C0.293,-0.194 0.3,-0.197 0.306,-0.203C0.312,-0.209 0.317,-0.218 0.322,-0.228C0.327,-0.239 0.332,-0.251 0.336,-0.265C0.34,-0.279 0.343,-0.294 0.346,-0.31C0.348,-0.325 0.35,-0.341 0.352,-0.357C0.353,-0.374 0.354,-0.389 0.354,-0.405C0.354,-0.416 0.354,-0.427 0.353,-0.437C0.352,-0.447 0.351,-0.456 0.349,-0.465C0.347,-0.473 0.345,-0.481 0.342,-0.487C0.34,-0.493 0.337,-0.498 0.333,-0.501C0.329,-0.505 0.325,-0.506 0.321,-0.506C0.307,-0.506 0.295,-0.495 0.285,-0.473C0.275,-0.45 0.267,-0.423 0.261,-0.39C0.255,-0.358 0.252,-0.326 0.252,-0.296C0.252,-0.268 0.255,-0.244 0.26,-0.224C0.266,-0.204 0.275,-0.194 0.287,-0.194ZM0.38,-0.546C0.399,-0.59 0.42,-0.621 0.441,-0.641C0.463,-0.661 0.485,-0.67 0.508,-0.67C0.525,-0.67 0.541,-0.666 0.555,-0.657C0.569,-0.648 0.576,-0.636 0.576,-0.619C0.576,-0.603 0.57,-0.589 0.56,-0.575C0.55,-0.561 0.538,-0.554 0.525,-0.554C0.52,-0.554 0.515,-0.556 0.51,-0.558C0.505,-0.561 0.499,-0.563 0.493,-0.566C0.487,-0.569 0.479,-0.57 0.469,-0.57C0.459,-0.57 0.45,-0.567 0.441,-0.563C0.433,-0.558 0.425,-0.55 0.418,-0.54C0.469,-0.527 0.507,-0.504 0.531,-0.473C0.555,-0.441 0.567,-0.405 0.567,-0.363C0.567,-0.324 0.556,-0.288 0.534,-0.256C0.511,-0.224 0.479,-0.198 0.436,-0.179C0.393,-0.16 0.342,-0.151 0.281,-0.151C0.229,-0.151 0.187,-0.158 0.152,-0.172C0.138,-0.166 0.126,-0.158 0.117,-0.149C0.109,-0.139 0.104,-0.13 0.104,-0.122C0.104,-0.114 0.108,-0.109 0.114,-0.104C0.12,-0.099 0.13,-0.097 0.143,-0.097C0.172,-0.097 0.212,-0.1 0.263,-0.106C0.314,-0.113 0.355,-0.116 0.388,-0.116C0.431,-0.116 0.467,-0.108 0.496,-0.093C0.524,-0.077 0.545,-0.058 0.559,-0.033C0.573,-0.009 0.58,0.017 0.58,0.044C0.58,0.068 0.575,0.092 0.565,0.115C0.555,0.138 0.54,0.159 0.52,0.178C0.501,0.197 0.476,0.212 0.447,0.224C0.418,0.235 0.384,0.241 0.346,0.241C0.291,0.241 0.248,0.23 0.217,0.209C0.186,0.188 0.171,0.16 0.171,0.125C0.171,0.112 0.175,0.101 0.184,0.093C0.192,0.084 0.203,0.078 0.216,0.074C0.229,0.07 0.243,0.068 0.258,0.068C0.281,0.068 0.299,0.071 0.313,0.077C0.327,0.084 0.338,0.092 0.344,0.102C0.35,0.112 0.354,0.123 0.354,0.134C0.354,0.141 0.352,0.147 0.35,0.152C0.348,0.158 0.346,0.162 0.344,0.167C0.342,0.171 0.341,0.176 0.341,0.18C0.341,0.184 0.343,0.188 0.346,0.192C0.35,0.196 0.356,0.198 0.365,0.198C0.379,0.198 0.391,0.19 0.402,0.173C0.412,0.157 0.417,0.139 0.417,0.119C0.417,0.104 0.414,0.09 0.407,0.077C0.4,0.063 0.388,0.052 0.372,0.043C0.356,0.035 0.334,0.03 0.306,0.03C0.283,0.03 0.251,0.034 0.209,0.043C0.167,0.051 0.142,0.055 0.132,0.055C0.107,0.055 0.086,0.05 0.069,0.039C0.052,0.029 0.039,0.015 0.031,-0.003C0.023,-0.02 0.019,-0.039 0.019,-0.059C0.019,-0.085 0.026,-0.11 0.04,-0.136C0.054,-0.162 0.075,-0.182 0.104,-0.198C0.082,-0.215 0.066,-0.235 0.056,-0.258C0.045,-0.281 0.04,-0.306 0.04,-0.334C0.04,-0.372 0.051,-0.408 0.073,-0.441C0.095,-0.473 0.127,-0.5 0.17,-0.52C0.212,-0.54 0.264,-0.55 0.325,-0.55C0.345,-0.55 0.363,-0.549 0.38,-0.546Z" style="fill:rgb(9,154,155);fill-rule:nonzero;"/>
                </g>
                <g transform="matrix(1328.53,0,0,1328.53,2675.88,9685)">
                    <path d="M0.832,0.085C0.847,0.085 0.859,0.083 0.868,0.078C0.877,0.073 0.885,0.067 0.893,0.061C0.901,0.054 0.91,0.049 0.92,0.044C0.93,0.039 0.942,0.037 0.958,0.037C0.982,0.037 1.002,0.042 1.019,0.052C1.036,0.063 1.049,0.076 1.058,0.093C1.067,0.109 1.071,0.126 1.071,0.144C1.071,0.162 1.066,0.178 1.057,0.194C1.047,0.21 1.032,0.223 1.012,0.234C0.992,0.244 0.966,0.249 0.934,0.249C0.903,0.249 0.875,0.243 0.85,0.231C0.825,0.219 0.801,0.203 0.778,0.184C0.755,0.166 0.733,0.146 0.71,0.124C0.687,0.103 0.663,0.083 0.637,0.064C0.611,0.045 0.583,0.03 0.552,0.018C0.521,0.006 0.486,-0 0.446,-0C0.428,-0 0.412,-0.003 0.397,-0.009C0.382,-0.015 0.37,-0.024 0.361,-0.037C0.352,-0.05 0.346,-0.068 0.345,-0.089C0.328,-0.058 0.308,-0.035 0.285,-0.021C0.262,-0.007 0.238,-0 0.213,-0C0.177,-0 0.147,-0.007 0.123,-0.02C0.099,-0.032 0.08,-0.049 0.066,-0.069C0.052,-0.09 0.041,-0.112 0.035,-0.137C0.029,-0.161 0.026,-0.185 0.026,-0.209C0.026,-0.24 0.026,-0.255 0.027,-0.253C0.027,-0.252 0.027,-0.265 0.027,-0.293C0.027,-0.324 0.025,-0.348 0.022,-0.363C0.02,-0.379 0.016,-0.39 0.013,-0.397C0.009,-0.404 0.006,-0.41 0.003,-0.413C0,-0.417 -0.001,-0.422 -0.001,-0.429C-0.001,-0.439 0.006,-0.447 0.02,-0.453C0.034,-0.459 0.051,-0.464 0.072,-0.469C0.093,-0.475 0.114,-0.48 0.135,-0.487C0.156,-0.494 0.173,-0.502 0.188,-0.513C0.199,-0.522 0.208,-0.526 0.216,-0.526C0.224,-0.526 0.229,-0.523 0.233,-0.516C0.236,-0.51 0.238,-0.501 0.238,-0.491L0.239,-0.201C0.239,-0.193 0.239,-0.183 0.24,-0.171C0.241,-0.16 0.243,-0.148 0.246,-0.137C0.249,-0.126 0.254,-0.116 0.261,-0.109C0.268,-0.101 0.278,-0.097 0.291,-0.097C0.301,-0.097 0.31,-0.105 0.318,-0.12C0.326,-0.135 0.333,-0.152 0.338,-0.173C0.343,-0.193 0.345,-0.211 0.345,-0.228C0.346,-0.231 0.346,-0.257 0.346,-0.306C0.346,-0.328 0.345,-0.346 0.343,-0.359C0.341,-0.372 0.339,-0.382 0.336,-0.389C0.333,-0.396 0.331,-0.402 0.328,-0.406C0.325,-0.41 0.323,-0.413 0.321,-0.416C0.319,-0.419 0.318,-0.424 0.318,-0.429C0.318,-0.439 0.325,-0.447 0.339,-0.453C0.353,-0.459 0.371,-0.464 0.392,-0.469C0.412,-0.475 0.433,-0.48 0.454,-0.487C0.475,-0.494 0.493,-0.502 0.507,-0.513C0.518,-0.522 0.528,-0.526 0.536,-0.526C0.543,-0.526 0.549,-0.523 0.552,-0.516C0.556,-0.51 0.558,-0.501 0.558,-0.491C0.558,-0.491 0.558,-0.361 0.558,-0.102C0.56,-0.072 0.578,-0.042 0.612,-0.014C0.646,0.014 0.684,0.038 0.728,0.057C0.771,0.076 0.806,0.085 0.832,0.085Z" style="fill:rgb(9,154,155);fill-rule:nonzero;"/>
                </g>
                <g transform="matrix(1328.53,0,0,1328.53,3460.8,9685)">
                    <path d="M0.496,-0.166C0.496,-0.136 0.49,-0.112 0.479,-0.092C0.468,-0.072 0.453,-0.056 0.435,-0.044C0.416,-0.032 0.396,-0.023 0.373,-0.016C0.351,-0.01 0.328,-0.006 0.304,-0.004C0.281,-0.002 0.259,-0 0.239,-0C0.196,-0 0.158,-0.005 0.125,-0.014C0.093,-0.024 0.067,-0.038 0.048,-0.056C0.03,-0.074 0.021,-0.097 0.021,-0.125C0.021,-0.14 0.025,-0.152 0.034,-0.162C0.044,-0.171 0.056,-0.179 0.071,-0.183C0.085,-0.188 0.101,-0.19 0.118,-0.19C0.138,-0.19 0.157,-0.188 0.176,-0.183C0.194,-0.179 0.21,-0.171 0.222,-0.16C0.234,-0.15 0.24,-0.135 0.24,-0.117C0.24,-0.106 0.238,-0.096 0.234,-0.087C0.231,-0.078 0.229,-0.069 0.229,-0.06C0.229,-0.055 0.23,-0.051 0.232,-0.048C0.234,-0.045 0.238,-0.044 0.244,-0.044C0.251,-0.044 0.258,-0.048 0.264,-0.057C0.269,-0.066 0.273,-0.076 0.276,-0.087C0.279,-0.098 0.281,-0.107 0.281,-0.114C0.281,-0.132 0.274,-0.147 0.262,-0.159C0.249,-0.171 0.233,-0.182 0.213,-0.191C0.193,-0.201 0.173,-0.21 0.151,-0.219C0.129,-0.229 0.108,-0.24 0.088,-0.252C0.068,-0.264 0.052,-0.279 0.04,-0.296C0.027,-0.314 0.021,-0.335 0.021,-0.361C0.021,-0.388 0.026,-0.411 0.037,-0.43C0.049,-0.449 0.063,-0.465 0.082,-0.478C0.101,-0.49 0.121,-0.5 0.144,-0.507C0.166,-0.514 0.189,-0.519 0.212,-0.522C0.235,-0.525 0.257,-0.526 0.277,-0.526C0.321,-0.526 0.359,-0.522 0.391,-0.512C0.424,-0.503 0.45,-0.489 0.468,-0.471C0.487,-0.453 0.496,-0.43 0.496,-0.402C0.496,-0.387 0.491,-0.375 0.482,-0.365C0.473,-0.355 0.461,-0.348 0.446,-0.344C0.431,-0.339 0.415,-0.337 0.398,-0.337C0.379,-0.337 0.359,-0.339 0.341,-0.344C0.322,-0.348 0.307,-0.356 0.295,-0.367C0.283,-0.377 0.277,-0.392 0.277,-0.41C0.277,-0.421 0.279,-0.43 0.282,-0.44C0.286,-0.449 0.288,-0.458 0.288,-0.467C0.288,-0.472 0.287,-0.476 0.284,-0.479C0.282,-0.481 0.278,-0.483 0.273,-0.483C0.265,-0.483 0.258,-0.478 0.252,-0.468C0.247,-0.458 0.242,-0.448 0.239,-0.436C0.236,-0.424 0.235,-0.414 0.235,-0.407C0.235,-0.39 0.241,-0.376 0.254,-0.364C0.267,-0.352 0.283,-0.342 0.302,-0.333C0.322,-0.324 0.343,-0.315 0.365,-0.306C0.388,-0.297 0.409,-0.287 0.428,-0.275C0.448,-0.263 0.464,-0.248 0.477,-0.231C0.49,-0.213 0.496,-0.192 0.496,-0.166Z" style="fill:rgb(9,154,155);fill-rule:nonzero;"/>
                </g>
                <g transform="matrix(1328.53,0,0,1328.53,4131.55,9685)">
                    <path d="M0.009,-0.504C0.009,-0.511 0.01,-0.516 0.012,-0.52C0.014,-0.524 0.018,-0.526 0.024,-0.526C0.038,-0.526 0.053,-0.532 0.07,-0.542C0.088,-0.552 0.105,-0.565 0.122,-0.58C0.14,-0.595 0.156,-0.61 0.17,-0.625C0.184,-0.64 0.195,-0.652 0.204,-0.662C0.214,-0.673 0.223,-0.679 0.232,-0.679C0.239,-0.679 0.246,-0.675 0.251,-0.668C0.256,-0.661 0.258,-0.653 0.258,-0.642L0.259,-0.526L0.328,-0.526C0.334,-0.526 0.338,-0.524 0.341,-0.52C0.344,-0.516 0.345,-0.511 0.345,-0.504C0.345,-0.498 0.344,-0.493 0.341,-0.489C0.338,-0.485 0.334,-0.482 0.328,-0.482L0.259,-0.482L0.26,-0.167C0.26,-0.155 0.26,-0.143 0.261,-0.131C0.262,-0.118 0.264,-0.108 0.269,-0.1C0.273,-0.092 0.28,-0.087 0.291,-0.087C0.297,-0.087 0.302,-0.089 0.305,-0.091C0.309,-0.094 0.312,-0.096 0.316,-0.099C0.319,-0.101 0.323,-0.103 0.328,-0.103C0.333,-0.103 0.337,-0.101 0.34,-0.098C0.344,-0.095 0.345,-0.091 0.345,-0.086C0.345,-0.075 0.338,-0.062 0.324,-0.049C0.311,-0.035 0.293,-0.024 0.271,-0.015C0.25,-0.005 0.228,-0 0.205,-0C0.179,-0 0.154,-0.006 0.129,-0.017C0.105,-0.029 0.085,-0.047 0.07,-0.072C0.054,-0.097 0.046,-0.131 0.046,-0.172L0.046,-0.405C0.046,-0.437 0.045,-0.457 0.041,-0.467C0.038,-0.477 0.032,-0.482 0.024,-0.482C0.018,-0.482 0.014,-0.485 0.012,-0.489C0.01,-0.493 0.009,-0.498 0.009,-0.504Z" style="fill:rgb(9,154,155);fill-rule:nonzero;"/>
                </g>
                <g transform="matrix(1328.53,0,0,1328.53,4921.01,9685)">
                    <path d="M0.342,-0.489C0.342,-0.514 0.338,-0.538 0.33,-0.56C0.321,-0.583 0.31,-0.601 0.297,-0.615C0.283,-0.628 0.267,-0.635 0.25,-0.635C0.237,-0.635 0.229,-0.628 0.224,-0.613C0.22,-0.598 0.217,-0.58 0.217,-0.559C0.217,-0.534 0.218,-0.516 0.219,-0.503C0.221,-0.491 0.222,-0.481 0.224,-0.473C0.225,-0.466 0.226,-0.457 0.226,-0.446C0.226,-0.432 0.22,-0.421 0.21,-0.411C0.199,-0.402 0.186,-0.395 0.169,-0.39C0.153,-0.385 0.136,-0.383 0.119,-0.383C0.088,-0.383 0.064,-0.388 0.047,-0.399C0.03,-0.41 0.021,-0.426 0.021,-0.447C0.021,-0.477 0.026,-0.506 0.036,-0.534C0.046,-0.562 0.06,-0.587 0.079,-0.608C0.098,-0.63 0.122,-0.647 0.15,-0.66C0.178,-0.672 0.211,-0.679 0.248,-0.679C0.284,-0.679 0.32,-0.674 0.355,-0.664C0.39,-0.655 0.421,-0.64 0.449,-0.621C0.477,-0.602 0.499,-0.578 0.516,-0.55C0.533,-0.521 0.541,-0.488 0.541,-0.45C0.541,-0.419 0.534,-0.388 0.519,-0.357C0.505,-0.327 0.486,-0.297 0.463,-0.269C0.44,-0.24 0.416,-0.213 0.39,-0.188C0.351,-0.15 0.312,-0.111 0.272,-0.072C0.266,-0.065 0.263,-0.06 0.263,-0.055C0.263,-0.049 0.268,-0.046 0.28,-0.045L0.368,-0.045C0.377,-0.045 0.387,-0.05 0.396,-0.059C0.405,-0.069 0.415,-0.08 0.424,-0.094C0.433,-0.107 0.443,-0.121 0.452,-0.135C0.462,-0.148 0.472,-0.16 0.482,-0.169C0.492,-0.179 0.502,-0.184 0.513,-0.184C0.518,-0.184 0.524,-0.182 0.529,-0.18C0.534,-0.177 0.538,-0.172 0.541,-0.165C0.545,-0.157 0.546,-0.147 0.546,-0.133C0.546,-0.122 0.545,-0.107 0.542,-0.09C0.539,-0.065 0.535,-0.046 0.531,-0.033C0.526,-0.02 0.521,-0.011 0.514,-0.007C0.507,-0.003 0.498,-0 0.486,-0L0.074,-0C0.054,-0 0.037,-0.006 0.024,-0.018C0.011,-0.029 0.004,-0.043 0.004,-0.061C0.004,-0.071 0.007,-0.083 0.013,-0.095C0.019,-0.107 0.029,-0.119 0.042,-0.132L0.24,-0.316C0.256,-0.331 0.272,-0.348 0.288,-0.365C0.303,-0.382 0.316,-0.401 0.326,-0.422C0.337,-0.442 0.342,-0.464 0.342,-0.489Z" style="fill:rgb(9,154,155);fill-rule:nonzero;"/>
                </g>
                <g transform="matrix(1328.53,0,0,1328.53,5679.34,9685)">
                    <path d="M0.342,-0.489C0.342,-0.514 0.338,-0.538 0.33,-0.56C0.321,-0.583 0.31,-0.601 0.297,-0.615C0.283,-0.628 0.267,-0.635 0.25,-0.635C0.237,-0.635 0.229,-0.628 0.224,-0.613C0.22,-0.598 0.217,-0.58 0.217,-0.559C0.217,-0.534 0.218,-0.516 0.219,-0.503C0.221,-0.491 0.222,-0.481 0.224,-0.473C0.225,-0.466 0.226,-0.457 0.226,-0.446C0.226,-0.432 0.22,-0.421 0.21,-0.411C0.199,-0.402 0.186,-0.395 0.169,-0.39C0.153,-0.385 0.136,-0.383 0.119,-0.383C0.088,-0.383 0.064,-0.388 0.047,-0.399C0.03,-0.41 0.021,-0.426 0.021,-0.447C0.021,-0.477 0.026,-0.506 0.036,-0.534C0.046,-0.562 0.06,-0.587 0.079,-0.608C0.098,-0.63 0.122,-0.647 0.15,-0.66C0.178,-0.672 0.211,-0.679 0.248,-0.679C0.284,-0.679 0.32,-0.674 0.355,-0.664C0.39,-0.655 0.421,-0.64 0.449,-0.621C0.477,-0.602 0.499,-0.578 0.516,-0.55C0.533,-0.521 0.541,-0.488 0.541,-0.45C0.541,-0.419 0.534,-0.388 0.519,-0.357C0.505,-0.327 0.486,-0.297 0.463,-0.269C0.44,-0.24 0.416,-0.213 0.39,-0.188C0.351,-0.15 0.312,-0.111 0.272,-0.072C0.266,-0.065 0.263,-0.06 0.263,-0.055C0.263,-0.049 0.268,-0.046 0.28,-0.045L0.368,-0.045C0.377,-0.045 0.387,-0.05 0.396,-0.059C0.405,-0.069 0.415,-0.08 0.424,-0.094C0.433,-0.107 0.443,-0.121 0.452,-0.135C0.462,-0.148 0.472,-0.16 0.482,-0.169C0.492,-0.179 0.502,-0.184 0.513,-0.184C0.518,-0.184 0.524,-0.182 0.529,-0.18C0.534,-0.177 0.538,-0.172 0.541,-0.165C0.545,-0.157 0.546,-0.147 0.546,-0.133C0.546,-0.122 0.545,-0.107 0.542,-0.09C0.539,-0.065 0.535,-0.046 0.531,-0.033C0.526,-0.02 0.521,-0.011 0.514,-0.007C0.507,-0.003 0.498,-0 0.486,-0L0.074,-0C0.054,-0 0.037,-0.006 0.024,-0.018C0.011,-0.029 0.004,-0.043 0.004,-0.061C0.004,-0.071 0.007,-0.083 0.013,-0.095C0.019,-0.107 0.029,-0.119 0.042,-0.132L0.24,-0.316C0.256,-0.331 0.272,-0.348 0.288,-0.365C0.303,-0.382 0.316,-0.401 0.326,-0.422C0.337,-0.442 0.342,-0.464 0.342,-0.489Z" style="fill:rgb(9,154,155);fill-rule:nonzero;"/>
                </g>
                <g transform="matrix(1328.53,0,0,1328.53,6437.66,9685)">
                    <path d="M0.109,-0C0.085,-0 0.066,-0.008 0.049,-0.022C0.033,-0.037 0.024,-0.056 0.024,-0.078C0.024,-0.106 0.036,-0.131 0.058,-0.153C0.081,-0.174 0.107,-0.185 0.136,-0.185C0.161,-0.185 0.18,-0.18 0.192,-0.169C0.204,-0.158 0.213,-0.144 0.217,-0.127C0.221,-0.111 0.224,-0.093 0.224,-0.074C0.224,-0.026 0.213,0.016 0.191,0.052C0.17,0.088 0.137,0.117 0.094,0.139C0.09,0.14 0.087,0.141 0.084,0.141C0.078,0.141 0.073,0.139 0.068,0.134C0.064,0.129 0.062,0.124 0.062,0.118C0.062,0.111 0.066,0.104 0.074,0.099C0.127,0.074 0.16,0.034 0.174,-0.021C0.155,-0.007 0.133,-0 0.109,-0Z" style="fill:rgb(9,154,155);fill-rule:nonzero;"/>
                </g>
                <g transform="matrix(1328.53,0,0,1328.53,7096.74,9685)">
                    <path d="M0.342,-0.489C0.342,-0.514 0.338,-0.538 0.33,-0.56C0.321,-0.583 0.31,-0.601 0.297,-0.615C0.283,-0.628 0.267,-0.635 0.25,-0.635C0.237,-0.635 0.229,-0.628 0.224,-0.613C0.22,-0.598 0.217,-0.58 0.217,-0.559C0.217,-0.534 0.218,-0.516 0.219,-0.503C0.221,-0.491 0.222,-0.481 0.224,-0.473C0.225,-0.466 0.226,-0.457 0.226,-0.446C0.226,-0.432 0.22,-0.421 0.21,-0.411C0.199,-0.402 0.186,-0.395 0.169,-0.39C0.153,-0.385 0.136,-0.383 0.119,-0.383C0.088,-0.383 0.064,-0.388 0.047,-0.399C0.03,-0.41 0.021,-0.426 0.021,-0.447C0.021,-0.477 0.026,-0.506 0.036,-0.534C0.046,-0.562 0.06,-0.587 0.079,-0.608C0.098,-0.63 0.122,-0.647 0.15,-0.66C0.178,-0.672 0.211,-0.679 0.248,-0.679C0.284,-0.679 0.32,-0.674 0.355,-0.664C0.39,-0.655 0.421,-0.64 0.449,-0.621C0.477,-0.602 0.499,-0.578 0.516,-0.55C0.533,-0.521 0.541,-0.488 0.541,-0.45C0.541,-0.419 0.534,-0.388 0.519,-0.357C0.505,-0.327 0.486,-0.297 0.463,-0.269C0.44,-0.24 0.416,-0.213 0.39,-0.188C0.351,-0.15 0.312,-0.111 0.272,-0.072C0.266,-0.065 0.263,-0.06 0.263,-0.055C0.263,-0.049 0.268,-0.046 0.28,-0.045L0.368,-0.045C0.377,-0.045 0.387,-0.05 0.396,-0.059C0.405,-0.069 0.415,-0.08 0.424,-0.094C0.433,-0.107 0.443,-0.121 0.452,-0.135C0.462,-0.148 0.472,-0.16 0.482,-0.169C0.492,-0.179 0.502,-0.184 0.513,-0.184C0.518,-0.184 0.524,-0.182 0.529,-0.18C0.534,-0.177 0.538,-0.172 0.541,-0.165C0.545,-0.157 0.546,-0.147 0.546,-0.133C0.546,-0.122 0.545,-0.107 0.542,-0.09C0.539,-0.065 0.535,-0.046 0.531,-0.033C0.526,-0.02 0.521,-0.011 0.514,-0.007C0.507,-0.003 0.498,-0 0.486,-0L0.074,-0C0.054,-0 0.037,-0.006 0.024,-0.018C0.011,-0.029 0.004,-0.043 0.004,-0.061C0.004,-0.071 0.007,-0.083 0.013,-0.095C0.019,-0.107 0.029,-0.119 0.042,-0.132L0.24,-0.316C0.256,-0.331 0.272,-0.348 0.288,-0.365C0.303,-0.382 0.316,-0.401 0.326,-0.422C0.337,-0.442 0.342,-0.464 0.342,-0.489Z" style="fill:rgb(9,154,155);fill-rule:nonzero;"/>
                </g>
                <g transform="matrix(1328.53,0,0,1328.53,7855.06,9685)">
                    <path d="M0.325,-0C0.275,-0 0.231,-0.01 0.194,-0.028C0.156,-0.047 0.125,-0.072 0.1,-0.103C0.075,-0.134 0.056,-0.17 0.043,-0.209C0.031,-0.248 0.024,-0.289 0.024,-0.331C0.024,-0.374 0.031,-0.416 0.045,-0.457C0.058,-0.499 0.079,-0.536 0.106,-0.569C0.133,-0.603 0.168,-0.629 0.209,-0.649C0.25,-0.669 0.298,-0.679 0.353,-0.679C0.403,-0.679 0.446,-0.669 0.484,-0.651C0.521,-0.632 0.553,-0.607 0.578,-0.576C0.603,-0.545 0.622,-0.509 0.634,-0.47C0.647,-0.43 0.653,-0.39 0.653,-0.348C0.653,-0.305 0.647,-0.263 0.633,-0.221C0.62,-0.18 0.599,-0.143 0.572,-0.11C0.544,-0.077 0.51,-0.05 0.469,-0.03C0.428,-0.01 0.38,-0 0.325,-0ZM0.322,-0.634C0.308,-0.634 0.296,-0.627 0.285,-0.612C0.275,-0.597 0.266,-0.577 0.259,-0.551C0.252,-0.526 0.246,-0.497 0.242,-0.465C0.239,-0.433 0.237,-0.399 0.237,-0.364C0.237,-0.326 0.239,-0.287 0.244,-0.25C0.249,-0.212 0.256,-0.178 0.266,-0.147C0.275,-0.116 0.288,-0.092 0.303,-0.073C0.318,-0.055 0.335,-0.045 0.356,-0.045C0.361,-0.045 0.367,-0.047 0.372,-0.049C0.376,-0.052 0.381,-0.056 0.385,-0.06C0.39,-0.065 0.394,-0.071 0.398,-0.078C0.401,-0.084 0.405,-0.092 0.408,-0.101C0.412,-0.109 0.415,-0.119 0.418,-0.129C0.42,-0.139 0.423,-0.15 0.426,-0.161C0.428,-0.173 0.43,-0.184 0.432,-0.197C0.433,-0.21 0.435,-0.222 0.436,-0.236C0.437,-0.249 0.438,-0.262 0.438,-0.276C0.439,-0.29 0.439,-0.303 0.439,-0.317C0.439,-0.356 0.437,-0.394 0.432,-0.432C0.428,-0.469 0.42,-0.503 0.411,-0.534C0.401,-0.564 0.389,-0.588 0.374,-0.607C0.359,-0.625 0.342,-0.634 0.322,-0.634Z" style="fill:rgb(9,154,155);fill-rule:nonzero;"/>
                </g>
                <g transform="matrix(1328.53,0,0,1328.53,8755.45,9685)">
                    <path d="M0.342,-0.489C0.342,-0.514 0.338,-0.538 0.33,-0.56C0.321,-0.583 0.31,-0.601 0.297,-0.615C0.283,-0.628 0.267,-0.635 0.25,-0.635C0.237,-0.635 0.229,-0.628 0.224,-0.613C0.22,-0.598 0.217,-0.58 0.217,-0.559C0.217,-0.534 0.218,-0.516 0.219,-0.503C0.221,-0.491 0.222,-0.481 0.224,-0.473C0.225,-0.466 0.226,-0.457 0.226,-0.446C0.226,-0.432 0.22,-0.421 0.21,-0.411C0.199,-0.402 0.186,-0.395 0.169,-0.39C0.153,-0.385 0.136,-0.383 0.119,-0.383C0.088,-0.383 0.064,-0.388 0.047,-0.399C0.03,-0.41 0.021,-0.426 0.021,-0.447C0.021,-0.477 0.026,-0.506 0.036,-0.534C0.046,-0.562 0.06,-0.587 0.079,-0.608C0.098,-0.63 0.122,-0.647 0.15,-0.66C0.178,-0.672 0.211,-0.679 0.248,-0.679C0.284,-0.679 0.32,-0.674 0.355,-0.664C0.39,-0.655 0.421,-0.64 0.449,-0.621C0.477,-0.602 0.499,-0.578 0.516,-0.55C0.533,-0.521 0.541,-0.488 0.541,-0.45C0.541,-0.419 0.534,-0.388 0.519,-0.357C0.505,-0.327 0.486,-0.297 0.463,-0.269C0.44,-0.24 0.416,-0.213 0.39,-0.188C0.351,-0.15 0.312,-0.111 0.272,-0.072C0.266,-0.065 0.263,-0.06 0.263,-0.055C0.263,-0.049 0.268,-0.046 0.28,-0.045L0.368,-0.045C0.377,-0.045 0.387,-0.05 0.396,-0.059C0.405,-0.069 0.415,-0.08 0.424,-0.094C0.433,-0.107 0.443,-0.121 0.452,-0.135C0.462,-0.148 0.472,-0.16 0.482,-0.169C0.492,-0.179 0.502,-0.184 0.513,-0.184C0.518,-0.184 0.524,-0.182 0.529,-0.18C0.534,-0.177 0.538,-0.172 0.541,-0.165C0.545,-0.157 0.546,-0.147 0.546,-0.133C0.546,-0.122 0.545,-0.107 0.542,-0.09C0.539,-0.065 0.535,-0.046 0.531,-0.033C0.526,-0.02 0.521,-0.011 0.514,-0.007C0.507,-0.003 0.498,-0 0.486,-0L0.074,-0C0.054,-0 0.037,-0.006 0.024,-0.018C0.011,-0.029 0.004,-0.043 0.004,-0.061C0.004,-0.071 0.007,-0.083 0.013,-0.095C0.019,-0.107 0.029,-0.119 0.042,-0.132L0.24,-0.316C0.256,-0.331 0.272,-0.348 0.288,-0.365C0.303,-0.382 0.316,-0.401 0.326,-0.422C0.337,-0.442 0.342,-0.464 0.342,-0.489Z" style="fill:rgb(9,154,155);fill-rule:nonzero;"/>
                </g>
                <g transform="matrix(1328.53,0,0,1328.53,9513.78,9685)">
                    <path d="M0.272,-0.453C0.286,-0.455 0.301,-0.457 0.317,-0.457C0.37,-0.457 0.418,-0.448 0.462,-0.43C0.505,-0.412 0.54,-0.387 0.566,-0.354C0.592,-0.322 0.604,-0.283 0.604,-0.239C0.604,-0.196 0.596,-0.159 0.578,-0.129C0.56,-0.099 0.537,-0.074 0.507,-0.055C0.478,-0.036 0.445,-0.022 0.409,-0.014C0.373,-0.005 0.336,-0 0.299,-0C0.244,-0 0.196,-0.012 0.155,-0.034C0.113,-0.057 0.081,-0.089 0.059,-0.131C0.036,-0.172 0.024,-0.221 0.024,-0.278C0.024,-0.316 0.03,-0.354 0.041,-0.392C0.052,-0.43 0.068,-0.466 0.09,-0.5C0.111,-0.535 0.137,-0.565 0.169,-0.592C0.2,-0.618 0.236,-0.64 0.277,-0.655C0.318,-0.671 0.363,-0.679 0.413,-0.679C0.418,-0.679 0.422,-0.678 0.424,-0.676C0.427,-0.674 0.428,-0.672 0.428,-0.669C0.428,-0.666 0.426,-0.663 0.424,-0.659C0.421,-0.656 0.417,-0.654 0.411,-0.652C0.381,-0.641 0.354,-0.618 0.33,-0.582C0.307,-0.546 0.287,-0.503 0.272,-0.453ZM0.259,-0.409C0.243,-0.338 0.235,-0.272 0.235,-0.212C0.235,-0.185 0.238,-0.159 0.243,-0.133C0.248,-0.107 0.255,-0.086 0.265,-0.069C0.276,-0.052 0.288,-0.043 0.304,-0.043C0.32,-0.043 0.334,-0.049 0.345,-0.062C0.356,-0.074 0.365,-0.089 0.372,-0.108C0.378,-0.127 0.383,-0.148 0.386,-0.17C0.39,-0.192 0.391,-0.213 0.391,-0.233C0.391,-0.287 0.381,-0.33 0.36,-0.362C0.339,-0.394 0.311,-0.41 0.275,-0.41C0.271,-0.41 0.265,-0.41 0.259,-0.409Z" style="fill:rgb(9,154,155);fill-rule:nonzero;"/>
                </g>
            </g>
        </g>
    </g>
</svg>
