<?xml version="1.0" encoding="UTF-8" standalone="no"?>
<!DOCTYPE svg PUBLIC "-//W3C//DTD SVG 1.1//EN" "http://www.w3.org/Graphics/SVG/1.1/DTD/svg11.dtd">
<svg width="100%" height="100%" viewBox="0 0 6421 2254" version="1.1" xmlns="http://www.w3.org/2000/svg" xmlns:xlink="http://www.w3.org/1999/xlink" xml:space="preserve" xmlns:serif="http://www.serif.com/" style="fill-rule:evenodd;clip-rule:evenodd;stroke-linejoin:round;stroke-miterlimit:2;">
    <g transform="matrix(4.16667,0,0,4.16667,-554.167,-26371.2)">
        <g transform="matrix(1,0,0,1,-375.562,148.63)">
            <g transform="matrix(523.517,0,0,523.517,483,6591)">
                <path d="M0.398,-0.547C0.382,-0.566 0.364,-0.58 0.343,-0.589C0.322,-0.599 0.301,-0.604 0.28,-0.604C0.261,-0.604 0.243,-0.599 0.227,-0.591C0.211,-0.583 0.198,-0.571 0.188,-0.554C0.177,-0.538 0.172,-0.516 0.172,-0.491C0.172,-0.476 0.175,-0.464 0.181,-0.453C0.187,-0.443 0.194,-0.438 0.204,-0.438C0.212,-0.438 0.217,-0.444 0.218,-0.456C0.218,-0.46 0.217,-0.465 0.215,-0.469C0.213,-0.473 0.211,-0.478 0.209,-0.483C0.208,-0.489 0.207,-0.495 0.207,-0.502C0.207,-0.513 0.209,-0.524 0.215,-0.534C0.221,-0.544 0.23,-0.552 0.242,-0.559C0.255,-0.565 0.271,-0.568 0.292,-0.568C0.318,-0.568 0.338,-0.562 0.351,-0.548C0.364,-0.535 0.371,-0.519 0.371,-0.5C0.371,-0.484 0.365,-0.468 0.354,-0.452C0.344,-0.435 0.328,-0.422 0.306,-0.411C0.284,-0.4 0.257,-0.395 0.225,-0.395C0.184,-0.395 0.151,-0.402 0.125,-0.417C0.099,-0.432 0.08,-0.451 0.067,-0.475C0.055,-0.498 0.049,-0.523 0.049,-0.549C0.049,-0.586 0.057,-0.619 0.073,-0.646C0.09,-0.673 0.111,-0.695 0.138,-0.71C0.165,-0.725 0.195,-0.732 0.227,-0.732C0.258,-0.732 0.291,-0.724 0.324,-0.708C0.358,-0.691 0.388,-0.667 0.414,-0.636C0.425,-0.683 0.447,-0.719 0.481,-0.745C0.515,-0.771 0.558,-0.784 0.611,-0.784C0.648,-0.784 0.678,-0.778 0.703,-0.765C0.727,-0.752 0.745,-0.735 0.757,-0.714C0.769,-0.693 0.775,-0.672 0.775,-0.649C0.775,-0.626 0.769,-0.604 0.757,-0.582C0.745,-0.561 0.727,-0.543 0.702,-0.528C0.678,-0.514 0.648,-0.506 0.611,-0.503L0.611,-0.37L0.755,-0.37L0.755,-0.506C0.798,-0.549 0.819,-0.597 0.819,-0.651C0.819,-0.661 0.818,-0.67 0.817,-0.679L0.879,-0.679C0.894,-0.679 0.908,-0.678 0.922,-0.678C0.936,-0.677 0.949,-0.676 0.96,-0.675C0.971,-0.673 0.981,-0.67 0.988,-0.666C0.995,-0.663 0.998,-0.657 0.998,-0.65C0.998,-0.643 0.997,-0.637 0.994,-0.633C0.991,-0.629 0.987,-0.626 0.984,-0.622C0.98,-0.619 0.977,-0.614 0.974,-0.607C0.971,-0.601 0.969,-0.591 0.969,-0.578L0.969,-0.102C0.969,-0.094 0.97,-0.087 0.971,-0.082C0.972,-0.077 0.973,-0.073 0.975,-0.069C0.977,-0.066 0.979,-0.063 0.981,-0.06C0.983,-0.058 0.991,-0.05 0.992,-0.048C0.994,-0.045 0.996,-0.043 0.997,-0.04C0.998,-0.037 0.998,-0.033 0.998,-0.028C0.998,-0.02 0.992,-0.013 0.98,-0.009C0.968,-0.005 0.953,-0.003 0.935,-0.002C0.917,-0.001 0.898,-0 0.879,-0L0.845,-0C0.826,-0 0.808,-0.001 0.79,-0.002C0.771,-0.003 0.756,-0.005 0.744,-0.009C0.733,-0.013 0.727,-0.02 0.727,-0.028C0.727,-0.035 0.728,-0.04 0.729,-0.043C0.731,-0.047 0.734,-0.05 0.737,-0.052C0.74,-0.055 0.743,-0.058 0.745,-0.062C0.748,-0.065 0.75,-0.07 0.752,-0.076C0.754,-0.082 0.755,-0.091 0.755,-0.102L0.755,-0.326L0.611,-0.326L0.611,-0.102C0.611,-0.096 0.612,-0.09 0.612,-0.086C0.613,-0.081 0.614,-0.077 0.615,-0.074C0.616,-0.071 0.617,-0.068 0.619,-0.066C0.62,-0.063 0.622,-0.061 0.624,-0.059C0.625,-0.058 0.632,-0.051 0.633,-0.05C0.635,-0.048 0.636,-0.046 0.637,-0.044C0.638,-0.042 0.639,-0.04 0.64,-0.038C0.64,-0.035 0.641,-0.032 0.641,-0.028C0.641,-0.02 0.635,-0.013 0.623,-0.009C0.611,-0.005 0.596,-0.003 0.578,-0.002C0.559,-0.001 0.541,-0 0.522,-0L0.487,-0C0.473,-0 0.459,-0.001 0.445,-0.001C0.431,-0.002 0.418,-0.003 0.407,-0.004C0.395,-0.006 0.386,-0.009 0.379,-0.012C0.372,-0.016 0.369,-0.021 0.369,-0.028C0.369,-0.034 0.369,-0.038 0.371,-0.041C0.372,-0.044 0.374,-0.047 0.376,-0.05C0.378,-0.052 0.381,-0.054 0.383,-0.057C0.386,-0.059 0.388,-0.062 0.39,-0.066C0.392,-0.069 0.394,-0.074 0.396,-0.079C0.397,-0.085 0.398,-0.092 0.398,-0.102L0.398,-0.547ZM0.611,-0.548C0.64,-0.55 0.664,-0.556 0.682,-0.567C0.7,-0.577 0.712,-0.59 0.72,-0.605C0.728,-0.62 0.731,-0.634 0.731,-0.648C0.731,-0.663 0.728,-0.677 0.721,-0.688C0.714,-0.699 0.704,-0.705 0.693,-0.705C0.678,-0.705 0.666,-0.699 0.655,-0.687C0.644,-0.674 0.636,-0.66 0.63,-0.642C0.623,-0.625 0.619,-0.608 0.615,-0.59C0.612,-0.573 0.611,-0.559 0.611,-0.548Z" style="fill:rgb(17,98,113);fill-rule:nonzero;"/>
            </g>
            <g transform="matrix(523.517,0,0,523.517,1013.93,6591)">
                <path d="M0.253,-0.032C0.258,-0.032 0.263,-0.034 0.267,-0.038C0.271,-0.042 0.275,-0.048 0.28,-0.055C0.284,-0.062 0.287,-0.07 0.291,-0.08C0.294,-0.09 0.297,-0.101 0.3,-0.114C0.303,-0.126 0.306,-0.139 0.308,-0.153C0.311,-0.166 0.313,-0.181 0.315,-0.196C0.316,-0.21 0.318,-0.226 0.319,-0.241C0.321,-0.256 0.322,-0.272 0.322,-0.287C0.323,-0.303 0.323,-0.318 0.323,-0.333C0.323,-0.363 0.322,-0.39 0.319,-0.414C0.317,-0.438 0.313,-0.458 0.307,-0.473C0.301,-0.488 0.294,-0.495 0.285,-0.495C0.276,-0.495 0.268,-0.489 0.261,-0.477C0.253,-0.465 0.247,-0.448 0.241,-0.428C0.235,-0.407 0.23,-0.384 0.226,-0.358C0.222,-0.332 0.219,-0.305 0.217,-0.277C0.214,-0.249 0.213,-0.222 0.213,-0.195C0.213,-0.173 0.214,-0.152 0.216,-0.132C0.217,-0.112 0.22,-0.095 0.223,-0.08C0.226,-0.065 0.231,-0.053 0.236,-0.045C0.241,-0.036 0.247,-0.032 0.253,-0.032ZM0.29,-0.539C0.332,-0.539 0.369,-0.532 0.4,-0.518C0.431,-0.504 0.457,-0.485 0.478,-0.462C0.498,-0.438 0.513,-0.412 0.523,-0.382C0.534,-0.352 0.539,-0.321 0.539,-0.289C0.539,-0.252 0.532,-0.217 0.52,-0.181C0.507,-0.145 0.489,-0.113 0.464,-0.084C0.44,-0.055 0.41,-0.032 0.374,-0.015C0.337,0.003 0.296,0.011 0.249,0.011C0.206,0.011 0.169,0.004 0.138,-0.009C0.107,-0.023 0.08,-0.042 0.06,-0.065C0.039,-0.088 0.024,-0.115 0.014,-0.145C0.004,-0.174 -0.001,-0.205 -0.001,-0.237C-0.001,-0.274 0.005,-0.31 0.018,-0.345C0.03,-0.381 0.049,-0.413 0.073,-0.442C0.098,-0.471 0.128,-0.495 0.165,-0.512C0.201,-0.53 0.243,-0.539 0.29,-0.539Z" style="fill:rgb(17,98,113);fill-rule:nonzero;"/>
            </g>
            <g transform="matrix(523.517,0,0,523.517,1301.51,6591)">
                <path d="M0.566,-0.406C0.583,-0.448 0.604,-0.479 0.63,-0.498C0.656,-0.517 0.683,-0.526 0.712,-0.526C0.748,-0.526 0.778,-0.52 0.802,-0.507C0.827,-0.495 0.846,-0.478 0.86,-0.458C0.874,-0.437 0.884,-0.415 0.89,-0.39C0.896,-0.366 0.899,-0.342 0.899,-0.318L0.899,-0.102C0.899,-0.083 0.906,-0.065 0.921,-0.047C0.935,-0.029 0.953,-0.012 0.975,0.004C0.997,0.02 1.02,0.034 1.045,0.046C1.07,0.058 1.094,0.067 1.117,0.074C1.14,0.081 1.159,0.085 1.173,0.085C1.188,0.085 1.199,0.083 1.209,0.078C1.218,0.073 1.227,0.067 1.235,0.061C1.243,0.054 1.251,0.049 1.261,0.044C1.271,0.039 1.283,0.037 1.299,0.037C1.323,0.037 1.343,0.042 1.36,0.052C1.377,0.063 1.39,0.076 1.399,0.093C1.408,0.109 1.413,0.126 1.413,0.144C1.413,0.162 1.408,0.178 1.398,0.194C1.389,0.21 1.374,0.223 1.353,0.234C1.333,0.244 1.307,0.249 1.274,0.249C1.244,0.249 1.217,0.243 1.192,0.231C1.166,0.219 1.142,0.203 1.12,0.184C1.097,0.166 1.074,0.146 1.051,0.124C1.028,0.103 1.004,0.083 0.978,0.064C0.953,0.045 0.925,0.03 0.895,0.018C0.864,0.006 0.83,-0 0.792,-0L0.775,-0C0.756,-0 0.738,-0.001 0.72,-0.002C0.701,-0.003 0.686,-0.005 0.675,-0.009C0.663,-0.013 0.657,-0.02 0.657,-0.028C0.657,-0.035 0.658,-0.04 0.66,-0.043C0.662,-0.047 0.664,-0.05 0.667,-0.052C0.67,-0.055 0.673,-0.058 0.676,-0.062C0.678,-0.065 0.681,-0.07 0.683,-0.076C0.685,-0.082 0.686,-0.091 0.686,-0.102C0.686,-0.177 0.687,-0.252 0.687,-0.328C0.687,-0.336 0.686,-0.346 0.685,-0.358C0.684,-0.369 0.682,-0.38 0.679,-0.391C0.676,-0.402 0.671,-0.411 0.664,-0.419C0.657,-0.426 0.647,-0.43 0.635,-0.43C0.625,-0.43 0.615,-0.422 0.607,-0.407C0.599,-0.393 0.592,-0.375 0.587,-0.354C0.583,-0.334 0.58,-0.315 0.58,-0.299L0.58,-0.102C0.58,-0.094 0.581,-0.087 0.582,-0.082C0.583,-0.077 0.584,-0.073 0.586,-0.069C0.587,-0.066 0.589,-0.063 0.592,-0.06C0.594,-0.058 0.601,-0.05 0.603,-0.048C0.605,-0.045 0.606,-0.043 0.607,-0.04C0.608,-0.037 0.609,-0.033 0.609,-0.028C0.609,-0.02 0.603,-0.013 0.591,-0.009C0.579,-0.005 0.564,-0.003 0.546,-0.002C0.528,-0.001 0.509,-0 0.49,-0L0.456,-0C0.437,-0 0.419,-0.001 0.4,-0.002C0.382,-0.003 0.367,-0.005 0.355,-0.009C0.343,-0.013 0.337,-0.02 0.337,-0.028C0.337,-0.034 0.338,-0.038 0.339,-0.041C0.341,-0.044 0.342,-0.047 0.344,-0.05C0.347,-0.052 0.349,-0.054 0.351,-0.057C0.354,-0.059 0.356,-0.062 0.358,-0.066C0.361,-0.069 0.363,-0.074 0.364,-0.08C0.365,-0.085 0.366,-0.093 0.366,-0.102C0.367,-0.162 0.367,-0.191 0.367,-0.186C0.367,-0.181 0.367,-0.228 0.367,-0.328C0.367,-0.336 0.367,-0.346 0.366,-0.358C0.365,-0.369 0.363,-0.38 0.36,-0.391C0.356,-0.402 0.351,-0.411 0.344,-0.419C0.337,-0.426 0.328,-0.43 0.315,-0.43C0.305,-0.43 0.296,-0.422 0.288,-0.407C0.279,-0.393 0.272,-0.375 0.268,-0.355C0.263,-0.334 0.26,-0.316 0.26,-0.299L0.261,-0.102C0.261,-0.094 0.262,-0.087 0.263,-0.082C0.264,-0.077 0.265,-0.073 0.267,-0.069C0.269,-0.066 0.271,-0.063 0.273,-0.06C0.275,-0.058 0.283,-0.05 0.284,-0.048C0.286,-0.045 0.288,-0.043 0.289,-0.04C0.29,-0.037 0.29,-0.033 0.29,-0.028C0.29,-0.024 0.289,-0.021 0.286,-0.018C0.284,-0.016 0.281,-0.013 0.276,-0.011C0.272,-0.009 0.267,-0.007 0.261,-0.006C0.255,-0.005 0.249,-0.004 0.242,-0.003C0.235,-0.002 0.228,-0.002 0.22,-0.001C0.212,-0.001 0.204,-0.001 0.196,-0.001C0.188,-0.001 0.18,-0 0.172,-0L0.137,-0C0.118,-0 0.1,-0.001 0.082,-0.002C0.063,-0.003 0.048,-0.005 0.036,-0.009C0.024,-0.013 0.019,-0.02 0.019,-0.028C0.019,-0.035 0.02,-0.04 0.021,-0.043C0.023,-0.047 0.026,-0.05 0.029,-0.052C0.032,-0.055 0.035,-0.058 0.037,-0.062C0.04,-0.065 0.042,-0.07 0.044,-0.076C0.046,-0.082 0.047,-0.091 0.047,-0.102L0.048,-0.293C0.048,-0.324 0.046,-0.347 0.043,-0.363C0.04,-0.379 0.037,-0.39 0.034,-0.397C0.03,-0.404 0.027,-0.41 0.024,-0.413C0.021,-0.417 0.02,-0.422 0.02,-0.429C0.02,-0.439 0.027,-0.447 0.041,-0.453C0.055,-0.459 0.073,-0.464 0.094,-0.469C0.115,-0.475 0.135,-0.48 0.156,-0.487C0.177,-0.494 0.194,-0.502 0.208,-0.513C0.214,-0.518 0.22,-0.521 0.225,-0.523C0.229,-0.525 0.234,-0.526 0.238,-0.526C0.245,-0.526 0.251,-0.523 0.254,-0.516C0.258,-0.51 0.26,-0.501 0.26,-0.491L0.26,-0.436C0.276,-0.467 0.296,-0.491 0.32,-0.505C0.343,-0.519 0.367,-0.526 0.392,-0.526C0.426,-0.526 0.455,-0.521 0.478,-0.51C0.501,-0.499 0.52,-0.484 0.534,-0.466C0.549,-0.448 0.559,-0.428 0.566,-0.406Z" style="fill:rgb(17,98,113);fill-rule:nonzero;"/>
            </g>
            <g transform="matrix(523.517,0,0,523.517,1794.86,6591)">
                <path d="M0.462,-0.157C0.466,-0.157 0.47,-0.155 0.473,-0.152C0.476,-0.149 0.478,-0.144 0.478,-0.139C0.478,-0.119 0.466,-0.098 0.443,-0.077C0.42,-0.056 0.39,-0.038 0.354,-0.023C0.318,-0.008 0.281,-0 0.243,-0C0.203,-0 0.168,-0.008 0.138,-0.023C0.108,-0.038 0.082,-0.057 0.061,-0.083C0.041,-0.108 0.025,-0.136 0.014,-0.167C0.004,-0.199 -0.001,-0.231 -0.001,-0.264C-0.001,-0.297 0.004,-0.329 0.015,-0.36C0.026,-0.391 0.042,-0.419 0.064,-0.444C0.086,-0.469 0.114,-0.489 0.148,-0.504C0.181,-0.519 0.221,-0.526 0.267,-0.526C0.29,-0.526 0.314,-0.524 0.34,-0.518C0.365,-0.512 0.389,-0.503 0.411,-0.491C0.433,-0.479 0.451,-0.463 0.465,-0.443C0.479,-0.424 0.486,-0.4 0.486,-0.373C0.486,-0.347 0.481,-0.325 0.471,-0.307C0.46,-0.29 0.446,-0.275 0.429,-0.265C0.412,-0.254 0.392,-0.247 0.37,-0.242C0.349,-0.237 0.327,-0.235 0.304,-0.235C0.274,-0.235 0.244,-0.238 0.217,-0.245C0.222,-0.221 0.229,-0.2 0.24,-0.18C0.251,-0.161 0.265,-0.146 0.283,-0.134C0.301,-0.122 0.323,-0.117 0.349,-0.117C0.355,-0.117 0.361,-0.117 0.367,-0.117C0.372,-0.118 0.377,-0.119 0.382,-0.12C0.387,-0.121 0.392,-0.122 0.396,-0.123C0.401,-0.124 0.405,-0.126 0.408,-0.127C0.412,-0.129 0.416,-0.13 0.419,-0.132C0.422,-0.133 0.425,-0.135 0.428,-0.137C0.431,-0.138 0.433,-0.14 0.436,-0.142C0.438,-0.143 0.452,-0.153 0.453,-0.154C0.455,-0.155 0.456,-0.156 0.458,-0.156C0.459,-0.156 0.461,-0.157 0.462,-0.157ZM0.267,-0.483C0.257,-0.483 0.247,-0.475 0.238,-0.46C0.229,-0.444 0.222,-0.424 0.217,-0.399C0.212,-0.374 0.209,-0.347 0.209,-0.319C0.209,-0.31 0.209,-0.301 0.21,-0.292C0.218,-0.289 0.225,-0.288 0.232,-0.288C0.249,-0.288 0.263,-0.294 0.273,-0.304C0.283,-0.315 0.291,-0.329 0.296,-0.346C0.3,-0.363 0.303,-0.38 0.303,-0.397C0.303,-0.419 0.299,-0.439 0.293,-0.457C0.286,-0.474 0.278,-0.483 0.267,-0.483Z" style="fill:rgb(17,98,113);fill-rule:nonzero;"/>
            </g>
        </g>
    </g>
</svg>
