<?xml version="1.0" encoding="UTF-8" standalone="no"?>
<!DOCTYPE svg PUBLIC "-//W3C//DTD SVG 1.1//EN" "http://www.w3.org/Graphics/SVG/1.1/DTD/svg11.dtd">
<svg width="100%" height="100%" viewBox="0 0 3399 790" version="1.1" xmlns="http://www.w3.org/2000/svg" xmlns:xlink="http://www.w3.org/1999/xlink" xml:space="preserve" xmlns:serif="http://www.serif.com/" style="fill-rule:evenodd;clip-rule:evenodd;stroke-linejoin:round;stroke-miterlimit:2;">
    <g transform="matrix(4.16667,0,0,4.16667,-10616.3,-16600.3)">
        <g transform="matrix(1.26268,3.09267e-16,-3.09267e-16,1.26268,-3287.78,-6292.06)">
            <g transform="matrix(0.791968,-1.93976e-16,1.93976e-16,0.791968,3188.41,710.322)">
                <g transform="matrix(183.333,0,0,183.333,1800.81,9523)">
                    <path d="M0.398,-0.547C0.382,-0.566 0.364,-0.58 0.343,-0.589C0.322,-0.599 0.301,-0.604 0.28,-0.604C0.261,-0.604 0.243,-0.599 0.227,-0.591C0.211,-0.583 0.198,-0.571 0.188,-0.554C0.177,-0.538 0.172,-0.516 0.172,-0.491C0.172,-0.476 0.175,-0.464 0.181,-0.453C0.187,-0.443 0.194,-0.438 0.204,-0.438C0.212,-0.438 0.217,-0.444 0.218,-0.456C0.218,-0.46 0.217,-0.465 0.215,-0.469C0.213,-0.473 0.211,-0.478 0.209,-0.483C0.208,-0.489 0.207,-0.495 0.207,-0.502C0.207,-0.513 0.209,-0.524 0.215,-0.534C0.221,-0.544 0.23,-0.552 0.242,-0.559C0.255,-0.565 0.271,-0.568 0.292,-0.568C0.318,-0.568 0.338,-0.562 0.351,-0.548C0.364,-0.535 0.371,-0.519 0.371,-0.5C0.371,-0.484 0.365,-0.468 0.354,-0.452C0.344,-0.435 0.328,-0.422 0.306,-0.411C0.284,-0.4 0.257,-0.395 0.225,-0.395C0.184,-0.395 0.151,-0.402 0.125,-0.417C0.099,-0.432 0.08,-0.451 0.067,-0.475C0.055,-0.498 0.049,-0.523 0.049,-0.549C0.049,-0.586 0.057,-0.619 0.073,-0.646C0.09,-0.673 0.111,-0.695 0.138,-0.71C0.165,-0.725 0.195,-0.732 0.227,-0.732C0.258,-0.732 0.291,-0.724 0.324,-0.708C0.358,-0.691 0.388,-0.667 0.414,-0.636C0.425,-0.683 0.447,-0.719 0.481,-0.745C0.515,-0.771 0.558,-0.784 0.611,-0.784C0.648,-0.784 0.678,-0.778 0.703,-0.765C0.727,-0.752 0.745,-0.735 0.757,-0.714C0.769,-0.693 0.775,-0.672 0.775,-0.649C0.775,-0.626 0.769,-0.604 0.757,-0.582C0.745,-0.561 0.727,-0.543 0.702,-0.528C0.678,-0.514 0.648,-0.506 0.611,-0.503L0.611,-0.37L0.755,-0.37L0.755,-0.506C0.798,-0.549 0.819,-0.597 0.819,-0.651C0.819,-0.661 0.818,-0.67 0.817,-0.679L0.879,-0.679C0.894,-0.679 0.908,-0.678 0.922,-0.678C0.936,-0.677 0.949,-0.676 0.96,-0.675C0.971,-0.673 0.981,-0.67 0.988,-0.666C0.995,-0.663 0.998,-0.657 0.998,-0.65C0.998,-0.643 0.997,-0.637 0.994,-0.633C0.991,-0.629 0.987,-0.626 0.984,-0.622C0.98,-0.619 0.977,-0.614 0.974,-0.607C0.971,-0.601 0.969,-0.591 0.969,-0.578L0.969,-0.102C0.969,-0.094 0.97,-0.087 0.971,-0.082C0.972,-0.077 0.973,-0.073 0.975,-0.069C0.977,-0.066 0.979,-0.063 0.981,-0.06C0.983,-0.058 0.991,-0.05 0.992,-0.048C0.994,-0.045 0.996,-0.043 0.997,-0.04C0.998,-0.037 0.998,-0.033 0.998,-0.028C0.998,-0.02 0.992,-0.013 0.98,-0.009C0.968,-0.005 0.953,-0.003 0.935,-0.002C0.917,-0.001 0.898,-0 0.879,-0L0.845,-0C0.826,-0 0.808,-0.001 0.79,-0.002C0.771,-0.003 0.756,-0.005 0.744,-0.009C0.733,-0.013 0.727,-0.02 0.727,-0.028C0.727,-0.035 0.728,-0.04 0.729,-0.043C0.731,-0.047 0.734,-0.05 0.737,-0.052C0.74,-0.055 0.743,-0.058 0.745,-0.062C0.748,-0.065 0.75,-0.07 0.752,-0.076C0.754,-0.082 0.755,-0.091 0.755,-0.102L0.755,-0.326L0.611,-0.326L0.611,-0.102C0.611,-0.096 0.612,-0.09 0.612,-0.086C0.613,-0.081 0.614,-0.077 0.615,-0.074C0.616,-0.071 0.617,-0.068 0.619,-0.066C0.62,-0.063 0.622,-0.061 0.624,-0.059C0.625,-0.058 0.632,-0.051 0.633,-0.05C0.635,-0.048 0.636,-0.046 0.637,-0.044C0.638,-0.042 0.639,-0.04 0.64,-0.038C0.64,-0.035 0.641,-0.032 0.641,-0.028C0.641,-0.02 0.635,-0.013 0.623,-0.009C0.611,-0.005 0.596,-0.003 0.578,-0.002C0.559,-0.001 0.541,-0 0.522,-0L0.487,-0C0.473,-0 0.459,-0.001 0.445,-0.001C0.431,-0.002 0.418,-0.003 0.407,-0.004C0.395,-0.006 0.386,-0.009 0.379,-0.012C0.372,-0.016 0.369,-0.021 0.369,-0.028C0.369,-0.034 0.369,-0.038 0.371,-0.041C0.372,-0.044 0.374,-0.047 0.376,-0.05C0.378,-0.052 0.381,-0.054 0.383,-0.057C0.386,-0.059 0.388,-0.062 0.39,-0.066C0.392,-0.069 0.394,-0.074 0.396,-0.079C0.397,-0.085 0.398,-0.092 0.398,-0.102L0.398,-0.547ZM0.611,-0.548C0.64,-0.55 0.664,-0.556 0.682,-0.567C0.7,-0.577 0.712,-0.59 0.72,-0.605C0.728,-0.62 0.731,-0.634 0.731,-0.648C0.731,-0.663 0.728,-0.677 0.721,-0.688C0.714,-0.699 0.704,-0.705 0.693,-0.705C0.678,-0.705 0.666,-0.699 0.655,-0.687C0.644,-0.674 0.636,-0.66 0.63,-0.642C0.623,-0.625 0.619,-0.608 0.615,-0.59C0.612,-0.573 0.611,-0.559 0.611,-0.548Z" style="fill:rgb(17,98,113);fill-rule:nonzero;"/>
                </g>
                <g transform="matrix(183.333,0,0,183.333,1983.61,9523)">
                    <path d="M-0.008,-0.494C-0.008,-0.502 -0.006,-0.508 -0.002,-0.513C0.002,-0.517 0.009,-0.521 0.019,-0.522C0.028,-0.524 0.041,-0.526 0.057,-0.526C0.073,-0.526 0.093,-0.526 0.118,-0.526C0.142,-0.526 0.164,-0.526 0.184,-0.526C0.203,-0.526 0.221,-0.524 0.235,-0.522C0.25,-0.52 0.261,-0.517 0.269,-0.512C0.277,-0.508 0.281,-0.502 0.281,-0.493C0.281,-0.486 0.279,-0.48 0.275,-0.476C0.271,-0.473 0.267,-0.469 0.263,-0.465C0.259,-0.461 0.257,-0.456 0.257,-0.449C0.257,-0.443 0.259,-0.435 0.263,-0.425L0.347,-0.25C0.373,-0.315 0.4,-0.38 0.427,-0.445C0.427,-0.446 0.428,-0.448 0.428,-0.449C0.429,-0.451 0.429,-0.452 0.429,-0.454C0.43,-0.455 0.43,-0.457 0.43,-0.458C0.43,-0.464 0.428,-0.468 0.424,-0.471C0.42,-0.475 0.415,-0.477 0.409,-0.479C0.404,-0.482 0.399,-0.484 0.395,-0.487C0.391,-0.489 0.389,-0.493 0.389,-0.499C0.389,-0.505 0.391,-0.511 0.395,-0.515C0.399,-0.519 0.407,-0.522 0.419,-0.524C0.431,-0.525 0.449,-0.526 0.472,-0.526C0.481,-0.526 0.488,-0.526 0.494,-0.526C0.5,-0.526 0.505,-0.525 0.51,-0.524C0.514,-0.524 0.518,-0.523 0.521,-0.522C0.523,-0.521 0.526,-0.52 0.528,-0.518C0.529,-0.517 0.531,-0.515 0.531,-0.513C0.532,-0.511 0.533,-0.509 0.533,-0.507C0.533,-0.505 0.533,-0.502 0.533,-0.499C0.533,-0.492 0.531,-0.488 0.527,-0.485C0.523,-0.483 0.517,-0.481 0.511,-0.479C0.504,-0.477 0.498,-0.474 0.491,-0.469C0.484,-0.463 0.479,-0.455 0.474,-0.444C0.474,-0.444 0.453,-0.394 0.411,-0.295C0.37,-0.196 0.333,-0.106 0.3,-0.025C0.293,-0.005 0.285,0.014 0.277,0.035C0.269,0.055 0.259,0.074 0.249,0.091C0.239,0.108 0.226,0.122 0.212,0.133C0.198,0.144 0.181,0.149 0.161,0.149C0.133,0.149 0.11,0.144 0.092,0.133C0.073,0.123 0.059,0.109 0.05,0.091C0.041,0.074 0.037,0.054 0.037,0.033C0.037,0.019 0.04,0.008 0.048,-0C0.055,-0.009 0.065,-0.015 0.077,-0.019C0.089,-0.023 0.101,-0.025 0.114,-0.025C0.134,-0.025 0.15,-0.022 0.161,-0.016C0.172,-0.009 0.179,-0.001 0.184,0.009C0.188,0.019 0.19,0.03 0.19,0.041C0.19,0.05 0.188,0.057 0.184,0.063C0.181,0.068 0.179,0.074 0.179,0.079C0.179,0.084 0.182,0.087 0.189,0.087C0.2,0.087 0.208,0.08 0.212,0.066C0.217,0.052 0.22,0.035 0.22,0.016C0.22,-0.002 0.218,-0.019 0.215,-0.037C0.211,-0.055 0.206,-0.071 0.2,-0.084L0.034,-0.425C0.028,-0.438 0.022,-0.448 0.017,-0.454C0.012,-0.46 0.007,-0.465 0.004,-0.468C-0,-0.472 -0.003,-0.475 -0.005,-0.478C-0.007,-0.481 -0.008,-0.486 -0.008,-0.494Z" style="fill:rgb(17,98,113);fill-rule:nonzero;"/>
                </g>
                <g transform="matrix(183.333,0,0,183.333,2071.52,9523)">
                    <path d="M0.462,-0.157C0.466,-0.157 0.47,-0.155 0.473,-0.152C0.476,-0.149 0.478,-0.144 0.478,-0.139C0.478,-0.119 0.466,-0.098 0.443,-0.077C0.42,-0.056 0.39,-0.038 0.354,-0.023C0.318,-0.008 0.281,-0 0.243,-0C0.203,-0 0.168,-0.008 0.138,-0.023C0.108,-0.038 0.082,-0.057 0.061,-0.083C0.041,-0.108 0.025,-0.136 0.014,-0.167C0.004,-0.199 -0.001,-0.231 -0.001,-0.264C-0.001,-0.297 0.004,-0.329 0.015,-0.36C0.026,-0.391 0.042,-0.419 0.064,-0.444C0.086,-0.469 0.114,-0.489 0.148,-0.504C0.181,-0.519 0.221,-0.526 0.267,-0.526C0.29,-0.526 0.314,-0.524 0.34,-0.518C0.365,-0.512 0.389,-0.503 0.411,-0.491C0.433,-0.479 0.451,-0.463 0.465,-0.443C0.479,-0.424 0.486,-0.4 0.486,-0.373C0.486,-0.347 0.481,-0.325 0.471,-0.307C0.46,-0.29 0.446,-0.275 0.429,-0.265C0.412,-0.254 0.392,-0.247 0.37,-0.242C0.349,-0.237 0.327,-0.235 0.304,-0.235C0.274,-0.235 0.244,-0.238 0.217,-0.245C0.222,-0.221 0.229,-0.2 0.24,-0.18C0.251,-0.161 0.265,-0.146 0.283,-0.134C0.301,-0.122 0.323,-0.117 0.349,-0.117C0.355,-0.117 0.361,-0.117 0.367,-0.117C0.372,-0.118 0.377,-0.119 0.382,-0.12C0.387,-0.121 0.392,-0.122 0.396,-0.123C0.401,-0.124 0.405,-0.126 0.408,-0.127C0.412,-0.129 0.416,-0.13 0.419,-0.132C0.422,-0.133 0.425,-0.135 0.428,-0.137C0.431,-0.138 0.433,-0.14 0.436,-0.142C0.438,-0.143 0.452,-0.153 0.453,-0.154C0.455,-0.155 0.456,-0.156 0.458,-0.156C0.459,-0.156 0.461,-0.157 0.462,-0.157ZM0.267,-0.483C0.257,-0.483 0.247,-0.475 0.238,-0.46C0.229,-0.444 0.222,-0.424 0.217,-0.399C0.212,-0.374 0.209,-0.347 0.209,-0.319C0.209,-0.31 0.209,-0.301 0.21,-0.292C0.218,-0.289 0.225,-0.288 0.232,-0.288C0.249,-0.288 0.263,-0.294 0.273,-0.304C0.283,-0.315 0.291,-0.329 0.296,-0.346C0.3,-0.363 0.303,-0.38 0.303,-0.397C0.303,-0.419 0.299,-0.439 0.293,-0.457C0.286,-0.474 0.278,-0.483 0.267,-0.483Z" style="fill:rgb(17,98,113);fill-rule:nonzero;"/>
                </g>
                <g transform="matrix(183.333,0,0,183.333,2160.68,9523)">
                    <path d="M0.26,-0.434C0.277,-0.467 0.297,-0.49 0.32,-0.505C0.344,-0.519 0.368,-0.526 0.393,-0.526C0.43,-0.526 0.46,-0.52 0.484,-0.507C0.508,-0.495 0.527,-0.478 0.541,-0.458C0.555,-0.437 0.566,-0.415 0.572,-0.39C0.578,-0.366 0.581,-0.342 0.581,-0.318L0.581,-0.102C0.581,-0.081 0.591,-0.06 0.613,-0.038C0.634,-0.016 0.66,0.004 0.69,0.023C0.721,0.041 0.751,0.056 0.781,0.068C0.812,0.079 0.836,0.085 0.854,0.085C0.869,0.085 0.881,0.083 0.89,0.078C0.899,0.073 0.908,0.067 0.916,0.061C0.924,0.054 0.933,0.049 0.942,0.044C0.952,0.039 0.964,0.037 0.98,0.037C1.004,0.037 1.024,0.042 1.041,0.052C1.058,0.063 1.071,0.076 1.08,0.093C1.089,0.109 1.094,0.126 1.094,0.144C1.094,0.162 1.089,0.178 1.079,0.194C1.07,0.21 1.055,0.223 1.035,0.234C1.014,0.244 0.988,0.249 0.956,0.249C0.926,0.249 0.898,0.243 0.873,0.231C0.848,0.219 0.824,0.203 0.801,0.184C0.778,0.166 0.755,0.146 0.732,0.124C0.709,0.103 0.685,0.083 0.659,0.064C0.634,0.045 0.606,0.03 0.576,0.018C0.545,0.006 0.511,-0 0.474,-0L0.457,-0C0.443,-0 0.428,-0.001 0.414,-0.001C0.4,-0.002 0.387,-0.003 0.376,-0.004C0.365,-0.006 0.355,-0.009 0.348,-0.012C0.341,-0.016 0.338,-0.021 0.338,-0.028C0.338,-0.035 0.339,-0.04 0.341,-0.043C0.343,-0.047 0.345,-0.05 0.348,-0.052C0.351,-0.055 0.354,-0.058 0.357,-0.062C0.359,-0.065 0.362,-0.07 0.364,-0.076C0.366,-0.082 0.367,-0.091 0.367,-0.102L0.368,-0.328C0.368,-0.336 0.368,-0.346 0.367,-0.358C0.366,-0.369 0.364,-0.38 0.361,-0.391C0.357,-0.402 0.352,-0.411 0.345,-0.419C0.338,-0.426 0.328,-0.43 0.316,-0.43C0.308,-0.43 0.301,-0.425 0.295,-0.417C0.288,-0.408 0.282,-0.397 0.277,-0.383C0.272,-0.37 0.268,-0.355 0.265,-0.34C0.263,-0.325 0.261,-0.311 0.261,-0.299L0.261,-0.101C0.261,-0.095 0.261,-0.09 0.262,-0.085C0.262,-0.081 0.263,-0.077 0.264,-0.074C0.266,-0.07 0.267,-0.068 0.268,-0.065C0.27,-0.063 0.271,-0.061 0.273,-0.059C0.275,-0.057 0.281,-0.051 0.282,-0.049C0.284,-0.048 0.285,-0.046 0.286,-0.044C0.288,-0.042 0.288,-0.04 0.289,-0.037C0.29,-0.035 0.29,-0.032 0.29,-0.028C0.29,-0.023 0.288,-0.019 0.283,-0.015C0.279,-0.012 0.272,-0.009 0.264,-0.007C0.256,-0.005 0.247,-0.003 0.237,-0.002C0.227,-0.001 0.217,-0.001 0.205,-0.001C0.194,-0.001 0.183,-0 0.171,-0L0.137,-0C0.123,-0 0.109,-0.001 0.094,-0.001C0.08,-0.002 0.068,-0.003 0.056,-0.004C0.045,-0.006 0.036,-0.009 0.029,-0.012C0.022,-0.016 0.018,-0.021 0.018,-0.028C0.018,-0.035 0.019,-0.04 0.021,-0.043C0.023,-0.047 0.025,-0.05 0.028,-0.052C0.031,-0.055 0.034,-0.058 0.037,-0.062C0.04,-0.065 0.042,-0.07 0.044,-0.076C0.046,-0.082 0.047,-0.091 0.047,-0.102C0.047,-0.102 0.047,-0.203 0.047,-0.405C0.047,-0.436 0.046,-0.459 0.043,-0.475C0.04,-0.491 0.037,-0.502 0.033,-0.509C0.03,-0.516 0.026,-0.521 0.024,-0.525C0.021,-0.528 0.02,-0.534 0.02,-0.541C0.02,-0.55 0.026,-0.557 0.039,-0.563C0.051,-0.569 0.067,-0.576 0.087,-0.583C0.106,-0.591 0.126,-0.601 0.147,-0.613C0.168,-0.625 0.187,-0.641 0.205,-0.662C0.209,-0.668 0.214,-0.672 0.219,-0.675C0.224,-0.677 0.229,-0.679 0.233,-0.679C0.24,-0.679 0.247,-0.675 0.252,-0.668C0.257,-0.661 0.259,-0.653 0.259,-0.642L0.26,-0.434Z" style="fill:rgb(17,98,113);fill-rule:nonzero;"/>
                </g>
                <g transform="matrix(183.333,0,0,183.333,2274.99,9523)">
                    <path d="M0.253,-0.032C0.258,-0.032 0.263,-0.034 0.267,-0.038C0.271,-0.042 0.275,-0.048 0.28,-0.055C0.284,-0.062 0.287,-0.07 0.291,-0.08C0.294,-0.09 0.297,-0.101 0.3,-0.114C0.303,-0.126 0.306,-0.139 0.308,-0.153C0.311,-0.166 0.313,-0.181 0.315,-0.196C0.316,-0.21 0.318,-0.226 0.319,-0.241C0.321,-0.256 0.322,-0.272 0.322,-0.287C0.323,-0.303 0.323,-0.318 0.323,-0.333C0.323,-0.363 0.322,-0.39 0.319,-0.414C0.317,-0.438 0.313,-0.458 0.307,-0.473C0.301,-0.488 0.294,-0.495 0.285,-0.495C0.276,-0.495 0.268,-0.489 0.261,-0.477C0.253,-0.465 0.247,-0.448 0.241,-0.428C0.235,-0.407 0.23,-0.384 0.226,-0.358C0.222,-0.332 0.219,-0.305 0.217,-0.277C0.214,-0.249 0.213,-0.222 0.213,-0.195C0.213,-0.173 0.214,-0.152 0.216,-0.132C0.217,-0.112 0.22,-0.095 0.223,-0.08C0.226,-0.065 0.231,-0.053 0.236,-0.045C0.241,-0.036 0.247,-0.032 0.253,-0.032ZM0.29,-0.539C0.332,-0.539 0.369,-0.532 0.4,-0.518C0.431,-0.504 0.457,-0.485 0.478,-0.462C0.498,-0.438 0.513,-0.412 0.523,-0.382C0.534,-0.352 0.539,-0.321 0.539,-0.289C0.539,-0.252 0.532,-0.217 0.52,-0.181C0.507,-0.145 0.489,-0.113 0.464,-0.084C0.44,-0.055 0.41,-0.032 0.374,-0.015C0.337,0.003 0.296,0.011 0.249,0.011C0.206,0.011 0.169,0.004 0.138,-0.009C0.107,-0.023 0.08,-0.042 0.06,-0.065C0.039,-0.088 0.024,-0.115 0.014,-0.145C0.004,-0.174 -0.001,-0.205 -0.001,-0.237C-0.001,-0.274 0.005,-0.31 0.018,-0.345C0.03,-0.381 0.049,-0.413 0.073,-0.442C0.098,-0.471 0.128,-0.495 0.165,-0.512C0.201,-0.53 0.243,-0.539 0.29,-0.539Z" style="fill:rgb(17,98,113);fill-rule:nonzero;"/>
                </g>
                <g transform="matrix(183.333,0,0,183.333,2373.64,9523)">
                    <path d="M0.29,-0.028C0.29,-0.023 0.288,-0.019 0.283,-0.015C0.279,-0.012 0.272,-0.009 0.264,-0.007C0.256,-0.005 0.247,-0.003 0.237,-0.002C0.227,-0.001 0.217,-0.001 0.205,-0.001C0.194,-0.001 0.183,-0 0.171,-0L0.137,-0C0.123,-0 0.109,-0.001 0.094,-0.001C0.08,-0.002 0.068,-0.003 0.056,-0.004C0.045,-0.006 0.036,-0.009 0.029,-0.012C0.022,-0.016 0.018,-0.021 0.018,-0.028C0.018,-0.035 0.019,-0.04 0.021,-0.043C0.023,-0.047 0.025,-0.05 0.028,-0.052C0.031,-0.055 0.034,-0.058 0.037,-0.062C0.04,-0.065 0.042,-0.07 0.044,-0.076C0.046,-0.082 0.047,-0.091 0.047,-0.102C0.047,-0.102 0.047,-0.203 0.047,-0.405C0.047,-0.436 0.046,-0.459 0.043,-0.475C0.04,-0.491 0.037,-0.502 0.033,-0.509C0.03,-0.516 0.026,-0.521 0.024,-0.525C0.021,-0.528 0.02,-0.534 0.02,-0.541C0.02,-0.55 0.026,-0.557 0.039,-0.563C0.051,-0.569 0.067,-0.576 0.087,-0.583C0.106,-0.591 0.126,-0.601 0.147,-0.613C0.168,-0.625 0.187,-0.641 0.205,-0.662C0.209,-0.668 0.214,-0.672 0.219,-0.675C0.224,-0.677 0.229,-0.679 0.233,-0.679C0.24,-0.679 0.247,-0.675 0.252,-0.668C0.257,-0.661 0.259,-0.653 0.259,-0.642L0.261,-0.102C0.261,-0.096 0.261,-0.09 0.262,-0.086C0.262,-0.081 0.263,-0.077 0.264,-0.074C0.266,-0.071 0.267,-0.068 0.268,-0.066C0.27,-0.063 0.271,-0.061 0.273,-0.059C0.275,-0.058 0.281,-0.051 0.282,-0.05C0.284,-0.048 0.285,-0.046 0.286,-0.044C0.288,-0.042 0.288,-0.04 0.289,-0.038C0.29,-0.035 0.29,-0.032 0.29,-0.028Z" style="fill:rgb(17,98,113);fill-rule:nonzero;"/>
                </g>
                <g transform="matrix(183.333,0,0,183.333,2429.68,9523)">
                    <path d="M0.537,-0.642L0.537,-0.102C0.537,-0.094 0.537,-0.087 0.538,-0.082C0.539,-0.077 0.54,-0.073 0.542,-0.069C0.544,-0.066 0.546,-0.063 0.548,-0.06C0.55,-0.058 0.558,-0.05 0.56,-0.048C0.562,-0.045 0.563,-0.043 0.564,-0.04C0.565,-0.037 0.565,-0.033 0.565,-0.028C0.565,-0.02 0.56,-0.013 0.548,-0.009C0.537,-0.005 0.522,-0.003 0.505,-0.002C0.487,-0.001 0.469,-0 0.451,-0C0.432,-0 0.416,-0.001 0.401,-0.002C0.387,-0.004 0.374,-0.007 0.363,-0.013C0.352,-0.019 0.343,-0.029 0.335,-0.042C0.323,-0.029 0.309,-0.018 0.293,-0.011C0.277,-0.004 0.262,-0 0.246,-0C0.172,-0 0.113,-0.026 0.069,-0.078C0.025,-0.129 0.003,-0.2 0.003,-0.291C0.003,-0.321 0.007,-0.351 0.015,-0.379C0.023,-0.407 0.035,-0.432 0.051,-0.454C0.067,-0.476 0.087,-0.494 0.11,-0.507C0.134,-0.52 0.161,-0.526 0.192,-0.526C0.217,-0.526 0.241,-0.519 0.264,-0.505C0.287,-0.491 0.307,-0.468 0.324,-0.436C0.323,-0.458 0.321,-0.476 0.318,-0.487C0.315,-0.499 0.312,-0.508 0.309,-0.513C0.305,-0.519 0.302,-0.523 0.3,-0.527C0.298,-0.53 0.296,-0.535 0.296,-0.541C0.296,-0.55 0.303,-0.557 0.315,-0.563C0.328,-0.569 0.344,-0.576 0.364,-0.583C0.383,-0.591 0.403,-0.601 0.424,-0.613C0.445,-0.625 0.464,-0.641 0.482,-0.662C0.492,-0.673 0.501,-0.679 0.51,-0.679C0.518,-0.679 0.524,-0.675 0.529,-0.668C0.534,-0.661 0.537,-0.653 0.537,-0.642ZM0.322,-0.114C0.322,-0.16 0.322,-0.186 0.323,-0.194C0.323,-0.202 0.323,-0.238 0.323,-0.3C0.323,-0.317 0.321,-0.335 0.316,-0.355C0.311,-0.376 0.305,-0.393 0.297,-0.408C0.289,-0.422 0.28,-0.43 0.27,-0.43C0.258,-0.43 0.248,-0.423 0.24,-0.409C0.233,-0.395 0.227,-0.377 0.223,-0.355C0.219,-0.332 0.217,-0.308 0.217,-0.283C0.217,-0.251 0.22,-0.219 0.226,-0.188C0.232,-0.156 0.241,-0.13 0.252,-0.11C0.263,-0.089 0.278,-0.079 0.294,-0.079C0.303,-0.079 0.309,-0.083 0.313,-0.09C0.317,-0.097 0.32,-0.105 0.322,-0.114Z" style="fill:rgb(17,98,113);fill-rule:nonzero;"/>
                </g>
                <g transform="matrix(183.333,0,0,183.333,2536.2,9523)">
                    <path d="M0.462,-0.157C0.466,-0.157 0.47,-0.155 0.473,-0.152C0.476,-0.149 0.478,-0.144 0.478,-0.139C0.478,-0.119 0.466,-0.098 0.443,-0.077C0.42,-0.056 0.39,-0.038 0.354,-0.023C0.318,-0.008 0.281,-0 0.243,-0C0.203,-0 0.168,-0.008 0.138,-0.023C0.108,-0.038 0.082,-0.057 0.061,-0.083C0.041,-0.108 0.025,-0.136 0.014,-0.167C0.004,-0.199 -0.001,-0.231 -0.001,-0.264C-0.001,-0.297 0.004,-0.329 0.015,-0.36C0.026,-0.391 0.042,-0.419 0.064,-0.444C0.086,-0.469 0.114,-0.489 0.148,-0.504C0.181,-0.519 0.221,-0.526 0.267,-0.526C0.29,-0.526 0.314,-0.524 0.34,-0.518C0.365,-0.512 0.389,-0.503 0.411,-0.491C0.433,-0.479 0.451,-0.463 0.465,-0.443C0.479,-0.424 0.486,-0.4 0.486,-0.373C0.486,-0.347 0.481,-0.325 0.471,-0.307C0.46,-0.29 0.446,-0.275 0.429,-0.265C0.412,-0.254 0.392,-0.247 0.37,-0.242C0.349,-0.237 0.327,-0.235 0.304,-0.235C0.274,-0.235 0.244,-0.238 0.217,-0.245C0.222,-0.221 0.229,-0.2 0.24,-0.18C0.251,-0.161 0.265,-0.146 0.283,-0.134C0.301,-0.122 0.323,-0.117 0.349,-0.117C0.355,-0.117 0.361,-0.117 0.367,-0.117C0.372,-0.118 0.377,-0.119 0.382,-0.12C0.387,-0.121 0.392,-0.122 0.396,-0.123C0.401,-0.124 0.405,-0.126 0.408,-0.127C0.412,-0.129 0.416,-0.13 0.419,-0.132C0.422,-0.133 0.425,-0.135 0.428,-0.137C0.431,-0.138 0.433,-0.14 0.436,-0.142C0.438,-0.143 0.452,-0.153 0.453,-0.154C0.455,-0.155 0.456,-0.156 0.458,-0.156C0.459,-0.156 0.461,-0.157 0.462,-0.157ZM0.267,-0.483C0.257,-0.483 0.247,-0.475 0.238,-0.46C0.229,-0.444 0.222,-0.424 0.217,-0.399C0.212,-0.374 0.209,-0.347 0.209,-0.319C0.209,-0.31 0.209,-0.301 0.21,-0.292C0.218,-0.289 0.225,-0.288 0.232,-0.288C0.249,-0.288 0.263,-0.294 0.273,-0.304C0.283,-0.315 0.291,-0.329 0.296,-0.346C0.3,-0.363 0.303,-0.38 0.303,-0.397C0.303,-0.419 0.299,-0.439 0.293,-0.457C0.286,-0.474 0.278,-0.483 0.267,-0.483Z" style="fill:rgb(17,98,113);fill-rule:nonzero;"/>
                </g>
            </g>
        </g>
    </g>
</svg>
