<?xml version="1.0" encoding="UTF-8" standalone="no"?>
<!DOCTYPE svg PUBLIC "-//W3C//DTD SVG 1.1//EN" "http://www.w3.org/Graphics/SVG/1.1/DTD/svg11.dtd">
<svg width="100%" height="100%" viewBox="0 0 7251 1978" version="1.1" xmlns="http://www.w3.org/2000/svg" xmlns:xlink="http://www.w3.org/1999/xlink" xml:space="preserve" xmlns:serif="http://www.serif.com/" style="fill-rule:evenodd;clip-rule:evenodd;stroke-linejoin:round;stroke-miterlimit:2;">
    <g transform="matrix(4.16667,0,0,4.16667,-3059.07,-10115)">
        <g transform="matrix(1.44238,3.65859e-16,-3.53281e-16,1.49373,-4119.66,-8245.72)">
            <g transform="matrix(0.6933,-1.69809e-16,1.63971e-16,0.669464,478.329,5831.06)">
                <path d="M5887.57,2328.62C5890.43,2328.62 5892.9,2329.76 5894.99,2332.04C5897.08,2334.32 5898.13,2337.39 5898.13,2341.26C5898.13,2355.16 5890.32,2369.58 5874.7,2384.5C5859.07,2399.42 5839.11,2412.07 5814.8,2422.43C5790.49,2432.8 5765.46,2437.98 5739.72,2437.98C5712.88,2437.98 5689.17,2432.8 5668.6,2422.43C5648.03,2412.07 5630.76,2398.11 5616.79,2380.57C5602.82,2363.02 5592.26,2343.26 5585.11,2321.27C5577.96,2299.28 5574.38,2276.79 5574.38,2253.77C5574.38,2230.76 5578.07,2208.32 5585.44,2186.45C5592.81,2164.57 5603.92,2144.87 5618.77,2127.32C5633.62,2109.78 5652.43,2095.82 5675.2,2085.45C5697.97,2075.09 5724.87,2069.91 5755.89,2069.91C5771.29,2069.91 5787.63,2071.9 5804.9,2075.89C5822.17,2079.87 5838.28,2086.14 5853.24,2094.68C5868.2,2103.23 5880.42,2114.33 5889.88,2128.01C5899.34,2141.68 5904.07,2158.19 5904.07,2177.56C5904.07,2195.79 5900.55,2211.05 5893.51,2223.36C5886.47,2235.66 5877.06,2245.51 5865.29,2252.92C5853.52,2260.32 5840.32,2265.68 5825.69,2268.98C5811.06,2272.29 5796.15,2273.94 5780.97,2273.94C5760.29,2273.94 5740.6,2271.66 5721.9,2267.1C5725.2,2283.51 5730.48,2298.49 5737.74,2312.04C5745,2325.6 5754.68,2336.42 5766.78,2344.51C5778.88,2352.6 5793.62,2356.64 5811,2356.64C5815.4,2356.64 5819.47,2356.47 5823.21,2356.13C5826.95,2355.79 5830.47,2355.28 5833.77,2354.59C5837.07,2353.91 5840.21,2353.11 5843.18,2352.2C5846.15,2351.29 5848.9,2350.32 5851.43,2349.3C5853.96,2348.27 5856.32,2347.19 5858.53,2346.05C5860.73,2344.91 5862.76,2343.77 5864.63,2342.63C5866.5,2341.49 5868.26,2340.35 5869.91,2339.22C5871.56,2338.08 5873.1,2336.99 5874.53,2335.97C5875.96,2334.94 5877.28,2333.97 5878.49,2333.06C5879.7,2332.15 5880.8,2331.35 5881.79,2330.67C5882.78,2329.99 5883.77,2329.47 5884.76,2329.13C5885.75,2328.79 5886.69,2328.62 5887.57,2328.62ZM5755.56,2100.32C5748.74,2100.32 5742.36,2105.73 5736.42,2116.56C5730.48,2127.38 5725.69,2141.56 5722.06,2159.11C5718.43,2176.65 5716.62,2195.33 5716.62,2215.16C5716.62,2221.53 5716.84,2227.91 5717.28,2234.29C5722.56,2235.89 5727.51,2236.69 5732.13,2236.69C5743.79,2236.69 5753.09,2232.87 5760.02,2225.24C5766.95,2217.6 5772.01,2207.92 5775.2,2196.19C5778.39,2184.45 5779.98,2172.55 5779.98,2160.47C5779.98,2144.98 5777.78,2131.08 5773.38,2118.78C5768.98,2106.47 5763.04,2100.32 5755.56,2100.32ZM5555.57,2322.47C5555.57,2342.97 5551.78,2360.12 5544.19,2373.9C5536.6,2387.69 5526.53,2398.85 5513.99,2407.4C5501.45,2415.94 5487.59,2422.43 5472.41,2426.88C5457.23,2431.32 5441.77,2434.28 5426.04,2435.76C5410.31,2437.24 5395.63,2437.98 5381.99,2437.98C5352.94,2437.98 5327.31,2434.74 5305.09,2428.24C5282.87,2421.75 5265.49,2412.07 5252.95,2399.19C5240.41,2386.32 5234.14,2370.32 5234.14,2351.18C5234.14,2340.47 5237.28,2331.75 5243.55,2325.03C5249.82,2318.31 5257.96,2313.36 5267.97,2310.16C5277.98,2306.97 5288.7,2305.38 5300.14,2305.38C5313.56,2305.38 5326.54,2306.97 5339.08,2310.16C5351.62,2313.36 5361.97,2318.65 5370.11,2326.06C5378.25,2333.46 5382.32,2343.66 5382.32,2356.64C5382.32,2364.16 5381.11,2371.06 5378.69,2377.32C5376.27,2383.59 5375.06,2390.02 5375.06,2396.63C5375.06,2399.82 5375.77,2402.44 5377.2,2404.49C5378.63,2406.54 5381.22,2407.57 5384.96,2407.57C5390.24,2407.57 5394.75,2404.49 5398.49,2398.34C5402.23,2392.19 5405.09,2385.18 5407.07,2377.32C5409.05,2369.46 5410.04,2363.25 5410.04,2358.7C5410.04,2346.16 5405.75,2335.63 5397.17,2327.08C5388.59,2318.54 5377.64,2310.96 5364.33,2304.36C5351.02,2297.75 5336.94,2291.2 5322.09,2284.7C5307.24,2278.21 5293.16,2270.69 5279.85,2262.15C5266.54,2253.6 5255.59,2243.24 5247.01,2231.05C5238.43,2218.86 5234.14,2203.65 5234.14,2185.42C5234.14,2166.51 5237.94,2150.39 5245.53,2137.06C5253.12,2123.73 5263.18,2112.68 5275.72,2103.91C5288.26,2095.14 5302.12,2088.25 5317.3,2083.23C5332.48,2078.22 5347.94,2074.75 5363.67,2072.81C5379.4,2070.87 5394.09,2069.91 5407.73,2069.91C5436.99,2069.91 5462.67,2073.15 5484.78,2079.64C5506.9,2086.14 5524.22,2095.76 5536.76,2108.52C5549.3,2121.28 5555.57,2137.35 5555.57,2156.71C5555.57,2167.42 5552.44,2176.14 5546.17,2182.86C5539.9,2189.58 5531.76,2194.53 5521.75,2197.72C5511.74,2200.91 5501.01,2202.51 5489.57,2202.51C5476.15,2202.51 5463.17,2200.91 5450.63,2197.72C5438.09,2194.53 5427.75,2189.18 5419.61,2181.66C5411.47,2174.14 5407.4,2164 5407.4,2151.24C5407.4,2143.95 5408.61,2137.06 5411.03,2130.57C5413.45,2124.07 5414.66,2117.64 5414.66,2111.26C5414.66,2108.07 5413.94,2105.45 5412.51,2103.4C5411.08,2101.35 5408.5,2100.32 5404.76,2100.32C5399.26,2100.32 5394.58,2103.74 5390.73,2110.57C5386.88,2117.41 5383.97,2124.99 5381.99,2133.3C5380.01,2141.62 5379.02,2148.28 5379.02,2153.3C5379.02,2165.37 5383.31,2175.45 5391.89,2183.54C5400.47,2191.63 5411.41,2198.81 5424.72,2205.07C5438.03,2211.34 5452.22,2217.6 5467.29,2223.87C5482.36,2230.14 5496.56,2237.48 5509.87,2245.91C5523.18,2254.34 5534.12,2264.65 5542.7,2276.84C5551.28,2289.03 5555.57,2304.24 5555.57,2322.47ZM5209.72,2322.47C5209.72,2342.97 5205.92,2360.12 5198.33,2373.9C5190.74,2387.69 5180.68,2398.85 5168.14,2407.4C5155.6,2415.94 5141.74,2422.43 5126.56,2426.88C5111.38,2431.32 5095.92,2434.28 5080.19,2435.76C5064.46,2437.24 5049.77,2437.98 5036.13,2437.98C5007.09,2437.98 4981.46,2434.74 4959.24,2428.24C4937.02,2421.75 4919.64,2412.07 4907.1,2399.19C4894.56,2386.32 4888.29,2370.32 4888.29,2351.18C4888.29,2340.47 4891.42,2331.75 4897.69,2325.03C4903.96,2318.31 4912.1,2313.36 4922.11,2310.16C4932.12,2306.97 4942.85,2305.38 4954.29,2305.38C4967.71,2305.38 4980.69,2306.97 4993.23,2310.16C5005.77,2313.36 5016.11,2318.65 5024.25,2326.06C5032.39,2333.46 5036.46,2343.66 5036.46,2356.64C5036.46,2364.16 5035.25,2371.06 5032.83,2377.32C5030.41,2383.59 5029.2,2390.02 5029.2,2396.63C5029.2,2399.82 5029.92,2402.44 5031.35,2404.49C5032.78,2406.54 5035.36,2407.57 5039.1,2407.57C5044.38,2407.57 5048.89,2404.49 5052.63,2398.34C5056.37,2392.19 5059.23,2385.18 5061.21,2377.32C5063.19,2369.46 5064.18,2363.25 5064.18,2358.7C5064.18,2346.16 5059.89,2335.63 5051.31,2327.08C5042.73,2318.54 5031.79,2310.96 5018.48,2304.36C5005.17,2297.75 4991.09,2291.2 4976.23,2284.7C4961.38,2278.21 4947.3,2270.69 4933.99,2262.15C4920.68,2253.6 4909.74,2243.24 4901.16,2231.05C4892.58,2218.86 4888.29,2203.65 4888.29,2185.42C4888.29,2166.51 4892.08,2150.39 4899.67,2137.06C4907.26,2123.73 4917.33,2112.68 4929.87,2103.91C4942.41,2095.14 4956.27,2088.25 4971.45,2083.23C4986.63,2078.22 5002.09,2074.75 5017.82,2072.81C5033.55,2070.87 5048.23,2069.91 5061.87,2069.91C5091.13,2069.91 5116.82,2073.15 5138.93,2079.64C5161.04,2086.14 5178.37,2095.76 5190.91,2108.52C5203.45,2121.28 5209.72,2137.35 5209.72,2156.71C5209.72,2167.42 5206.58,2176.14 5200.31,2182.86C5194.04,2189.58 5185.9,2194.53 5175.89,2197.72C5165.88,2200.91 5155.16,2202.51 5143.72,2202.51C5130.3,2202.51 5117.32,2200.91 5104.78,2197.72C5092.23,2194.53 5081.89,2189.18 5073.75,2181.66C5065.61,2174.14 5061.54,2164 5061.54,2151.24C5061.54,2143.95 5062.75,2137.06 5065.17,2130.57C5067.59,2124.07 5068.8,2117.64 5068.8,2111.26C5068.8,2108.07 5068.09,2105.45 5066.66,2103.4C5065.23,2101.35 5062.64,2100.32 5058.9,2100.32C5053.4,2100.32 5048.73,2103.74 5044.88,2110.57C5041.03,2117.41 5038.11,2124.99 5036.13,2133.3C5034.15,2141.62 5033.16,2148.28 5033.16,2153.3C5033.16,2165.37 5037.45,2175.45 5046.03,2183.54C5054.61,2191.63 5065.56,2198.81 5078.87,2205.07C5092.18,2211.34 5106.37,2217.6 5121.44,2223.87C5136.51,2230.14 5150.7,2237.48 5164.01,2245.91C5177.32,2254.34 5188.27,2264.65 5196.85,2276.84C5205.43,2289.03 5209.72,2304.24 5209.72,2322.47ZM4850.34,2328.62C4853.19,2328.62 4855.67,2329.76 4857.76,2332.04C4859.85,2334.32 4860.9,2337.39 4860.9,2341.26C4860.9,2355.16 4853.09,2369.58 4837.46,2384.5C4821.84,2399.42 4801.88,2412.07 4777.57,2422.43C4753.26,2432.8 4728.23,2437.98 4702.49,2437.98C4675.65,2437.98 4651.94,2432.8 4631.37,2422.43C4610.8,2412.07 4593.53,2398.11 4579.56,2380.57C4565.59,2363.02 4555.03,2343.26 4547.88,2321.27C4540.73,2299.28 4537.15,2276.79 4537.15,2253.77C4537.15,2230.76 4540.84,2208.32 4548.21,2186.45C4555.58,2164.57 4566.69,2144.87 4581.54,2127.32C4596.39,2109.78 4615.2,2095.82 4637.97,2085.45C4660.74,2075.09 4687.64,2069.91 4718.66,2069.91C4734.06,2069.91 4750.4,2071.9 4767.67,2075.89C4784.94,2079.87 4801.05,2086.14 4816.01,2094.68C4830.97,2103.23 4843.18,2114.33 4852.65,2128.01C4862.11,2141.68 4866.84,2158.19 4866.84,2177.56C4866.84,2195.79 4863.32,2211.05 4856.28,2223.36C4849.23,2235.66 4839.83,2245.51 4828.06,2252.92C4816.29,2260.32 4803.09,2265.68 4788.46,2268.98C4773.83,2272.29 4758.92,2273.94 4743.74,2273.94C4723.06,2273.94 4703.37,2271.66 4684.67,2267.1C4687.97,2283.51 4693.25,2298.49 4700.51,2312.04C4707.77,2325.6 4717.45,2336.42 4729.55,2344.51C4741.65,2352.6 4756.39,2356.64 4773.77,2356.64C4778.17,2356.64 4782.24,2356.47 4785.98,2356.13C4789.72,2355.79 4793.24,2355.28 4796.54,2354.59C4799.84,2353.91 4802.98,2353.11 4805.95,2352.2C4808.92,2351.29 4811.67,2350.32 4814.2,2349.3C4816.73,2348.27 4819.09,2347.19 4821.29,2346.05C4823.49,2344.91 4825.53,2343.77 4827.4,2342.63C4829.27,2341.49 4831.03,2340.35 4832.68,2339.22C4834.33,2338.08 4835.87,2336.99 4837.3,2335.97C4838.73,2334.94 4840.05,2333.97 4841.26,2333.06C4842.47,2332.15 4843.57,2331.35 4844.56,2330.67C4845.55,2329.99 4846.54,2329.47 4847.53,2329.13C4848.52,2328.79 4849.45,2328.62 4850.34,2328.62ZM4718.33,2100.32C4711.51,2100.32 4705.13,2105.73 4699.19,2116.56C4693.25,2127.38 4688.46,2141.56 4684.83,2159.11C4681.2,2176.65 4679.39,2195.33 4679.39,2215.16C4679.39,2221.53 4679.61,2227.91 4680.05,2234.29C4685.33,2235.89 4690.28,2236.69 4694.9,2236.69C4706.56,2236.69 4715.85,2232.87 4722.78,2225.24C4729.72,2217.6 4734.78,2207.92 4737.97,2196.19C4741.15,2184.45 4742.75,2172.55 4742.75,2160.47C4742.75,2144.98 4740.55,2131.08 4736.15,2118.78C4731.75,2106.47 4725.81,2100.32 4718.33,2100.32ZM4318.02,2407.57C4327.48,2407.57 4335.24,2403.98 4341.29,2396.8C4347.34,2389.62 4352.07,2380.4 4355.48,2369.12C4358.89,2357.84 4361.36,2345.65 4362.9,2332.55C4364.44,2319.45 4365.38,2306.75 4365.71,2294.44C4366.04,2282.14 4366.2,2271.66 4366.2,2263L4366.2,2034.02C4366.2,2029.92 4365.98,2026.27 4365.55,2023.08C4365.11,2019.89 4364.5,2017.16 4363.73,2014.88C4362.96,2012.6 4362.08,2010.67 4361.09,2009.07C4360.1,2007.48 4359.06,2006 4357.95,2004.63C4356.86,2003.26 4355.76,2002.07 4354.65,2001.04C4353.56,2000.02 4352.51,1998.93 4351.52,1997.79C4350.53,1996.65 4349.65,1995.4 4348.88,1994.03C4348.11,1992.67 4347.51,1991.13 4347.07,1989.42C4346.62,1987.71 4346.4,1985.6 4346.4,1983.1C4346.4,1976.72 4350.48,1972.16 4358.61,1969.43C4366.76,1966.69 4376.99,1964.98 4389.31,1964.3C4401.63,1963.62 4414.06,1963.28 4426.6,1963.28L4450.03,1963.28C4462.79,1963.28 4475.22,1963.62 4487.32,1964.3C4499.42,1964.98 4509.49,1966.69 4517.52,1969.43C4525.55,1972.16 4529.56,1976.72 4529.56,1983.1C4529.56,1988.57 4528.57,1992.61 4526.59,1995.23C4524.61,1997.85 4522.36,2000.36 4519.83,2002.75C4517.3,2005.14 4515.04,2008.62 4513.06,2013.17C4511.08,2017.73 4510.09,2024.68 4510.09,2034.02L4510.09,2246.94C4510.09,2312.33 4493.76,2360.52 4461.08,2391.5C4428.41,2422.49 4380.4,2437.98 4317.03,2437.98C4291.95,2437.98 4269.9,2433.54 4250.87,2424.66C4231.84,2415.77 4215.83,2403.64 4202.85,2388.26C4189.87,2372.88 4180.13,2355.45 4173.64,2335.97C4167.15,2316.49 4163.91,2296.15 4163.91,2274.96C4163.91,2264.71 4167.04,2256.34 4173.31,2249.84C4179.58,2243.35 4187.67,2238.51 4197.57,2235.32C4207.47,2232.13 4217.92,2230.53 4228.92,2230.53C4240.8,2230.53 4252.35,2232.24 4263.57,2235.66C4274.79,2239.08 4283.98,2244.15 4291.13,2250.87C4298.28,2257.59 4301.85,2265.74 4301.85,2275.3C4301.85,2282.82 4301.41,2289.26 4300.53,2294.62C4299.65,2299.97 4298.72,2306.86 4297.73,2315.29C4296.74,2323.72 4296.24,2336.59 4296.24,2353.91C4296.24,2363.93 4296.9,2372.99 4298.22,2381.08C4299.54,2389.17 4301.8,2395.61 4304.99,2400.39C4308.18,2405.18 4312.52,2407.57 4318.02,2407.57Z" style="fill:rgb(9,154,155);"/>
            </g>
        </g>
    </g>
</svg>
