<?xml version="1.0" encoding="UTF-8" standalone="no"?>
<!DOCTYPE svg PUBLIC "-//W3C//DTD SVG 1.1//EN" "http://www.w3.org/Graphics/SVG/1.1/DTD/svg11.dtd">
<svg width="100%" height="100%" viewBox="0 0 4697 938" version="1.1" xmlns="http://www.w3.org/2000/svg" xmlns:xlink="http://www.w3.org/1999/xlink" xml:space="preserve" xmlns:serif="http://www.serif.com/" style="fill-rule:evenodd;clip-rule:evenodd;stroke-linejoin:round;stroke-miterlimit:2;">
    <g transform="matrix(4.16667,0,0,4.16667,-7977.88,-25394.5)">
        <g transform="matrix(0.745473,0,0,0.745473,-6988.37,490.667)">
            <g id="kr-kindfield" serif:id="kr kindfield">
                <g transform="matrix(259.079,0,0,259.356,11936.5,7754.6)">
                    <path d="M0.741,-0.453L0.923,-0.102C0.929,-0.089 0.935,-0.079 0.941,-0.073C0.947,-0.067 0.952,-0.062 0.956,-0.059C0.96,-0.055 0.964,-0.052 0.966,-0.049C0.968,-0.046 0.969,-0.04 0.969,-0.033C0.969,-0.022 0.963,-0.015 0.95,-0.01C0.938,-0.006 0.922,-0.003 0.903,-0.002C0.884,-0.001 0.864,-0 0.844,-0C0.838,-0 0.828,-0.001 0.814,-0.001C0.799,-0.001 0.784,-0.003 0.768,-0.005C0.752,-0.007 0.738,-0.01 0.727,-0.015C0.715,-0.019 0.709,-0.026 0.709,-0.034C0.709,-0.041 0.711,-0.046 0.715,-0.05C0.718,-0.054 0.722,-0.058 0.726,-0.062C0.729,-0.065 0.731,-0.07 0.731,-0.076C0.731,-0.083 0.728,-0.091 0.723,-0.102C0.684,-0.174 0.645,-0.246 0.606,-0.318L0.587,-0.299L0.587,-0.102C0.587,-0.096 0.587,-0.09 0.588,-0.086C0.589,-0.081 0.589,-0.077 0.591,-0.074C0.592,-0.071 0.593,-0.068 0.594,-0.066C0.596,-0.063 0.597,-0.061 0.599,-0.059C0.601,-0.058 0.607,-0.051 0.609,-0.05C0.61,-0.048 0.611,-0.046 0.613,-0.044C0.614,-0.042 0.615,-0.04 0.615,-0.038C0.616,-0.035 0.616,-0.032 0.616,-0.028C0.616,-0.02 0.61,-0.013 0.598,-0.009C0.587,-0.005 0.571,-0.003 0.553,-0.002C0.535,-0.001 0.516,-0 0.498,-0L0.463,-0C0.449,-0 0.435,-0.001 0.421,-0.001C0.406,-0.002 0.394,-0.003 0.382,-0.004C0.371,-0.006 0.362,-0.009 0.355,-0.012C0.348,-0.016 0.344,-0.021 0.344,-0.028C0.344,-0.034 0.345,-0.038 0.346,-0.041C0.348,-0.044 0.35,-0.047 0.352,-0.05C0.354,-0.052 0.356,-0.054 0.359,-0.057C0.361,-0.059 0.364,-0.062 0.366,-0.066C0.368,-0.069 0.37,-0.074 0.371,-0.079C0.373,-0.085 0.374,-0.092 0.374,-0.102L0.374,-0.547C0.358,-0.566 0.339,-0.58 0.318,-0.589C0.298,-0.599 0.277,-0.604 0.255,-0.604C0.236,-0.604 0.219,-0.599 0.203,-0.591C0.186,-0.583 0.173,-0.571 0.163,-0.554C0.153,-0.538 0.148,-0.516 0.148,-0.491C0.148,-0.476 0.151,-0.464 0.156,-0.453C0.162,-0.443 0.17,-0.438 0.179,-0.438C0.188,-0.438 0.193,-0.444 0.194,-0.456C0.194,-0.46 0.193,-0.465 0.191,-0.469C0.189,-0.473 0.187,-0.478 0.185,-0.483C0.183,-0.489 0.182,-0.495 0.182,-0.502C0.182,-0.513 0.185,-0.524 0.191,-0.534C0.196,-0.544 0.205,-0.552 0.218,-0.559C0.231,-0.565 0.247,-0.568 0.267,-0.568C0.294,-0.568 0.314,-0.562 0.327,-0.548C0.34,-0.535 0.346,-0.519 0.346,-0.5C0.346,-0.484 0.341,-0.468 0.33,-0.452C0.319,-0.435 0.303,-0.422 0.281,-0.411C0.26,-0.4 0.233,-0.395 0.201,-0.395C0.16,-0.395 0.127,-0.402 0.101,-0.417C0.075,-0.432 0.055,-0.451 0.043,-0.475C0.031,-0.498 0.024,-0.523 0.024,-0.549C0.024,-0.586 0.033,-0.619 0.049,-0.646C0.065,-0.673 0.087,-0.695 0.114,-0.71C0.141,-0.725 0.17,-0.732 0.202,-0.732C0.234,-0.732 0.266,-0.724 0.3,-0.708C0.334,-0.691 0.364,-0.667 0.39,-0.636C0.4,-0.683 0.423,-0.719 0.457,-0.745C0.49,-0.771 0.534,-0.784 0.586,-0.784C0.623,-0.784 0.654,-0.778 0.678,-0.765C0.703,-0.752 0.721,-0.735 0.733,-0.714C0.745,-0.693 0.751,-0.672 0.751,-0.649C0.751,-0.626 0.745,-0.604 0.733,-0.582C0.72,-0.561 0.702,-0.543 0.678,-0.528C0.654,-0.514 0.623,-0.506 0.587,-0.503L0.587,-0.361C0.629,-0.403 0.671,-0.445 0.712,-0.486C0.73,-0.504 0.75,-0.525 0.772,-0.548C0.795,-0.571 0.818,-0.595 0.843,-0.619C0.868,-0.643 0.894,-0.665 0.92,-0.685C0.946,-0.706 0.972,-0.722 0.998,-0.735C1.023,-0.748 1.048,-0.754 1.07,-0.754C1.103,-0.754 1.129,-0.749 1.15,-0.739C1.17,-0.729 1.186,-0.716 1.195,-0.7C1.205,-0.684 1.21,-0.667 1.21,-0.649C1.21,-0.631 1.205,-0.614 1.196,-0.598C1.187,-0.581 1.174,-0.568 1.157,-0.558C1.14,-0.547 1.12,-0.542 1.096,-0.542C1.08,-0.542 1.067,-0.545 1.058,-0.55C1.048,-0.555 1.039,-0.56 1.031,-0.567C1.023,-0.573 1.014,-0.579 1.005,-0.584C0.996,-0.589 0.984,-0.591 0.969,-0.591C0.951,-0.591 0.932,-0.587 0.909,-0.578C0.887,-0.569 0.862,-0.555 0.834,-0.534C0.806,-0.514 0.775,-0.487 0.741,-0.453ZM1.246,-0.028C1.246,-0.023 1.244,-0.019 1.24,-0.015C1.235,-0.012 1.229,-0.009 1.221,-0.007C1.214,-0.005 1.205,-0.003 1.195,-0.002C1.186,-0.001 1.175,-0.001 1.164,-0.001C1.153,-0.001 1.143,-0 1.132,-0L1.098,-0C1.08,-0 1.063,-0.001 1.045,-0.002C1.027,-0.003 1.013,-0.005 1.001,-0.009C0.99,-0.013 0.984,-0.02 0.984,-0.028C0.984,-0.036 0.985,-0.042 0.988,-0.046C0.991,-0.049 0.994,-0.053 0.998,-0.057C1.002,-0.06 1.005,-0.065 1.008,-0.072C1.01,-0.078 1.012,-0.088 1.012,-0.102L1.013,-0.3C1.013,-0.33 1.011,-0.353 1.009,-0.369C1.006,-0.384 1.003,-0.395 0.999,-0.402C0.995,-0.409 0.992,-0.414 0.99,-0.418C0.987,-0.422 0.985,-0.427 0.985,-0.434C0.985,-0.444 0.992,-0.453 1.005,-0.461C1.018,-0.469 1.034,-0.477 1.052,-0.484C1.07,-0.491 1.087,-0.497 1.103,-0.502C1.12,-0.509 1.135,-0.514 1.15,-0.519C1.165,-0.524 1.177,-0.526 1.186,-0.526C1.194,-0.526 1.202,-0.524 1.208,-0.518C1.214,-0.513 1.217,-0.504 1.217,-0.49L1.218,-0.102C1.218,-0.095 1.219,-0.089 1.219,-0.084C1.22,-0.079 1.221,-0.075 1.223,-0.072C1.224,-0.069 1.225,-0.066 1.227,-0.063C1.229,-0.061 1.23,-0.059 1.232,-0.057C1.234,-0.055 1.236,-0.053 1.237,-0.051C1.239,-0.05 1.24,-0.048 1.242,-0.046C1.243,-0.044 1.244,-0.041 1.245,-0.038C1.246,-0.036 1.246,-0.032 1.246,-0.028ZM0.586,-0.548C0.616,-0.55 0.64,-0.556 0.657,-0.567C0.675,-0.577 0.688,-0.59 0.696,-0.605C0.703,-0.62 0.707,-0.634 0.707,-0.648C0.707,-0.663 0.703,-0.677 0.696,-0.688C0.689,-0.699 0.68,-0.705 0.669,-0.705C0.654,-0.705 0.641,-0.699 0.631,-0.687C0.62,-0.674 0.612,-0.66 0.605,-0.642C0.599,-0.625 0.594,-0.608 0.591,-0.59C0.588,-0.573 0.586,-0.559 0.586,-0.548Z" style="fill:rgb(9,154,155);fill-rule:nonzero;"/>
                </g>
                <g transform="matrix(259.079,0,0,259.356,12262.6,7754.6)">
                    <path d="M0.26,-0.433C0.276,-0.466 0.296,-0.49 0.32,-0.504C0.343,-0.519 0.368,-0.526 0.393,-0.526C0.43,-0.526 0.46,-0.52 0.484,-0.507C0.508,-0.495 0.527,-0.478 0.541,-0.458C0.555,-0.437 0.566,-0.415 0.572,-0.39C0.578,-0.366 0.581,-0.342 0.581,-0.318L0.581,-0.102C0.581,-0.096 0.581,-0.09 0.582,-0.086C0.582,-0.081 0.583,-0.077 0.584,-0.074C0.585,-0.071 0.587,-0.068 0.588,-0.066C0.59,-0.063 0.591,-0.061 0.593,-0.059C0.594,-0.058 0.601,-0.051 0.602,-0.05C0.604,-0.048 0.605,-0.046 0.606,-0.044C0.607,-0.042 0.608,-0.04 0.609,-0.038C0.61,-0.035 0.61,-0.032 0.61,-0.028C0.61,-0.023 0.608,-0.019 0.603,-0.015C0.598,-0.012 0.592,-0.009 0.584,-0.007C0.576,-0.005 0.567,-0.003 0.557,-0.002C0.547,-0.001 0.536,-0.001 0.525,-0.001C0.514,-0.001 0.503,-0 0.491,-0L0.457,-0C0.443,-0 0.428,-0.001 0.414,-0.001C0.4,-0.002 0.387,-0.003 0.376,-0.004C0.365,-0.006 0.355,-0.009 0.348,-0.012C0.341,-0.016 0.338,-0.021 0.338,-0.028C0.338,-0.034 0.339,-0.038 0.34,-0.041C0.342,-0.044 0.343,-0.047 0.345,-0.05C0.348,-0.052 0.35,-0.054 0.352,-0.057C0.355,-0.059 0.357,-0.062 0.359,-0.066C0.362,-0.069 0.364,-0.074 0.365,-0.08C0.366,-0.085 0.367,-0.093 0.367,-0.102C0.367,-0.177 0.368,-0.252 0.368,-0.328C0.368,-0.336 0.368,-0.346 0.367,-0.358C0.366,-0.369 0.364,-0.38 0.361,-0.391C0.357,-0.402 0.352,-0.411 0.345,-0.419C0.338,-0.426 0.328,-0.43 0.316,-0.43C0.308,-0.43 0.301,-0.425 0.295,-0.417C0.288,-0.408 0.282,-0.397 0.277,-0.383C0.272,-0.37 0.268,-0.355 0.265,-0.34C0.263,-0.325 0.261,-0.311 0.261,-0.299L0.261,-0.101C0.261,-0.095 0.261,-0.09 0.262,-0.085C0.262,-0.081 0.263,-0.077 0.264,-0.074C0.266,-0.07 0.267,-0.068 0.268,-0.065C0.27,-0.063 0.271,-0.061 0.273,-0.059C0.275,-0.057 0.281,-0.051 0.282,-0.049C0.284,-0.048 0.285,-0.046 0.286,-0.044C0.288,-0.042 0.288,-0.04 0.289,-0.037C0.29,-0.035 0.29,-0.032 0.29,-0.028C0.29,-0.023 0.288,-0.019 0.283,-0.015C0.279,-0.012 0.272,-0.009 0.264,-0.007C0.256,-0.005 0.247,-0.003 0.237,-0.002C0.227,-0.001 0.217,-0.001 0.205,-0.001C0.194,-0.001 0.183,-0 0.171,-0L0.137,-0C0.123,-0 0.109,-0.001 0.094,-0.001C0.08,-0.002 0.068,-0.003 0.056,-0.004C0.045,-0.006 0.036,-0.009 0.029,-0.012C0.022,-0.016 0.018,-0.021 0.018,-0.028C0.018,-0.035 0.019,-0.04 0.021,-0.043C0.023,-0.047 0.025,-0.05 0.028,-0.052C0.031,-0.055 0.034,-0.058 0.037,-0.062C0.04,-0.065 0.042,-0.07 0.044,-0.076C0.046,-0.082 0.047,-0.091 0.047,-0.102C0.047,-0.101 0.047,-0.165 0.047,-0.293C0.047,-0.324 0.046,-0.348 0.043,-0.363C0.04,-0.379 0.037,-0.39 0.033,-0.397C0.03,-0.404 0.026,-0.41 0.024,-0.413C0.021,-0.417 0.02,-0.422 0.02,-0.429C0.02,-0.439 0.027,-0.447 0.041,-0.453C0.055,-0.459 0.072,-0.464 0.093,-0.469C0.114,-0.475 0.135,-0.48 0.156,-0.487C0.177,-0.494 0.194,-0.502 0.208,-0.513C0.22,-0.522 0.229,-0.526 0.237,-0.526C0.245,-0.526 0.25,-0.523 0.254,-0.516C0.257,-0.51 0.259,-0.501 0.259,-0.491L0.26,-0.433Z" style="fill:rgb(9,154,155);fill-rule:nonzero;"/>
                </g>
                <g transform="matrix(259.079,0,0,259.356,12422.3,7754.6)">
                    <path d="M0.537,-0.652L0.537,-0.102C0.537,-0.096 0.537,-0.09 0.538,-0.086C0.538,-0.081 0.539,-0.077 0.54,-0.074C0.541,-0.071 0.543,-0.068 0.544,-0.066C0.546,-0.063 0.547,-0.061 0.549,-0.059C0.55,-0.058 0.557,-0.051 0.558,-0.05C0.56,-0.048 0.561,-0.046 0.562,-0.044C0.563,-0.042 0.564,-0.04 0.565,-0.038C0.566,-0.035 0.566,-0.032 0.566,-0.028C0.566,-0.02 0.56,-0.013 0.549,-0.009C0.537,-0.005 0.523,-0.003 0.505,-0.002C0.488,-0.001 0.47,-0 0.451,-0C0.434,-0 0.419,-0.001 0.404,-0.002C0.39,-0.003 0.377,-0.007 0.365,-0.013C0.353,-0.019 0.344,-0.029 0.335,-0.042C0.323,-0.029 0.309,-0.018 0.294,-0.011C0.278,-0.004 0.262,-0 0.246,-0C0.172,-0 0.113,-0.026 0.069,-0.078C0.025,-0.129 0.003,-0.2 0.003,-0.291C0.003,-0.321 0.007,-0.351 0.015,-0.379C0.023,-0.407 0.035,-0.432 0.051,-0.454C0.067,-0.476 0.087,-0.494 0.11,-0.507C0.134,-0.52 0.161,-0.526 0.192,-0.526C0.217,-0.526 0.242,-0.519 0.265,-0.505C0.288,-0.491 0.307,-0.468 0.324,-0.436C0.323,-0.458 0.321,-0.476 0.318,-0.487C0.315,-0.499 0.312,-0.508 0.309,-0.513C0.305,-0.519 0.302,-0.523 0.3,-0.527C0.298,-0.53 0.296,-0.535 0.296,-0.541C0.296,-0.548 0.301,-0.554 0.309,-0.559C0.317,-0.564 0.328,-0.569 0.341,-0.574C0.355,-0.58 0.369,-0.586 0.386,-0.593C0.415,-0.607 0.439,-0.622 0.456,-0.637C0.474,-0.653 0.493,-0.672 0.513,-0.693C0.537,-0.72 0.563,-0.746 0.589,-0.772C0.616,-0.798 0.642,-0.821 0.669,-0.843C0.696,-0.864 0.722,-0.882 0.749,-0.895C0.775,-0.908 0.799,-0.915 0.823,-0.915C0.855,-0.915 0.882,-0.91 0.902,-0.899C0.922,-0.889 0.937,-0.876 0.947,-0.86C0.957,-0.844 0.961,-0.827 0.961,-0.81C0.961,-0.792 0.957,-0.775 0.948,-0.759C0.939,-0.742 0.926,-0.729 0.909,-0.718C0.892,-0.707 0.871,-0.702 0.848,-0.702C0.832,-0.702 0.819,-0.705 0.81,-0.709C0.8,-0.714 0.791,-0.72 0.783,-0.726C0.775,-0.733 0.767,-0.738 0.758,-0.743C0.749,-0.748 0.737,-0.75 0.722,-0.75C0.7,-0.75 0.673,-0.743 0.643,-0.728C0.612,-0.713 0.577,-0.688 0.537,-0.652ZM0.322,-0.114C0.322,-0.16 0.323,-0.186 0.323,-0.194C0.323,-0.202 0.323,-0.238 0.323,-0.3C0.323,-0.317 0.321,-0.335 0.316,-0.355C0.311,-0.376 0.305,-0.393 0.297,-0.408C0.289,-0.422 0.28,-0.43 0.27,-0.43C0.258,-0.43 0.248,-0.423 0.24,-0.409C0.233,-0.395 0.227,-0.377 0.223,-0.355C0.219,-0.332 0.217,-0.308 0.217,-0.283C0.217,-0.251 0.22,-0.219 0.226,-0.188C0.232,-0.156 0.241,-0.13 0.252,-0.11C0.263,-0.089 0.278,-0.079 0.294,-0.079C0.303,-0.079 0.309,-0.083 0.313,-0.09C0.317,-0.097 0.32,-0.105 0.322,-0.114Z" style="fill:rgb(9,154,155);fill-rule:nonzero;"/>
                </g>
                <g transform="matrix(259.079,0,0,259.356,12572.8,7754.6)">
                    <path d="M0.29,-0.028C0.29,-0.023 0.288,-0.019 0.283,-0.015C0.279,-0.012 0.272,-0.009 0.264,-0.007C0.256,-0.005 0.247,-0.003 0.237,-0.002C0.227,-0.001 0.217,-0.001 0.205,-0.001C0.194,-0.001 0.183,-0 0.171,-0L0.137,-0C0.123,-0 0.109,-0.001 0.094,-0.001C0.08,-0.002 0.068,-0.003 0.056,-0.004C0.045,-0.006 0.036,-0.009 0.029,-0.012C0.022,-0.016 0.018,-0.021 0.018,-0.028C0.018,-0.035 0.019,-0.04 0.021,-0.043C0.023,-0.047 0.025,-0.05 0.028,-0.052C0.031,-0.055 0.034,-0.058 0.037,-0.062C0.04,-0.065 0.042,-0.07 0.044,-0.076C0.046,-0.082 0.047,-0.091 0.047,-0.102C0.047,-0.102 0.047,-0.203 0.047,-0.405C0.047,-0.436 0.046,-0.459 0.043,-0.475C0.04,-0.491 0.037,-0.502 0.033,-0.509C0.03,-0.516 0.026,-0.521 0.024,-0.525C0.021,-0.528 0.02,-0.534 0.02,-0.541C0.02,-0.55 0.026,-0.557 0.039,-0.563C0.051,-0.569 0.067,-0.576 0.087,-0.583C0.106,-0.591 0.126,-0.601 0.147,-0.613C0.168,-0.625 0.187,-0.641 0.205,-0.662C0.209,-0.668 0.214,-0.672 0.219,-0.675C0.224,-0.677 0.229,-0.679 0.233,-0.679C0.24,-0.679 0.247,-0.675 0.252,-0.668C0.257,-0.661 0.259,-0.653 0.259,-0.642L0.261,-0.102C0.261,-0.096 0.261,-0.09 0.262,-0.086C0.262,-0.081 0.263,-0.077 0.264,-0.074C0.266,-0.071 0.267,-0.068 0.268,-0.066C0.27,-0.063 0.271,-0.061 0.273,-0.059C0.275,-0.058 0.281,-0.051 0.282,-0.05C0.284,-0.048 0.285,-0.046 0.286,-0.044C0.288,-0.042 0.288,-0.04 0.289,-0.038C0.29,-0.035 0.29,-0.032 0.29,-0.028Z" style="fill:rgb(9,154,155);fill-rule:nonzero;"/>
                </g>
                <g transform="matrix(259.079,0,0,259.356,12648.2,7754.6)">
                    <path d="M-0.008,-0.494C-0.008,-0.502 -0.006,-0.508 -0.002,-0.513C0.002,-0.517 0.009,-0.521 0.019,-0.522C0.028,-0.524 0.041,-0.526 0.057,-0.526C0.073,-0.526 0.093,-0.526 0.118,-0.526C0.142,-0.526 0.164,-0.526 0.184,-0.526C0.203,-0.526 0.221,-0.524 0.235,-0.522C0.25,-0.52 0.261,-0.517 0.269,-0.512C0.277,-0.508 0.281,-0.502 0.281,-0.493C0.281,-0.486 0.279,-0.48 0.275,-0.476C0.271,-0.473 0.267,-0.469 0.263,-0.465C0.259,-0.461 0.257,-0.456 0.257,-0.449C0.257,-0.443 0.259,-0.435 0.263,-0.425L0.347,-0.25C0.373,-0.315 0.4,-0.38 0.427,-0.445C0.427,-0.446 0.428,-0.448 0.428,-0.449C0.429,-0.451 0.429,-0.452 0.429,-0.454C0.43,-0.455 0.43,-0.457 0.43,-0.458C0.43,-0.464 0.428,-0.468 0.424,-0.471C0.42,-0.475 0.415,-0.477 0.409,-0.479C0.404,-0.482 0.399,-0.484 0.395,-0.487C0.391,-0.489 0.389,-0.493 0.389,-0.499C0.389,-0.505 0.391,-0.511 0.395,-0.515C0.399,-0.519 0.407,-0.522 0.419,-0.524C0.431,-0.525 0.449,-0.526 0.472,-0.526C0.481,-0.526 0.488,-0.526 0.494,-0.526C0.5,-0.526 0.505,-0.525 0.51,-0.524C0.514,-0.524 0.518,-0.523 0.521,-0.522C0.523,-0.521 0.526,-0.52 0.528,-0.518C0.529,-0.517 0.531,-0.515 0.531,-0.513C0.532,-0.511 0.533,-0.509 0.533,-0.507C0.533,-0.505 0.533,-0.502 0.533,-0.499C0.533,-0.492 0.531,-0.488 0.527,-0.485C0.523,-0.483 0.517,-0.481 0.511,-0.479C0.504,-0.477 0.498,-0.474 0.491,-0.469C0.484,-0.463 0.479,-0.455 0.474,-0.444C0.474,-0.444 0.453,-0.394 0.411,-0.295C0.37,-0.196 0.333,-0.106 0.3,-0.025C0.293,-0.005 0.285,0.014 0.277,0.035C0.269,0.055 0.259,0.074 0.249,0.091C0.239,0.108 0.226,0.122 0.212,0.133C0.198,0.144 0.181,0.149 0.161,0.149C0.133,0.149 0.11,0.144 0.092,0.133C0.073,0.123 0.059,0.109 0.05,0.091C0.041,0.074 0.037,0.054 0.037,0.033C0.037,0.019 0.04,0.008 0.048,-0C0.055,-0.009 0.065,-0.015 0.077,-0.019C0.089,-0.023 0.101,-0.025 0.114,-0.025C0.134,-0.025 0.15,-0.022 0.161,-0.016C0.172,-0.009 0.179,-0.001 0.184,0.009C0.188,0.019 0.19,0.03 0.19,0.041C0.19,0.05 0.188,0.057 0.184,0.063C0.181,0.068 0.179,0.074 0.179,0.079C0.179,0.084 0.182,0.087 0.189,0.087C0.2,0.087 0.208,0.08 0.212,0.066C0.217,0.052 0.22,0.035 0.22,0.016C0.22,-0.002 0.218,-0.019 0.215,-0.037C0.211,-0.055 0.206,-0.071 0.2,-0.084L0.034,-0.425C0.028,-0.438 0.022,-0.448 0.017,-0.454C0.012,-0.46 0.007,-0.465 0.004,-0.468C-0,-0.472 -0.003,-0.475 -0.005,-0.478C-0.007,-0.481 -0.008,-0.486 -0.008,-0.494Z" style="fill:rgb(9,154,155);fill-rule:nonzero;"/>
                </g>
                <g transform="matrix(259.079,0,0,259.356,12843.4,7754.6)">
                    <path d="M0.26,-0.426C0.268,-0.444 0.278,-0.461 0.29,-0.476C0.302,-0.491 0.315,-0.503 0.33,-0.512C0.345,-0.522 0.362,-0.526 0.38,-0.526C0.401,-0.526 0.418,-0.522 0.431,-0.515C0.445,-0.507 0.454,-0.497 0.46,-0.484C0.467,-0.471 0.47,-0.458 0.47,-0.443C0.47,-0.427 0.466,-0.411 0.458,-0.395C0.451,-0.379 0.44,-0.366 0.427,-0.355C0.413,-0.345 0.396,-0.34 0.377,-0.34C0.365,-0.34 0.354,-0.342 0.346,-0.347C0.338,-0.351 0.332,-0.357 0.326,-0.365C0.32,-0.373 0.314,-0.381 0.308,-0.391C0.305,-0.396 0.301,-0.398 0.297,-0.398C0.291,-0.398 0.285,-0.391 0.28,-0.377C0.274,-0.362 0.269,-0.347 0.266,-0.331C0.262,-0.315 0.26,-0.304 0.26,-0.299L0.261,-0.102C0.261,-0.087 0.266,-0.072 0.275,-0.057C0.285,-0.043 0.298,-0.028 0.314,-0.014C0.331,-0 0.349,0.013 0.368,0.025C0.388,0.037 0.408,0.047 0.429,0.056C0.449,0.065 0.469,0.072 0.487,0.077C0.505,0.082 0.521,0.085 0.534,0.085C0.549,0.085 0.561,0.083 0.57,0.078C0.579,0.073 0.588,0.067 0.596,0.061C0.604,0.054 0.612,0.049 0.622,0.044C0.632,0.039 0.645,0.037 0.66,0.037C0.684,0.037 0.704,0.042 0.721,0.052C0.738,0.063 0.751,0.076 0.76,0.093C0.769,0.109 0.774,0.126 0.774,0.144C0.774,0.162 0.769,0.178 0.76,0.194C0.75,0.21 0.735,0.223 0.715,0.234C0.694,0.244 0.668,0.249 0.636,0.249C0.605,0.249 0.578,0.243 0.552,0.231C0.527,0.219 0.503,0.203 0.48,0.184C0.458,0.166 0.435,0.146 0.412,0.124C0.389,0.103 0.365,0.083 0.34,0.064C0.314,0.045 0.287,0.03 0.256,0.018C0.226,0.006 0.192,-0 0.154,-0L0.137,-0C0.123,-0 0.109,-0.001 0.094,-0.001C0.08,-0.002 0.068,-0.003 0.056,-0.004C0.045,-0.006 0.036,-0.009 0.029,-0.012C0.022,-0.016 0.018,-0.021 0.018,-0.028C0.018,-0.035 0.019,-0.04 0.021,-0.043C0.023,-0.047 0.025,-0.05 0.028,-0.052C0.031,-0.055 0.034,-0.058 0.037,-0.062C0.04,-0.065 0.042,-0.07 0.044,-0.076C0.046,-0.082 0.047,-0.091 0.047,-0.102C0.047,-0.101 0.047,-0.165 0.047,-0.293C0.047,-0.324 0.046,-0.348 0.043,-0.363C0.04,-0.379 0.037,-0.39 0.033,-0.397C0.03,-0.404 0.026,-0.41 0.024,-0.413C0.021,-0.417 0.02,-0.422 0.02,-0.429C0.02,-0.439 0.027,-0.447 0.041,-0.453C0.055,-0.459 0.072,-0.464 0.093,-0.469C0.114,-0.475 0.135,-0.48 0.156,-0.487C0.177,-0.494 0.194,-0.502 0.208,-0.513C0.22,-0.522 0.229,-0.526 0.237,-0.526C0.245,-0.526 0.25,-0.523 0.254,-0.516C0.257,-0.51 0.259,-0.501 0.259,-0.491L0.26,-0.426Z" style="fill:rgb(9,154,155);fill-rule:nonzero;"/>
                </g>
                <g transform="matrix(259.079,0,0,259.356,12962.7,7754.6)">
                    <path d="M0.462,-0.157C0.466,-0.157 0.47,-0.155 0.473,-0.152C0.476,-0.149 0.478,-0.144 0.478,-0.139C0.478,-0.119 0.466,-0.098 0.443,-0.077C0.42,-0.056 0.39,-0.038 0.354,-0.023C0.318,-0.008 0.281,-0 0.243,-0C0.203,-0 0.168,-0.008 0.138,-0.023C0.108,-0.038 0.082,-0.057 0.061,-0.083C0.041,-0.108 0.025,-0.136 0.014,-0.167C0.004,-0.199 -0.001,-0.231 -0.001,-0.264C-0.001,-0.297 0.004,-0.329 0.015,-0.36C0.026,-0.391 0.042,-0.419 0.064,-0.444C0.086,-0.469 0.114,-0.489 0.148,-0.504C0.181,-0.519 0.221,-0.526 0.267,-0.526C0.29,-0.526 0.314,-0.524 0.34,-0.518C0.365,-0.512 0.389,-0.503 0.411,-0.491C0.433,-0.479 0.451,-0.463 0.465,-0.443C0.479,-0.424 0.486,-0.4 0.486,-0.373C0.486,-0.347 0.481,-0.325 0.471,-0.307C0.46,-0.29 0.446,-0.275 0.429,-0.265C0.412,-0.254 0.392,-0.247 0.37,-0.242C0.349,-0.237 0.327,-0.235 0.304,-0.235C0.274,-0.235 0.244,-0.238 0.217,-0.245C0.222,-0.221 0.229,-0.2 0.24,-0.18C0.251,-0.161 0.265,-0.146 0.283,-0.134C0.301,-0.122 0.323,-0.117 0.349,-0.117C0.355,-0.117 0.361,-0.117 0.367,-0.117C0.372,-0.118 0.377,-0.119 0.382,-0.12C0.387,-0.121 0.392,-0.122 0.396,-0.123C0.401,-0.124 0.405,-0.126 0.408,-0.127C0.412,-0.129 0.416,-0.13 0.419,-0.132C0.422,-0.133 0.425,-0.135 0.428,-0.137C0.431,-0.138 0.433,-0.14 0.436,-0.142C0.438,-0.143 0.452,-0.153 0.453,-0.154C0.455,-0.155 0.456,-0.156 0.458,-0.156C0.459,-0.156 0.461,-0.157 0.462,-0.157ZM0.267,-0.483C0.257,-0.483 0.247,-0.475 0.238,-0.46C0.229,-0.444 0.222,-0.424 0.217,-0.399C0.212,-0.374 0.209,-0.347 0.209,-0.319C0.209,-0.31 0.209,-0.301 0.21,-0.292C0.218,-0.289 0.225,-0.288 0.232,-0.288C0.249,-0.288 0.263,-0.294 0.273,-0.304C0.283,-0.315 0.291,-0.329 0.296,-0.346C0.3,-0.363 0.303,-0.38 0.303,-0.397C0.303,-0.419 0.299,-0.439 0.293,-0.457C0.286,-0.474 0.278,-0.483 0.267,-0.483Z" style="fill:rgb(9,154,155);fill-rule:nonzero;"/>
                </g>
                <g transform="matrix(259.079,0,0,259.356,13091.6,7754.6)">
                    <path d="M0.255,-0.436C0.272,-0.468 0.292,-0.491 0.315,-0.505C0.338,-0.519 0.361,-0.526 0.386,-0.526C0.417,-0.526 0.445,-0.52 0.469,-0.507C0.492,-0.494 0.512,-0.476 0.528,-0.454C0.543,-0.432 0.555,-0.407 0.563,-0.379C0.571,-0.351 0.575,-0.321 0.575,-0.291C0.575,-0.228 0.565,-0.176 0.545,-0.132C0.526,-0.089 0.497,-0.056 0.461,-0.034C0.425,-0.012 0.382,-0 0.333,-0C0.307,-0 0.281,-0.01 0.256,-0.03L0.256,0.106C0.256,0.112 0.257,0.118 0.257,0.122C0.258,0.127 0.259,0.131 0.26,0.134C0.261,0.137 0.262,0.14 0.264,0.142C0.265,0.145 0.267,0.147 0.269,0.149C0.27,0.15 0.277,0.157 0.278,0.158C0.28,0.16 0.281,0.162 0.282,0.164C0.283,0.166 0.284,0.168 0.285,0.17C0.285,0.173 0.286,0.176 0.286,0.18C0.286,0.188 0.28,0.195 0.268,0.199C0.256,0.203 0.24,0.206 0.222,0.207C0.204,0.208 0.186,0.208 0.167,0.208L0.132,0.208C0.118,0.208 0.104,0.208 0.09,0.207C0.076,0.207 0.063,0.206 0.052,0.204C0.04,0.202 0.031,0.199 0.024,0.196C0.017,0.192 0.014,0.187 0.014,0.18C0.014,0.173 0.015,0.168 0.017,0.165C0.019,0.161 0.021,0.158 0.024,0.156C0.027,0.153 0.03,0.15 0.032,0.146C0.035,0.143 0.038,0.138 0.04,0.132C0.042,0.126 0.042,0.117 0.042,0.106C0.043,0.107 0.043,-0.026 0.043,-0.293C0.043,-0.324 0.042,-0.348 0.039,-0.363C0.036,-0.379 0.033,-0.39 0.029,-0.397C0.025,-0.404 0.022,-0.41 0.019,-0.413C0.017,-0.417 0.015,-0.422 0.015,-0.429C0.015,-0.439 0.022,-0.447 0.036,-0.453C0.051,-0.459 0.068,-0.464 0.089,-0.469C0.11,-0.475 0.131,-0.48 0.151,-0.487C0.172,-0.494 0.19,-0.502 0.204,-0.513C0.215,-0.522 0.225,-0.526 0.233,-0.526C0.24,-0.526 0.246,-0.523 0.25,-0.516C0.253,-0.51 0.255,-0.501 0.255,-0.491L0.255,-0.436ZM0.284,-0.079C0.301,-0.079 0.316,-0.089 0.327,-0.11C0.339,-0.13 0.347,-0.156 0.353,-0.188C0.358,-0.219 0.361,-0.251 0.361,-0.283C0.361,-0.302 0.36,-0.32 0.358,-0.338C0.356,-0.356 0.353,-0.372 0.348,-0.385C0.344,-0.399 0.339,-0.41 0.332,-0.418C0.326,-0.426 0.318,-0.43 0.31,-0.43C0.3,-0.43 0.292,-0.424 0.285,-0.413C0.278,-0.402 0.273,-0.389 0.269,-0.374C0.264,-0.359 0.261,-0.344 0.259,-0.33C0.257,-0.316 0.256,-0.306 0.255,-0.298C0.256,-0.299 0.256,-0.239 0.256,-0.12C0.257,-0.11 0.26,-0.101 0.264,-0.092C0.269,-0.083 0.275,-0.079 0.284,-0.079Z" style="fill:rgb(9,154,155);fill-rule:nonzero;"/>
                </g>
                <g transform="matrix(259.079,0,0,259.356,13241.2,7754.6)">
                    <path d="M0.29,-0.028C0.29,-0.023 0.288,-0.019 0.283,-0.015C0.279,-0.012 0.272,-0.009 0.264,-0.007C0.256,-0.005 0.247,-0.003 0.237,-0.002C0.227,-0.001 0.217,-0.001 0.205,-0.001C0.194,-0.001 0.183,-0 0.171,-0L0.137,-0C0.123,-0 0.109,-0.001 0.094,-0.001C0.08,-0.002 0.068,-0.003 0.056,-0.004C0.045,-0.006 0.036,-0.009 0.029,-0.012C0.022,-0.016 0.018,-0.021 0.018,-0.028C0.018,-0.035 0.019,-0.04 0.021,-0.043C0.023,-0.047 0.025,-0.05 0.028,-0.052C0.031,-0.055 0.034,-0.058 0.037,-0.062C0.04,-0.065 0.042,-0.07 0.044,-0.076C0.046,-0.082 0.047,-0.091 0.047,-0.102C0.047,-0.102 0.047,-0.203 0.047,-0.405C0.047,-0.436 0.046,-0.459 0.043,-0.475C0.04,-0.491 0.037,-0.502 0.033,-0.509C0.03,-0.516 0.026,-0.521 0.024,-0.525C0.021,-0.528 0.02,-0.534 0.02,-0.541C0.02,-0.55 0.026,-0.557 0.039,-0.563C0.051,-0.569 0.067,-0.576 0.087,-0.583C0.106,-0.591 0.126,-0.601 0.147,-0.613C0.168,-0.625 0.187,-0.641 0.205,-0.662C0.209,-0.668 0.214,-0.672 0.219,-0.675C0.224,-0.677 0.229,-0.679 0.233,-0.679C0.24,-0.679 0.247,-0.675 0.252,-0.668C0.257,-0.661 0.259,-0.653 0.259,-0.642L0.261,-0.102C0.261,-0.096 0.261,-0.09 0.262,-0.086C0.262,-0.081 0.263,-0.077 0.264,-0.074C0.266,-0.071 0.267,-0.068 0.268,-0.066C0.27,-0.063 0.271,-0.061 0.273,-0.059C0.275,-0.058 0.281,-0.051 0.282,-0.05C0.284,-0.048 0.285,-0.046 0.286,-0.044C0.288,-0.042 0.288,-0.04 0.289,-0.038C0.29,-0.035 0.29,-0.032 0.29,-0.028Z" style="fill:rgb(9,154,155);fill-rule:nonzero;"/>
                </g>
                <g transform="matrix(259.079,0,0,259.356,13316.6,7754.6)">
                    <path d="M-0.008,-0.494C-0.008,-0.502 -0.006,-0.508 -0.002,-0.513C0.002,-0.517 0.009,-0.521 0.019,-0.522C0.028,-0.524 0.041,-0.526 0.057,-0.526C0.073,-0.526 0.093,-0.526 0.118,-0.526C0.142,-0.526 0.164,-0.526 0.184,-0.526C0.203,-0.526 0.221,-0.524 0.235,-0.522C0.25,-0.52 0.261,-0.517 0.269,-0.512C0.277,-0.508 0.281,-0.502 0.281,-0.493C0.281,-0.486 0.279,-0.48 0.275,-0.476C0.271,-0.473 0.267,-0.469 0.263,-0.465C0.259,-0.461 0.257,-0.456 0.257,-0.449C0.257,-0.443 0.259,-0.435 0.263,-0.425L0.347,-0.25C0.373,-0.315 0.4,-0.38 0.427,-0.445C0.427,-0.446 0.428,-0.448 0.428,-0.449C0.429,-0.451 0.429,-0.452 0.429,-0.454C0.43,-0.455 0.43,-0.457 0.43,-0.458C0.43,-0.464 0.428,-0.468 0.424,-0.471C0.42,-0.475 0.415,-0.477 0.409,-0.479C0.404,-0.482 0.399,-0.484 0.395,-0.487C0.391,-0.489 0.389,-0.493 0.389,-0.499C0.389,-0.505 0.391,-0.511 0.395,-0.515C0.399,-0.519 0.407,-0.522 0.419,-0.524C0.431,-0.525 0.449,-0.526 0.472,-0.526C0.481,-0.526 0.488,-0.526 0.494,-0.526C0.5,-0.526 0.505,-0.525 0.51,-0.524C0.514,-0.524 0.518,-0.523 0.521,-0.522C0.523,-0.521 0.526,-0.52 0.528,-0.518C0.529,-0.517 0.531,-0.515 0.531,-0.513C0.532,-0.511 0.533,-0.509 0.533,-0.507C0.533,-0.505 0.533,-0.502 0.533,-0.499C0.533,-0.492 0.531,-0.488 0.527,-0.485C0.523,-0.483 0.517,-0.481 0.511,-0.479C0.504,-0.477 0.498,-0.474 0.491,-0.469C0.484,-0.463 0.479,-0.455 0.474,-0.444C0.474,-0.444 0.453,-0.394 0.411,-0.295C0.37,-0.196 0.333,-0.106 0.3,-0.025C0.293,-0.005 0.285,0.014 0.277,0.035C0.269,0.055 0.259,0.074 0.249,0.091C0.239,0.108 0.226,0.122 0.212,0.133C0.198,0.144 0.181,0.149 0.161,0.149C0.133,0.149 0.11,0.144 0.092,0.133C0.073,0.123 0.059,0.109 0.05,0.091C0.041,0.074 0.037,0.054 0.037,0.033C0.037,0.019 0.04,0.008 0.048,-0C0.055,-0.009 0.065,-0.015 0.077,-0.019C0.089,-0.023 0.101,-0.025 0.114,-0.025C0.134,-0.025 0.15,-0.022 0.161,-0.016C0.172,-0.009 0.179,-0.001 0.184,0.009C0.188,0.019 0.19,0.03 0.19,0.041C0.19,0.05 0.188,0.057 0.184,0.063C0.181,0.068 0.179,0.074 0.179,0.079C0.179,0.084 0.182,0.087 0.189,0.087C0.2,0.087 0.208,0.08 0.212,0.066C0.217,0.052 0.22,0.035 0.22,0.016C0.22,-0.002 0.218,-0.019 0.215,-0.037C0.211,-0.055 0.206,-0.071 0.2,-0.084L0.034,-0.425C0.028,-0.438 0.022,-0.448 0.017,-0.454C0.012,-0.46 0.007,-0.465 0.004,-0.468C-0,-0.472 -0.003,-0.475 -0.005,-0.478C-0.007,-0.481 -0.008,-0.486 -0.008,-0.494Z" style="fill:rgb(9,154,155);fill-rule:nonzero;"/>
                </g>
            </g>
        </g>
    </g>
</svg>
