<?xml version="1.0" encoding="UTF-8" standalone="no"?>
<!DOCTYPE svg PUBLIC "-//W3C//DTD SVG 1.1//EN" "http://www.w3.org/Graphics/SVG/1.1/DTD/svg11.dtd">
<svg width="100%" height="100%" viewBox="0 0 9239 4916" version="1.1" xmlns="http://www.w3.org/2000/svg" xmlns:xlink="http://www.w3.org/1999/xlink" xml:space="preserve" xmlns:serif="http://www.serif.com/" style="fill-rule:evenodd;clip-rule:evenodd;stroke-linejoin:round;stroke-miterlimit:2;">
    <g transform="matrix(4.16667,0,0,4.16667,-1367.79,-7484.71)">
        <g transform="matrix(-2.2041e-16,1.14258,-0.8828,-1.56371e-16,3026.24,6823.49)">
            <g id="LJ-Kind" serif:id="LJ Kind" transform="matrix(9.65967e-17,-1.63387,1.30733,7.37785e-17,-13188.7,8094.59)">
                <g id="j-kindfield" serif:id="j kindfield" transform="matrix(2.39373,-3.21944e-31,-1.11766e-31,2.39373,2964.36,3688.85)">
                    <path d="M222.268,1297.81C224.219,1294.49 226.726,1291.32 229.855,1288.36C238.267,1280.39 248.046,1276.54 259.081,1276.53L265.768,1277.08L272.43,1278.86L278.693,1281.87L284.207,1285.93L289.116,1291.23L292.928,1297.67L295.226,1304.79L295.948,1311.97L295.106,1320.15L294.273,1322.7C297.01,1321.38 299.876,1320.24 302.874,1319.28C308.264,1317.56 313.753,1316.36 319.341,1315.69C324.497,1315.07 329.312,1314.77 333.784,1314.77C343.903,1314.76 352.774,1315.92 360.422,1318.08C367.815,1320.17 373.917,1323.19 378.866,1326.88C383.815,1323.18 389.931,1320.14 397.358,1318.04C405.035,1315.86 413.88,1314.68 423.917,1314.67C437.316,1314.65 448.76,1316.72 458.313,1320.48C470.072,1325.11 478.978,1332.46 485.244,1342.26C488.949,1348.06 491.67,1354.9 493.159,1362.87L496.149,1361.31L507.893,1359.46C516.988,1359.45 525.008,1361.85 532.031,1366.39C538.931,1370.85 544.543,1377.27 548.469,1385.98C551.643,1393.03 553.493,1401.63 553.504,1411.89C553.518,1423.86 551.43,1434.24 547.611,1443.08C545.916,1447.01 543.962,1450.63 541.761,1453.98C546.751,1454.57 551.374,1455.48 555.636,1456.69C565.867,1459.59 573.719,1464.2 579.522,1469.9L579.617,1470.02C584.579,1465.75 590.311,1462.15 596.852,1459.28C605.801,1455.35 616.335,1453.19 628.526,1453.19C634.397,1453.19 640.627,1453.88 647.21,1455.35C654.17,1456.9 660.659,1459.36 666.688,1462.68C673.816,1466.61 679.599,1471.76 684.106,1478.05C689.239,1485.21 692.079,1493.78 692.079,1503.93C692.079,1513.25 689.865,1520.97 686.137,1527.26C685.105,1529 683.978,1530.65 682.758,1532.2L683.775,1532.92L686.857,1536.95L688.961,1541.41L690.358,1549.71L689.564,1556.68L687.439,1562.95C685.395,1567.47 682.039,1572.26 676.928,1576.97C670.785,1582.64 663.006,1587.56 653.445,1591.5C643.86,1595.44 633.991,1597.4 623.843,1597.4C612.647,1597.4 602.795,1595.14 594.215,1590.97C587.847,1587.87 582.239,1583.97 577.373,1579.29C575.085,1581.59 572.562,1583.64 569.806,1585.45C564.443,1588.98 558.526,1591.68 552.033,1593.52C546.411,1595.1 540.686,1596.16 534.86,1596.69C529.637,1597.17 524.761,1597.4 520.232,1597.4C509.7,1597.4 500.415,1596.17 492.357,1593.9C484.056,1591.56 477.321,1588.09 471.974,1583.81C471.214,1584.38 470.435,1584.92 469.636,1585.45C464.273,1588.98 458.356,1591.68 451.863,1593.52C446.241,1595.1 440.516,1596.16 434.69,1596.69C429.467,1597.17 424.591,1597.4 420.062,1597.4C409.53,1597.4 400.245,1596.17 392.187,1593.9C382.909,1591.28 375.588,1587.25 369.975,1582.27C365.106,1585.75 359.472,1588.84 353.03,1591.5C343.446,1595.44 333.576,1597.4 323.428,1597.4C312.233,1597.4 302.381,1595.14 293.801,1590.97C285.219,1586.79 278.019,1581.16 272.153,1574.13C270.673,1575.85 269.103,1577.47 267.447,1578.98C254.752,1590.61 236.409,1597.4 211.788,1597.4C201.297,1597.4 192.103,1595.44 184.142,1591.85C175.821,1588.1 168.855,1582.93 163.18,1576.44C159.783,1572.55 156.907,1568.35 154.553,1563.83C152.786,1564.77 150.935,1565.63 148.999,1566.4C140.887,1569.63 131.486,1571.39 120.741,1571.39C115.854,1571.39 110.728,1571.12 105.365,1570.55C99.517,1569.93 93.816,1568.81 88.26,1567.19C81.855,1565.31 76.082,1562.66 70.912,1559.29C64.679,1555.22 59.697,1550.02 55.947,1543.69C52.098,1537.2 49.875,1529.39 49.875,1520.11C49.875,1513.82 51.048,1507.75 53.396,1501.9C54.889,1498.18 56.934,1494.66 59.591,1491.36C58.446,1489.31 57.509,1487.24 56.764,1485.16L55.068,1478.81L54.483,1472.19C54.483,1462.98 57.463,1454.1 64.047,1445.78C69.349,1439.09 76.619,1433.43 86.146,1429.21C93.051,1426.14 100.86,1424.21 109.606,1423.58L110.136,1419.74L112.936,1413.39L114.281,1411.77L114.245,1379.61C110.789,1380.24 107.057,1380.58 103.039,1380.58C91.322,1380.6 81.808,1378.03 74.304,1373.73C65.825,1368.87 59.711,1362.46 55.677,1354.78C51.79,1347.39 49.884,1339.64 49.875,1331.58C49.863,1320.6 52.477,1311.15 57.245,1303.12C62.143,1294.87 68.691,1288.48 76.833,1283.91C84.892,1279.38 93.672,1277.07 103.193,1277.06C111.937,1277.05 121.022,1279.16 130.357,1283.75C130.741,1283.93 131.123,1284.13 131.503,1284.32C133.345,1282.4 135.339,1280.62 137.479,1278.97C147.023,1271.61 159.095,1267.47 173.975,1267.45C184.674,1267.44 193.5,1269.67 200.604,1273.44C208.802,1277.81 214.767,1283.62 218.817,1290.55C220.205,1292.93 221.354,1295.35 222.268,1297.81ZM570.508,1544.46C570.508,1539.36 569.265,1535.11 566.78,1531.7C564.295,1528.29 561.125,1525.4 557.27,1523.05C553.415,1520.69 549.305,1518.63 544.94,1516.88C540.575,1515.13 536.465,1513.38 532.61,1511.62C528.754,1509.87 525.584,1507.87 523.099,1505.6C520.614,1503.34 519.372,1500.52 519.372,1497.14C519.372,1495.74 519.658,1493.88 520.232,1491.55C520.805,1489.23 521.65,1487.11 522.765,1485.2C523.88,1483.28 525.234,1482.33 526.827,1482.33C527.91,1482.33 528.659,1482.62 529.073,1483.19C529.487,1483.76 529.694,1484.5 529.694,1485.39C529.694,1487.17 529.344,1488.97 528.643,1490.79C527.942,1492.6 527.592,1494.53 527.592,1496.57C527.592,1500.14 528.77,1502.97 531.128,1505.08C533.486,1507.18 536.481,1508.68 540.113,1509.57C543.745,1510.46 547.504,1510.91 551.392,1510.91C554.705,1510.91 557.811,1510.46 560.711,1509.57C563.61,1508.68 565.968,1507.29 567.784,1505.41C569.6,1503.53 570.508,1501.09 570.508,1498.1C570.508,1492.68 568.692,1488.19 565.06,1484.62C561.428,1481.05 556.41,1478.36 550.006,1476.55C543.602,1474.73 536.162,1473.82 527.687,1473.82C523.736,1473.82 519.483,1474.09 514.927,1474.63C510.371,1475.18 505.894,1476.15 501.498,1477.55C497.101,1478.95 493.086,1480.88 489.454,1483.33C485.822,1485.79 482.907,1488.88 480.709,1492.6C478.51,1496.33 477.411,1500.84 477.411,1506.13C477.411,1511.23 478.654,1515.48 481.139,1518.89C483.624,1522.3 486.794,1525.2 490.649,1527.59C494.504,1529.98 498.582,1532.08 502.884,1533.89C507.185,1535.71 511.263,1537.54 515.118,1539.39C518.973,1541.24 522.143,1543.36 524.629,1545.75C527.114,1548.14 528.356,1551.08 528.356,1554.59C528.356,1555.86 528.069,1557.6 527.496,1559.8C526.922,1562 526.094,1563.95 525.011,1565.68C523.928,1567.4 522.621,1568.26 521.092,1568.26C520.009,1568.26 519.26,1567.97 518.846,1567.4C518.432,1566.82 518.225,1566.09 518.225,1565.2C518.225,1563.35 518.575,1561.55 519.276,1559.8C519.977,1558.05 520.327,1556.12 520.327,1554.02C520.327,1550.38 519.148,1547.53 516.791,1545.46C514.433,1543.39 511.438,1541.91 507.806,1541.02C504.174,1540.12 500.414,1539.68 496.527,1539.68C493.214,1539.68 490.107,1540.12 487.208,1541.02C484.309,1541.91 481.951,1543.29 480.135,1545.17C478.319,1547.05 477.411,1549.49 477.411,1552.49C477.411,1557.84 479.227,1562.32 482.859,1565.91C486.491,1569.52 491.525,1572.22 497.961,1574.04C504.397,1575.86 511.821,1576.76 520.232,1576.76C524.182,1576.76 528.436,1576.56 532.992,1576.14C537.548,1575.73 542.024,1574.9 546.421,1573.66C550.818,1572.41 554.832,1570.6 558.465,1568.21C562.097,1565.82 565.012,1562.7 567.21,1558.84C569.409,1554.99 570.508,1550.19 570.508,1544.46ZM366.249,1546.18C365.994,1546.18 365.723,1546.23 365.437,1546.32C365.15,1546.42 364.863,1546.56 364.576,1546.75C364.29,1546.94 363.971,1547.16 363.621,1547.42C363.27,1547.67 362.888,1547.95 362.474,1548.23C362.059,1548.52 361.613,1548.82 361.135,1549.14C360.657,1549.46 360.148,1549.78 359.606,1550.1C359.064,1550.41 358.475,1550.73 357.838,1551.05C357.201,1551.37 356.516,1551.67 355.783,1551.96C355.05,1552.25 354.253,1552.52 353.393,1552.77C352.533,1553.03 351.625,1553.25 350.669,1553.44C349.713,1553.63 348.694,1553.78 347.611,1553.87C346.527,1553.97 345.348,1554.02 344.074,1554.02C339.04,1554.02 334.771,1552.88 331.266,1550.62C327.761,1548.36 324.958,1545.33 322.855,1541.54C320.752,1537.75 319.223,1533.56 318.267,1528.97C323.683,1530.25 329.386,1530.88 335.376,1530.88C339.773,1530.88 344.09,1530.42 348.327,1529.5C352.565,1528.57 356.388,1527.08 359.797,1525.01C363.206,1522.93 365.93,1520.18 367.97,1516.74C370.009,1513.3 371.028,1509.03 371.028,1503.93C371.028,1498.51 369.658,1493.89 366.918,1490.07C364.178,1486.25 360.642,1483.14 356.308,1480.75C351.975,1478.36 347.308,1476.61 342.306,1475.49C337.304,1474.38 332.572,1473.82 328.112,1473.82C319.127,1473.82 311.337,1475.27 304.742,1478.17C298.147,1481.07 292.699,1484.97 288.397,1489.88C284.096,1494.79 280.878,1500.3 278.744,1506.41C276.609,1512.53 275.542,1518.81 275.542,1525.25C275.542,1531.68 276.577,1537.97 278.648,1544.12C280.719,1550.27 283.778,1555.8 287.824,1560.71C291.87,1565.61 296.872,1569.52 302.83,1572.41C308.788,1575.31 315.654,1576.76 323.428,1576.76C330.884,1576.76 338.132,1575.31 345.173,1572.41C352.214,1569.52 357.997,1565.98 362.521,1561.81C367.046,1557.63 369.308,1553.6 369.308,1549.71C369.308,1548.63 369.005,1547.77 368.4,1547.13C367.794,1546.5 367.077,1546.18 366.249,1546.18ZM328.016,1482.33C330.183,1482.33 331.903,1484.05 333.178,1487.49C334.452,1490.93 335.089,1494.82 335.089,1499.15C335.089,1502.53 334.627,1505.86 333.703,1509.14C332.779,1512.42 331.314,1515.13 329.307,1517.26C327.299,1519.4 324.607,1520.47 321.23,1520.47C319.892,1520.47 318.458,1520.24 316.929,1519.8C316.801,1518.01 316.738,1516.23 316.738,1514.44C316.738,1508.9 317.263,1503.67 318.315,1498.77C319.366,1493.86 320.752,1489.89 322.472,1486.87C324.193,1483.84 326.041,1482.33 328.016,1482.33ZM470.338,1544.46C470.338,1539.36 469.095,1535.11 466.61,1531.7C464.125,1528.29 460.955,1525.4 457.1,1523.05C453.245,1520.69 449.135,1518.63 444.77,1516.88C440.405,1515.13 436.295,1513.38 432.44,1511.62C428.584,1509.87 425.414,1507.87 422.929,1505.6C420.444,1503.34 419.201,1500.52 419.201,1497.14C419.201,1495.74 419.488,1493.88 420.062,1491.55C420.635,1489.23 421.48,1487.11 422.595,1485.2C423.71,1483.28 425.064,1482.33 426.657,1482.33C427.74,1482.33 428.489,1482.62 428.903,1483.19C429.317,1483.76 429.524,1484.5 429.524,1485.39C429.524,1487.17 429.174,1488.97 428.473,1490.79C427.772,1492.6 427.422,1494.53 427.422,1496.57C427.422,1500.14 428.6,1502.97 430.958,1505.08C433.316,1507.18 436.311,1508.68 439.943,1509.57C443.575,1510.46 447.334,1510.91 451.221,1510.91C454.535,1510.91 457.641,1510.46 460.541,1509.57C463.44,1508.68 465.798,1507.29 467.614,1505.41C469.43,1503.53 470.338,1501.09 470.338,1498.1C470.338,1492.68 468.522,1488.19 464.89,1484.62C461.258,1481.05 456.24,1478.36 449.836,1476.55C443.432,1474.73 435.992,1473.82 427.517,1473.82C423.566,1473.82 419.313,1474.09 414.757,1474.63C410.201,1475.18 405.724,1476.15 401.328,1477.55C396.931,1478.95 392.916,1480.88 389.284,1483.33C385.652,1485.79 382.737,1488.88 380.539,1492.6C378.34,1496.33 377.241,1500.84 377.241,1506.13C377.241,1511.23 378.484,1515.48 380.969,1518.89C383.454,1522.3 386.624,1525.2 390.479,1527.59C394.334,1529.98 398.412,1532.08 402.714,1533.89C407.015,1535.71 411.093,1537.54 414.948,1539.39C418.803,1541.24 421.973,1543.36 424.459,1545.75C426.944,1548.14 428.186,1551.08 428.186,1554.59C428.186,1555.86 427.899,1557.6 427.326,1559.8C426.752,1562 425.924,1563.95 424.841,1565.68C423.758,1567.4 422.451,1568.26 420.922,1568.26C419.839,1568.26 419.09,1567.97 418.676,1567.4C418.262,1566.82 418.055,1566.09 418.055,1565.2C418.055,1563.35 418.405,1561.55 419.106,1559.8C419.807,1558.05 420.157,1556.12 420.157,1554.02C420.157,1550.38 418.978,1547.53 416.621,1545.46C414.263,1543.39 411.268,1541.91 407.636,1541.02C404.004,1540.12 400.244,1539.68 396.357,1539.68C393.044,1539.68 389.937,1540.12 387.038,1541.02C384.139,1541.91 381.781,1543.29 379.965,1545.17C378.149,1547.05 377.241,1549.49 377.241,1552.49C377.241,1557.84 379.057,1562.32 382.689,1565.91C386.321,1569.52 391.355,1572.22 397.791,1574.04C404.227,1575.86 411.651,1576.76 420.062,1576.76C424.012,1576.76 428.266,1576.56 432.822,1576.14C437.378,1575.73 441.854,1574.9 446.251,1573.66C450.648,1572.41 454.662,1570.6 458.295,1568.21C461.927,1565.82 464.842,1562.7 467.04,1558.84C469.239,1554.99 470.338,1550.19 470.338,1544.46ZM666.663,1546.18C666.409,1546.18 666.138,1546.23 665.851,1546.32C665.564,1546.42 665.278,1546.56 664.991,1546.75C664.704,1546.94 664.385,1547.16 664.035,1547.42C663.685,1547.67 663.302,1547.95 662.888,1548.23C662.474,1548.52 662.028,1548.82 661.55,1549.14C661.072,1549.46 660.562,1549.78 660.021,1550.1C659.479,1550.41 658.889,1550.73 658.252,1551.05C657.615,1551.37 656.93,1551.67 656.197,1551.96C655.464,1552.25 654.668,1552.52 653.808,1552.77C652.947,1553.03 652.039,1553.25 651.084,1553.44C650.128,1553.63 649.108,1553.78 648.025,1553.87C646.942,1553.97 645.763,1554.02 644.488,1554.02C639.454,1554.02 635.185,1552.88 631.68,1550.62C628.176,1548.36 625.372,1545.33 623.269,1541.54C621.166,1537.75 619.637,1533.56 618.681,1528.97C624.098,1530.25 629.801,1530.88 635.79,1530.88C640.187,1530.88 644.504,1530.42 648.742,1529.5C652.979,1528.57 656.803,1527.08 660.212,1525.01C663.621,1522.93 666.345,1520.18 668.384,1516.74C670.423,1513.3 671.443,1509.03 671.443,1503.93C671.443,1498.51 670.073,1493.89 667.333,1490.07C664.593,1486.25 661.056,1483.14 656.723,1480.75C652.39,1478.36 647.722,1476.61 642.72,1475.49C637.718,1474.38 632.987,1473.82 628.526,1473.82C619.542,1473.82 611.752,1475.27 605.156,1478.17C598.561,1481.07 593.113,1484.97 588.812,1489.88C584.511,1494.79 581.293,1500.3 579.158,1506.41C577.023,1512.53 575.956,1518.81 575.956,1525.25C575.956,1531.68 576.992,1537.97 579.063,1544.12C581.133,1550.27 584.192,1555.8 588.238,1560.71C592.285,1565.61 597.287,1569.52 603.245,1572.41C609.203,1575.31 616.069,1576.76 623.843,1576.76C631.298,1576.76 638.546,1575.31 645.588,1572.41C652.629,1569.52 658.412,1565.98 662.936,1561.81C667.46,1557.63 669.722,1553.6 669.722,1549.71C669.722,1548.63 669.419,1547.77 668.814,1547.13C668.209,1546.5 667.492,1546.18 666.663,1546.18ZM628.431,1482.33C630.597,1482.33 632.318,1484.05 633.592,1487.49C634.867,1490.93 635.504,1494.82 635.504,1499.15C635.504,1502.53 635.042,1505.86 634.118,1509.14C633.194,1512.42 631.728,1515.13 629.721,1517.26C627.714,1519.4 625.022,1520.47 621.644,1520.47C620.306,1520.47 618.872,1520.24 617.343,1519.8C617.216,1518.01 617.152,1516.23 617.152,1514.44C617.152,1508.9 617.678,1503.67 618.729,1498.77C619.78,1493.86 621.166,1489.89 622.887,1486.87C624.607,1483.84 626.455,1482.33 628.431,1482.33ZM160.142,1517.12L160.142,1499.15C162.395,1499.15 164.174,1499.01 165.48,1498.72C166.785,1498.44 167.438,1497.43 167.438,1495.69C167.438,1494.82 167.131,1494.01 166.517,1493.27C165.902,1492.53 165.006,1492.16 163.829,1492.16L122.738,1492.16C119.563,1492.16 116.991,1491.3 115.019,1489.58C113.048,1487.87 111.614,1485.49 110.718,1482.44C109.822,1479.39 109.374,1475.92 109.374,1472.03C109.374,1468.25 109.771,1464.75 110.565,1461.55C111.358,1458.35 112.613,1455.79 114.328,1453.87C116.043,1451.95 118.283,1450.99 121.048,1450.99C122.636,1450.99 123.839,1451.54 124.658,1452.64C125.477,1453.74 126.053,1455.16 126.386,1456.9C126.719,1458.64 126.886,1460.54 126.886,1462.59C126.886,1466.43 126.668,1469.53 126.233,1471.88C125.797,1474.24 125.58,1476.1 125.58,1477.49C125.58,1479.64 126.412,1481.45 128.076,1482.94C129.74,1484.42 131.865,1485.55 134.451,1486.32C137.037,1487.09 139.712,1487.47 142.477,1487.47C147.546,1487.47 151.348,1486.56 153.882,1484.75C156.417,1482.93 157.684,1480.35 157.684,1477.03C157.684,1470.52 156.634,1465.13 154.535,1460.86C152.436,1456.58 149.504,1453.22 145.741,1450.76C141.978,1448.3 137.561,1446.56 132.492,1445.54C127.423,1444.51 121.893,1444 115.902,1444C107.761,1444 100.631,1445.36 94.512,1448.07C88.394,1450.78 83.632,1454.29 80.227,1458.59C76.822,1462.89 75.119,1467.42 75.119,1472.19C75.119,1476.23 76.54,1480.19 79.382,1484.05C82.224,1487.92 86.691,1491.31 92.784,1494.23C87.152,1495.77 82.71,1497.87 79.459,1500.53C76.207,1503.19 73.903,1506.21 72.546,1509.59C71.189,1512.97 70.511,1516.48 70.511,1520.11C70.511,1525.23 71.573,1529.59 73.698,1533.17C75.823,1536.75 78.652,1539.7 82.185,1542C85.718,1544.31 89.674,1546.1 94.052,1547.38C98.429,1548.66 102.922,1549.54 107.531,1550.03C112.139,1550.52 116.542,1550.76 120.741,1550.76C128.575,1550.76 135.449,1549.58 141.363,1547.23C147.277,1544.87 151.885,1541.21 155.188,1536.24C158.491,1531.28 160.142,1524.9 160.142,1517.12ZM134.105,1499.15L134.105,1527.64C134.105,1530.4 133.58,1533.03 132.531,1535.51C131.481,1538 129.97,1540.02 127.999,1541.58C126.028,1543.14 123.634,1543.92 120.818,1543.92C116.312,1543.92 112.856,1542.84 110.449,1540.66C108.043,1538.48 106.404,1535.65 105.534,1532.17C104.663,1528.69 104.228,1525.03 104.228,1521.19C104.228,1514.58 105.265,1509.26 107.339,1505.21C109.412,1501.17 112.446,1499.15 116.44,1499.15L134.105,1499.15ZM212.075,1568.26C210.482,1568.26 209.224,1567.59 208.3,1566.25C207.376,1564.91 206.723,1563.11 206.34,1560.85C205.958,1558.59 205.767,1556.05 205.767,1553.25C205.767,1548.41 205.91,1544.81 206.197,1542.45C206.484,1540.09 206.754,1538.16 207.009,1536.67C207.264,1535.17 207.392,1533.37 207.392,1531.27C207.392,1528.59 206.356,1526.31 204.285,1524.43C202.214,1522.55 199.554,1521.13 196.304,1520.18C193.054,1519.22 189.709,1518.75 186.268,1518.75C183.082,1518.75 180.055,1519.19 177.188,1520.08C174.32,1520.98 171.978,1522.33 170.162,1524.15C168.346,1525.96 167.438,1528.3 167.438,1531.17C167.438,1537.1 168.378,1542.78 170.258,1548.23C172.138,1553.68 174.957,1558.56 178.717,1562.86C182.477,1567.16 187.112,1570.55 192.624,1573.04C198.136,1575.52 204.524,1576.76 211.788,1576.76C230.14,1576.76 244.047,1572.43 253.51,1563.76C262.973,1555.1 267.704,1541.62 267.704,1523.33L267.704,1463.79C267.704,1461.17 267.991,1459.23 268.564,1457.95C269.138,1456.68 269.791,1455.71 270.524,1455.04C271.256,1454.37 271.91,1453.67 272.483,1452.94C273.057,1452.2 273.343,1451.07 273.343,1449.54C273.343,1447.76 272.18,1446.49 269.855,1445.72C267.529,1444.96 264.613,1444.48 261.109,1444.29C257.604,1444.1 254.004,1444 250.308,1444L243.522,1444C239.89,1444 236.289,1444.1 232.721,1444.29C229.152,1444.48 226.189,1444.96 223.832,1445.72C221.474,1446.49 220.295,1447.76 220.295,1449.54C220.295,1450.25 220.359,1450.83 220.486,1451.31C220.614,1451.79 220.789,1452.22 221.012,1452.6C221.235,1452.99 221.49,1453.34 221.777,1453.65C222.063,1453.97 222.366,1454.28 222.685,1454.56C223.003,1454.85 223.322,1455.18 223.641,1455.57C223.959,1455.95 224.262,1456.36 224.549,1456.81C224.835,1457.25 225.09,1457.8 225.313,1458.43C225.536,1459.07 225.712,1459.84 225.839,1460.73C225.966,1461.62 226.03,1462.64 226.03,1463.79L226.03,1527.83C226.03,1530.25 225.982,1533.18 225.887,1536.62C225.791,1540.06 225.52,1543.61 225.074,1547.28C224.628,1550.94 223.911,1554.35 222.924,1557.5C221.936,1560.66 220.566,1563.24 218.814,1565.25C217.061,1567.25 214.815,1568.26 212.075,1568.26Z" style="fill:rgb(237,229,205);"/>
                </g>
                <g transform="matrix(0.6933,-1.69809e-16,1.63971e-16,0.669464,478.329,5831.06)">
                    <path d="M5887.57,2328.62C5890.43,2328.62 5892.9,2329.76 5894.99,2332.04C5897.08,2334.32 5898.13,2337.39 5898.13,2341.26C5898.13,2355.16 5890.32,2369.58 5874.7,2384.5C5859.07,2399.42 5839.11,2412.07 5814.8,2422.43C5790.49,2432.8 5765.46,2437.98 5739.72,2437.98C5712.88,2437.98 5689.17,2432.8 5668.6,2422.43C5648.03,2412.07 5630.76,2398.11 5616.79,2380.57C5602.82,2363.02 5592.26,2343.26 5585.11,2321.27C5577.96,2299.28 5574.38,2276.79 5574.38,2253.77C5574.38,2230.76 5578.07,2208.32 5585.44,2186.45C5592.81,2164.57 5603.92,2144.87 5618.77,2127.32C5633.62,2109.78 5652.43,2095.82 5675.2,2085.45C5697.97,2075.09 5724.87,2069.91 5755.89,2069.91C5771.29,2069.91 5787.63,2071.9 5804.9,2075.89C5822.17,2079.87 5838.28,2086.14 5853.24,2094.68C5868.2,2103.23 5880.42,2114.33 5889.88,2128.01C5899.34,2141.68 5904.07,2158.19 5904.07,2177.56C5904.07,2195.79 5900.55,2211.05 5893.51,2223.36C5886.47,2235.66 5877.06,2245.51 5865.29,2252.92C5853.52,2260.32 5840.32,2265.68 5825.69,2268.98C5811.06,2272.29 5796.15,2273.94 5780.97,2273.94C5760.29,2273.94 5740.6,2271.66 5721.9,2267.1C5725.2,2283.51 5730.48,2298.49 5737.74,2312.04C5745,2325.6 5754.68,2336.42 5766.78,2344.51C5778.88,2352.6 5793.62,2356.64 5811,2356.64C5815.4,2356.64 5819.47,2356.47 5823.21,2356.13C5826.95,2355.79 5830.47,2355.28 5833.77,2354.59C5837.07,2353.91 5840.21,2353.11 5843.18,2352.2C5846.15,2351.29 5848.9,2350.32 5851.43,2349.3C5853.96,2348.27 5856.32,2347.19 5858.53,2346.05C5860.73,2344.91 5862.76,2343.77 5864.63,2342.63C5866.5,2341.49 5868.26,2340.35 5869.91,2339.22C5871.56,2338.08 5873.1,2336.99 5874.53,2335.97C5875.96,2334.94 5877.28,2333.97 5878.49,2333.06C5879.7,2332.15 5880.8,2331.35 5881.79,2330.67C5882.78,2329.99 5883.77,2329.47 5884.76,2329.13C5885.75,2328.79 5886.69,2328.62 5887.57,2328.62ZM5755.56,2100.32C5748.74,2100.32 5742.36,2105.73 5736.42,2116.56C5730.48,2127.38 5725.69,2141.56 5722.06,2159.11C5718.43,2176.65 5716.62,2195.33 5716.62,2215.16C5716.62,2221.53 5716.84,2227.91 5717.28,2234.29C5722.56,2235.89 5727.51,2236.69 5732.13,2236.69C5743.79,2236.69 5753.09,2232.87 5760.02,2225.24C5766.95,2217.6 5772.01,2207.92 5775.2,2196.19C5778.39,2184.45 5779.98,2172.55 5779.98,2160.47C5779.98,2144.98 5777.78,2131.08 5773.38,2118.78C5768.98,2106.47 5763.04,2100.32 5755.56,2100.32ZM5555.57,2322.47C5555.57,2342.97 5551.78,2360.12 5544.19,2373.9C5536.6,2387.69 5526.53,2398.85 5513.99,2407.4C5501.45,2415.94 5487.59,2422.43 5472.41,2426.88C5457.23,2431.32 5441.77,2434.28 5426.04,2435.76C5410.31,2437.24 5395.63,2437.98 5381.99,2437.98C5352.94,2437.98 5327.31,2434.74 5305.09,2428.24C5282.87,2421.75 5265.49,2412.07 5252.95,2399.19C5240.41,2386.32 5234.14,2370.32 5234.14,2351.18C5234.14,2340.47 5237.28,2331.75 5243.55,2325.03C5249.82,2318.31 5257.96,2313.36 5267.97,2310.16C5277.98,2306.97 5288.7,2305.38 5300.14,2305.38C5313.56,2305.38 5326.54,2306.97 5339.08,2310.16C5351.62,2313.36 5361.97,2318.65 5370.11,2326.06C5378.25,2333.46 5382.32,2343.66 5382.32,2356.64C5382.32,2364.16 5381.11,2371.06 5378.69,2377.32C5376.27,2383.59 5375.06,2390.02 5375.06,2396.63C5375.06,2399.82 5375.77,2402.44 5377.2,2404.49C5378.63,2406.54 5381.22,2407.57 5384.96,2407.57C5390.24,2407.57 5394.75,2404.49 5398.49,2398.34C5402.23,2392.19 5405.09,2385.18 5407.07,2377.32C5409.05,2369.46 5410.04,2363.25 5410.04,2358.7C5410.04,2346.16 5405.75,2335.63 5397.17,2327.08C5388.59,2318.54 5377.64,2310.96 5364.33,2304.36C5351.02,2297.75 5336.94,2291.2 5322.09,2284.7C5307.24,2278.21 5293.16,2270.69 5279.85,2262.15C5266.54,2253.6 5255.59,2243.24 5247.01,2231.05C5238.43,2218.86 5234.14,2203.65 5234.14,2185.42C5234.14,2166.51 5237.94,2150.39 5245.53,2137.06C5253.12,2123.73 5263.18,2112.68 5275.72,2103.91C5288.26,2095.14 5302.12,2088.25 5317.3,2083.23C5332.48,2078.22 5347.94,2074.75 5363.67,2072.81C5379.4,2070.87 5394.09,2069.91 5407.73,2069.91C5436.99,2069.91 5462.67,2073.15 5484.78,2079.64C5506.9,2086.14 5524.22,2095.76 5536.76,2108.52C5549.3,2121.28 5555.57,2137.35 5555.57,2156.71C5555.57,2167.42 5552.44,2176.14 5546.17,2182.86C5539.9,2189.58 5531.76,2194.53 5521.75,2197.72C5511.74,2200.91 5501.01,2202.51 5489.57,2202.51C5476.15,2202.51 5463.17,2200.91 5450.63,2197.72C5438.09,2194.53 5427.75,2189.18 5419.61,2181.66C5411.47,2174.14 5407.4,2164 5407.4,2151.24C5407.4,2143.95 5408.61,2137.06 5411.03,2130.57C5413.45,2124.07 5414.66,2117.64 5414.66,2111.26C5414.66,2108.07 5413.94,2105.45 5412.51,2103.4C5411.08,2101.35 5408.5,2100.32 5404.76,2100.32C5399.26,2100.32 5394.58,2103.74 5390.73,2110.57C5386.88,2117.41 5383.97,2124.99 5381.99,2133.3C5380.01,2141.62 5379.02,2148.28 5379.02,2153.3C5379.02,2165.37 5383.31,2175.45 5391.89,2183.54C5400.47,2191.63 5411.41,2198.81 5424.72,2205.07C5438.03,2211.34 5452.22,2217.6 5467.29,2223.87C5482.36,2230.14 5496.56,2237.48 5509.87,2245.91C5523.18,2254.34 5534.12,2264.65 5542.7,2276.84C5551.28,2289.03 5555.57,2304.24 5555.57,2322.47ZM5209.72,2322.47C5209.72,2342.97 5205.92,2360.12 5198.33,2373.9C5190.74,2387.69 5180.68,2398.85 5168.14,2407.4C5155.6,2415.94 5141.74,2422.43 5126.56,2426.88C5111.38,2431.32 5095.92,2434.28 5080.19,2435.76C5064.46,2437.24 5049.77,2437.98 5036.13,2437.98C5007.09,2437.98 4981.46,2434.74 4959.24,2428.24C4937.02,2421.75 4919.64,2412.07 4907.1,2399.19C4894.56,2386.32 4888.29,2370.32 4888.29,2351.18C4888.29,2340.47 4891.42,2331.75 4897.69,2325.03C4903.96,2318.31 4912.1,2313.36 4922.11,2310.16C4932.12,2306.97 4942.85,2305.38 4954.29,2305.38C4967.71,2305.38 4980.69,2306.97 4993.23,2310.16C5005.77,2313.36 5016.11,2318.65 5024.25,2326.06C5032.39,2333.46 5036.46,2343.66 5036.46,2356.64C5036.46,2364.16 5035.25,2371.06 5032.83,2377.32C5030.41,2383.59 5029.2,2390.02 5029.2,2396.63C5029.2,2399.82 5029.92,2402.44 5031.35,2404.49C5032.78,2406.54 5035.36,2407.57 5039.1,2407.57C5044.38,2407.57 5048.89,2404.49 5052.63,2398.34C5056.37,2392.19 5059.23,2385.18 5061.21,2377.32C5063.19,2369.46 5064.18,2363.25 5064.18,2358.7C5064.18,2346.16 5059.89,2335.63 5051.31,2327.08C5042.73,2318.54 5031.79,2310.96 5018.48,2304.36C5005.17,2297.75 4991.09,2291.2 4976.23,2284.7C4961.38,2278.21 4947.3,2270.69 4933.99,2262.15C4920.68,2253.6 4909.74,2243.24 4901.16,2231.05C4892.58,2218.86 4888.29,2203.65 4888.29,2185.42C4888.29,2166.51 4892.08,2150.39 4899.67,2137.06C4907.26,2123.73 4917.33,2112.68 4929.87,2103.91C4942.41,2095.14 4956.27,2088.25 4971.45,2083.23C4986.63,2078.22 5002.09,2074.75 5017.82,2072.81C5033.55,2070.87 5048.23,2069.91 5061.87,2069.91C5091.13,2069.91 5116.82,2073.15 5138.93,2079.64C5161.04,2086.14 5178.37,2095.76 5190.91,2108.52C5203.45,2121.28 5209.72,2137.35 5209.72,2156.71C5209.72,2167.42 5206.58,2176.14 5200.31,2182.86C5194.04,2189.58 5185.9,2194.53 5175.89,2197.72C5165.88,2200.91 5155.16,2202.51 5143.72,2202.51C5130.3,2202.51 5117.32,2200.91 5104.78,2197.72C5092.23,2194.53 5081.89,2189.18 5073.75,2181.66C5065.61,2174.14 5061.54,2164 5061.54,2151.24C5061.54,2143.95 5062.75,2137.06 5065.17,2130.57C5067.59,2124.07 5068.8,2117.64 5068.8,2111.26C5068.8,2108.07 5068.09,2105.45 5066.66,2103.4C5065.23,2101.35 5062.64,2100.32 5058.9,2100.32C5053.4,2100.32 5048.73,2103.74 5044.88,2110.57C5041.03,2117.41 5038.11,2124.99 5036.13,2133.3C5034.15,2141.62 5033.16,2148.28 5033.16,2153.3C5033.16,2165.37 5037.45,2175.45 5046.03,2183.54C5054.61,2191.63 5065.56,2198.81 5078.87,2205.07C5092.18,2211.34 5106.37,2217.6 5121.44,2223.87C5136.51,2230.14 5150.7,2237.48 5164.01,2245.91C5177.32,2254.34 5188.27,2264.65 5196.85,2276.84C5205.43,2289.03 5209.72,2304.24 5209.72,2322.47ZM4850.34,2328.62C4853.19,2328.62 4855.67,2329.76 4857.76,2332.04C4859.85,2334.32 4860.9,2337.39 4860.9,2341.26C4860.9,2355.16 4853.09,2369.58 4837.46,2384.5C4821.84,2399.42 4801.88,2412.07 4777.57,2422.43C4753.26,2432.8 4728.23,2437.98 4702.49,2437.98C4675.65,2437.98 4651.94,2432.8 4631.37,2422.43C4610.8,2412.07 4593.53,2398.11 4579.56,2380.57C4565.59,2363.02 4555.03,2343.26 4547.88,2321.27C4540.73,2299.28 4537.15,2276.79 4537.15,2253.77C4537.15,2230.76 4540.84,2208.32 4548.21,2186.45C4555.58,2164.57 4566.69,2144.87 4581.54,2127.32C4596.39,2109.78 4615.2,2095.82 4637.97,2085.45C4660.74,2075.09 4687.64,2069.91 4718.66,2069.91C4734.06,2069.91 4750.4,2071.9 4767.67,2075.89C4784.94,2079.87 4801.05,2086.14 4816.01,2094.68C4830.97,2103.23 4843.18,2114.33 4852.65,2128.01C4862.11,2141.68 4866.84,2158.19 4866.84,2177.56C4866.84,2195.79 4863.32,2211.05 4856.28,2223.36C4849.23,2235.66 4839.83,2245.51 4828.06,2252.92C4816.29,2260.32 4803.09,2265.68 4788.46,2268.98C4773.83,2272.29 4758.92,2273.94 4743.74,2273.94C4723.06,2273.94 4703.37,2271.66 4684.67,2267.1C4687.97,2283.51 4693.25,2298.49 4700.51,2312.04C4707.77,2325.6 4717.45,2336.42 4729.55,2344.51C4741.65,2352.6 4756.39,2356.64 4773.77,2356.64C4778.17,2356.64 4782.24,2356.47 4785.98,2356.13C4789.72,2355.79 4793.24,2355.28 4796.54,2354.59C4799.84,2353.91 4802.98,2353.11 4805.95,2352.2C4808.92,2351.29 4811.67,2350.32 4814.2,2349.3C4816.73,2348.27 4819.09,2347.19 4821.29,2346.05C4823.49,2344.91 4825.53,2343.77 4827.4,2342.63C4829.27,2341.49 4831.03,2340.35 4832.68,2339.22C4834.33,2338.08 4835.87,2336.99 4837.3,2335.97C4838.73,2334.94 4840.05,2333.97 4841.26,2333.06C4842.47,2332.15 4843.57,2331.35 4844.56,2330.67C4845.55,2329.99 4846.54,2329.47 4847.53,2329.13C4848.52,2328.79 4849.45,2328.62 4850.34,2328.62ZM4718.33,2100.32C4711.51,2100.32 4705.13,2105.73 4699.19,2116.56C4693.25,2127.38 4688.46,2141.56 4684.83,2159.11C4681.2,2176.65 4679.39,2195.33 4679.39,2215.16C4679.39,2221.53 4679.61,2227.91 4680.05,2234.29C4685.33,2235.89 4690.28,2236.69 4694.9,2236.69C4706.56,2236.69 4715.85,2232.87 4722.78,2225.24C4729.72,2217.6 4734.78,2207.92 4737.97,2196.19C4741.15,2184.45 4742.75,2172.55 4742.75,2160.47C4742.75,2144.98 4740.55,2131.08 4736.15,2118.78C4731.75,2106.47 4725.81,2100.32 4718.33,2100.32ZM4318.02,2407.57C4327.48,2407.57 4335.24,2403.98 4341.29,2396.8C4347.34,2389.62 4352.07,2380.4 4355.48,2369.12C4358.89,2357.84 4361.36,2345.65 4362.9,2332.55C4364.44,2319.45 4365.38,2306.75 4365.71,2294.44C4366.04,2282.14 4366.2,2271.66 4366.2,2263L4366.2,2034.02C4366.2,2029.92 4365.98,2026.27 4365.55,2023.08C4365.11,2019.89 4364.5,2017.16 4363.73,2014.88C4362.96,2012.6 4362.08,2010.67 4361.09,2009.07C4360.1,2007.48 4359.06,2006 4357.95,2004.63C4356.86,2003.26 4355.76,2002.07 4354.65,2001.04C4353.56,2000.02 4352.51,1998.93 4351.52,1997.79C4350.53,1996.65 4349.65,1995.4 4348.88,1994.03C4348.11,1992.67 4347.51,1991.13 4347.07,1989.42C4346.62,1987.71 4346.4,1985.6 4346.4,1983.1C4346.4,1976.72 4350.48,1972.16 4358.61,1969.43C4366.76,1966.69 4376.99,1964.98 4389.31,1964.3C4401.63,1963.62 4414.06,1963.28 4426.6,1963.28L4450.03,1963.28C4462.79,1963.28 4475.22,1963.62 4487.32,1964.3C4499.42,1964.98 4509.49,1966.69 4517.52,1969.43C4525.55,1972.16 4529.56,1976.72 4529.56,1983.1C4529.56,1988.57 4528.57,1992.61 4526.59,1995.23C4524.61,1997.85 4522.36,2000.36 4519.83,2002.75C4517.3,2005.14 4515.04,2008.62 4513.06,2013.17C4511.08,2017.73 4510.09,2024.68 4510.09,2034.02L4510.09,2246.94C4510.09,2312.33 4493.76,2360.52 4461.08,2391.5C4428.41,2422.49 4380.4,2437.98 4317.03,2437.98C4291.95,2437.98 4269.9,2433.54 4250.87,2424.66C4231.84,2415.77 4215.83,2403.64 4202.85,2388.26C4189.87,2372.88 4180.13,2355.45 4173.64,2335.97C4167.15,2316.49 4163.91,2296.15 4163.91,2274.96C4163.91,2264.71 4167.04,2256.34 4173.31,2249.84C4179.58,2243.35 4187.67,2238.51 4197.57,2235.32C4207.47,2232.13 4217.92,2230.53 4228.92,2230.53C4240.8,2230.53 4252.35,2232.24 4263.57,2235.66C4274.79,2239.08 4283.98,2244.15 4291.13,2250.87C4298.28,2257.59 4301.85,2265.74 4301.85,2275.3C4301.85,2282.82 4301.41,2289.26 4300.53,2294.62C4299.65,2299.97 4298.72,2306.86 4297.73,2315.29C4296.74,2323.72 4296.24,2336.59 4296.24,2353.91C4296.24,2363.93 4296.9,2372.99 4298.22,2381.08C4299.54,2389.17 4301.8,2395.61 4304.99,2400.39C4308.18,2405.18 4312.52,2407.57 4318.02,2407.57Z" style="fill:rgb(9,154,155);"/>
                </g>
                <g transform="matrix(0.6933,-1.69809e-16,1.63971e-16,0.669464,478.329,5831.06)">
                    <path d="M4138.72,2224.72C4138.72,2252.54 4133.01,2275.34 4121.61,2293.1C4110.21,2310.86 4094.3,2323.95 4073.88,2332.37C4053.46,2340.79 4029.73,2345 4002.68,2345C3988.18,2345 3972.98,2344.13 3957.07,2342.39C3941.16,2340.65 3925.64,2337.49 3910.53,2332.92C3895.41,2328.34 3881.76,2321.93 3869.56,2313.69C3857.36,2305.45 3847.59,2294.93 3840.25,2282.11C3832.92,2269.3 3829.25,2253.73 3829.25,2235.43C3829.25,2222.43 3831.59,2209.89 3836.28,2197.8C3840.96,2185.72 3848.92,2174.92 3860.14,2165.4C3871.37,2155.88 3886.7,2148.37 3906.15,2142.88C3885.11,2132.44 3869.69,2120.31 3859.88,2106.49C3850.07,2092.67 3845.16,2078.53 3845.16,2064.06C3845.16,2047.04 3851.04,2030.83 3862.8,2015.45C3874.55,2000.07 3890.99,1987.53 3912.12,1977.83C3933.24,1968.13 3957.86,1963.28 3985.97,1963.28C4006.66,1963.28 4025.75,1965.11 4043.25,1968.77C4060.75,1972.43 4076,1978.65 4088.99,1987.44C4101.99,1996.23 4112.11,2008.27 4119.36,2023.56C4126.61,2038.84 4130.23,2058.11 4130.23,2081.36C4130.23,2093.26 4125.85,2102.46 4117.1,2108.96C4108.35,2115.46 4095.22,2118.71 4077.72,2118.71C4068.18,2118.71 4058.94,2117.34 4050.01,2114.59C4041.08,2111.85 4033.75,2107.82 4028,2102.51C4022.26,2097.2 4019.38,2090.7 4019.38,2083.01C4019.38,2078.07 4020.14,2071.39 4021.64,2062.96C4023.14,2054.54 4023.89,2043.47 4023.89,2029.73C4023.89,2022.41 4023.32,2015.64 4022.17,2009.41C4021.02,2003.19 4019.03,1998.11 4016.2,1994.17C4013.37,1990.23 4009.22,1988.27 4003.74,1988.27C3994.19,1988.27 3986.46,1991.7 3980.54,1998.56C3974.61,2005.43 3970.28,2014.58 3967.54,2026.03C3964.8,2037.47 3963.43,2049.96 3963.43,2063.51C3963.43,2077.43 3964.98,2089.83 3968.07,2100.72C3971.16,2111.62 3976.12,2120.13 3982.92,2126.26C3989.73,2132.4 3998.61,2135.46 4009.57,2135.46L4151.44,2135.46C4155.51,2135.46 4158.6,2136.79 4160.73,2139.45C4162.85,2142.1 4163.91,2144.98 4163.91,2148.1C4163.91,2154.32 4161.65,2157.94 4157.15,2158.94C4152.64,2159.95 4146.49,2160.45 4138.72,2160.45L4138.72,2224.72ZM4048.82,2160.45L3987.83,2160.45C3974.04,2160.45 3963.56,2167.69 3956.4,2182.15C3949.24,2196.61 3945.66,2215.65 3945.66,2239.27C3945.66,2253 3947.17,2266.09 3950.17,2278.54C3953.18,2290.99 3958.83,2301.11 3967.14,2308.89C3975.45,2316.67 3987.39,2320.56 4002.94,2320.56C4012.67,2320.56 4020.93,2317.77 4027.74,2312.18C4034.54,2306.6 4039.76,2299.37 4043.38,2290.49C4047.01,2281.61 4048.82,2272.22 4048.82,2262.34L4048.82,2160.45Z" style="fill:rgb(244,156,29);"/>
                </g>
                <g id="j-kindfield1" serif:id="j kindfield" transform="matrix(2.39373,-3.21944e-31,-1.11766e-31,2.39373,2964.36,3688.85)">
                    <path d="M275.312,1311.99C275.318,1317.33 273.179,1322.1 268.896,1326.3C264.613,1330.5 259.623,1332.61 253.926,1332.61C249.368,1332.62 245.499,1331.21 242.317,1328.4C239.136,1325.58 237.543,1321.99 237.538,1317.61C237.532,1312.21 239.701,1307.46 244.044,1303.34C248.387,1299.23 253.407,1297.17 259.104,1297.17C263.542,1297.16 267.351,1298.57 270.533,1301.38C273.714,1304.2 275.307,1307.73 275.312,1311.99ZM178.378,1424.27L196.458,1424.25C198.197,1424.25 199.935,1423.38 201.673,1421.63C203.41,1419.89 205.131,1417.76 206.838,1415.24C208.544,1412.72 210.28,1410.2 212.047,1407.68C213.813,1405.16 215.61,1403.03 217.437,1401.29C219.264,1399.55 221.167,1398.67 223.146,1398.67C224.165,1398.67 225.14,1398.91 226.07,1399.39C227,1399.87 227.781,1400.78 228.412,1402.13C229.043,1403.48 229.36,1405.44 229.363,1408.02C229.365,1410.06 229.128,1412.7 228.652,1415.94C227.998,1420.56 227.267,1424.05 226.46,1426.42C225.653,1428.79 224.62,1430.38 223.362,1431.19C222.103,1432 220.425,1432.41 218.326,1432.41L150.771,1432.49C147.473,1432.49 144.205,1432.4 140.966,1432.23C137.728,1432.05 135.044,1431.6 132.914,1430.89C130.784,1430.17 129.718,1429 129.717,1427.38C129.716,1426.66 129.79,1426.05 129.939,1425.54C130.089,1425.03 130.283,1424.58 130.523,1424.19C130.762,1423.8 131.047,1423.45 131.376,1423.15C131.706,1422.85 132.02,1422.52 132.319,1422.16C132.619,1421.8 132.933,1421.4 133.263,1420.95C133.592,1420.5 133.876,1419.97 134.115,1419.37C134.355,1418.77 134.549,1418.02 134.698,1417.12C134.847,1416.22 134.92,1415.14 134.919,1413.88L134.828,1331.76C131.885,1328.4 128.494,1325.84 124.654,1324.08C120.814,1322.31 116.945,1321.43 113.047,1321.44C109.569,1321.44 106.332,1322.19 103.335,1323.69C100.338,1325.2 97.912,1327.48 96.056,1330.54C94.201,1333.6 93.276,1337.5 93.281,1342.24C93.284,1344.93 93.811,1347.23 94.863,1349.12C95.914,1351 97.31,1351.95 99.049,1351.94C100.608,1351.94 101.506,1350.86 101.744,1348.7C101.743,1347.86 101.562,1347.04 101.201,1346.23C100.841,1345.42 100.48,1344.54 100.119,1343.58C99.758,1342.62 99.577,1341.48 99.575,1340.16C99.573,1338.12 100.096,1336.17 101.143,1334.31C102.19,1332.45 103.868,1330.92 106.175,1329.72C108.483,1328.52 111.495,1327.91 115.213,1327.91C120.131,1327.9 123.79,1329.14 126.192,1331.63C128.593,1334.12 129.796,1337.04 129.8,1340.4C129.803,1343.39 128.817,1346.39 126.841,1349.4C124.866,1352.4 121.885,1354.9 117.899,1356.92C113.914,1358.93 108.952,1359.94 103.016,1359.95C95.519,1359.95 89.371,1358.58 84.571,1355.83C79.77,1353.08 76.228,1349.53 73.944,1345.18C71.661,1340.84 70.516,1336.3 70.511,1331.56C70.503,1324.66 71.996,1318.69 74.989,1313.65C77.982,1308.61 81.965,1304.69 86.939,1301.9C91.914,1299.11 97.339,1297.71 103.216,1297.7C109.033,1297.69 115.047,1299.21 121.257,1302.27C127.467,1305.32 132.974,1309.72 137.778,1315.47C139.747,1306.83 143.848,1300.11 150.079,1295.31C156.31,1290.5 164.283,1288.1 173.998,1288.09C180.775,1288.08 186.413,1289.27 190.913,1291.66C195.414,1294.06 198.775,1297.16 200.999,1300.96C203.222,1304.77 204.336,1308.77 204.34,1312.97C204.345,1317.17 203.225,1321.26 200.981,1325.25C198.736,1329.24 195.382,1332.56 190.917,1335.2C186.452,1337.85 180.862,1339.38 174.146,1339.81L174.228,1413.84C174.236,1420.91 175.619,1424.39 178.378,1424.27ZM174.047,1331.62C179.503,1331.2 183.865,1330.02 187.131,1328.1C190.397,1326.18 192.733,1323.85 194.14,1321.12C195.546,1318.39 196.248,1315.74 196.245,1313.16C196.241,1310.34 195.579,1307.9 194.258,1305.83C192.936,1303.76 191.256,1302.73 189.217,1302.73C186.458,1302.73 184.106,1303.85 182.159,1306.07C180.213,1308.29 178.656,1311 177.491,1314.21C176.325,1317.42 175.459,1320.62 174.893,1323.8C174.326,1326.97 174.045,1329.58 174.047,1331.62ZM374.18,1401.83C374.186,1407.23 373.157,1411.74 371.092,1415.37C369.027,1419 366.287,1421.95 362.871,1424.2C359.455,1426.45 355.679,1428.16 351.543,1429.34C347.406,1430.51 343.194,1431.3 338.907,1431.69C334.62,1432.09 330.617,1432.29 326.899,1432.29C318.983,1432.3 311.996,1431.45 305.937,1429.75C299.878,1428.05 295.138,1425.5 291.716,1422.12C288.294,1418.74 286.58,1414.52 286.575,1409.49C286.571,1406.67 287.423,1404.37 289.131,1402.6C290.838,1400.83 293.055,1399.52 295.783,1398.68C298.51,1397.84 301.433,1397.42 304.552,1397.41C308.21,1397.41 311.748,1397.82 315.168,1398.66C318.587,1399.5 321.407,1400.89 323.628,1402.83C325.849,1404.78 326.961,1407.46 326.965,1410.88C326.967,1412.86 326.639,1414.67 325.982,1416.32C325.324,1417.97 324.996,1419.67 324.998,1421.41C324.999,1422.25 325.194,1422.94 325.585,1423.48C325.975,1424.02 326.68,1424.28 327.7,1424.28C329.139,1424.28 330.367,1423.47 331.385,1421.85C332.403,1420.23 333.18,1418.38 333.718,1416.32C334.255,1414.25 334.523,1412.61 334.522,1411.41C334.518,1408.11 333.345,1405.34 331.004,1403.1C328.663,1400.85 325.677,1398.86 322.047,1397.12C318.417,1395.39 314.577,1393.67 310.528,1391.96C306.478,1390.26 302.638,1388.28 299.007,1386.04C295.376,1383.8 292.39,1381.07 290.048,1377.86C287.705,1374.66 286.531,1370.66 286.526,1365.86C286.52,1360.88 287.55,1356.64 289.615,1353.13C291.68,1349.62 294.421,1346.7 297.836,1344.39C301.252,1342.08 305.028,1340.26 309.164,1338.94C313.301,1337.61 317.512,1336.69 321.8,1336.18C326.087,1335.67 330.089,1335.41 333.807,1335.4C341.783,1335.39 348.785,1336.24 354.814,1337.94C360.843,1339.64 365.568,1342.17 368.99,1345.53C372.412,1348.88 374.126,1353.11 374.132,1358.21C374.135,1361.02 373.283,1363.32 371.576,1365.09C369.869,1366.86 367.651,1368.17 364.923,1369.01C362.196,1369.85 359.273,1370.28 356.154,1370.28C352.496,1370.28 348.958,1369.87 345.539,1369.03C342.12,1368.2 339.299,1366.79 337.078,1364.81C334.857,1362.84 333.745,1360.17 333.741,1356.81C333.739,1354.89 334.067,1353.08 334.725,1351.37C335.382,1349.66 335.71,1347.96 335.708,1346.29C335.708,1345.44 335.512,1344.76 335.121,1344.22C334.731,1343.68 334.026,1343.41 333.007,1343.41C331.507,1343.41 330.234,1344.31 329.187,1346.11C328.139,1347.91 327.347,1349.91 326.81,1352.1C326.272,1354.29 326.004,1356.04 326.006,1357.36C326.009,1360.54 327.182,1363.19 329.523,1365.32C331.864,1367.44 334.85,1369.33 338.48,1370.97C342.109,1372.62 345.979,1374.26 350.089,1375.91C354.199,1377.55 358.069,1379.48 361.699,1381.7C365.33,1383.91 368.316,1386.62 370.659,1389.83C373.001,1393.03 374.175,1397.04 374.18,1401.83ZM434.017,1418.5C431.623,1422.64 428.644,1426.06 425.079,1428.76C421.513,1431.46 417.242,1432.82 412.265,1432.82C405.248,1432.83 399.475,1431.58 394.945,1429.07C390.414,1426.55 387.037,1423.24 384.814,1419.14C382.59,1415.03 381.476,1410.67 381.471,1406.05C381.467,1401.98 382.287,1397.9 383.931,1393.82C385.576,1389.74 387.985,1386.05 391.16,1382.74C394.335,1379.44 398.245,1376.78 402.89,1374.77C407.535,1372.76 412.856,1371.75 418.853,1371.74C424.79,1371.73 430.009,1373.46 434.511,1376.94C434.505,1371.9 434.532,1369.38 434.592,1369.38C434.59,1367.58 434.468,1365.25 434.225,1362.37C433.982,1359.49 433.514,1356.6 432.821,1353.69C432.128,1350.78 431.136,1348.32 429.844,1346.32C428.553,1344.31 426.857,1343.31 424.759,1343.31C423.799,1343.31 423.11,1343.58 422.691,1344.12C422.271,1344.66 422.062,1345.35 422.063,1346.19C422.065,1347.87 422.397,1349.56 423.058,1351.27C423.72,1352.98 424.052,1354.79 424.054,1356.71C424.058,1360.07 422.951,1362.74 420.734,1364.72C418.518,1366.7 415.701,1368.11 412.284,1368.96C408.866,1369.8 405.329,1370.23 401.671,1370.23C398.552,1370.23 395.628,1369.82 392.899,1368.98C390.169,1368.14 387.949,1366.84 386.238,1365.07C384.527,1363.31 383.67,1361.01 383.667,1358.19C383.661,1353.1 385.365,1348.87 388.78,1345.51C392.194,1342.14 396.929,1339.61 402.984,1337.89C409.039,1336.17 416.024,1335.31 423.94,1335.3C434.375,1335.29 443.312,1336.75 450.751,1339.68C458.19,1342.61 463.892,1347.18 467.857,1353.38C471.822,1359.58 473.81,1367.63 473.821,1377.53C473.842,1396.83 473.807,1404.98 473.713,1401.95C473.62,1398.92 473.579,1402.83 473.591,1413.69C473.599,1420.58 474.28,1426.38 475.635,1431.09C476.989,1435.8 478.792,1439.59 481.044,1442.46C483.296,1445.34 485.817,1447.4 488.607,1448.66C491.397,1449.92 494.232,1450.54 497.11,1450.54C502.387,1450.53 507.123,1448.88 511.317,1445.58C515.511,1442.27 517.606,1438.43 517.601,1434.06C517.597,1430.94 516.605,1428.4 514.624,1426.46C512.643,1424.51 510.212,1422.81 507.332,1421.34C504.452,1419.87 501.572,1418.35 498.692,1416.76C495.811,1415.17 493.38,1413.26 491.399,1411.01C489.418,1408.77 488.425,1405.84 488.421,1402.25C488.417,1398.65 489.252,1395.15 490.928,1391.76C492.603,1388.37 494.909,1385.58 497.845,1383.39C500.781,1381.2 504.138,1380.1 507.916,1380.1C512.773,1380.09 517.077,1381.3 520.828,1383.72C524.579,1386.15 527.521,1389.73 529.656,1394.46C531.79,1399.2 532.861,1405.01 532.868,1411.91C532.878,1420.73 531.477,1428.39 528.666,1434.9C525.855,1441.41 522.068,1446.78 517.305,1451.01C512.542,1455.25 507.209,1458.4 501.304,1460.48C495.399,1462.55 489.329,1463.59 483.092,1463.6C476.975,1463.61 470.992,1462.64 465.143,1460.7C459.294,1458.75 454.029,1455.9 449.347,1452.12C444.665,1448.35 440.942,1443.68 438.177,1438.1C435.412,1432.53 434.026,1426.14 434.018,1418.95L434.017,1418.5ZM434.344,1388.54C433.203,1386.99 432.032,1386.21 430.833,1386.21C428.794,1386.21 426.937,1387.41 425.26,1389.81C423.584,1392.21 422.252,1395.08 421.267,1398.41C420.281,1401.74 419.79,1404.84 419.793,1407.72C419.795,1409.76 420.112,1411.47 420.743,1412.85C421.374,1414.22 422.38,1414.91 423.759,1414.91C426.277,1414.91 428.285,1413.5 429.781,1410.68C431.277,1407.86 432.398,1404.44 433.143,1400.42C433.888,1396.4 434.288,1392.44 434.344,1388.54ZM281.737,1427.21C281.738,1428.17 281.334,1428.98 280.525,1429.64C279.716,1430.3 278.608,1430.81 277.199,1431.17C275.79,1431.54 274.186,1431.81 272.387,1431.99C270.588,1432.17 268.684,1432.28 266.675,1432.31C264.667,1432.34 262.673,1432.36 260.694,1432.36L254.487,1432.37C251.189,1432.37 247.92,1432.29 244.682,1432.11C241.443,1431.93 238.759,1431.49 236.629,1430.77C234.5,1430.05 233.434,1428.88 233.432,1427.27C233.431,1426.25 233.55,1425.45 233.789,1424.88C234.029,1424.31 234.343,1423.8 234.732,1423.35C235.121,1422.9 235.541,1422.45 235.99,1422C236.439,1421.55 236.858,1421.01 237.248,1420.38C237.637,1419.75 237.951,1418.91 238.189,1417.86C238.428,1416.81 238.546,1415.45 238.545,1413.77L238.594,1377.25C238.588,1371.61 238.328,1367.38 237.815,1364.56C237.302,1361.75 236.73,1359.69 236.099,1358.4C235.468,1357.12 234.897,1356.14 234.387,1355.48C233.876,1354.82 233.62,1353.86 233.619,1352.61C233.617,1350.75 234.829,1349.07 237.256,1347.56C239.684,1346.06 242.545,1344.66 245.842,1343.37C249.139,1342.08 252.286,1340.92 255.283,1339.9C258.341,1338.76 261.248,1337.73 264.006,1336.83C266.763,1335.93 268.951,1335.48 270.571,1335.47C272.13,1335.47 273.45,1335.98 274.53,1337C275.611,1338.02 276.182,1339.72 276.245,1342.12L276.505,1413.73C276.506,1414.75 276.567,1415.63 276.687,1416.38C276.808,1417.13 276.944,1417.8 277.094,1418.4C277.245,1419 277.441,1419.51 277.681,1419.93C277.921,1420.35 278.162,1420.73 278.402,1421.05C278.642,1421.38 278.897,1421.68 279.167,1421.95C279.438,1422.22 279.693,1422.49 279.933,1422.76C280.173,1423.03 280.398,1423.3 280.608,1423.57C280.819,1423.84 281.014,1424.14 281.194,1424.47C281.374,1424.8 281.51,1425.19 281.6,1425.64C281.691,1426.09 281.736,1426.61 281.737,1427.21Z" style="fill:rgb(239,65,114);"/>
                </g>
            </g>
        </g>
    </g>
</svg>
