<?xml version="1.0" encoding="UTF-8" standalone="no"?>
<!DOCTYPE svg PUBLIC "-//W3C//DTD SVG 1.1//EN" "http://www.w3.org/Graphics/SVG/1.1/DTD/svg11.dtd">
<svg width="100%" height="100%" viewBox="0 0 8646 4301" version="1.1" xmlns="http://www.w3.org/2000/svg" xmlns:xlink="http://www.w3.org/1999/xlink" xml:space="preserve" xmlns:serif="http://www.serif.com/" style="fill-rule:evenodd;clip-rule:evenodd;stroke-linejoin:round;stroke-miterlimit:2;">
    <g transform="matrix(4.16667,0,0,4.16667,-1664.66,-7792.15)">
        <g transform="matrix(-2.2041e-16,1.14258,-0.8828,-1.56371e-16,3026.24,6823.49)">
            <g id="LJ-Kind" serif:id="LJ Kind" transform="matrix(9.65967e-17,-1.63387,1.30733,7.37785e-17,-13188.7,8094.59)">
                <g transform="matrix(0.6933,-1.69809e-16,1.63971e-16,0.669464,478.329,5831.06)">
                    <path d="M5887.57,2328.62C5890.43,2328.62 5892.9,2329.76 5894.99,2332.04C5897.08,2334.32 5898.13,2337.39 5898.13,2341.26C5898.13,2355.16 5890.32,2369.58 5874.7,2384.5C5859.07,2399.42 5839.11,2412.07 5814.8,2422.43C5790.49,2432.8 5765.46,2437.98 5739.72,2437.98C5712.88,2437.98 5689.17,2432.8 5668.6,2422.43C5648.03,2412.07 5630.76,2398.11 5616.79,2380.57C5602.82,2363.02 5592.26,2343.26 5585.11,2321.27C5577.96,2299.28 5574.38,2276.79 5574.38,2253.77C5574.38,2230.76 5578.07,2208.32 5585.44,2186.45C5592.81,2164.57 5603.92,2144.87 5618.77,2127.32C5633.62,2109.78 5652.43,2095.82 5675.2,2085.45C5697.97,2075.09 5724.87,2069.91 5755.89,2069.91C5771.29,2069.91 5787.63,2071.9 5804.9,2075.89C5822.17,2079.87 5838.28,2086.14 5853.24,2094.68C5868.2,2103.23 5880.42,2114.33 5889.88,2128.01C5899.34,2141.68 5904.07,2158.19 5904.07,2177.56C5904.07,2195.79 5900.55,2211.05 5893.51,2223.36C5886.47,2235.66 5877.06,2245.51 5865.29,2252.92C5853.52,2260.32 5840.32,2265.68 5825.69,2268.98C5811.06,2272.29 5796.15,2273.94 5780.97,2273.94C5760.29,2273.94 5740.6,2271.66 5721.9,2267.1C5725.2,2283.51 5730.48,2298.49 5737.74,2312.04C5745,2325.6 5754.68,2336.42 5766.78,2344.51C5778.88,2352.6 5793.62,2356.64 5811,2356.64C5815.4,2356.64 5819.47,2356.47 5823.21,2356.13C5826.95,2355.79 5830.47,2355.28 5833.77,2354.59C5837.07,2353.91 5840.21,2353.11 5843.18,2352.2C5846.15,2351.29 5848.9,2350.32 5851.43,2349.3C5853.96,2348.27 5856.32,2347.19 5858.53,2346.05C5860.73,2344.91 5862.76,2343.77 5864.63,2342.63C5866.5,2341.49 5868.26,2340.35 5869.91,2339.22C5871.56,2338.08 5873.1,2336.99 5874.53,2335.97C5875.96,2334.94 5877.28,2333.97 5878.49,2333.06C5879.7,2332.15 5880.8,2331.35 5881.79,2330.67C5882.78,2329.99 5883.77,2329.47 5884.76,2329.13C5885.75,2328.79 5886.69,2328.62 5887.57,2328.62ZM5755.56,2100.32C5748.74,2100.32 5742.36,2105.73 5736.42,2116.56C5730.48,2127.38 5725.69,2141.56 5722.06,2159.11C5718.43,2176.65 5716.62,2195.33 5716.62,2215.16C5716.62,2221.53 5716.84,2227.91 5717.28,2234.29C5722.56,2235.89 5727.51,2236.69 5732.13,2236.69C5743.79,2236.69 5753.09,2232.87 5760.02,2225.24C5766.95,2217.6 5772.01,2207.92 5775.2,2196.19C5778.39,2184.45 5779.98,2172.55 5779.98,2160.47C5779.98,2144.98 5777.78,2131.08 5773.38,2118.78C5768.98,2106.47 5763.04,2100.32 5755.56,2100.32Z" style="fill:rgb(9,154,155);"/>
                </g>
                <g transform="matrix(0.6933,-1.69809e-16,1.63971e-16,0.669464,478.329,5831.06)">
                    <path d="M5555.57,2322.47C5555.57,2342.97 5551.78,2360.12 5544.19,2373.9C5536.6,2387.69 5526.53,2398.85 5513.99,2407.4C5501.45,2415.94 5487.59,2422.43 5472.41,2426.88C5457.23,2431.32 5441.77,2434.28 5426.04,2435.76C5410.31,2437.24 5395.63,2437.98 5381.99,2437.98C5352.94,2437.98 5327.31,2434.74 5305.09,2428.24C5282.87,2421.75 5265.49,2412.07 5252.95,2399.19C5240.41,2386.32 5234.14,2370.32 5234.14,2351.18C5234.14,2340.47 5237.28,2331.75 5243.55,2325.03C5249.82,2318.31 5257.96,2313.36 5267.97,2310.16C5277.98,2306.97 5288.7,2305.38 5300.14,2305.38C5313.56,2305.38 5326.54,2306.97 5339.08,2310.16C5351.62,2313.36 5361.97,2318.65 5370.11,2326.06C5378.25,2333.46 5382.32,2343.66 5382.32,2356.64C5382.32,2364.16 5381.11,2371.06 5378.69,2377.32C5376.27,2383.59 5375.06,2390.02 5375.06,2396.63C5375.06,2399.82 5375.77,2402.44 5377.2,2404.49C5378.63,2406.54 5381.22,2407.57 5384.96,2407.57C5390.24,2407.57 5394.75,2404.49 5398.49,2398.34C5402.23,2392.19 5405.09,2385.18 5407.07,2377.32C5409.05,2369.46 5410.04,2363.25 5410.04,2358.7C5410.04,2346.16 5405.75,2335.63 5397.17,2327.08C5388.59,2318.54 5377.64,2310.96 5364.33,2304.36C5351.02,2297.75 5336.94,2291.2 5322.09,2284.7C5307.24,2278.21 5293.16,2270.69 5279.85,2262.15C5266.54,2253.6 5255.59,2243.24 5247.01,2231.05C5238.43,2218.86 5234.14,2203.65 5234.14,2185.42C5234.14,2166.51 5237.94,2150.39 5245.53,2137.06C5253.12,2123.73 5263.18,2112.68 5275.72,2103.91C5288.26,2095.14 5302.12,2088.25 5317.3,2083.23C5332.48,2078.22 5347.94,2074.75 5363.67,2072.81C5379.4,2070.87 5394.09,2069.91 5407.73,2069.91C5436.99,2069.91 5462.67,2073.15 5484.78,2079.64C5506.9,2086.14 5524.22,2095.76 5536.76,2108.52C5549.3,2121.28 5555.57,2137.35 5555.57,2156.71C5555.57,2167.42 5552.44,2176.14 5546.17,2182.86C5539.9,2189.58 5531.76,2194.53 5521.75,2197.72C5511.74,2200.91 5501.01,2202.51 5489.57,2202.51C5476.15,2202.51 5463.17,2200.91 5450.63,2197.72C5438.09,2194.53 5427.75,2189.18 5419.61,2181.66C5411.47,2174.14 5407.4,2164 5407.4,2151.24C5407.4,2143.95 5408.61,2137.06 5411.03,2130.57C5413.45,2124.07 5414.66,2117.64 5414.66,2111.26C5414.66,2108.07 5413.94,2105.45 5412.51,2103.4C5411.08,2101.35 5408.5,2100.32 5404.76,2100.32C5399.26,2100.32 5394.58,2103.74 5390.73,2110.57C5386.88,2117.41 5383.97,2124.99 5381.99,2133.3C5380.01,2141.62 5379.02,2148.28 5379.02,2153.3C5379.02,2165.37 5383.31,2175.45 5391.89,2183.54C5400.47,2191.63 5411.41,2198.81 5424.72,2205.07C5438.03,2211.34 5452.22,2217.6 5467.29,2223.87C5482.36,2230.14 5496.56,2237.48 5509.87,2245.91C5523.18,2254.34 5534.12,2264.65 5542.7,2276.84C5551.28,2289.03 5555.57,2304.24 5555.57,2322.47Z" style="fill:rgb(9,154,155);"/>
                </g>
                <g transform="matrix(0.6933,-1.69809e-16,1.63971e-16,0.669464,478.329,5831.06)">
                    <path d="M5209.72,2322.47C5209.72,2342.97 5205.92,2360.12 5198.33,2373.9C5190.74,2387.69 5180.68,2398.85 5168.14,2407.4C5155.6,2415.94 5141.74,2422.43 5126.56,2426.88C5111.38,2431.32 5095.92,2434.28 5080.19,2435.76C5064.46,2437.24 5049.77,2437.98 5036.13,2437.98C5007.09,2437.98 4981.46,2434.74 4959.24,2428.24C4937.02,2421.75 4919.64,2412.07 4907.1,2399.19C4894.56,2386.32 4888.29,2370.32 4888.29,2351.18C4888.29,2340.47 4891.42,2331.75 4897.69,2325.03C4903.96,2318.31 4912.1,2313.36 4922.11,2310.16C4932.12,2306.97 4942.85,2305.38 4954.29,2305.38C4967.71,2305.38 4980.69,2306.97 4993.23,2310.16C5005.77,2313.36 5016.11,2318.65 5024.25,2326.06C5032.39,2333.46 5036.46,2343.66 5036.46,2356.64C5036.46,2364.16 5035.25,2371.06 5032.83,2377.32C5030.41,2383.59 5029.2,2390.02 5029.2,2396.63C5029.2,2399.82 5029.92,2402.44 5031.35,2404.49C5032.78,2406.54 5035.36,2407.57 5039.1,2407.57C5044.38,2407.57 5048.89,2404.49 5052.63,2398.34C5056.37,2392.19 5059.23,2385.18 5061.21,2377.32C5063.19,2369.46 5064.18,2363.25 5064.18,2358.7C5064.18,2346.16 5059.89,2335.63 5051.31,2327.08C5042.73,2318.54 5031.79,2310.96 5018.48,2304.36C5005.17,2297.75 4991.09,2291.2 4976.23,2284.7C4961.38,2278.21 4947.3,2270.69 4933.99,2262.15C4920.68,2253.6 4909.74,2243.24 4901.16,2231.05C4892.58,2218.86 4888.29,2203.65 4888.29,2185.42C4888.29,2166.51 4892.08,2150.39 4899.67,2137.06C4907.26,2123.73 4917.33,2112.68 4929.87,2103.91C4942.41,2095.14 4956.27,2088.25 4971.45,2083.23C4986.63,2078.22 5002.09,2074.75 5017.82,2072.81C5033.55,2070.87 5048.23,2069.91 5061.87,2069.91C5091.13,2069.91 5116.82,2073.15 5138.93,2079.64C5161.04,2086.14 5178.37,2095.76 5190.91,2108.52C5203.45,2121.28 5209.72,2137.35 5209.72,2156.71C5209.72,2167.42 5206.58,2176.14 5200.31,2182.86C5194.04,2189.58 5185.9,2194.53 5175.89,2197.72C5165.88,2200.91 5155.16,2202.51 5143.72,2202.51C5130.3,2202.51 5117.32,2200.91 5104.78,2197.72C5092.23,2194.53 5081.89,2189.18 5073.75,2181.66C5065.61,2174.14 5061.54,2164 5061.54,2151.24C5061.54,2143.95 5062.75,2137.06 5065.17,2130.57C5067.59,2124.07 5068.8,2117.64 5068.8,2111.26C5068.8,2108.07 5068.09,2105.45 5066.66,2103.4C5065.23,2101.35 5062.64,2100.32 5058.9,2100.32C5053.4,2100.32 5048.73,2103.74 5044.88,2110.57C5041.03,2117.41 5038.11,2124.99 5036.13,2133.3C5034.15,2141.62 5033.16,2148.28 5033.16,2153.3C5033.16,2165.37 5037.45,2175.45 5046.03,2183.54C5054.61,2191.63 5065.56,2198.81 5078.87,2205.07C5092.18,2211.34 5106.37,2217.6 5121.44,2223.87C5136.51,2230.14 5150.7,2237.48 5164.01,2245.91C5177.32,2254.34 5188.27,2264.65 5196.85,2276.84C5205.43,2289.03 5209.72,2304.24 5209.72,2322.47Z" style="fill:rgb(9,154,155);"/>
                </g>
                <g transform="matrix(0.6933,-1.69809e-16,1.63971e-16,0.669464,478.329,5831.06)">
                    <path d="M4850.34,2328.62C4853.19,2328.62 4855.67,2329.76 4857.76,2332.04C4859.85,2334.32 4860.9,2337.39 4860.9,2341.26C4860.9,2355.16 4853.09,2369.58 4837.46,2384.5C4821.84,2399.42 4801.88,2412.07 4777.57,2422.43C4753.26,2432.8 4728.23,2437.98 4702.49,2437.98C4675.65,2437.98 4651.94,2432.8 4631.37,2422.43C4610.8,2412.07 4593.53,2398.11 4579.56,2380.57C4565.59,2363.02 4555.03,2343.26 4547.88,2321.27C4540.73,2299.28 4537.15,2276.79 4537.15,2253.77C4537.15,2230.76 4540.84,2208.32 4548.21,2186.45C4555.58,2164.57 4566.69,2144.87 4581.54,2127.32C4596.39,2109.78 4615.2,2095.82 4637.97,2085.45C4660.74,2075.09 4687.64,2069.91 4718.66,2069.91C4734.06,2069.91 4750.4,2071.9 4767.67,2075.89C4784.94,2079.87 4801.05,2086.14 4816.01,2094.68C4830.97,2103.23 4843.18,2114.33 4852.65,2128.01C4862.11,2141.68 4866.84,2158.19 4866.84,2177.56C4866.84,2195.79 4863.32,2211.05 4856.28,2223.36C4849.23,2235.66 4839.83,2245.51 4828.06,2252.92C4816.29,2260.32 4803.09,2265.68 4788.46,2268.98C4773.83,2272.29 4758.92,2273.94 4743.74,2273.94C4723.06,2273.94 4703.37,2271.66 4684.67,2267.1C4687.97,2283.51 4693.25,2298.49 4700.51,2312.04C4707.77,2325.6 4717.45,2336.42 4729.55,2344.51C4741.65,2352.6 4756.39,2356.64 4773.77,2356.64C4778.17,2356.64 4782.24,2356.47 4785.98,2356.13C4789.72,2355.79 4793.24,2355.28 4796.54,2354.59C4799.84,2353.91 4802.98,2353.11 4805.95,2352.2C4808.92,2351.29 4811.67,2350.32 4814.2,2349.3C4816.73,2348.27 4819.09,2347.19 4821.29,2346.05C4823.49,2344.91 4825.53,2343.77 4827.4,2342.63C4829.27,2341.49 4831.03,2340.35 4832.68,2339.22C4834.33,2338.08 4835.87,2336.99 4837.3,2335.97C4838.73,2334.94 4840.05,2333.97 4841.26,2333.06C4842.47,2332.15 4843.57,2331.35 4844.56,2330.67C4845.55,2329.99 4846.54,2329.47 4847.53,2329.13C4848.52,2328.79 4849.45,2328.62 4850.34,2328.62ZM4718.33,2100.32C4711.51,2100.32 4705.13,2105.73 4699.19,2116.56C4693.25,2127.38 4688.46,2141.56 4684.83,2159.11C4681.2,2176.65 4679.39,2195.33 4679.39,2215.16C4679.39,2221.53 4679.61,2227.91 4680.05,2234.29C4685.33,2235.89 4690.28,2236.69 4694.9,2236.69C4706.56,2236.69 4715.85,2232.87 4722.78,2225.24C4729.72,2217.6 4734.78,2207.92 4737.97,2196.19C4741.15,2184.45 4742.75,2172.55 4742.75,2160.47C4742.75,2144.98 4740.55,2131.08 4736.15,2118.78C4731.75,2106.47 4725.81,2100.32 4718.33,2100.32Z" style="fill:rgb(9,154,155);"/>
                </g>
                <g transform="matrix(0.6933,-1.69809e-16,1.63971e-16,0.669464,478.329,5831.06)">
                    <path d="M4318.02,2407.57C4327.48,2407.57 4335.24,2403.98 4341.29,2396.8C4347.34,2389.62 4352.07,2380.4 4355.48,2369.12C4358.89,2357.84 4361.36,2345.65 4362.9,2332.55C4364.44,2319.45 4365.38,2306.75 4365.71,2294.44C4366.04,2282.14 4366.2,2271.66 4366.2,2263L4366.2,2034.02C4366.2,2029.92 4365.98,2026.27 4365.55,2023.08C4365.11,2019.89 4364.5,2017.16 4363.73,2014.88C4362.96,2012.6 4362.08,2010.67 4361.09,2009.07C4360.1,2007.48 4359.06,2006 4357.95,2004.63C4356.86,2003.26 4355.76,2002.07 4354.65,2001.04C4353.56,2000.02 4352.51,1998.93 4351.52,1997.79C4350.53,1996.65 4349.65,1995.4 4348.88,1994.03C4348.11,1992.67 4347.51,1991.13 4347.07,1989.42C4346.62,1987.71 4346.4,1985.6 4346.4,1983.1C4346.4,1976.72 4350.48,1972.16 4358.61,1969.43C4366.76,1966.69 4376.99,1964.98 4389.31,1964.3C4401.63,1963.62 4414.06,1963.28 4426.6,1963.28L4450.03,1963.28C4462.79,1963.28 4475.22,1963.62 4487.32,1964.3C4499.42,1964.98 4509.49,1966.69 4517.52,1969.43C4525.55,1972.16 4529.56,1976.72 4529.56,1983.1C4529.56,1988.57 4528.57,1992.61 4526.59,1995.23C4524.61,1997.85 4522.36,2000.36 4519.83,2002.75C4517.3,2005.14 4515.04,2008.62 4513.06,2013.17C4511.08,2017.73 4510.09,2024.68 4510.09,2034.02L4510.09,2246.94C4510.09,2312.33 4493.76,2360.52 4461.08,2391.5C4428.41,2422.49 4380.4,2437.98 4317.03,2437.98C4291.95,2437.98 4269.9,2433.54 4250.87,2424.66C4231.84,2415.77 4215.83,2403.64 4202.85,2388.26C4189.87,2372.88 4180.13,2355.45 4173.64,2335.97C4167.15,2316.49 4163.91,2296.15 4163.91,2274.96C4163.91,2264.71 4167.04,2256.34 4173.31,2249.84C4179.58,2243.35 4187.67,2238.51 4197.57,2235.32C4207.47,2232.13 4217.92,2230.53 4228.92,2230.53C4240.8,2230.53 4252.35,2232.24 4263.57,2235.66C4274.79,2239.08 4283.98,2244.15 4291.13,2250.87C4298.28,2257.59 4301.85,2265.74 4301.85,2275.3C4301.85,2282.82 4301.41,2289.26 4300.53,2294.62C4299.65,2299.97 4298.72,2306.86 4297.73,2315.29C4296.74,2323.72 4296.24,2336.59 4296.24,2353.91C4296.24,2363.93 4296.9,2372.99 4298.22,2381.08C4299.54,2389.17 4301.8,2395.61 4304.99,2400.39C4308.18,2405.18 4312.52,2407.57 4318.02,2407.57Z" style="fill:rgb(9,154,155);"/>
                </g>
                <g transform="matrix(0.6933,-1.69809e-16,1.63971e-16,0.669464,478.329,5831.06)">
                    <path d="M4138.72,2224.72C4138.72,2252.54 4133.01,2275.34 4121.61,2293.1C4110.21,2310.86 4094.3,2323.95 4073.88,2332.37C4053.46,2340.79 4029.73,2345 4002.68,2345C3988.18,2345 3972.98,2344.13 3957.07,2342.39C3941.16,2340.65 3925.64,2337.49 3910.53,2332.92C3895.41,2328.34 3881.76,2321.93 3869.56,2313.69C3857.36,2305.45 3847.59,2294.93 3840.25,2282.11C3832.92,2269.3 3829.25,2253.73 3829.25,2235.43C3829.25,2222.43 3831.59,2209.89 3836.28,2197.8C3840.96,2185.72 3848.92,2174.92 3860.14,2165.4C3871.37,2155.88 3886.7,2148.37 3906.15,2142.88C3885.11,2132.44 3869.69,2120.31 3859.88,2106.49C3850.07,2092.67 3845.16,2078.53 3845.16,2064.06C3845.16,2047.04 3851.04,2030.83 3862.8,2015.45C3874.55,2000.07 3890.99,1987.53 3912.12,1977.83C3933.24,1968.13 3957.86,1963.28 3985.97,1963.28C4006.66,1963.28 4025.75,1965.11 4043.25,1968.77C4060.75,1972.43 4076,1978.65 4088.99,1987.44C4101.99,1996.23 4112.11,2008.27 4119.36,2023.56C4126.61,2038.84 4130.23,2058.11 4130.23,2081.36C4130.23,2093.26 4125.85,2102.46 4117.1,2108.96C4108.35,2115.46 4095.22,2118.71 4077.72,2118.71C4068.18,2118.71 4058.94,2117.34 4050.01,2114.59C4041.08,2111.85 4033.75,2107.82 4028,2102.51C4022.26,2097.2 4019.38,2090.7 4019.38,2083.01C4019.38,2078.07 4020.14,2071.39 4021.64,2062.96C4023.14,2054.54 4023.89,2043.47 4023.89,2029.73C4023.89,2022.41 4023.32,2015.64 4022.17,2009.41C4021.02,2003.19 4019.03,1998.11 4016.2,1994.17C4013.37,1990.23 4009.22,1988.27 4003.74,1988.27C3994.19,1988.27 3986.46,1991.7 3980.54,1998.56C3974.61,2005.43 3970.28,2014.58 3967.54,2026.03C3964.8,2037.47 3963.43,2049.96 3963.43,2063.51C3963.43,2077.43 3964.98,2089.83 3968.07,2100.72C3971.16,2111.62 3976.12,2120.13 3982.92,2126.26C3989.73,2132.4 3998.61,2135.46 4009.57,2135.46L4151.44,2135.46C4155.51,2135.46 4158.6,2136.79 4160.73,2139.45C4162.85,2142.1 4163.91,2144.98 4163.91,2148.1C4163.91,2154.32 4161.65,2157.94 4157.15,2158.94C4152.64,2159.95 4146.49,2160.45 4138.72,2160.45L4138.72,2224.72ZM4048.82,2160.45L3987.83,2160.45C3974.04,2160.45 3963.56,2167.69 3956.4,2182.15C3949.24,2196.61 3945.66,2215.65 3945.66,2239.27C3945.66,2253 3947.17,2266.09 3950.17,2278.54C3953.18,2290.99 3958.83,2301.11 3967.14,2308.89C3975.45,2316.67 3987.39,2320.56 4002.94,2320.56C4012.67,2320.56 4020.93,2317.77 4027.74,2312.18C4034.54,2306.6 4039.76,2299.37 4043.38,2290.49C4047.01,2281.61 4048.82,2272.22 4048.82,2262.34L4048.82,2160.45Z" style="fill:rgb(244,156,29);"/>
                </g>
                <g id="j-kindfield" serif:id="j kindfield" transform="matrix(2.39373,-3.21944e-31,-1.11766e-31,2.39373,2964.36,3688.85)">
                    <path d="M275.312,1311.99C275.318,1317.33 273.179,1322.1 268.896,1326.3C264.613,1330.5 259.623,1332.61 253.926,1332.61C249.368,1332.62 245.499,1331.21 242.317,1328.4C239.136,1325.58 237.543,1321.99 237.538,1317.61C237.532,1312.21 239.701,1307.46 244.044,1303.34C248.387,1299.23 253.407,1297.17 259.104,1297.17C263.542,1297.16 267.351,1298.57 270.533,1301.38C273.714,1304.2 275.307,1307.73 275.312,1311.99ZM178.378,1424.27L196.458,1424.25C198.197,1424.25 199.935,1423.38 201.673,1421.63C203.41,1419.89 205.131,1417.76 206.838,1415.24C208.544,1412.72 210.28,1410.2 212.047,1407.68C213.813,1405.16 215.61,1403.03 217.437,1401.29C219.264,1399.55 221.167,1398.67 223.146,1398.67C224.165,1398.67 225.14,1398.91 226.07,1399.39C227,1399.87 227.781,1400.78 228.412,1402.13C229.043,1403.48 229.36,1405.44 229.363,1408.02C229.365,1410.06 229.128,1412.7 228.652,1415.94C227.998,1420.56 227.267,1424.05 226.46,1426.42C225.653,1428.79 224.62,1430.38 223.362,1431.19C222.103,1432 220.425,1432.41 218.326,1432.41L150.771,1432.49C147.473,1432.49 144.205,1432.4 140.966,1432.23C137.728,1432.05 135.044,1431.6 132.914,1430.89C130.784,1430.17 129.718,1429 129.717,1427.38C129.716,1426.66 129.79,1426.05 129.939,1425.54C130.089,1425.03 130.283,1424.58 130.523,1424.19C130.762,1423.8 131.047,1423.45 131.376,1423.15C131.706,1422.85 132.02,1422.52 132.319,1422.16C132.619,1421.8 132.933,1421.4 133.263,1420.95C133.592,1420.5 133.876,1419.97 134.115,1419.37C134.355,1418.77 134.549,1418.02 134.698,1417.12C134.847,1416.22 134.92,1415.14 134.919,1413.88L134.828,1331.76C131.885,1328.4 128.494,1325.84 124.654,1324.08C120.814,1322.31 116.945,1321.43 113.047,1321.44C109.569,1321.44 106.332,1322.19 103.335,1323.69C100.338,1325.2 97.912,1327.48 96.056,1330.54C94.201,1333.6 93.276,1337.5 93.281,1342.24C93.284,1344.93 93.811,1347.23 94.863,1349.12C95.914,1351 97.31,1351.95 99.049,1351.94C100.608,1351.94 101.506,1350.86 101.744,1348.7C101.743,1347.86 101.562,1347.04 101.201,1346.23C100.841,1345.42 100.48,1344.54 100.119,1343.58C99.758,1342.62 99.577,1341.48 99.575,1340.16C99.573,1338.12 100.096,1336.17 101.143,1334.31C102.19,1332.45 103.868,1330.92 106.175,1329.72C108.483,1328.52 111.495,1327.91 115.213,1327.91C120.131,1327.9 123.79,1329.14 126.192,1331.63C128.593,1334.12 129.796,1337.04 129.8,1340.4C129.803,1343.39 128.817,1346.39 126.841,1349.4C124.866,1352.4 121.885,1354.9 117.899,1356.92C113.914,1358.93 108.952,1359.94 103.016,1359.95C95.519,1359.95 89.371,1358.58 84.571,1355.83C79.77,1353.08 76.228,1349.53 73.944,1345.18C71.661,1340.84 70.516,1336.3 70.511,1331.56C70.503,1324.66 71.996,1318.69 74.989,1313.65C77.982,1308.61 81.965,1304.69 86.939,1301.9C91.914,1299.11 97.339,1297.71 103.216,1297.7C109.033,1297.69 115.047,1299.21 121.257,1302.27C127.467,1305.32 132.974,1309.72 137.778,1315.47C139.747,1306.83 143.848,1300.11 150.079,1295.31C156.31,1290.5 164.283,1288.1 173.998,1288.09C180.775,1288.08 186.413,1289.27 190.913,1291.66C195.414,1294.06 198.775,1297.16 200.999,1300.96C203.222,1304.77 204.336,1308.77 204.34,1312.97C204.345,1317.17 203.225,1321.26 200.981,1325.25C198.736,1329.24 195.382,1332.56 190.917,1335.2C186.452,1337.85 180.862,1339.38 174.146,1339.81L174.228,1413.84C174.236,1420.91 175.619,1424.39 178.378,1424.27ZM174.047,1331.62C179.503,1331.2 183.865,1330.02 187.131,1328.1C190.397,1326.18 192.733,1323.85 194.14,1321.12C195.546,1318.39 196.248,1315.74 196.245,1313.16C196.241,1310.34 195.579,1307.9 194.258,1305.83C192.936,1303.76 191.256,1302.73 189.217,1302.73C186.458,1302.73 184.106,1303.85 182.159,1306.07C180.213,1308.29 178.656,1311 177.491,1314.21C176.325,1317.42 175.459,1320.62 174.893,1323.8C174.326,1326.97 174.045,1329.58 174.047,1331.62ZM374.18,1401.83C374.186,1407.23 373.157,1411.74 371.092,1415.37C369.027,1419 366.287,1421.95 362.871,1424.2C359.455,1426.45 355.679,1428.16 351.543,1429.34C347.406,1430.51 343.194,1431.3 338.907,1431.69C334.62,1432.09 330.617,1432.29 326.899,1432.29C318.983,1432.3 311.996,1431.45 305.937,1429.75C299.878,1428.05 295.138,1425.5 291.716,1422.12C288.294,1418.74 286.58,1414.52 286.575,1409.49C286.571,1406.67 287.423,1404.37 289.131,1402.6C290.838,1400.83 293.055,1399.52 295.783,1398.68C298.51,1397.84 301.433,1397.42 304.552,1397.41C308.21,1397.41 311.748,1397.82 315.168,1398.66C318.587,1399.5 321.407,1400.89 323.628,1402.83C325.849,1404.78 326.961,1407.46 326.965,1410.88C326.967,1412.86 326.639,1414.67 325.982,1416.32C325.324,1417.97 324.996,1419.67 324.998,1421.41C324.999,1422.25 325.194,1422.94 325.585,1423.48C325.975,1424.02 326.68,1424.28 327.7,1424.28C329.139,1424.28 330.367,1423.47 331.385,1421.85C332.403,1420.23 333.18,1418.38 333.718,1416.32C334.255,1414.25 334.523,1412.61 334.522,1411.41C334.518,1408.11 333.345,1405.34 331.004,1403.1C328.663,1400.85 325.677,1398.86 322.047,1397.12C318.417,1395.39 314.577,1393.67 310.528,1391.96C306.478,1390.26 302.638,1388.28 299.007,1386.04C295.376,1383.8 292.39,1381.07 290.048,1377.86C287.705,1374.66 286.531,1370.66 286.526,1365.86C286.52,1360.88 287.55,1356.64 289.615,1353.13C291.68,1349.62 294.421,1346.7 297.836,1344.39C301.252,1342.08 305.028,1340.26 309.164,1338.94C313.301,1337.61 317.512,1336.69 321.8,1336.18C326.087,1335.67 330.089,1335.41 333.807,1335.4C341.783,1335.39 348.785,1336.24 354.814,1337.94C360.843,1339.64 365.568,1342.17 368.99,1345.53C372.412,1348.88 374.126,1353.11 374.132,1358.21C374.135,1361.02 373.283,1363.32 371.576,1365.09C369.869,1366.86 367.651,1368.17 364.923,1369.01C362.196,1369.85 359.273,1370.28 356.154,1370.28C352.496,1370.28 348.958,1369.87 345.539,1369.03C342.12,1368.2 339.299,1366.79 337.078,1364.81C334.857,1362.84 333.745,1360.17 333.741,1356.81C333.739,1354.89 334.067,1353.08 334.725,1351.37C335.382,1349.66 335.71,1347.96 335.708,1346.29C335.708,1345.44 335.512,1344.76 335.121,1344.22C334.731,1343.68 334.026,1343.41 333.007,1343.41C331.507,1343.41 330.234,1344.31 329.187,1346.11C328.139,1347.91 327.347,1349.91 326.81,1352.1C326.272,1354.29 326.004,1356.04 326.006,1357.36C326.009,1360.54 327.182,1363.19 329.523,1365.32C331.864,1367.44 334.85,1369.33 338.48,1370.97C342.109,1372.62 345.979,1374.26 350.089,1375.91C354.199,1377.55 358.069,1379.48 361.699,1381.7C365.33,1383.91 368.316,1386.62 370.659,1389.83C373.001,1393.03 374.175,1397.04 374.18,1401.83ZM434.017,1418.5C431.623,1422.64 428.644,1426.06 425.079,1428.76C421.513,1431.46 417.242,1432.82 412.265,1432.82C405.248,1432.83 399.475,1431.58 394.945,1429.07C390.414,1426.55 387.037,1423.24 384.814,1419.14C382.59,1415.03 381.476,1410.67 381.471,1406.05C381.467,1401.98 382.287,1397.9 383.931,1393.82C385.576,1389.74 387.985,1386.05 391.16,1382.74C394.335,1379.44 398.245,1376.78 402.89,1374.77C407.535,1372.76 412.856,1371.75 418.853,1371.74C424.79,1371.73 430.009,1373.46 434.511,1376.94C434.505,1371.9 434.532,1369.38 434.592,1369.38C434.59,1367.58 434.468,1365.25 434.225,1362.37C433.982,1359.49 433.514,1356.6 432.821,1353.69C432.128,1350.78 431.136,1348.32 429.844,1346.32C428.553,1344.31 426.857,1343.31 424.759,1343.31C423.799,1343.31 423.11,1343.58 422.691,1344.12C422.271,1344.66 422.062,1345.35 422.063,1346.19C422.065,1347.87 422.397,1349.56 423.058,1351.27C423.72,1352.98 424.052,1354.79 424.054,1356.71C424.058,1360.07 422.951,1362.74 420.734,1364.72C418.518,1366.7 415.701,1368.11 412.284,1368.96C408.866,1369.8 405.329,1370.23 401.671,1370.23C398.552,1370.23 395.628,1369.82 392.899,1368.98C390.169,1368.14 387.949,1366.84 386.238,1365.07C384.527,1363.31 383.67,1361.01 383.667,1358.19C383.661,1353.1 385.365,1348.87 388.78,1345.51C392.194,1342.14 396.929,1339.61 402.984,1337.89C409.039,1336.17 416.024,1335.31 423.94,1335.3C434.375,1335.29 443.312,1336.75 450.751,1339.68C458.19,1342.61 463.892,1347.18 467.857,1353.38C471.822,1359.58 473.81,1367.63 473.821,1377.53C473.842,1396.83 473.807,1404.98 473.713,1401.95C473.62,1398.92 473.579,1402.83 473.591,1413.69C473.599,1420.58 474.28,1426.38 475.635,1431.09C476.989,1435.8 478.792,1439.59 481.044,1442.46C483.296,1445.34 485.817,1447.4 488.607,1448.66C491.397,1449.92 494.232,1450.54 497.11,1450.54C502.387,1450.53 507.123,1448.88 511.317,1445.58C515.511,1442.27 517.606,1438.43 517.601,1434.06C517.597,1430.94 516.605,1428.4 514.624,1426.46C512.643,1424.51 510.212,1422.81 507.332,1421.34C504.452,1419.87 501.572,1418.35 498.692,1416.76C495.811,1415.17 493.38,1413.26 491.399,1411.01C489.418,1408.77 488.425,1405.84 488.421,1402.25C488.417,1398.65 489.252,1395.15 490.928,1391.76C492.603,1388.37 494.909,1385.58 497.845,1383.39C500.781,1381.2 504.138,1380.1 507.916,1380.1C512.773,1380.09 517.077,1381.3 520.828,1383.72C524.579,1386.15 527.521,1389.73 529.656,1394.46C531.79,1399.2 532.861,1405.01 532.868,1411.91C532.878,1420.73 531.477,1428.39 528.666,1434.9C525.855,1441.41 522.068,1446.78 517.305,1451.01C512.542,1455.25 507.209,1458.4 501.304,1460.48C495.399,1462.55 489.329,1463.59 483.092,1463.6C476.975,1463.61 470.992,1462.64 465.143,1460.7C459.294,1458.75 454.029,1455.9 449.347,1452.12C444.665,1448.35 440.942,1443.68 438.177,1438.1C435.412,1432.53 434.026,1426.14 434.018,1418.95L434.017,1418.5ZM434.344,1388.54C433.203,1386.99 432.032,1386.21 430.833,1386.21C428.794,1386.21 426.937,1387.41 425.26,1389.81C423.584,1392.21 422.252,1395.08 421.267,1398.41C420.281,1401.74 419.79,1404.84 419.793,1407.72C419.795,1409.76 420.112,1411.47 420.743,1412.85C421.374,1414.22 422.38,1414.91 423.759,1414.91C426.277,1414.91 428.285,1413.5 429.781,1410.68C431.277,1407.86 432.398,1404.44 433.143,1400.42C433.888,1396.4 434.288,1392.44 434.344,1388.54ZM281.737,1427.21C281.738,1428.17 281.334,1428.98 280.525,1429.64C279.716,1430.3 278.608,1430.81 277.199,1431.17C275.79,1431.54 274.186,1431.81 272.387,1431.99C270.588,1432.17 268.684,1432.28 266.675,1432.31C264.667,1432.34 262.673,1432.36 260.694,1432.36L254.487,1432.37C251.189,1432.37 247.92,1432.29 244.682,1432.11C241.443,1431.93 238.759,1431.49 236.629,1430.77C234.5,1430.05 233.434,1428.88 233.432,1427.27C233.431,1426.25 233.55,1425.45 233.789,1424.88C234.029,1424.31 234.343,1423.8 234.732,1423.35C235.121,1422.9 235.541,1422.45 235.99,1422C236.439,1421.55 236.858,1421.01 237.248,1420.38C237.637,1419.75 237.951,1418.91 238.189,1417.86C238.428,1416.81 238.546,1415.45 238.545,1413.77L238.594,1377.25C238.588,1371.61 238.328,1367.38 237.815,1364.56C237.302,1361.75 236.73,1359.69 236.099,1358.4C235.468,1357.12 234.897,1356.14 234.387,1355.48C233.876,1354.82 233.62,1353.86 233.619,1352.61C233.617,1350.75 234.829,1349.07 237.256,1347.56C239.684,1346.06 242.545,1344.66 245.842,1343.37C249.139,1342.08 252.286,1340.92 255.283,1339.9C258.341,1338.76 261.248,1337.73 264.006,1336.83C266.763,1335.93 268.951,1335.48 270.571,1335.47C272.13,1335.47 273.45,1335.98 274.53,1337C275.611,1338.02 276.182,1339.72 276.245,1342.12L276.505,1413.73C276.506,1414.75 276.567,1415.63 276.687,1416.38C276.808,1417.13 276.944,1417.8 277.094,1418.4C277.245,1419 277.441,1419.51 277.681,1419.93C277.921,1420.35 278.162,1420.73 278.402,1421.05C278.642,1421.38 278.897,1421.68 279.167,1421.95C279.438,1422.22 279.693,1422.49 279.933,1422.76C280.173,1423.03 280.398,1423.3 280.608,1423.57C280.819,1423.84 281.014,1424.14 281.194,1424.47C281.374,1424.8 281.51,1425.19 281.6,1425.64C281.691,1426.09 281.736,1426.61 281.737,1427.21Z" style="fill:rgb(239,65,114);"/>
                </g>
            </g>
        </g>
    </g>
</svg>
