<?xml version="1.0" encoding="UTF-8" standalone="no"?>
<!DOCTYPE svg PUBLIC "-//W3C//DTD SVG 1.1//EN" "http://www.w3.org/Graphics/SVG/1.1/DTD/svg11.dtd">
<svg width="100%" height="100%" viewBox="0 0 6652 2615" version="1.1" xmlns="http://www.w3.org/2000/svg" xmlns:xlink="http://www.w3.org/1999/xlink" xml:space="preserve" xmlns:serif="http://www.serif.com/" style="fill-rule:evenodd;clip-rule:evenodd;stroke-linejoin:round;stroke-miterlimit:2;">
    <g transform="matrix(4.16667,0,0,4.16667,-1664.66,-7792.15)">
        <g transform="matrix(1.44238,3.65859e-16,-3.53281e-16,1.49373,-4119.66,-8245.72)">
            <g id="j-kindfield" serif:id="j kindfield" transform="matrix(2.39373,-3.21944e-31,-1.11766e-31,2.39373,2964.36,3688.85)">
                <path d="M275.312,1311.99C275.318,1317.33 273.179,1322.1 268.896,1326.3C264.613,1330.5 259.623,1332.61 253.926,1332.61C249.368,1332.62 245.499,1331.21 242.317,1328.4C239.136,1325.58 237.543,1321.99 237.538,1317.61C237.532,1312.21 239.701,1307.46 244.044,1303.34C248.387,1299.23 253.407,1297.17 259.104,1297.17C263.542,1297.16 267.351,1298.57 270.533,1301.38C273.714,1304.2 275.307,1307.73 275.312,1311.99ZM178.378,1424.27L196.458,1424.25C198.197,1424.25 199.935,1423.38 201.673,1421.63C203.41,1419.89 205.131,1417.76 206.838,1415.24C208.544,1412.72 210.28,1410.2 212.047,1407.68C213.813,1405.16 215.61,1403.03 217.437,1401.29C219.264,1399.55 221.167,1398.67 223.146,1398.67C224.165,1398.67 225.14,1398.91 226.07,1399.39C227,1399.87 227.781,1400.78 228.412,1402.13C229.043,1403.48 229.36,1405.44 229.363,1408.02C229.365,1410.06 229.128,1412.7 228.652,1415.94C227.998,1420.56 227.267,1424.05 226.46,1426.42C225.653,1428.79 224.62,1430.38 223.362,1431.19C222.103,1432 220.425,1432.41 218.326,1432.41L150.771,1432.49C147.473,1432.49 144.205,1432.4 140.966,1432.23C137.728,1432.05 135.044,1431.6 132.914,1430.89C130.784,1430.17 129.718,1429 129.717,1427.38C129.716,1426.66 129.79,1426.05 129.939,1425.54C130.089,1425.03 130.283,1424.58 130.523,1424.19C130.762,1423.8 131.047,1423.45 131.376,1423.15C131.706,1422.85 132.02,1422.52 132.319,1422.16C132.619,1421.8 132.933,1421.4 133.263,1420.95C133.592,1420.5 133.876,1419.97 134.115,1419.37C134.355,1418.77 134.549,1418.02 134.698,1417.12C134.847,1416.22 134.92,1415.14 134.919,1413.88L134.828,1331.76C131.885,1328.4 128.494,1325.84 124.654,1324.08C120.814,1322.31 116.945,1321.43 113.047,1321.44C109.569,1321.44 106.332,1322.19 103.335,1323.69C100.338,1325.2 97.912,1327.48 96.056,1330.54C94.201,1333.6 93.276,1337.5 93.281,1342.24C93.284,1344.93 93.811,1347.23 94.863,1349.12C95.914,1351 97.31,1351.95 99.049,1351.94C100.608,1351.94 101.506,1350.86 101.744,1348.7C101.743,1347.86 101.562,1347.04 101.201,1346.23C100.841,1345.42 100.48,1344.54 100.119,1343.58C99.758,1342.62 99.577,1341.48 99.575,1340.16C99.573,1338.12 100.096,1336.17 101.143,1334.31C102.19,1332.45 103.868,1330.92 106.175,1329.72C108.483,1328.52 111.495,1327.91 115.213,1327.91C120.131,1327.9 123.79,1329.14 126.192,1331.63C128.593,1334.12 129.796,1337.04 129.8,1340.4C129.803,1343.39 128.817,1346.39 126.841,1349.4C124.866,1352.4 121.885,1354.9 117.899,1356.92C113.914,1358.93 108.952,1359.94 103.016,1359.95C95.519,1359.95 89.371,1358.58 84.571,1355.83C79.77,1353.08 76.228,1349.53 73.944,1345.18C71.661,1340.84 70.516,1336.3 70.511,1331.56C70.503,1324.66 71.996,1318.69 74.989,1313.65C77.982,1308.61 81.965,1304.69 86.939,1301.9C91.914,1299.11 97.339,1297.71 103.216,1297.7C109.033,1297.69 115.047,1299.21 121.257,1302.27C127.467,1305.32 132.974,1309.72 137.778,1315.47C139.747,1306.83 143.848,1300.11 150.079,1295.31C156.31,1290.5 164.283,1288.1 173.998,1288.09C180.775,1288.08 186.413,1289.27 190.913,1291.66C195.414,1294.06 198.775,1297.16 200.999,1300.96C203.222,1304.77 204.336,1308.77 204.34,1312.97C204.345,1317.17 203.225,1321.26 200.981,1325.25C198.736,1329.24 195.382,1332.56 190.917,1335.2C186.452,1337.85 180.862,1339.38 174.146,1339.81L174.228,1413.84C174.236,1420.91 175.619,1424.39 178.378,1424.27ZM174.047,1331.62C179.503,1331.2 183.865,1330.02 187.131,1328.1C190.397,1326.18 192.733,1323.85 194.14,1321.12C195.546,1318.39 196.248,1315.74 196.245,1313.16C196.241,1310.34 195.579,1307.9 194.258,1305.83C192.936,1303.76 191.256,1302.73 189.217,1302.73C186.458,1302.73 184.106,1303.85 182.159,1306.07C180.213,1308.29 178.656,1311 177.491,1314.21C176.325,1317.42 175.459,1320.62 174.893,1323.8C174.326,1326.97 174.045,1329.58 174.047,1331.62ZM374.18,1401.83C374.186,1407.23 373.157,1411.74 371.092,1415.37C369.027,1419 366.287,1421.95 362.871,1424.2C359.455,1426.45 355.679,1428.16 351.543,1429.34C347.406,1430.51 343.194,1431.3 338.907,1431.69C334.62,1432.09 330.617,1432.29 326.899,1432.29C318.983,1432.3 311.996,1431.45 305.937,1429.75C299.878,1428.05 295.138,1425.5 291.716,1422.12C288.294,1418.74 286.58,1414.52 286.575,1409.49C286.571,1406.67 287.423,1404.37 289.131,1402.6C290.838,1400.83 293.055,1399.52 295.783,1398.68C298.51,1397.84 301.433,1397.42 304.552,1397.41C308.21,1397.41 311.748,1397.82 315.168,1398.66C318.587,1399.5 321.407,1400.89 323.628,1402.83C325.849,1404.78 326.961,1407.46 326.965,1410.88C326.967,1412.86 326.639,1414.67 325.982,1416.32C325.324,1417.97 324.996,1419.67 324.998,1421.41C324.999,1422.25 325.194,1422.94 325.585,1423.48C325.975,1424.02 326.68,1424.28 327.7,1424.28C329.139,1424.28 330.367,1423.47 331.385,1421.85C332.403,1420.23 333.18,1418.38 333.718,1416.32C334.255,1414.25 334.523,1412.61 334.522,1411.41C334.518,1408.11 333.345,1405.34 331.004,1403.1C328.663,1400.85 325.677,1398.86 322.047,1397.12C318.417,1395.39 314.577,1393.67 310.528,1391.96C306.478,1390.26 302.638,1388.28 299.007,1386.04C295.376,1383.8 292.39,1381.07 290.048,1377.86C287.705,1374.66 286.531,1370.66 286.526,1365.86C286.52,1360.88 287.55,1356.64 289.615,1353.13C291.68,1349.62 294.421,1346.7 297.836,1344.39C301.252,1342.08 305.028,1340.26 309.164,1338.94C313.301,1337.61 317.512,1336.69 321.8,1336.18C326.087,1335.67 330.089,1335.41 333.807,1335.4C341.783,1335.39 348.785,1336.24 354.814,1337.94C360.843,1339.64 365.568,1342.17 368.99,1345.53C372.412,1348.88 374.126,1353.11 374.132,1358.21C374.135,1361.02 373.283,1363.32 371.576,1365.09C369.869,1366.86 367.651,1368.17 364.923,1369.01C362.196,1369.85 359.273,1370.28 356.154,1370.28C352.496,1370.28 348.958,1369.87 345.539,1369.03C342.12,1368.2 339.299,1366.79 337.078,1364.81C334.857,1362.84 333.745,1360.17 333.741,1356.81C333.739,1354.89 334.067,1353.08 334.725,1351.37C335.382,1349.66 335.71,1347.96 335.708,1346.29C335.708,1345.44 335.512,1344.76 335.121,1344.22C334.731,1343.68 334.026,1343.41 333.007,1343.41C331.507,1343.41 330.234,1344.31 329.187,1346.11C328.139,1347.91 327.347,1349.91 326.81,1352.1C326.272,1354.29 326.004,1356.04 326.006,1357.36C326.009,1360.54 327.182,1363.19 329.523,1365.32C331.864,1367.44 334.85,1369.33 338.48,1370.97C342.109,1372.62 345.979,1374.26 350.089,1375.91C354.199,1377.55 358.069,1379.48 361.699,1381.7C365.33,1383.91 368.316,1386.62 370.659,1389.83C373.001,1393.03 374.175,1397.04 374.18,1401.83ZM434.017,1418.5C431.623,1422.64 428.644,1426.06 425.079,1428.76C421.513,1431.46 417.242,1432.82 412.265,1432.82C405.248,1432.83 399.475,1431.58 394.945,1429.07C390.414,1426.55 387.037,1423.24 384.814,1419.14C382.59,1415.03 381.476,1410.67 381.471,1406.05C381.467,1401.98 382.287,1397.9 383.931,1393.82C385.576,1389.74 387.985,1386.05 391.16,1382.74C394.335,1379.44 398.245,1376.78 402.89,1374.77C407.535,1372.76 412.856,1371.75 418.853,1371.74C424.79,1371.73 430.009,1373.46 434.511,1376.94C434.505,1371.9 434.532,1369.38 434.592,1369.38C434.59,1367.58 434.468,1365.25 434.225,1362.37C433.982,1359.49 433.514,1356.6 432.821,1353.69C432.128,1350.78 431.136,1348.32 429.844,1346.32C428.553,1344.31 426.857,1343.31 424.759,1343.31C423.799,1343.31 423.11,1343.58 422.691,1344.12C422.271,1344.66 422.062,1345.35 422.063,1346.19C422.065,1347.87 422.397,1349.56 423.058,1351.27C423.72,1352.98 424.052,1354.79 424.054,1356.71C424.058,1360.07 422.951,1362.74 420.734,1364.72C418.518,1366.7 415.701,1368.11 412.284,1368.96C408.866,1369.8 405.329,1370.23 401.671,1370.23C398.552,1370.23 395.628,1369.82 392.899,1368.98C390.169,1368.14 387.949,1366.84 386.238,1365.07C384.527,1363.31 383.67,1361.01 383.667,1358.19C383.661,1353.1 385.365,1348.87 388.78,1345.51C392.194,1342.14 396.929,1339.61 402.984,1337.89C409.039,1336.17 416.024,1335.31 423.94,1335.3C434.375,1335.29 443.312,1336.75 450.751,1339.68C458.19,1342.61 463.892,1347.18 467.857,1353.38C471.822,1359.58 473.81,1367.63 473.821,1377.53C473.842,1396.83 473.807,1404.98 473.713,1401.95C473.62,1398.92 473.579,1402.83 473.591,1413.69C473.599,1420.58 474.28,1426.38 475.635,1431.09C476.989,1435.8 478.792,1439.59 481.044,1442.46C483.296,1445.34 485.817,1447.4 488.607,1448.66C491.397,1449.92 494.232,1450.54 497.11,1450.54C502.387,1450.53 507.123,1448.88 511.317,1445.58C515.511,1442.27 517.606,1438.43 517.601,1434.06C517.597,1430.94 516.605,1428.4 514.624,1426.46C512.643,1424.51 510.212,1422.81 507.332,1421.34C504.452,1419.87 501.572,1418.35 498.692,1416.76C495.811,1415.17 493.38,1413.26 491.399,1411.01C489.418,1408.77 488.425,1405.84 488.421,1402.25C488.417,1398.65 489.252,1395.15 490.928,1391.76C492.603,1388.37 494.909,1385.58 497.845,1383.39C500.781,1381.2 504.138,1380.1 507.916,1380.1C512.773,1380.09 517.077,1381.3 520.828,1383.72C524.579,1386.15 527.521,1389.73 529.656,1394.46C531.79,1399.2 532.861,1405.01 532.868,1411.91C532.878,1420.73 531.477,1428.39 528.666,1434.9C525.855,1441.41 522.068,1446.78 517.305,1451.01C512.542,1455.25 507.209,1458.4 501.304,1460.48C495.399,1462.55 489.329,1463.59 483.092,1463.6C476.975,1463.61 470.992,1462.64 465.143,1460.7C459.294,1458.75 454.029,1455.9 449.347,1452.12C444.665,1448.35 440.942,1443.68 438.177,1438.1C435.412,1432.53 434.026,1426.14 434.018,1418.95L434.017,1418.5ZM434.344,1388.54C433.203,1386.99 432.032,1386.21 430.833,1386.21C428.794,1386.21 426.937,1387.41 425.26,1389.81C423.584,1392.21 422.252,1395.08 421.267,1398.41C420.281,1401.74 419.79,1404.84 419.793,1407.72C419.795,1409.76 420.112,1411.47 420.743,1412.85C421.374,1414.22 422.38,1414.91 423.759,1414.91C426.277,1414.91 428.285,1413.5 429.781,1410.68C431.277,1407.86 432.398,1404.44 433.143,1400.42C433.888,1396.4 434.288,1392.44 434.344,1388.54ZM281.737,1427.21C281.738,1428.17 281.334,1428.98 280.525,1429.64C279.716,1430.3 278.608,1430.81 277.199,1431.17C275.79,1431.54 274.186,1431.81 272.387,1431.99C270.588,1432.17 268.684,1432.28 266.675,1432.31C264.667,1432.34 262.673,1432.36 260.694,1432.36L254.487,1432.37C251.189,1432.37 247.92,1432.29 244.682,1432.11C241.443,1431.93 238.759,1431.49 236.629,1430.77C234.5,1430.05 233.434,1428.88 233.432,1427.27C233.431,1426.25 233.55,1425.45 233.789,1424.88C234.029,1424.31 234.343,1423.8 234.732,1423.35C235.121,1422.9 235.541,1422.45 235.99,1422C236.439,1421.55 236.858,1421.01 237.248,1420.38C237.637,1419.75 237.951,1418.91 238.189,1417.86C238.428,1416.81 238.546,1415.45 238.545,1413.77L238.594,1377.25C238.588,1371.61 238.328,1367.38 237.815,1364.56C237.302,1361.75 236.73,1359.69 236.099,1358.4C235.468,1357.12 234.897,1356.14 234.387,1355.48C233.876,1354.82 233.62,1353.86 233.619,1352.61C233.617,1350.75 234.829,1349.07 237.256,1347.56C239.684,1346.06 242.545,1344.66 245.842,1343.37C249.139,1342.08 252.286,1340.92 255.283,1339.9C258.341,1338.76 261.248,1337.73 264.006,1336.83C266.763,1335.93 268.951,1335.48 270.571,1335.47C272.13,1335.47 273.45,1335.98 274.53,1337C275.611,1338.02 276.182,1339.72 276.245,1342.12L276.505,1413.73C276.506,1414.75 276.567,1415.63 276.687,1416.38C276.808,1417.13 276.944,1417.8 277.094,1418.4C277.245,1419 277.441,1419.51 277.681,1419.93C277.921,1420.35 278.162,1420.73 278.402,1421.05C278.642,1421.38 278.897,1421.68 279.167,1421.95C279.438,1422.22 279.693,1422.49 279.933,1422.76C280.173,1423.03 280.398,1423.3 280.608,1423.57C280.819,1423.84 281.014,1424.14 281.194,1424.47C281.374,1424.8 281.51,1425.19 281.6,1425.64C281.691,1426.09 281.736,1426.61 281.737,1427.21Z" style="fill:rgb(239,65,114);"/>
            </g>
        </g>
    </g>
</svg>
