<?xml version="1.0" encoding="UTF-8" standalone="no"?>
<!DOCTYPE svg PUBLIC "-//W3C//DTD SVG 1.1//EN" "http://www.w3.org/Graphics/SVG/1.1/DTD/svg11.dtd">
<svg width="100%" height="100%" viewBox="0 0 16459 17498" version="1.1" xmlns="http://www.w3.org/2000/svg" xmlns:xlink="http://www.w3.org/1999/xlink" xml:space="preserve" xmlns:serif="http://www.serif.com/" style="fill-rule:evenodd;clip-rule:evenodd;stroke-linecap:round;stroke-linejoin:round;stroke-miterlimit:1.5;">
    <g transform="matrix(4.16667,0,0,4.16667,-2993.36,-2336.85)">
        <g transform="matrix(-2.2041e-16,1.14258,-0.8828,-1.56371e-16,3026.24,6823.49)">
            <g id="rnbw" transform="matrix(1.33658e-16,-2.55152,1.9714,1.32741e-16,-5257.77,2524.13)">
                <path d="M-32.354,1748.03L-32.354,791.419C-32.354,505.831 96.596,251.445 296.519,86.608C446.261,-36.854 635.706,-110.354 841.5,-110.354C1047.29,-110.354 1236.74,-36.854 1386.48,86.608C1586.4,251.445 1715.35,505.831 1715.35,791.419L1715.35,1746.9L1632.68,1746.9L1632.68,791.419C1632.68,531.728 1515.68,300.288 1333.89,150.399C1198.59,38.843 1027.45,-27.677 841.5,-27.677C655.552,-27.677 484.415,38.843 349.114,150.399C167.32,300.288 50.323,531.728 50.323,791.419L50.323,1748.03L-32.354,1748.03Z" style="fill:rgb(17,98,113);stroke:white;stroke-width:5.91px;"/>
                <path d="M50.323,1748.03L50.323,791.419C50.323,531.728 167.32,300.288 349.114,150.399C484.415,38.843 655.552,-27.677 841.5,-27.677C1027.45,-27.677 1198.59,38.843 1333.89,150.399C1515.68,300.288 1632.68,531.728 1632.68,791.419L1632.68,1746.87L1550,1746.87L1550,791.419C1550,557.625 1444.96,349.131 1281.29,214.189C1160.43,114.54 1007.6,55 841.5,55C675.398,55 522.57,114.54 401.71,214.189C238.044,349.131 133,557.625 133,791.419L133,1748.03L50.323,1748.03Z" style="fill:rgb(9,154,155);stroke:white;stroke-width:5.91px;"/>
                <g transform="matrix(1,0,0,1,-4821.35,-4014.35)">
                    <path d="M5039.12,4785.21L5039.12,5762.39L4955.4,5762.39L4955.4,4805.77C4955.4,4571.98 5059.4,4363.49 5223.06,4228.54C5343.93,4128.89 5496.75,4069.35 5662.85,4069.35C5828.96,4069.35 5981.78,4128.89 6102.65,4228.54C6266.31,4363.49 6370.41,4571.98 6370.41,4805.77L6370.41,5761.22L6287.73,5761.22L6287.73,4841.35C6287.73,4624.55 6195.8,4431.2 6051.03,4306.07C5944.35,4213.87 5809.46,4158.76 5662.85,4158.76C5516.25,4158.76 5381.36,4213.87 5274.68,4306.07C5142.53,4420.29 5053.62,4591.36 5039.12,4785.21Z" style="fill:rgb(239,65,114);stroke:white;stroke-width:5.91px;"/>
                </g>
                <g transform="matrix(1,0,0,1.04852,0,-2.68492)">
                    <path d="M298.354,1668.6L215.677,1668.6L215.677,736C215.677,544.76 308.558,374.198 453.329,263.816C560.006,182.481 694.892,133.867 841.5,133.867C988.108,133.867 1122.99,182.481 1229.67,263.816C1374.44,374.198 1467.32,544.76 1467.32,736L1467.32,1668.6L1384.65,1668.6L1384.65,767.844C1384.65,590.69 1303.3,432.321 1175.18,330.071C1083.44,256.852 967.581,212.735 841.5,212.735C715.419,212.735 599.556,256.852 507.816,330.071C379.699,432.321 298.354,590.69 298.354,767.844L298.354,1668.6Z" style="fill:rgb(241,110,144);stroke:white;stroke-width:5.76px;"/>
                </g>
                <g transform="matrix(1,0,0,1,-4821.35,-4014.35)">
                    <path d="M6123.61,4809.06C6123.61,4608 6001.09,4469.33 5945.15,4423.21C5867.61,4359.28 5769.71,4320.68 5663.15,4320.68C5556.58,4320.68 5457.06,4357.36 5381.14,4423.21C5202.68,4578 5204.43,4809.06 5204.43,4809.06L5202.39,5761.22C5202.39,5761.22 5140.24,5761.3 5119.71,5761.22L5120,4809.06C5120,4627.06 5201.14,4464.46 5328.55,4359.42C5420.53,4283.58 5536.74,4238 5663.15,4238C5789.56,4238 5905.77,4283.58 5997.74,4359.42C6125.15,4464.46 6206.29,4627.06 6206.29,4809.06L6206.29,5761.22C6204.49,5761.23 6171.71,5761.24 6123.61,5761.22L6123.61,4809.06Z" style="fill:rgb(244,156,29);stroke:white;stroke-width:6px;stroke-linecap:butt;stroke-miterlimit:2;"/>
                </g>
            </g>
        </g>
    </g>
</svg>
