<?xml version="1.0" encoding="UTF-8" standalone="no"?>
<!DOCTYPE svg PUBLIC "-//W3C//DTD SVG 1.1//EN" "http://www.w3.org/Graphics/SVG/1.1/DTD/svg11.dtd">
<svg width="100%" height="100%" viewBox="0 0 8332 2128" version="1.1" xmlns="http://www.w3.org/2000/svg" xmlns:xlink="http://www.w3.org/1999/xlink" xml:space="preserve" xmlns:serif="http://www.serif.com/" style="fill-rule:evenodd;clip-rule:evenodd;stroke-linejoin:round;stroke-miterlimit:2;">
    <g transform="matrix(4.16667,0,0,4.16667,-9198.25,-27931.8)">
        <g transform="matrix(1,0,0,1,1712.05,497.082)">
            <g transform="matrix(523.517,0,0,523.517,483,6591)">
                <path d="M0.267,-0.286L0.267,-0.102C0.267,-0.096 0.267,-0.09 0.268,-0.086C0.268,-0.081 0.269,-0.077 0.27,-0.074C0.271,-0.071 0.273,-0.068 0.274,-0.066C0.276,-0.063 0.277,-0.061 0.279,-0.059C0.28,-0.058 0.287,-0.051 0.288,-0.05C0.29,-0.048 0.291,-0.046 0.292,-0.044C0.293,-0.042 0.294,-0.04 0.295,-0.038C0.296,-0.035 0.296,-0.032 0.296,-0.028C0.296,-0.023 0.294,-0.019 0.289,-0.015C0.285,-0.012 0.278,-0.009 0.27,-0.007C0.262,-0.005 0.253,-0.003 0.243,-0.002C0.233,-0.001 0.222,-0.001 0.211,-0.001C0.2,-0.001 0.189,-0 0.177,-0L0.143,-0C0.129,-0 0.115,-0.001 0.1,-0.001C0.086,-0.002 0.073,-0.003 0.062,-0.004C0.051,-0.006 0.041,-0.009 0.034,-0.012C0.027,-0.016 0.024,-0.021 0.024,-0.028C0.024,-0.035 0.025,-0.04 0.027,-0.043C0.029,-0.047 0.031,-0.05 0.034,-0.052C0.037,-0.055 0.04,-0.058 0.043,-0.062C0.045,-0.065 0.048,-0.07 0.05,-0.076C0.052,-0.082 0.053,-0.091 0.053,-0.102L0.053,-0.578C0.053,-0.588 0.052,-0.597 0.05,-0.603C0.048,-0.609 0.046,-0.614 0.043,-0.617C0.04,-0.621 0.038,-0.624 0.035,-0.626C0.032,-0.629 0.03,-0.632 0.028,-0.636C0.026,-0.639 0.025,-0.644 0.025,-0.65C0.025,-0.659 0.031,-0.666 0.042,-0.67C0.053,-0.674 0.066,-0.676 0.082,-0.677C0.097,-0.678 0.11,-0.679 0.122,-0.679L0.344,-0.679C0.386,-0.679 0.424,-0.673 0.456,-0.662C0.487,-0.651 0.514,-0.636 0.535,-0.617C0.557,-0.599 0.573,-0.578 0.583,-0.554C0.594,-0.531 0.599,-0.507 0.599,-0.482C0.599,-0.45 0.59,-0.419 0.572,-0.39C0.554,-0.36 0.526,-0.336 0.49,-0.317C0.527,-0.245 0.564,-0.173 0.601,-0.102C0.608,-0.089 0.614,-0.079 0.619,-0.073C0.625,-0.067 0.63,-0.062 0.634,-0.059C0.639,-0.055 0.642,-0.052 0.644,-0.049C0.646,-0.046 0.647,-0.04 0.647,-0.033C0.647,-0.022 0.641,-0.015 0.629,-0.01C0.616,-0.006 0.6,-0.003 0.581,-0.002C0.562,-0.001 0.542,-0 0.522,-0C0.516,-0 0.506,-0.001 0.492,-0.001C0.477,-0.001 0.462,-0.003 0.446,-0.005C0.43,-0.007 0.417,-0.01 0.405,-0.015C0.393,-0.019 0.387,-0.026 0.387,-0.034C0.387,-0.041 0.389,-0.046 0.393,-0.05C0.397,-0.054 0.4,-0.058 0.404,-0.062C0.407,-0.065 0.409,-0.07 0.409,-0.076C0.409,-0.083 0.406,-0.091 0.401,-0.102L0.302,-0.286L0.267,-0.286ZM0.291,-0.635C0.283,-0.635 0.278,-0.632 0.274,-0.626C0.271,-0.62 0.269,-0.613 0.268,-0.605C0.267,-0.597 0.267,-0.589 0.267,-0.583L0.267,-0.331L0.292,-0.331C0.313,-0.331 0.331,-0.338 0.344,-0.353C0.358,-0.368 0.369,-0.387 0.376,-0.41C0.383,-0.433 0.386,-0.458 0.386,-0.483C0.386,-0.508 0.383,-0.533 0.376,-0.556C0.369,-0.579 0.358,-0.598 0.344,-0.613C0.33,-0.627 0.313,-0.635 0.291,-0.635Z" style="fill:rgb(241,110,144);fill-rule:nonzero;"/>
            </g>
            <g transform="matrix(523.517,0,0,523.517,804.063,6591)">
                <path d="M0.462,-0.157C0.466,-0.157 0.47,-0.155 0.473,-0.152C0.476,-0.149 0.478,-0.144 0.478,-0.139C0.478,-0.119 0.466,-0.098 0.443,-0.077C0.42,-0.056 0.39,-0.038 0.354,-0.023C0.318,-0.008 0.281,-0 0.243,-0C0.203,-0 0.168,-0.008 0.138,-0.023C0.108,-0.038 0.082,-0.057 0.061,-0.083C0.041,-0.108 0.025,-0.136 0.014,-0.167C0.004,-0.199 -0.001,-0.231 -0.001,-0.264C-0.001,-0.297 0.004,-0.329 0.015,-0.36C0.026,-0.391 0.042,-0.419 0.064,-0.444C0.086,-0.469 0.114,-0.489 0.148,-0.504C0.181,-0.519 0.221,-0.526 0.267,-0.526C0.29,-0.526 0.314,-0.524 0.34,-0.518C0.365,-0.512 0.389,-0.503 0.411,-0.491C0.433,-0.479 0.451,-0.463 0.465,-0.443C0.479,-0.424 0.486,-0.4 0.486,-0.373C0.486,-0.347 0.481,-0.325 0.471,-0.307C0.46,-0.29 0.446,-0.275 0.429,-0.265C0.412,-0.254 0.392,-0.247 0.37,-0.242C0.349,-0.237 0.327,-0.235 0.304,-0.235C0.274,-0.235 0.244,-0.238 0.217,-0.245C0.222,-0.221 0.229,-0.2 0.24,-0.18C0.251,-0.161 0.265,-0.146 0.283,-0.134C0.301,-0.122 0.323,-0.117 0.349,-0.117C0.355,-0.117 0.361,-0.117 0.367,-0.117C0.372,-0.118 0.377,-0.119 0.382,-0.12C0.387,-0.121 0.392,-0.122 0.396,-0.123C0.401,-0.124 0.405,-0.126 0.408,-0.127C0.412,-0.129 0.416,-0.13 0.419,-0.132C0.422,-0.133 0.425,-0.135 0.428,-0.137C0.431,-0.138 0.433,-0.14 0.436,-0.142C0.438,-0.143 0.452,-0.153 0.453,-0.154C0.455,-0.155 0.456,-0.156 0.458,-0.156C0.459,-0.156 0.461,-0.157 0.462,-0.157ZM0.267,-0.483C0.257,-0.483 0.247,-0.475 0.238,-0.46C0.229,-0.444 0.222,-0.424 0.217,-0.399C0.212,-0.374 0.209,-0.347 0.209,-0.319C0.209,-0.31 0.209,-0.301 0.21,-0.292C0.218,-0.289 0.225,-0.288 0.232,-0.288C0.249,-0.288 0.263,-0.294 0.273,-0.304C0.283,-0.315 0.291,-0.329 0.296,-0.346C0.3,-0.363 0.303,-0.38 0.303,-0.397C0.303,-0.419 0.299,-0.439 0.293,-0.457C0.286,-0.474 0.278,-0.483 0.267,-0.483Z" style="fill:rgb(241,110,144);fill-rule:nonzero;"/>
            </g>
            <g transform="matrix(523.517,0,0,523.517,1059.94,6591)">
                <path d="M0.287,-0.194C0.293,-0.194 0.3,-0.197 0.306,-0.203C0.312,-0.209 0.317,-0.218 0.322,-0.228C0.327,-0.239 0.332,-0.251 0.336,-0.265C0.34,-0.279 0.343,-0.294 0.346,-0.31C0.348,-0.325 0.35,-0.341 0.352,-0.357C0.353,-0.374 0.354,-0.389 0.354,-0.405C0.354,-0.416 0.354,-0.427 0.353,-0.437C0.352,-0.447 0.351,-0.456 0.349,-0.465C0.347,-0.473 0.345,-0.481 0.342,-0.487C0.34,-0.493 0.337,-0.498 0.333,-0.501C0.329,-0.505 0.325,-0.506 0.321,-0.506C0.307,-0.506 0.295,-0.495 0.285,-0.473C0.275,-0.45 0.267,-0.423 0.261,-0.39C0.255,-0.358 0.252,-0.326 0.252,-0.296C0.252,-0.268 0.255,-0.244 0.26,-0.224C0.266,-0.204 0.275,-0.194 0.287,-0.194ZM0.38,-0.546C0.399,-0.59 0.42,-0.621 0.441,-0.641C0.463,-0.661 0.485,-0.67 0.508,-0.67C0.525,-0.67 0.541,-0.666 0.555,-0.657C0.569,-0.648 0.576,-0.636 0.576,-0.619C0.576,-0.603 0.57,-0.589 0.56,-0.575C0.55,-0.561 0.538,-0.554 0.525,-0.554C0.52,-0.554 0.515,-0.556 0.51,-0.558C0.505,-0.561 0.499,-0.563 0.493,-0.566C0.487,-0.569 0.479,-0.57 0.469,-0.57C0.459,-0.57 0.45,-0.567 0.441,-0.563C0.433,-0.558 0.425,-0.55 0.418,-0.54C0.469,-0.527 0.507,-0.504 0.531,-0.473C0.555,-0.441 0.567,-0.405 0.567,-0.363C0.567,-0.324 0.556,-0.288 0.534,-0.256C0.511,-0.224 0.479,-0.198 0.436,-0.179C0.393,-0.16 0.342,-0.151 0.281,-0.151C0.229,-0.151 0.187,-0.158 0.152,-0.172C0.138,-0.166 0.126,-0.158 0.117,-0.149C0.109,-0.139 0.104,-0.13 0.104,-0.122C0.104,-0.114 0.108,-0.109 0.114,-0.104C0.12,-0.099 0.13,-0.097 0.143,-0.097C0.172,-0.097 0.212,-0.1 0.263,-0.106C0.314,-0.113 0.355,-0.116 0.388,-0.116C0.431,-0.116 0.467,-0.108 0.496,-0.093C0.524,-0.077 0.545,-0.058 0.559,-0.033C0.573,-0.009 0.58,0.017 0.58,0.044C0.58,0.068 0.575,0.092 0.565,0.115C0.555,0.138 0.54,0.159 0.52,0.178C0.501,0.197 0.476,0.212 0.447,0.224C0.418,0.235 0.384,0.241 0.346,0.241C0.291,0.241 0.248,0.23 0.217,0.209C0.186,0.188 0.171,0.16 0.171,0.125C0.171,0.112 0.175,0.101 0.184,0.093C0.192,0.084 0.203,0.078 0.216,0.074C0.229,0.07 0.243,0.068 0.258,0.068C0.281,0.068 0.299,0.071 0.313,0.077C0.327,0.084 0.338,0.092 0.344,0.102C0.35,0.112 0.354,0.123 0.354,0.134C0.354,0.141 0.352,0.147 0.35,0.152C0.348,0.158 0.346,0.162 0.344,0.167C0.342,0.171 0.341,0.176 0.341,0.18C0.341,0.184 0.343,0.188 0.346,0.192C0.35,0.196 0.356,0.198 0.365,0.198C0.379,0.198 0.391,0.19 0.402,0.173C0.412,0.157 0.417,0.139 0.417,0.119C0.417,0.104 0.414,0.09 0.407,0.077C0.4,0.063 0.388,0.052 0.372,0.043C0.356,0.035 0.334,0.03 0.306,0.03C0.283,0.03 0.251,0.034 0.209,0.043C0.167,0.051 0.142,0.055 0.132,0.055C0.107,0.055 0.086,0.05 0.069,0.039C0.052,0.029 0.039,0.015 0.031,-0.003C0.023,-0.02 0.019,-0.039 0.019,-0.059C0.019,-0.085 0.026,-0.11 0.04,-0.136C0.054,-0.162 0.075,-0.182 0.104,-0.198C0.082,-0.215 0.066,-0.235 0.056,-0.258C0.045,-0.281 0.04,-0.306 0.04,-0.334C0.04,-0.372 0.051,-0.408 0.073,-0.441C0.095,-0.473 0.127,-0.5 0.17,-0.52C0.212,-0.54 0.264,-0.55 0.325,-0.55C0.345,-0.55 0.363,-0.549 0.38,-0.546Z" style="fill:rgb(241,110,144);fill-rule:nonzero;"/>
            </g>
            <g transform="matrix(523.517,0,0,523.517,1368.74,6591)">
                <path d="M0.286,-0.028C0.286,-0.023 0.283,-0.019 0.279,-0.015C0.275,-0.012 0.269,-0.009 0.261,-0.007C0.253,-0.005 0.245,-0.003 0.235,-0.002C0.225,-0.001 0.215,-0.001 0.204,-0.001C0.193,-0.001 0.182,-0 0.171,-0L0.138,-0C0.12,-0 0.102,-0.001 0.084,-0.002C0.067,-0.003 0.052,-0.005 0.041,-0.009C0.029,-0.013 0.023,-0.02 0.023,-0.028C0.023,-0.034 0.024,-0.038 0.025,-0.041C0.027,-0.044 0.028,-0.047 0.031,-0.05C0.033,-0.052 0.035,-0.054 0.037,-0.057C0.04,-0.059 0.042,-0.062 0.044,-0.066C0.046,-0.069 0.048,-0.074 0.049,-0.079C0.051,-0.085 0.051,-0.092 0.051,-0.102L0.052,-0.3C0.052,-0.33 0.05,-0.353 0.048,-0.369C0.045,-0.384 0.042,-0.395 0.038,-0.402C0.035,-0.409 0.032,-0.414 0.029,-0.418C0.026,-0.422 0.025,-0.427 0.025,-0.434C0.025,-0.444 0.031,-0.453 0.045,-0.461C0.058,-0.469 0.073,-0.477 0.091,-0.484C0.109,-0.491 0.126,-0.497 0.143,-0.502C0.159,-0.509 0.175,-0.514 0.19,-0.519C0.205,-0.524 0.217,-0.526 0.226,-0.526C0.234,-0.526 0.241,-0.524 0.247,-0.518C0.253,-0.513 0.256,-0.503 0.256,-0.49L0.257,-0.102C0.257,-0.096 0.258,-0.091 0.258,-0.087C0.259,-0.083 0.26,-0.079 0.26,-0.076C0.261,-0.073 0.262,-0.07 0.264,-0.068C0.265,-0.066 0.266,-0.064 0.268,-0.062C0.269,-0.06 0.27,-0.058 0.272,-0.057C0.273,-0.055 0.275,-0.054 0.276,-0.052C0.277,-0.051 0.278,-0.05 0.28,-0.048C0.281,-0.047 0.282,-0.045 0.283,-0.043C0.284,-0.041 0.284,-0.039 0.285,-0.037C0.285,-0.034 0.286,-0.032 0.286,-0.028ZM0.251,-0.654C0.251,-0.625 0.24,-0.599 0.217,-0.576C0.193,-0.553 0.166,-0.542 0.135,-0.542C0.111,-0.542 0.09,-0.55 0.072,-0.565C0.055,-0.58 0.046,-0.6 0.046,-0.624C0.046,-0.653 0.058,-0.679 0.082,-0.701C0.105,-0.723 0.133,-0.734 0.164,-0.734C0.188,-0.734 0.208,-0.727 0.226,-0.711C0.243,-0.696 0.251,-0.677 0.251,-0.654Z" style="fill:rgb(241,110,144);fill-rule:nonzero;"/>
            </g>
            <g transform="matrix(523.517,0,0,523.517,1521.34,6591)">
                <path d="M0.496,-0.166C0.496,-0.136 0.49,-0.112 0.479,-0.092C0.468,-0.072 0.453,-0.056 0.435,-0.044C0.416,-0.032 0.396,-0.023 0.373,-0.016C0.351,-0.01 0.328,-0.006 0.304,-0.004C0.281,-0.002 0.259,-0 0.239,-0C0.196,-0 0.158,-0.005 0.125,-0.014C0.093,-0.024 0.067,-0.038 0.048,-0.056C0.03,-0.074 0.021,-0.097 0.021,-0.125C0.021,-0.14 0.025,-0.152 0.034,-0.162C0.044,-0.171 0.056,-0.179 0.071,-0.183C0.085,-0.188 0.101,-0.19 0.118,-0.19C0.138,-0.19 0.157,-0.188 0.176,-0.183C0.194,-0.179 0.21,-0.171 0.222,-0.16C0.234,-0.15 0.24,-0.135 0.24,-0.117C0.24,-0.106 0.238,-0.096 0.234,-0.087C0.231,-0.078 0.229,-0.069 0.229,-0.06C0.229,-0.055 0.23,-0.051 0.232,-0.048C0.234,-0.045 0.238,-0.044 0.244,-0.044C0.251,-0.044 0.258,-0.048 0.264,-0.057C0.269,-0.066 0.273,-0.076 0.276,-0.087C0.279,-0.098 0.281,-0.107 0.281,-0.114C0.281,-0.132 0.274,-0.147 0.262,-0.159C0.249,-0.171 0.233,-0.182 0.213,-0.191C0.193,-0.201 0.173,-0.21 0.151,-0.219C0.129,-0.229 0.108,-0.24 0.088,-0.252C0.068,-0.264 0.052,-0.279 0.04,-0.296C0.027,-0.314 0.021,-0.335 0.021,-0.361C0.021,-0.388 0.026,-0.411 0.037,-0.43C0.049,-0.449 0.063,-0.465 0.082,-0.478C0.101,-0.49 0.121,-0.5 0.144,-0.507C0.166,-0.514 0.189,-0.519 0.212,-0.522C0.235,-0.525 0.257,-0.526 0.277,-0.526C0.321,-0.526 0.359,-0.522 0.391,-0.512C0.424,-0.503 0.45,-0.489 0.468,-0.471C0.487,-0.453 0.496,-0.43 0.496,-0.402C0.496,-0.387 0.491,-0.375 0.482,-0.365C0.473,-0.355 0.461,-0.348 0.446,-0.344C0.431,-0.339 0.415,-0.337 0.398,-0.337C0.379,-0.337 0.359,-0.339 0.341,-0.344C0.322,-0.348 0.307,-0.356 0.295,-0.367C0.283,-0.377 0.277,-0.392 0.277,-0.41C0.277,-0.421 0.279,-0.43 0.282,-0.44C0.286,-0.449 0.288,-0.458 0.288,-0.467C0.288,-0.472 0.287,-0.476 0.284,-0.479C0.282,-0.481 0.278,-0.483 0.273,-0.483C0.265,-0.483 0.258,-0.478 0.252,-0.468C0.247,-0.458 0.242,-0.448 0.239,-0.436C0.236,-0.424 0.235,-0.414 0.235,-0.407C0.235,-0.39 0.241,-0.376 0.254,-0.364C0.267,-0.352 0.283,-0.342 0.302,-0.333C0.322,-0.324 0.343,-0.315 0.365,-0.306C0.388,-0.297 0.409,-0.287 0.428,-0.275C0.448,-0.263 0.464,-0.248 0.477,-0.231C0.49,-0.213 0.496,-0.192 0.496,-0.166Z" style="fill:rgb(241,110,144);fill-rule:nonzero;"/>
            </g>
            <g transform="matrix(523.517,0,0,523.517,1785.66,6591)">
                <path d="M0.009,-0.504C0.009,-0.511 0.01,-0.516 0.012,-0.52C0.014,-0.524 0.018,-0.526 0.024,-0.526C0.038,-0.526 0.053,-0.532 0.07,-0.542C0.088,-0.552 0.105,-0.565 0.122,-0.58C0.14,-0.595 0.156,-0.61 0.17,-0.625C0.184,-0.64 0.195,-0.652 0.204,-0.662C0.214,-0.673 0.223,-0.679 0.232,-0.679C0.239,-0.679 0.246,-0.675 0.251,-0.668C0.256,-0.661 0.258,-0.653 0.258,-0.642L0.259,-0.526L0.328,-0.526C0.334,-0.526 0.338,-0.524 0.341,-0.52C0.344,-0.516 0.345,-0.511 0.345,-0.504C0.345,-0.498 0.344,-0.493 0.341,-0.489C0.338,-0.485 0.334,-0.482 0.328,-0.482L0.259,-0.482L0.26,-0.167C0.26,-0.155 0.26,-0.143 0.261,-0.131C0.262,-0.118 0.264,-0.108 0.269,-0.1C0.273,-0.092 0.28,-0.087 0.291,-0.087C0.297,-0.087 0.302,-0.089 0.305,-0.091C0.309,-0.094 0.312,-0.096 0.316,-0.099C0.319,-0.101 0.323,-0.103 0.328,-0.103C0.333,-0.103 0.337,-0.101 0.34,-0.098C0.344,-0.095 0.345,-0.091 0.345,-0.086C0.345,-0.075 0.338,-0.062 0.324,-0.049C0.311,-0.035 0.293,-0.024 0.271,-0.015C0.25,-0.005 0.228,-0 0.205,-0C0.179,-0 0.154,-0.006 0.129,-0.017C0.105,-0.029 0.085,-0.047 0.07,-0.072C0.054,-0.097 0.046,-0.131 0.046,-0.172L0.046,-0.405C0.046,-0.437 0.045,-0.457 0.041,-0.467C0.038,-0.477 0.032,-0.482 0.024,-0.482C0.018,-0.482 0.014,-0.485 0.012,-0.489C0.01,-0.493 0.009,-0.498 0.009,-0.504Z" style="fill:rgb(241,110,144);fill-rule:nonzero;"/>
            </g>
            <g transform="matrix(523.517,0,0,523.517,1960.51,6591)">
                <path d="M0.26,-0.426C0.268,-0.444 0.278,-0.461 0.29,-0.476C0.302,-0.491 0.315,-0.503 0.33,-0.512C0.345,-0.522 0.362,-0.526 0.38,-0.526C0.401,-0.526 0.418,-0.522 0.431,-0.515C0.445,-0.507 0.454,-0.497 0.46,-0.484C0.467,-0.471 0.47,-0.458 0.47,-0.443C0.47,-0.427 0.466,-0.411 0.458,-0.395C0.451,-0.379 0.44,-0.366 0.427,-0.355C0.413,-0.345 0.396,-0.34 0.377,-0.34C0.365,-0.34 0.354,-0.342 0.346,-0.347C0.338,-0.351 0.332,-0.357 0.326,-0.365C0.32,-0.373 0.314,-0.381 0.308,-0.391C0.305,-0.396 0.301,-0.398 0.297,-0.398C0.291,-0.398 0.285,-0.391 0.28,-0.377C0.274,-0.362 0.269,-0.347 0.266,-0.331C0.262,-0.315 0.26,-0.304 0.26,-0.299L0.261,-0.102C0.261,-0.096 0.261,-0.09 0.262,-0.086C0.262,-0.081 0.263,-0.077 0.264,-0.074C0.266,-0.071 0.267,-0.068 0.268,-0.066C0.27,-0.063 0.271,-0.061 0.273,-0.059C0.275,-0.058 0.281,-0.051 0.282,-0.05C0.284,-0.048 0.285,-0.046 0.286,-0.044C0.288,-0.042 0.288,-0.04 0.289,-0.038C0.29,-0.035 0.29,-0.032 0.29,-0.028C0.29,-0.023 0.288,-0.019 0.283,-0.015C0.279,-0.012 0.272,-0.009 0.264,-0.007C0.256,-0.005 0.247,-0.003 0.237,-0.002C0.227,-0.001 0.217,-0.001 0.205,-0.001C0.194,-0.001 0.183,-0 0.171,-0L0.137,-0C0.123,-0 0.109,-0.001 0.094,-0.001C0.08,-0.002 0.068,-0.003 0.056,-0.004C0.045,-0.006 0.036,-0.009 0.029,-0.012C0.022,-0.016 0.018,-0.021 0.018,-0.028C0.018,-0.035 0.019,-0.04 0.021,-0.043C0.023,-0.047 0.025,-0.05 0.028,-0.052C0.031,-0.055 0.034,-0.058 0.037,-0.062C0.04,-0.065 0.042,-0.07 0.044,-0.076C0.046,-0.082 0.047,-0.091 0.047,-0.102C0.047,-0.101 0.047,-0.165 0.047,-0.293C0.047,-0.324 0.046,-0.348 0.043,-0.363C0.04,-0.379 0.037,-0.39 0.033,-0.397C0.03,-0.404 0.026,-0.41 0.024,-0.413C0.021,-0.417 0.02,-0.422 0.02,-0.429C0.02,-0.439 0.027,-0.447 0.041,-0.453C0.055,-0.459 0.072,-0.464 0.093,-0.469C0.114,-0.475 0.135,-0.48 0.156,-0.487C0.177,-0.494 0.194,-0.502 0.208,-0.513C0.22,-0.522 0.229,-0.526 0.237,-0.526C0.245,-0.526 0.25,-0.523 0.254,-0.516C0.257,-0.51 0.259,-0.501 0.259,-0.491L0.26,-0.426Z" style="fill:rgb(241,110,144);fill-rule:nonzero;"/>
            </g>
            <g transform="matrix(523.517,0,0,523.517,2215.87,6591)">
                <path d="M-0.008,-0.494C-0.008,-0.502 -0.006,-0.508 -0.002,-0.513C0.002,-0.517 0.009,-0.521 0.019,-0.522C0.028,-0.524 0.041,-0.526 0.057,-0.526C0.073,-0.526 0.093,-0.526 0.118,-0.526C0.142,-0.526 0.164,-0.526 0.184,-0.526C0.203,-0.526 0.221,-0.524 0.235,-0.522C0.25,-0.52 0.261,-0.517 0.269,-0.512C0.277,-0.508 0.281,-0.502 0.281,-0.493C0.281,-0.486 0.279,-0.48 0.275,-0.476C0.271,-0.473 0.267,-0.469 0.263,-0.465C0.259,-0.461 0.257,-0.456 0.257,-0.449C0.257,-0.443 0.259,-0.435 0.263,-0.425L0.347,-0.25C0.373,-0.315 0.4,-0.38 0.427,-0.445C0.427,-0.446 0.428,-0.448 0.428,-0.449C0.429,-0.451 0.429,-0.452 0.429,-0.454C0.43,-0.455 0.43,-0.457 0.43,-0.458C0.43,-0.464 0.428,-0.468 0.424,-0.471C0.42,-0.475 0.415,-0.477 0.409,-0.479C0.404,-0.482 0.399,-0.484 0.395,-0.487C0.391,-0.489 0.389,-0.493 0.389,-0.499C0.389,-0.505 0.391,-0.511 0.395,-0.515C0.399,-0.519 0.407,-0.522 0.419,-0.524C0.431,-0.525 0.449,-0.526 0.472,-0.526C0.481,-0.526 0.488,-0.526 0.494,-0.526C0.5,-0.526 0.505,-0.525 0.51,-0.524C0.514,-0.524 0.518,-0.523 0.521,-0.522C0.523,-0.521 0.526,-0.52 0.528,-0.518C0.529,-0.517 0.531,-0.515 0.531,-0.513C0.532,-0.511 0.533,-0.509 0.533,-0.507C0.533,-0.505 0.533,-0.502 0.533,-0.499C0.533,-0.492 0.531,-0.488 0.527,-0.485C0.523,-0.483 0.517,-0.481 0.511,-0.479C0.504,-0.477 0.498,-0.474 0.491,-0.469C0.484,-0.463 0.479,-0.455 0.474,-0.444C0.474,-0.444 0.453,-0.394 0.411,-0.295C0.37,-0.196 0.333,-0.106 0.3,-0.025C0.293,-0.005 0.285,0.014 0.277,0.035C0.269,0.055 0.259,0.074 0.249,0.091C0.239,0.108 0.226,0.122 0.212,0.133C0.198,0.144 0.181,0.149 0.161,0.149C0.133,0.149 0.11,0.144 0.092,0.133C0.073,0.123 0.059,0.109 0.05,0.091C0.041,0.074 0.037,0.054 0.037,0.033C0.037,0.019 0.04,0.008 0.048,-0C0.055,-0.009 0.065,-0.015 0.077,-0.019C0.089,-0.023 0.101,-0.025 0.114,-0.025C0.134,-0.025 0.15,-0.022 0.161,-0.016C0.172,-0.009 0.179,-0.001 0.184,0.009C0.188,0.019 0.19,0.03 0.19,0.041C0.19,0.05 0.188,0.057 0.184,0.063C0.181,0.068 0.179,0.074 0.179,0.079C0.179,0.084 0.182,0.087 0.189,0.087C0.2,0.087 0.208,0.08 0.212,0.066C0.217,0.052 0.22,0.035 0.22,0.016C0.22,-0.002 0.218,-0.019 0.215,-0.037C0.211,-0.055 0.206,-0.071 0.2,-0.084L0.034,-0.425C0.028,-0.438 0.022,-0.448 0.017,-0.454C0.012,-0.46 0.007,-0.465 0.004,-0.468C-0,-0.472 -0.003,-0.475 -0.005,-0.478C-0.007,-0.481 -0.008,-0.486 -0.008,-0.494Z" style="fill:rgb(241,110,144);fill-rule:nonzero;"/>
            </g>
        </g>
    </g>
</svg>
