<?xml version="1.0" encoding="UTF-8" standalone="no"?>
<!DOCTYPE svg PUBLIC "-//W3C//DTD SVG 1.1//EN" "http://www.w3.org/Graphics/SVG/1.1/DTD/svg11.dtd">
<svg width="100%" height="100%" viewBox="0 0 5176 1480" version="1.1" xmlns="http://www.w3.org/2000/svg" xmlns:xlink="http://www.w3.org/1999/xlink" xml:space="preserve" xmlns:serif="http://www.serif.com/" style="fill-rule:evenodd;clip-rule:evenodd;stroke-linejoin:round;stroke-miterlimit:2;">
    <g transform="matrix(4.16667,0,0,4.16667,-9666.51,-30888.4)">
        <g transform="matrix(1,0,0,1,1824.44,1177.53)">
            <g transform="matrix(523.517,0,0,523.517,483,6591)">
                <path d="M0.267,-0.286L0.267,-0.102C0.267,-0.096 0.267,-0.09 0.268,-0.086C0.268,-0.081 0.269,-0.077 0.27,-0.074C0.271,-0.071 0.273,-0.068 0.274,-0.066C0.276,-0.063 0.277,-0.061 0.279,-0.059C0.28,-0.058 0.287,-0.051 0.288,-0.05C0.29,-0.048 0.291,-0.046 0.292,-0.044C0.293,-0.042 0.294,-0.04 0.295,-0.038C0.296,-0.035 0.296,-0.032 0.296,-0.028C0.296,-0.023 0.294,-0.019 0.289,-0.015C0.285,-0.012 0.278,-0.009 0.27,-0.007C0.262,-0.005 0.253,-0.003 0.243,-0.002C0.233,-0.001 0.222,-0.001 0.211,-0.001C0.2,-0.001 0.189,-0 0.177,-0L0.143,-0C0.129,-0 0.115,-0.001 0.1,-0.001C0.086,-0.002 0.073,-0.003 0.062,-0.004C0.051,-0.006 0.041,-0.009 0.034,-0.012C0.027,-0.016 0.024,-0.021 0.024,-0.028C0.024,-0.035 0.025,-0.04 0.027,-0.043C0.029,-0.047 0.031,-0.05 0.034,-0.052C0.037,-0.055 0.04,-0.058 0.043,-0.062C0.045,-0.065 0.048,-0.07 0.05,-0.076C0.052,-0.082 0.053,-0.091 0.053,-0.102L0.053,-0.578C0.053,-0.588 0.052,-0.597 0.05,-0.603C0.048,-0.609 0.046,-0.614 0.043,-0.617C0.04,-0.621 0.038,-0.624 0.035,-0.626C0.032,-0.629 0.03,-0.632 0.028,-0.636C0.026,-0.639 0.025,-0.644 0.025,-0.65C0.025,-0.659 0.031,-0.666 0.042,-0.67C0.053,-0.674 0.066,-0.676 0.082,-0.677C0.097,-0.678 0.11,-0.679 0.122,-0.679L0.344,-0.679C0.386,-0.679 0.424,-0.673 0.456,-0.662C0.487,-0.651 0.514,-0.636 0.535,-0.617C0.557,-0.599 0.573,-0.578 0.583,-0.554C0.594,-0.531 0.599,-0.507 0.599,-0.482C0.599,-0.45 0.59,-0.419 0.572,-0.39C0.554,-0.36 0.526,-0.336 0.49,-0.317C0.527,-0.245 0.564,-0.173 0.601,-0.102C0.608,-0.089 0.614,-0.079 0.619,-0.073C0.625,-0.067 0.63,-0.062 0.634,-0.059C0.639,-0.055 0.642,-0.052 0.644,-0.049C0.646,-0.046 0.647,-0.04 0.647,-0.033C0.647,-0.022 0.641,-0.015 0.629,-0.01C0.616,-0.006 0.6,-0.003 0.581,-0.002C0.562,-0.001 0.542,-0 0.522,-0C0.516,-0 0.506,-0.001 0.492,-0.001C0.477,-0.001 0.462,-0.003 0.446,-0.005C0.43,-0.007 0.417,-0.01 0.405,-0.015C0.393,-0.019 0.387,-0.026 0.387,-0.034C0.387,-0.041 0.389,-0.046 0.393,-0.05C0.397,-0.054 0.4,-0.058 0.404,-0.062C0.407,-0.065 0.409,-0.07 0.409,-0.076C0.409,-0.083 0.406,-0.091 0.401,-0.102L0.302,-0.286L0.267,-0.286ZM0.291,-0.635C0.283,-0.635 0.278,-0.632 0.274,-0.626C0.271,-0.62 0.269,-0.613 0.268,-0.605C0.267,-0.597 0.267,-0.589 0.267,-0.583L0.267,-0.331L0.292,-0.331C0.313,-0.331 0.331,-0.338 0.344,-0.353C0.358,-0.368 0.369,-0.387 0.376,-0.41C0.383,-0.433 0.386,-0.458 0.386,-0.483C0.386,-0.508 0.383,-0.533 0.376,-0.556C0.369,-0.579 0.358,-0.598 0.344,-0.613C0.33,-0.627 0.313,-0.635 0.291,-0.635Z" style="fill:rgb(244,156,29);fill-rule:nonzero;"/>
            </g>
            <g transform="matrix(523.517,0,0,523.517,811.732,6591)">
                <path d="M0.27,-0C0.222,-0 0.178,-0.009 0.139,-0.026C0.1,-0.044 0.07,-0.066 0.048,-0.092C0.025,-0.119 0.014,-0.146 0.014,-0.173C0.014,-0.188 0.019,-0.201 0.03,-0.21C0.04,-0.22 0.054,-0.227 0.071,-0.231C0.088,-0.236 0.106,-0.238 0.125,-0.238C0.141,-0.238 0.156,-0.237 0.17,-0.235C0.183,-0.233 0.195,-0.23 0.205,-0.225C0.215,-0.22 0.223,-0.213 0.229,-0.205C0.234,-0.196 0.238,-0.185 0.24,-0.171C0.24,-0.164 0.242,-0.153 0.245,-0.139C0.248,-0.125 0.253,-0.111 0.258,-0.097C0.264,-0.083 0.271,-0.071 0.279,-0.061C0.287,-0.05 0.296,-0.045 0.307,-0.045C0.32,-0.045 0.33,-0.049 0.338,-0.058C0.345,-0.066 0.351,-0.075 0.354,-0.086C0.357,-0.097 0.359,-0.107 0.359,-0.115C0.359,-0.135 0.351,-0.154 0.334,-0.172C0.317,-0.189 0.296,-0.207 0.27,-0.224C0.243,-0.241 0.216,-0.259 0.187,-0.278C0.157,-0.296 0.13,-0.316 0.104,-0.338C0.077,-0.359 0.056,-0.383 0.039,-0.408C0.023,-0.434 0.014,-0.463 0.014,-0.495C0.014,-0.522 0.021,-0.546 0.033,-0.567C0.046,-0.587 0.063,-0.604 0.085,-0.619C0.106,-0.633 0.13,-0.645 0.156,-0.653C0.181,-0.662 0.208,-0.669 0.234,-0.673C0.261,-0.677 0.285,-0.679 0.308,-0.679C0.357,-0.679 0.401,-0.67 0.439,-0.653C0.478,-0.635 0.508,-0.613 0.531,-0.587C0.553,-0.561 0.564,-0.534 0.564,-0.506C0.564,-0.491 0.559,-0.478 0.548,-0.469C0.538,-0.459 0.524,-0.452 0.507,-0.447C0.49,-0.443 0.472,-0.44 0.453,-0.44C0.431,-0.44 0.411,-0.442 0.395,-0.446C0.379,-0.45 0.366,-0.457 0.356,-0.466C0.347,-0.476 0.341,-0.49 0.339,-0.508C0.338,-0.516 0.336,-0.526 0.333,-0.54C0.33,-0.554 0.325,-0.568 0.32,-0.582C0.314,-0.596 0.307,-0.609 0.299,-0.619C0.291,-0.629 0.282,-0.634 0.271,-0.634C0.259,-0.634 0.249,-0.63 0.241,-0.622C0.233,-0.613 0.228,-0.604 0.224,-0.593C0.221,-0.582 0.219,-0.572 0.219,-0.564C0.219,-0.542 0.228,-0.522 0.244,-0.503C0.261,-0.484 0.283,-0.466 0.309,-0.449C0.335,-0.431 0.362,-0.413 0.392,-0.395C0.421,-0.376 0.449,-0.357 0.475,-0.336C0.501,-0.316 0.522,-0.293 0.539,-0.268C0.556,-0.243 0.564,-0.215 0.564,-0.184C0.564,-0.157 0.558,-0.133 0.545,-0.113C0.532,-0.092 0.515,-0.075 0.493,-0.061C0.472,-0.046 0.448,-0.035 0.423,-0.026C0.397,-0.017 0.371,-0.011 0.344,-0.007C0.317,-0.003 0.293,-0 0.27,-0Z" style="fill:rgb(244,156,29);fill-rule:nonzero;"/>
            </g>
            <g transform="matrix(523.517,0,0,523.517,1110.81,6591)">
                <path d="M0.283,-0C0.276,-0 0.27,-0.002 0.263,-0.006C0.257,-0.009 0.252,-0.016 0.248,-0.025C0.17,-0.209 0.091,-0.393 0.012,-0.578C0.004,-0.595 -0.003,-0.606 -0.009,-0.613C-0.015,-0.619 -0.02,-0.624 -0.024,-0.627C-0.028,-0.63 -0.03,-0.636 -0.03,-0.646C-0.03,-0.657 -0.026,-0.664 -0.019,-0.669C-0.011,-0.674 0.002,-0.676 0.02,-0.677C0.038,-0.678 0.063,-0.679 0.096,-0.679C0.12,-0.679 0.142,-0.679 0.162,-0.678C0.181,-0.678 0.199,-0.677 0.213,-0.675C0.228,-0.672 0.239,-0.669 0.247,-0.665C0.255,-0.66 0.259,-0.654 0.259,-0.646C0.259,-0.638 0.257,-0.632 0.253,-0.629C0.25,-0.625 0.246,-0.621 0.242,-0.617C0.238,-0.614 0.236,-0.608 0.236,-0.601C0.236,-0.598 0.236,-0.594 0.237,-0.591C0.238,-0.587 0.239,-0.583 0.241,-0.578L0.371,-0.262C0.419,-0.374 0.466,-0.485 0.513,-0.597C0.515,-0.602 0.516,-0.606 0.516,-0.61C0.516,-0.616 0.514,-0.62 0.51,-0.624C0.506,-0.627 0.501,-0.629 0.496,-0.632C0.49,-0.634 0.486,-0.636 0.481,-0.639C0.477,-0.642 0.475,-0.646 0.475,-0.651C0.475,-0.656 0.476,-0.66 0.478,-0.664C0.48,-0.667 0.484,-0.67 0.49,-0.672C0.496,-0.675 0.504,-0.676 0.515,-0.677C0.525,-0.678 0.539,-0.679 0.557,-0.679C0.576,-0.679 0.59,-0.678 0.599,-0.676C0.608,-0.674 0.613,-0.671 0.615,-0.667C0.618,-0.663 0.619,-0.658 0.619,-0.651C0.619,-0.646 0.617,-0.642 0.615,-0.64C0.612,-0.637 0.608,-0.635 0.604,-0.634C0.599,-0.632 0.594,-0.63 0.589,-0.628C0.583,-0.626 0.578,-0.622 0.573,-0.617C0.568,-0.612 0.563,-0.605 0.559,-0.596L0.319,-0.025C0.315,-0.016 0.31,-0.01 0.303,-0.006C0.297,-0.002 0.29,-0 0.283,-0Z" style="fill:rgb(244,156,29);fill-rule:nonzero;"/>
            </g>
            <g transform="matrix(523.517,0,0,523.517,1430.85,6591)">
                <path d="M0.267,-0.286L0.267,-0.102C0.267,-0.096 0.267,-0.09 0.268,-0.086C0.268,-0.081 0.269,-0.077 0.27,-0.074C0.271,-0.071 0.273,-0.068 0.274,-0.066C0.276,-0.063 0.277,-0.061 0.279,-0.059C0.28,-0.058 0.287,-0.051 0.288,-0.05C0.29,-0.048 0.291,-0.046 0.292,-0.044C0.293,-0.042 0.294,-0.04 0.295,-0.038C0.296,-0.035 0.296,-0.032 0.296,-0.028C0.296,-0.023 0.294,-0.019 0.289,-0.015C0.285,-0.012 0.278,-0.009 0.27,-0.007C0.262,-0.005 0.253,-0.003 0.243,-0.002C0.233,-0.001 0.222,-0.001 0.211,-0.001C0.2,-0.001 0.189,-0 0.177,-0L0.143,-0C0.129,-0 0.115,-0.001 0.1,-0.001C0.086,-0.002 0.073,-0.003 0.062,-0.004C0.051,-0.006 0.041,-0.009 0.034,-0.012C0.027,-0.016 0.024,-0.021 0.024,-0.028C0.024,-0.035 0.025,-0.04 0.027,-0.043C0.029,-0.047 0.031,-0.05 0.034,-0.052C0.037,-0.055 0.04,-0.058 0.043,-0.062C0.045,-0.065 0.048,-0.07 0.05,-0.076C0.052,-0.082 0.053,-0.091 0.053,-0.102L0.053,-0.578C0.053,-0.588 0.052,-0.597 0.05,-0.603C0.048,-0.609 0.046,-0.614 0.043,-0.617C0.04,-0.621 0.038,-0.624 0.035,-0.626C0.032,-0.629 0.03,-0.632 0.028,-0.636C0.026,-0.639 0.025,-0.644 0.025,-0.65C0.025,-0.66 0.031,-0.667 0.043,-0.67C0.055,-0.674 0.069,-0.677 0.084,-0.677C0.099,-0.678 0.111,-0.679 0.12,-0.679L0.331,-0.679C0.373,-0.679 0.41,-0.673 0.442,-0.662C0.474,-0.651 0.501,-0.636 0.522,-0.617C0.544,-0.599 0.559,-0.578 0.57,-0.554C0.581,-0.531 0.586,-0.507 0.586,-0.482C0.586,-0.458 0.581,-0.434 0.57,-0.411C0.559,-0.387 0.544,-0.366 0.522,-0.347C0.501,-0.329 0.474,-0.314 0.442,-0.303C0.41,-0.292 0.373,-0.286 0.331,-0.286L0.267,-0.286ZM0.287,-0.634C0.273,-0.634 0.266,-0.615 0.267,-0.578L0.267,-0.331L0.28,-0.331C0.301,-0.331 0.318,-0.338 0.332,-0.354C0.346,-0.369 0.356,-0.389 0.363,-0.413C0.37,-0.437 0.374,-0.462 0.374,-0.487C0.374,-0.512 0.37,-0.536 0.364,-0.558C0.358,-0.581 0.348,-0.599 0.335,-0.613C0.322,-0.627 0.306,-0.634 0.287,-0.634Z" style="fill:rgb(244,156,29);fill-rule:nonzero;"/>
            </g>
        </g>
    </g>
</svg>
