<?xml version="1.0" encoding="UTF-8" standalone="no"?>
<!DOCTYPE svg PUBLIC "-//W3C//DTD SVG 1.1//EN" "http://www.w3.org/Graphics/SVG/1.1/DTD/svg11.dtd">
<svg width="100%" height="100%" viewBox="0 0 2800 2992" version="1.1" xmlns="http://www.w3.org/2000/svg" xmlns:xlink="http://www.w3.org/1999/xlink" xml:space="preserve" xmlns:serif="http://www.serif.com/" style="fill-rule:evenodd;clip-rule:evenodd;stroke-linejoin:round;stroke-miterlimit:2;">
    <g transform="matrix(4.16667,0,0,4.16667,-2087.5,-3531.25)">
        <g transform="matrix(-2.2041e-16,1.14258,-0.8828,-1.56371e-16,3026.24,6823.49)">
            <g transform="matrix(-6.61244e-17,-0.483161,0.373308,-9.32044e-17,-4916.06,2480)">
                <g transform="matrix(1,0,0,1,-787.5,-841.667)">
                    <clipPath id="_clip1">
                        <rect x="0" y="0" width="1575" height="1683.33"/>
                    </clipPath>
                    <g clip-path="url(#_clip1)">
                        <g id="sparkle1" transform="matrix(3.81469,0,0,3.81469,-472.977,-371.83)">
                            <g>
                                <g id="sparkle11" serif:id="sparkle1">
                                    <g id="path1530" transform="matrix(1,0,0,1,134.012,-265.035)">
                                        <path d="M75.43,574.75C66.109,544.684 83.133,517.338 20.88,504.022C2.281,500.043 -3.575,501.9 0.191,496.71C1.365,495.091 43.094,491.885 60.204,474.812C78.423,456.633 73.033,382.542 81.783,437.55C89.947,488.874 101.906,485.609 152.7,495.847C165.364,498.4 149.696,499.517 121.535,506.247C118.614,506.945 99.127,511.603 90.45,527.291C84.652,537.772 79.009,586.295 75.43,574.75Z" style="fill:rgb(244,156,29);fill-rule:nonzero;"/>
                                    </g>
                                    <g id="path15301" serif:id="path1530" transform="matrix(0.71045,0,0,0.71045,382.673,-72.1626)">
                                        <path d="M75.43,574.75C66.109,544.684 83.133,517.338 20.88,504.022C2.281,500.043 -3.575,501.9 0.191,496.71C1.365,495.091 43.094,491.885 60.204,474.812C78.423,456.633 73.033,382.542 81.783,437.55C89.947,488.874 101.906,485.609 152.7,495.847C165.364,498.4 149.696,499.517 121.535,506.247C118.614,506.945 99.127,511.603 90.45,527.291C84.652,537.772 79.009,586.295 75.43,574.75Z" style="fill:rgb(244,156,29);fill-rule:nonzero;"/>
                                    </g>
                                    <g id="path15302" serif:id="path1530" transform="matrix(0.301233,0,0,0.322322,420.553,211.866)">
                                        <path d="M340.88,450.444C331.861,447.942 324.429,441.684 320.333,433.144C319.372,431.14 318.202,428.719 317.733,427.764C305.49,402.837 341.096,372.487 367.129,385.659C403.629,404.128 380.419,461.413 340.88,450.444Z" style="fill:rgb(244,156,29);fill-rule:nonzero;"/>
                                    </g>
                                    <g id="path15303" serif:id="path1530" transform="matrix(0.301233,0,0,0.322322,135.051,-25.8063)">
                                        <path d="M340.88,450.444C331.861,447.942 324.429,441.684 320.333,433.144C319.372,431.14 318.202,428.719 317.733,427.764C305.49,402.837 341.096,372.487 367.129,385.659C403.629,404.128 380.419,461.413 340.88,450.444Z" style="fill:rgb(244,156,29);fill-rule:nonzero;"/>
                                    </g>
                                    <g id="path15304" serif:id="path1530" transform="matrix(0.260444,0,0,0.278677,277.892,361.736)">
                                        <path d="M340.88,450.444C331.861,447.942 324.429,441.684 320.333,433.144C319.372,431.14 318.202,428.719 317.733,427.764C305.49,402.837 341.096,372.487 367.129,385.659C403.629,404.128 380.419,461.413 340.88,450.444Z" style="fill:rgb(244,156,29);fill-rule:nonzero;"/>
                                    </g>
                                    <g id="path15305" serif:id="path1530" transform="matrix(0.260444,0,0,0.278677,41.8842,239.736)">
                                        <path d="M340.88,450.444C331.861,447.942 324.429,441.684 320.333,433.144C319.372,431.14 318.202,428.719 317.733,427.764C305.49,402.837 341.096,372.487 367.129,385.659C403.629,404.128 380.419,461.413 340.88,450.444Z" style="fill:rgb(244,156,29);fill-rule:nonzero;"/>
                                    </g>
                                    <g id="path15306" serif:id="path1530" transform="matrix(1,0,0,1,-438.617,281.425)">
                                        <path d="M743.578,254.219C740.587,250.914 743.01,194.639 728.371,170.115C698.083,119.38 608.926,143.378 619.642,125.621C623.307,119.549 674.005,122.61 700.319,110.381C759.682,82.793 730.946,-11.386 749.895,0.582C755.158,3.905 750.232,66.529 772.034,93.773C803.951,133.658 896.166,113.831 873.147,131.553C866.142,136.946 788.794,126.729 765.263,171.509C749.619,201.281 757.277,269.356 743.578,254.219Z" style="fill:rgb(244,156,29);fill-rule:nonzero;"/>
                                    </g>
                                </g>
                            </g>
                        </g>
                    </g>
                </g>
            </g>
        </g>
    </g>
</svg>
