<?xml version="1.0" encoding="UTF-8" standalone="no"?>
<!DOCTYPE svg PUBLIC "-//W3C//DTD SVG 1.1//EN" "http://www.w3.org/Graphics/SVG/1.1/DTD/svg11.dtd">
<svg width="100%" height="100%" viewBox="0 0 1942 1419" version="1.1" xmlns="http://www.w3.org/2000/svg" xmlns:xlink="http://www.w3.org/1999/xlink" xml:space="preserve" xmlns:serif="http://www.serif.com/" style="fill-rule:evenodd;clip-rule:evenodd;stroke-linejoin:round;stroke-miterlimit:2;">
    <g transform="matrix(4.16667,0,0,4.16667,-8231.02,-15500.4)">
        <g transform="matrix(-2.2041e-16,1.14258,-0.8828,-1.56371e-16,3026.24,6823.49)">
            <g transform="matrix(-6.96088e-17,-0.508622,-0.392979,9.81158e-17,-2567.13,926.449)">
                <g transform="matrix(1,0,0,1,-518.75,-379.167)">
                    <clipPath id="_clip1">
                        <rect x="0" y="0" width="1037.5" height="758.333"/>
                    </clipPath>
                    <g clip-path="url(#_clip1)">
                        <g id="sparkle5" transform="matrix(9.36643,0,0,9.36643,-2741.68,-4994.2)">
                            <g>
                                <g id="sparkle51" serif:id="sparkle5">
                                    <g id="path1530" transform="matrix(0.407273,0,0,-0.407273,324.167,784.17)">
                                        <path d="M75.43,574.75C66.109,544.684 83.133,517.338 20.88,504.022C2.281,500.043 -3.575,501.9 0.191,496.71C1.365,495.091 43.094,491.885 60.204,474.812C78.423,456.633 73.033,382.542 81.783,437.55C89.947,488.874 101.906,485.609 152.7,495.847C165.364,498.4 149.696,499.517 121.535,506.247C118.614,506.945 99.127,511.603 90.45,527.291C84.652,537.772 79.009,586.295 75.43,574.75Z" style="fill:rgb(241,110,144);fill-rule:nonzero;"/>
                                    </g>
                                    <g id="path15301" serif:id="path1530" transform="matrix(0.122684,0,0,-0.131273,291.706,592.515)">
                                        <path d="M340.88,450.444C331.861,447.942 324.429,441.684 320.333,433.144C319.372,431.14 318.202,428.719 317.733,427.764C305.49,402.837 341.096,372.487 367.129,385.659C403.629,404.128 380.419,461.413 340.88,450.444Z" style="fill:rgb(241,110,144);fill-rule:nonzero;"/>
                                    </g>
                                    <g id="path15302" serif:id="path1530" transform="matrix(0.106072,0,0,-0.113498,362.275,613.717)">
                                        <path d="M340.88,450.444C331.861,447.942 324.429,441.684 320.333,433.144C319.372,431.14 318.202,428.719 317.733,427.764C305.49,402.837 341.096,372.487 367.129,385.659C403.629,404.128 380.419,461.413 340.88,450.444Z" style="fill:rgb(241,110,144);fill-rule:nonzero;"/>
                                    </g>
                                    <g id="path15303" serif:id="path1530" transform="matrix(0.106072,0,0,-0.113498,259.275,613.717)">
                                        <path d="M340.88,450.444C331.861,447.942 324.429,441.684 320.333,433.144C319.372,431.14 318.202,428.719 317.733,427.764C305.49,402.837 341.096,372.487 367.129,385.659C403.629,404.128 380.419,461.413 340.88,450.444Z" style="fill:rgb(241,110,144);fill-rule:nonzero;"/>
                                    </g>
                                </g>
                            </g>
                        </g>
                    </g>
                </g>
            </g>
        </g>
    </g>
</svg>
