<?xml version="1.0" encoding="UTF-8" standalone="no"?>
<!DOCTYPE svg PUBLIC "-//W3C//DTD SVG 1.1//EN" "http://www.w3.org/Graphics/SVG/1.1/DTD/svg11.dtd">
<svg width="100%" height="100%" viewBox="0 0 11072 2539" version="1.1" xmlns="http://www.w3.org/2000/svg" xmlns:xlink="http://www.w3.org/1999/xlink" xml:space="preserve" xmlns:serif="http://www.serif.com/" style="fill-rule:evenodd;clip-rule:evenodd;stroke-linejoin:round;stroke-miterlimit:2;">
    <g transform="matrix(4.16667,0,0,4.16667,-1990.13,-25467.6)">
        <g transform="matrix(523.517,0,0,523.517,483,6591)">
            <path d="M0.188,-0.578C0.188,-0.617 0.181,-0.636 0.167,-0.634C0.157,-0.634 0.147,-0.63 0.138,-0.62C0.129,-0.611 0.119,-0.599 0.11,-0.585C0.101,-0.572 0.092,-0.558 0.083,-0.544C0.073,-0.531 0.063,-0.519 0.054,-0.51C0.044,-0.5 0.034,-0.496 0.023,-0.496C0.019,-0.496 0.015,-0.496 0.011,-0.498C0.007,-0.499 0.004,-0.501 0,-0.505C-0.003,-0.509 -0.005,-0.514 -0.007,-0.521C-0.009,-0.527 -0.01,-0.535 -0.01,-0.546C-0.01,-0.558 -0.009,-0.572 -0.006,-0.589C-0.003,-0.614 0.001,-0.633 0.006,-0.646C0.01,-0.659 0.016,-0.668 0.022,-0.672C0.029,-0.677 0.038,-0.679 0.05,-0.679L0.54,-0.679C0.551,-0.679 0.561,-0.677 0.567,-0.672C0.574,-0.668 0.58,-0.659 0.584,-0.646C0.588,-0.633 0.592,-0.614 0.596,-0.589C0.598,-0.572 0.6,-0.558 0.6,-0.546C0.6,-0.532 0.598,-0.522 0.594,-0.514C0.591,-0.507 0.587,-0.502 0.582,-0.5C0.577,-0.497 0.572,-0.496 0.566,-0.496C0.556,-0.496 0.545,-0.5 0.535,-0.51C0.525,-0.519 0.516,-0.531 0.506,-0.544C0.497,-0.558 0.488,-0.572 0.478,-0.585C0.469,-0.599 0.46,-0.611 0.45,-0.62C0.441,-0.63 0.431,-0.634 0.421,-0.634C0.408,-0.634 0.401,-0.615 0.401,-0.578L0.401,-0.102C0.401,-0.096 0.402,-0.09 0.402,-0.086C0.403,-0.081 0.404,-0.077 0.405,-0.074C0.406,-0.071 0.407,-0.068 0.409,-0.066C0.41,-0.063 0.412,-0.061 0.414,-0.059C0.415,-0.058 0.422,-0.051 0.423,-0.05C0.425,-0.048 0.426,-0.046 0.427,-0.044C0.428,-0.042 0.429,-0.04 0.43,-0.038C0.43,-0.035 0.431,-0.032 0.431,-0.028C0.431,-0.02 0.425,-0.013 0.413,-0.009C0.401,-0.005 0.386,-0.003 0.368,-0.002C0.349,-0.001 0.331,-0 0.312,-0L0.277,-0C0.259,-0 0.24,-0.001 0.222,-0.002C0.204,-0.003 0.189,-0.005 0.177,-0.009C0.165,-0.013 0.159,-0.02 0.159,-0.028C0.159,-0.034 0.159,-0.038 0.161,-0.041C0.162,-0.044 0.164,-0.047 0.166,-0.05C0.168,-0.052 0.171,-0.054 0.173,-0.057C0.176,-0.059 0.178,-0.062 0.18,-0.066C0.183,-0.069 0.184,-0.074 0.186,-0.079C0.187,-0.085 0.188,-0.092 0.188,-0.102L0.188,-0.578Z" style="fill:rgb(239,65,114);fill-rule:nonzero;"/>
        </g>
        <g transform="matrix(523.517,0,0,523.517,798.184,6591)">
            <path d="M0.26,-0.652L0.261,-0.434C0.278,-0.467 0.298,-0.49 0.321,-0.505C0.345,-0.519 0.369,-0.526 0.394,-0.526C0.43,-0.526 0.46,-0.52 0.485,-0.507C0.509,-0.495 0.528,-0.478 0.542,-0.458C0.556,-0.437 0.566,-0.415 0.573,-0.39C0.579,-0.366 0.582,-0.342 0.582,-0.318L0.582,-0.102C0.582,-0.094 0.582,-0.087 0.583,-0.082C0.584,-0.077 0.585,-0.073 0.587,-0.069C0.589,-0.066 0.591,-0.063 0.593,-0.06C0.595,-0.058 0.603,-0.05 0.605,-0.048C0.607,-0.045 0.608,-0.043 0.609,-0.04C0.61,-0.037 0.61,-0.033 0.61,-0.028C0.61,-0.024 0.609,-0.021 0.607,-0.018C0.604,-0.016 0.601,-0.013 0.597,-0.011C0.592,-0.009 0.587,-0.007 0.582,-0.006C0.576,-0.005 0.569,-0.004 0.562,-0.003C0.555,-0.002 0.548,-0.002 0.54,-0.001C0.532,-0.001 0.524,-0.001 0.516,-0.001C0.508,-0.001 0.5,-0 0.492,-0L0.458,-0C0.444,-0 0.429,-0.001 0.415,-0.001C0.401,-0.002 0.388,-0.003 0.377,-0.004C0.366,-0.006 0.356,-0.009 0.349,-0.012C0.342,-0.016 0.339,-0.021 0.339,-0.028C0.339,-0.035 0.34,-0.04 0.342,-0.043C0.344,-0.047 0.346,-0.05 0.349,-0.052C0.352,-0.055 0.355,-0.058 0.358,-0.062C0.36,-0.065 0.363,-0.07 0.365,-0.076C0.367,-0.082 0.368,-0.091 0.368,-0.102L0.369,-0.328C0.369,-0.336 0.369,-0.346 0.368,-0.358C0.367,-0.369 0.365,-0.38 0.362,-0.391C0.358,-0.402 0.353,-0.411 0.346,-0.419C0.339,-0.426 0.329,-0.43 0.317,-0.43C0.309,-0.43 0.302,-0.425 0.296,-0.417C0.289,-0.408 0.283,-0.397 0.278,-0.383C0.273,-0.37 0.269,-0.355 0.266,-0.34C0.264,-0.325 0.262,-0.311 0.262,-0.299C0.262,-0.298 0.262,-0.232 0.262,-0.101C0.262,-0.09 0.263,-0.082 0.265,-0.076C0.267,-0.07 0.269,-0.065 0.272,-0.062C0.275,-0.058 0.278,-0.055 0.281,-0.052C0.283,-0.05 0.286,-0.047 0.288,-0.043C0.29,-0.04 0.291,-0.035 0.291,-0.028C0.291,-0.024 0.289,-0.021 0.287,-0.018C0.284,-0.016 0.281,-0.013 0.277,-0.011C0.273,-0.009 0.268,-0.007 0.262,-0.006C0.256,-0.005 0.249,-0.004 0.242,-0.003C0.235,-0.002 0.228,-0.002 0.22,-0.001C0.212,-0.001 0.205,-0.001 0.197,-0.001C0.189,-0.001 0.181,-0 0.172,-0L0.138,-0C0.124,-0 0.11,-0.001 0.095,-0.001C0.081,-0.002 0.069,-0.003 0.057,-0.004C0.046,-0.006 0.037,-0.009 0.03,-0.012C0.023,-0.016 0.019,-0.021 0.019,-0.028C0.019,-0.035 0.02,-0.04 0.022,-0.043C0.024,-0.047 0.026,-0.05 0.029,-0.052C0.032,-0.055 0.035,-0.058 0.038,-0.062C0.041,-0.065 0.043,-0.07 0.045,-0.076C0.047,-0.082 0.048,-0.091 0.048,-0.102C0.048,-0.102 0.048,-0.203 0.048,-0.405C0.048,-0.436 0.047,-0.459 0.044,-0.475C0.041,-0.491 0.038,-0.502 0.034,-0.509C0.031,-0.516 0.027,-0.521 0.025,-0.525C0.022,-0.528 0.021,-0.534 0.021,-0.541C0.021,-0.548 0.025,-0.554 0.033,-0.56C0.042,-0.565 0.053,-0.57 0.067,-0.575C0.081,-0.581 0.097,-0.587 0.113,-0.595C0.13,-0.602 0.146,-0.612 0.163,-0.623C0.177,-0.633 0.191,-0.646 0.206,-0.661C0.221,-0.677 0.234,-0.691 0.246,-0.704C0.271,-0.729 0.296,-0.755 0.321,-0.78C0.347,-0.804 0.373,-0.827 0.399,-0.847C0.425,-0.868 0.45,-0.884 0.475,-0.896C0.5,-0.908 0.524,-0.915 0.547,-0.915C0.579,-0.915 0.605,-0.91 0.626,-0.899C0.646,-0.889 0.661,-0.876 0.671,-0.86C0.68,-0.844 0.685,-0.827 0.685,-0.81C0.685,-0.792 0.681,-0.775 0.671,-0.759C0.662,-0.742 0.649,-0.729 0.632,-0.718C0.615,-0.707 0.595,-0.702 0.571,-0.702C0.556,-0.702 0.543,-0.705 0.533,-0.709C0.524,-0.714 0.515,-0.72 0.507,-0.726C0.499,-0.733 0.491,-0.738 0.481,-0.743C0.472,-0.748 0.46,-0.75 0.446,-0.75C0.423,-0.75 0.397,-0.743 0.366,-0.728C0.336,-0.713 0.301,-0.688 0.26,-0.652Z" style="fill:rgb(239,65,114);fill-rule:nonzero;"/>
        </g>
        <g transform="matrix(523.517,0,0,523.517,1124.62,6591)">
            <path d="M0.462,-0.157C0.466,-0.157 0.47,-0.155 0.473,-0.152C0.476,-0.149 0.478,-0.144 0.478,-0.139C0.478,-0.119 0.466,-0.098 0.443,-0.077C0.42,-0.056 0.39,-0.038 0.354,-0.023C0.318,-0.008 0.281,-0 0.243,-0C0.203,-0 0.168,-0.008 0.138,-0.023C0.108,-0.038 0.082,-0.057 0.061,-0.083C0.041,-0.108 0.025,-0.136 0.014,-0.167C0.004,-0.199 -0.001,-0.231 -0.001,-0.264C-0.001,-0.297 0.004,-0.329 0.015,-0.36C0.026,-0.391 0.042,-0.419 0.064,-0.444C0.086,-0.469 0.114,-0.489 0.148,-0.504C0.181,-0.519 0.221,-0.526 0.267,-0.526C0.29,-0.526 0.314,-0.524 0.34,-0.518C0.365,-0.512 0.389,-0.503 0.411,-0.491C0.433,-0.479 0.451,-0.463 0.465,-0.443C0.479,-0.424 0.486,-0.4 0.486,-0.373C0.486,-0.347 0.481,-0.325 0.471,-0.307C0.46,-0.29 0.446,-0.275 0.429,-0.265C0.412,-0.254 0.392,-0.247 0.37,-0.242C0.349,-0.237 0.327,-0.235 0.304,-0.235C0.274,-0.235 0.244,-0.238 0.217,-0.245C0.222,-0.221 0.229,-0.2 0.24,-0.18C0.251,-0.161 0.265,-0.146 0.283,-0.134C0.301,-0.122 0.323,-0.117 0.349,-0.117C0.355,-0.117 0.361,-0.117 0.367,-0.117C0.372,-0.118 0.377,-0.119 0.382,-0.12C0.387,-0.121 0.392,-0.122 0.396,-0.123C0.401,-0.124 0.405,-0.126 0.408,-0.127C0.412,-0.129 0.416,-0.13 0.419,-0.132C0.422,-0.133 0.425,-0.135 0.428,-0.137C0.431,-0.138 0.433,-0.14 0.436,-0.142C0.438,-0.143 0.452,-0.153 0.453,-0.154C0.455,-0.155 0.456,-0.156 0.458,-0.156C0.459,-0.156 0.461,-0.157 0.462,-0.157ZM0.267,-0.483C0.257,-0.483 0.247,-0.475 0.238,-0.46C0.229,-0.444 0.222,-0.424 0.217,-0.399C0.212,-0.374 0.209,-0.347 0.209,-0.319C0.209,-0.31 0.209,-0.301 0.21,-0.292C0.218,-0.289 0.225,-0.288 0.232,-0.288C0.249,-0.288 0.263,-0.294 0.273,-0.304C0.283,-0.315 0.291,-0.329 0.296,-0.346C0.3,-0.363 0.303,-0.38 0.303,-0.397C0.303,-0.419 0.299,-0.439 0.293,-0.457C0.286,-0.474 0.278,-0.483 0.267,-0.483Z" style="fill:rgb(239,65,114);fill-rule:nonzero;"/>
        </g>
        <g transform="matrix(523.517,0,0,523.517,1514.95,6591)">
            <path d="M0.688,-0C0.681,-0 0.674,-0.002 0.668,-0.006C0.661,-0.009 0.656,-0.016 0.652,-0.025L0.423,-0.563C0.415,-0.581 0.406,-0.598 0.393,-0.613C0.381,-0.628 0.366,-0.64 0.348,-0.649C0.329,-0.658 0.307,-0.663 0.281,-0.663C0.262,-0.663 0.244,-0.659 0.228,-0.651C0.211,-0.643 0.198,-0.631 0.188,-0.614C0.177,-0.598 0.172,-0.576 0.172,-0.55C0.172,-0.536 0.175,-0.523 0.181,-0.513C0.187,-0.503 0.194,-0.498 0.204,-0.498C0.212,-0.498 0.217,-0.503 0.218,-0.515C0.218,-0.52 0.217,-0.524 0.215,-0.529C0.213,-0.533 0.211,-0.538 0.209,-0.543C0.208,-0.548 0.207,-0.554 0.207,-0.562C0.207,-0.573 0.209,-0.583 0.215,-0.593C0.221,-0.603 0.23,-0.612 0.242,-0.618C0.255,-0.625 0.271,-0.628 0.292,-0.628C0.318,-0.628 0.338,-0.621 0.351,-0.608C0.364,-0.594 0.371,-0.578 0.371,-0.56C0.371,-0.544 0.365,-0.528 0.354,-0.511C0.344,-0.495 0.328,-0.481 0.306,-0.47C0.284,-0.46 0.257,-0.454 0.225,-0.454C0.184,-0.454 0.151,-0.462 0.125,-0.477C0.099,-0.492 0.08,-0.511 0.067,-0.534C0.055,-0.558 0.049,-0.583 0.049,-0.608C0.049,-0.656 0.06,-0.695 0.082,-0.727C0.105,-0.759 0.134,-0.783 0.171,-0.799C0.207,-0.815 0.247,-0.823 0.29,-0.823C0.335,-0.823 0.38,-0.814 0.426,-0.796C0.472,-0.778 0.514,-0.751 0.553,-0.715C0.591,-0.679 0.622,-0.633 0.646,-0.578L0.775,-0.262L0.917,-0.597C0.919,-0.602 0.92,-0.606 0.92,-0.61C0.92,-0.616 0.918,-0.62 0.914,-0.624C0.91,-0.627 0.906,-0.629 0.9,-0.632C0.895,-0.634 0.89,-0.636 0.886,-0.639C0.882,-0.642 0.88,-0.646 0.88,-0.651C0.88,-0.656 0.881,-0.66 0.883,-0.664C0.885,-0.667 0.889,-0.67 0.894,-0.672C0.9,-0.675 0.908,-0.676 0.919,-0.677C0.93,-0.678 0.944,-0.679 0.961,-0.679C0.981,-0.679 0.995,-0.678 1.003,-0.676C1.012,-0.674 1.017,-0.671 1.02,-0.667C1.022,-0.663 1.023,-0.658 1.023,-0.651C1.023,-0.646 1.022,-0.642 1.019,-0.64C1.016,-0.637 1.012,-0.635 1.008,-0.634C1.003,-0.632 0.998,-0.63 0.993,-0.628C0.988,-0.626 0.982,-0.622 0.977,-0.617C0.972,-0.612 0.967,-0.605 0.963,-0.596C0.884,-0.406 0.804,-0.215 0.724,-0.025C0.72,-0.016 0.714,-0.01 0.708,-0.006C0.701,-0.002 0.694,-0 0.688,-0Z" style="fill:rgb(239,65,114);fill-rule:nonzero;"/>
        </g>
        <g transform="matrix(523.517,0,0,523.517,1988.11,6591)">
            <path d="M0.462,-0.157C0.466,-0.157 0.47,-0.155 0.473,-0.152C0.476,-0.149 0.478,-0.144 0.478,-0.139C0.478,-0.119 0.466,-0.098 0.443,-0.077C0.42,-0.056 0.39,-0.038 0.354,-0.023C0.318,-0.008 0.281,-0 0.243,-0C0.203,-0 0.168,-0.008 0.138,-0.023C0.108,-0.038 0.082,-0.057 0.061,-0.083C0.041,-0.108 0.025,-0.136 0.014,-0.167C0.004,-0.199 -0.001,-0.231 -0.001,-0.264C-0.001,-0.297 0.004,-0.329 0.015,-0.36C0.026,-0.391 0.042,-0.419 0.064,-0.444C0.086,-0.469 0.114,-0.489 0.148,-0.504C0.181,-0.519 0.221,-0.526 0.267,-0.526C0.29,-0.526 0.314,-0.524 0.34,-0.518C0.365,-0.512 0.389,-0.503 0.411,-0.491C0.433,-0.479 0.451,-0.463 0.465,-0.443C0.479,-0.424 0.486,-0.4 0.486,-0.373C0.486,-0.347 0.481,-0.325 0.471,-0.307C0.46,-0.29 0.446,-0.275 0.429,-0.265C0.412,-0.254 0.392,-0.247 0.37,-0.242C0.349,-0.237 0.327,-0.235 0.304,-0.235C0.274,-0.235 0.244,-0.238 0.217,-0.245C0.222,-0.221 0.229,-0.2 0.24,-0.18C0.251,-0.161 0.265,-0.146 0.283,-0.134C0.301,-0.122 0.323,-0.117 0.349,-0.117C0.355,-0.117 0.361,-0.117 0.367,-0.117C0.372,-0.118 0.377,-0.119 0.382,-0.12C0.387,-0.121 0.392,-0.122 0.396,-0.123C0.401,-0.124 0.405,-0.126 0.408,-0.127C0.412,-0.129 0.416,-0.13 0.419,-0.132C0.422,-0.133 0.425,-0.135 0.428,-0.137C0.431,-0.138 0.433,-0.14 0.436,-0.142C0.438,-0.143 0.452,-0.153 0.453,-0.154C0.455,-0.155 0.456,-0.156 0.458,-0.156C0.459,-0.156 0.461,-0.157 0.462,-0.157ZM0.267,-0.483C0.257,-0.483 0.247,-0.475 0.238,-0.46C0.229,-0.444 0.222,-0.424 0.217,-0.399C0.212,-0.374 0.209,-0.347 0.209,-0.319C0.209,-0.31 0.209,-0.301 0.21,-0.292C0.218,-0.289 0.225,-0.288 0.232,-0.288C0.249,-0.288 0.263,-0.294 0.273,-0.304C0.283,-0.315 0.291,-0.329 0.296,-0.346C0.3,-0.363 0.303,-0.38 0.303,-0.397C0.303,-0.419 0.299,-0.439 0.293,-0.457C0.286,-0.474 0.278,-0.483 0.267,-0.483Z" style="fill:rgb(239,65,114);fill-rule:nonzero;"/>
        </g>
        <g transform="matrix(523.517,0,0,523.517,2243.99,6591)">
            <path d="M0.474,-0L0.457,-0C0.438,-0 0.42,-0.001 0.401,-0.002C0.383,-0.003 0.368,-0.005 0.356,-0.009C0.344,-0.013 0.338,-0.02 0.338,-0.028C0.338,-0.035 0.339,-0.04 0.341,-0.043C0.343,-0.047 0.346,-0.05 0.349,-0.052C0.352,-0.055 0.354,-0.058 0.357,-0.062C0.36,-0.065 0.362,-0.07 0.364,-0.076C0.366,-0.082 0.367,-0.091 0.367,-0.102C0.368,-0.153 0.368,-0.183 0.368,-0.19C0.368,-0.198 0.368,-0.206 0.368,-0.215L0.368,-0.328C0.368,-0.336 0.368,-0.346 0.367,-0.358C0.366,-0.369 0.364,-0.38 0.361,-0.391C0.357,-0.402 0.352,-0.411 0.345,-0.419C0.338,-0.426 0.329,-0.43 0.316,-0.43C0.306,-0.43 0.297,-0.422 0.289,-0.407C0.281,-0.393 0.274,-0.375 0.269,-0.354C0.264,-0.334 0.262,-0.315 0.262,-0.299C0.261,-0.298 0.261,-0.232 0.261,-0.101C0.261,-0.09 0.262,-0.082 0.264,-0.076C0.266,-0.07 0.269,-0.065 0.271,-0.062C0.274,-0.058 0.277,-0.055 0.28,-0.052C0.283,-0.05 0.285,-0.047 0.287,-0.043C0.289,-0.04 0.29,-0.035 0.29,-0.028C0.29,-0.02 0.284,-0.013 0.272,-0.009C0.26,-0.005 0.245,-0.003 0.227,-0.002C0.209,-0.001 0.19,-0 0.171,-0L0.137,-0C0.118,-0 0.1,-0.001 0.082,-0.002C0.063,-0.003 0.048,-0.005 0.036,-0.009C0.024,-0.013 0.019,-0.02 0.019,-0.028C0.019,-0.035 0.02,-0.04 0.021,-0.043C0.023,-0.047 0.026,-0.05 0.029,-0.052C0.032,-0.055 0.035,-0.058 0.037,-0.062C0.04,-0.065 0.042,-0.07 0.044,-0.076C0.046,-0.082 0.047,-0.091 0.047,-0.102L0.048,-0.293C0.048,-0.324 0.046,-0.347 0.043,-0.363C0.04,-0.379 0.037,-0.39 0.034,-0.397C0.03,-0.404 0.027,-0.41 0.024,-0.413C0.021,-0.417 0.02,-0.422 0.02,-0.429C0.02,-0.439 0.027,-0.447 0.041,-0.453C0.055,-0.459 0.073,-0.464 0.094,-0.469C0.115,-0.475 0.135,-0.48 0.156,-0.487C0.177,-0.494 0.194,-0.502 0.208,-0.513C0.214,-0.518 0.22,-0.521 0.225,-0.523C0.229,-0.525 0.234,-0.526 0.238,-0.526C0.245,-0.526 0.251,-0.523 0.254,-0.516C0.258,-0.51 0.26,-0.501 0.26,-0.491L0.26,-0.433C0.276,-0.466 0.296,-0.49 0.32,-0.504C0.344,-0.519 0.368,-0.526 0.394,-0.526C0.43,-0.526 0.46,-0.52 0.484,-0.507C0.508,-0.495 0.528,-0.478 0.542,-0.458C0.556,-0.437 0.566,-0.415 0.572,-0.39C0.578,-0.366 0.581,-0.342 0.581,-0.318L0.581,-0.102C0.581,-0.088 0.583,-0.078 0.586,-0.072C0.589,-0.066 0.595,-0.058 0.604,-0.049C0.631,-0.018 0.66,0.007 0.693,0.027C0.726,0.047 0.757,0.062 0.786,0.071C0.816,0.08 0.839,0.085 0.854,0.085C0.869,0.085 0.881,0.083 0.89,0.078C0.9,0.073 0.908,0.067 0.916,0.061C0.924,0.054 0.933,0.049 0.942,0.044C0.952,0.039 0.965,0.037 0.98,0.037C1.004,0.037 1.025,0.042 1.042,0.052C1.058,0.063 1.071,0.076 1.081,0.093C1.09,0.109 1.094,0.126 1.094,0.144C1.094,0.162 1.089,0.178 1.08,0.194C1.07,0.21 1.055,0.223 1.035,0.234C1.015,0.244 0.988,0.249 0.956,0.249C0.926,0.249 0.898,0.243 0.873,0.231C0.848,0.219 0.824,0.203 0.801,0.184C0.778,0.166 0.755,0.146 0.732,0.124C0.709,0.103 0.685,0.083 0.66,0.064C0.634,0.045 0.606,0.03 0.576,0.018C0.546,0.006 0.512,-0 0.474,-0Z" style="fill:rgb(239,65,114);fill-rule:nonzero;"/>
        </g>
        <g transform="matrix(523.517,0,0,523.517,2566.59,6591)">
            <path d="M0.586,-0.028C0.586,-0.022 0.583,-0.017 0.577,-0.013C0.57,-0.009 0.561,-0.006 0.551,-0.004C0.54,-0.002 0.527,-0.001 0.514,-0.001C0.5,-0 0.487,-0 0.473,-0L0.446,-0C0.428,-0 0.411,-0.003 0.396,-0.009C0.381,-0.015 0.369,-0.024 0.36,-0.037C0.351,-0.05 0.346,-0.068 0.344,-0.089C0.328,-0.058 0.308,-0.035 0.285,-0.021C0.262,-0.007 0.238,-0 0.213,-0C0.177,-0 0.147,-0.007 0.123,-0.02C0.098,-0.032 0.079,-0.049 0.065,-0.069C0.051,-0.09 0.041,-0.112 0.035,-0.137C0.029,-0.161 0.026,-0.185 0.026,-0.209L0.026,-0.293C0.026,-0.324 0.024,-0.348 0.022,-0.363C0.019,-0.379 0.016,-0.39 0.012,-0.397C0.008,-0.404 0.005,-0.41 0.002,-0.413C-0.001,-0.417 -0.002,-0.422 -0.002,-0.429C-0.002,-0.439 0.005,-0.447 0.019,-0.453C0.033,-0.459 0.051,-0.464 0.072,-0.469C0.093,-0.475 0.113,-0.48 0.134,-0.487C0.155,-0.494 0.172,-0.502 0.187,-0.513C0.192,-0.518 0.198,-0.521 0.203,-0.523C0.208,-0.525 0.212,-0.526 0.216,-0.526C0.223,-0.526 0.229,-0.523 0.232,-0.516C0.236,-0.51 0.238,-0.501 0.238,-0.491L0.238,-0.201C0.238,-0.193 0.238,-0.183 0.239,-0.171C0.24,-0.16 0.242,-0.148 0.245,-0.137C0.248,-0.126 0.253,-0.116 0.26,-0.109C0.267,-0.101 0.277,-0.097 0.29,-0.097C0.3,-0.097 0.309,-0.105 0.317,-0.12C0.326,-0.135 0.332,-0.152 0.337,-0.172C0.342,-0.192 0.344,-0.211 0.345,-0.228L0.345,-0.306C0.345,-0.328 0.344,-0.346 0.342,-0.359C0.34,-0.372 0.338,-0.382 0.335,-0.389C0.333,-0.396 0.33,-0.402 0.327,-0.406C0.325,-0.41 0.322,-0.413 0.32,-0.416C0.318,-0.419 0.317,-0.424 0.317,-0.429C0.317,-0.439 0.324,-0.447 0.339,-0.453C0.353,-0.459 0.37,-0.464 0.391,-0.469C0.412,-0.475 0.433,-0.48 0.453,-0.487C0.474,-0.494 0.492,-0.502 0.506,-0.513C0.512,-0.518 0.517,-0.521 0.522,-0.523C0.527,-0.525 0.531,-0.526 0.535,-0.526C0.543,-0.526 0.548,-0.523 0.552,-0.516C0.555,-0.51 0.557,-0.501 0.557,-0.491L0.558,-0.102C0.558,-0.094 0.558,-0.087 0.559,-0.082C0.56,-0.077 0.561,-0.073 0.563,-0.069C0.565,-0.066 0.567,-0.063 0.569,-0.06C0.571,-0.058 0.579,-0.05 0.581,-0.048C0.583,-0.045 0.584,-0.043 0.585,-0.04C0.586,-0.037 0.586,-0.033 0.586,-0.028Z" style="fill:rgb(239,65,114);fill-rule:nonzero;"/>
        </g>
        <g transform="matrix(523.517,0,0,523.517,2880.24,6591)">
            <path d="M0.462,-0.157C0.466,-0.157 0.47,-0.155 0.473,-0.152C0.476,-0.149 0.478,-0.144 0.478,-0.139C0.478,-0.119 0.466,-0.098 0.443,-0.077C0.42,-0.056 0.39,-0.038 0.354,-0.023C0.318,-0.008 0.281,-0 0.243,-0C0.203,-0 0.168,-0.008 0.138,-0.023C0.108,-0.038 0.082,-0.057 0.061,-0.083C0.041,-0.108 0.025,-0.136 0.014,-0.167C0.004,-0.199 -0.001,-0.231 -0.001,-0.264C-0.001,-0.297 0.004,-0.329 0.015,-0.36C0.026,-0.391 0.042,-0.419 0.064,-0.444C0.086,-0.469 0.114,-0.489 0.148,-0.504C0.181,-0.519 0.221,-0.526 0.267,-0.526C0.29,-0.526 0.314,-0.524 0.34,-0.518C0.365,-0.512 0.389,-0.503 0.411,-0.491C0.433,-0.479 0.451,-0.463 0.465,-0.443C0.479,-0.424 0.486,-0.4 0.486,-0.373C0.486,-0.347 0.481,-0.325 0.471,-0.307C0.46,-0.29 0.446,-0.275 0.429,-0.265C0.412,-0.254 0.392,-0.247 0.37,-0.242C0.349,-0.237 0.327,-0.235 0.304,-0.235C0.274,-0.235 0.244,-0.238 0.217,-0.245C0.222,-0.221 0.229,-0.2 0.24,-0.18C0.251,-0.161 0.265,-0.146 0.283,-0.134C0.301,-0.122 0.323,-0.117 0.349,-0.117C0.355,-0.117 0.361,-0.117 0.367,-0.117C0.372,-0.118 0.377,-0.119 0.382,-0.12C0.387,-0.121 0.392,-0.122 0.396,-0.123C0.401,-0.124 0.405,-0.126 0.408,-0.127C0.412,-0.129 0.416,-0.13 0.419,-0.132C0.422,-0.133 0.425,-0.135 0.428,-0.137C0.431,-0.138 0.433,-0.14 0.436,-0.142C0.438,-0.143 0.452,-0.153 0.453,-0.154C0.455,-0.155 0.456,-0.156 0.458,-0.156C0.459,-0.156 0.461,-0.157 0.462,-0.157ZM0.267,-0.483C0.257,-0.483 0.247,-0.475 0.238,-0.46C0.229,-0.444 0.222,-0.424 0.217,-0.399C0.212,-0.374 0.209,-0.347 0.209,-0.319C0.209,-0.31 0.209,-0.301 0.21,-0.292C0.218,-0.289 0.225,-0.288 0.232,-0.288C0.249,-0.288 0.263,-0.294 0.273,-0.304C0.283,-0.315 0.291,-0.329 0.296,-0.346C0.3,-0.363 0.303,-0.38 0.303,-0.397C0.303,-0.419 0.299,-0.439 0.293,-0.457C0.286,-0.474 0.278,-0.483 0.267,-0.483Z" style="fill:rgb(239,65,114);fill-rule:nonzero;"/>
        </g>
    </g>
</svg>
