<?xml version="1.0" encoding="UTF-8" standalone="no"?>
<!DOCTYPE svg PUBLIC "-//W3C//DTD SVG 1.1//EN" "http://www.w3.org/Graphics/SVG/1.1/DTD/svg11.dtd">
<svg width="100%" height="100%" viewBox="0 0 3285 678" version="1.1" xmlns="http://www.w3.org/2000/svg" xmlns:xlink="http://www.w3.org/1999/xlink" xml:space="preserve" xmlns:serif="http://www.serif.com/" style="fill-rule:evenodd;clip-rule:evenodd;stroke-linejoin:round;stroke-miterlimit:2;">
    <g transform="matrix(4.16667,0,0,4.16667,-10690.5,-15216)">
        <g transform="matrix(1.26268,3.09267e-16,-3.09267e-16,1.26268,-3287.78,-6292.06)">
            <g transform="matrix(0.109289,-2.67682e-17,2.67682e-17,0.109289,4137.75,6770.13)">
                <g transform="matrix(1328.53,0,0,1328.53,4536.34,11013.5)">
                    <path d="M0.034,-0.449C0.034,-0.504 0.045,-0.549 0.069,-0.582C0.092,-0.616 0.124,-0.64 0.164,-0.656C0.204,-0.671 0.249,-0.679 0.3,-0.679C0.352,-0.679 0.397,-0.67 0.436,-0.653C0.475,-0.636 0.505,-0.613 0.527,-0.586C0.548,-0.559 0.559,-0.53 0.559,-0.5C0.559,-0.474 0.55,-0.449 0.532,-0.424C0.514,-0.399 0.486,-0.378 0.447,-0.359C0.483,-0.35 0.512,-0.336 0.534,-0.319C0.556,-0.301 0.572,-0.281 0.583,-0.259C0.593,-0.237 0.598,-0.215 0.598,-0.191C0.598,-0.164 0.593,-0.14 0.583,-0.12C0.574,-0.1 0.561,-0.083 0.545,-0.069C0.528,-0.054 0.51,-0.043 0.489,-0.034C0.468,-0.025 0.445,-0.018 0.422,-0.013C0.399,-0.008 0.375,-0.005 0.352,-0.003C0.329,-0.001 0.306,-0 0.286,-0C0.249,-0 0.214,-0.004 0.181,-0.011C0.148,-0.019 0.119,-0.032 0.095,-0.049C0.07,-0.067 0.051,-0.09 0.037,-0.12C0.023,-0.15 0.016,-0.186 0.016,-0.23C0.016,-0.25 0.023,-0.267 0.039,-0.279C0.055,-0.29 0.079,-0.296 0.113,-0.296C0.13,-0.296 0.147,-0.294 0.164,-0.289C0.18,-0.285 0.193,-0.278 0.204,-0.268C0.214,-0.259 0.22,-0.247 0.22,-0.233C0.22,-0.223 0.219,-0.212 0.216,-0.2C0.214,-0.189 0.213,-0.17 0.213,-0.143C0.213,-0.126 0.215,-0.11 0.218,-0.095C0.221,-0.08 0.228,-0.067 0.237,-0.058C0.246,-0.048 0.259,-0.043 0.276,-0.043C0.302,-0.043 0.323,-0.05 0.339,-0.064C0.355,-0.077 0.366,-0.095 0.373,-0.116C0.38,-0.138 0.383,-0.161 0.383,-0.186C0.383,-0.228 0.377,-0.262 0.364,-0.289C0.352,-0.315 0.333,-0.328 0.308,-0.328L0.255,-0.328C0.247,-0.328 0.241,-0.33 0.237,-0.335C0.233,-0.34 0.23,-0.345 0.23,-0.351C0.23,-0.356 0.233,-0.361 0.237,-0.366C0.241,-0.37 0.248,-0.373 0.256,-0.373C0.277,-0.373 0.293,-0.378 0.305,-0.389C0.318,-0.4 0.327,-0.415 0.333,-0.434C0.338,-0.454 0.341,-0.476 0.341,-0.5C0.341,-0.525 0.339,-0.547 0.334,-0.567C0.329,-0.587 0.321,-0.604 0.31,-0.616C0.299,-0.628 0.285,-0.634 0.267,-0.634C0.257,-0.634 0.248,-0.628 0.241,-0.617C0.234,-0.605 0.23,-0.586 0.23,-0.559C0.23,-0.534 0.231,-0.516 0.232,-0.503C0.233,-0.491 0.235,-0.481 0.236,-0.473C0.237,-0.466 0.238,-0.457 0.238,-0.446C0.238,-0.432 0.233,-0.421 0.222,-0.411C0.212,-0.402 0.198,-0.395 0.182,-0.39C0.165,-0.385 0.148,-0.383 0.131,-0.383C0.066,-0.383 0.034,-0.405 0.034,-0.449Z" style="fill:rgb(9,154,155);fill-rule:nonzero;"/>
                </g>
                <g transform="matrix(1328.53,0,0,1328.53,5351.1,11013.5)">
                    <path d="M0.133,-0C0.11,-0 0.09,-0.008 0.073,-0.022C0.057,-0.037 0.049,-0.056 0.049,-0.078C0.049,-0.106 0.06,-0.131 0.083,-0.153C0.105,-0.174 0.131,-0.185 0.161,-0.185C0.184,-0.185 0.204,-0.178 0.22,-0.163C0.237,-0.149 0.246,-0.131 0.246,-0.108C0.246,-0.08 0.234,-0.055 0.212,-0.033C0.19,-0.011 0.164,-0 0.133,-0ZM0.133,-0.459C0.11,-0.459 0.09,-0.466 0.073,-0.481C0.057,-0.496 0.049,-0.514 0.049,-0.537C0.049,-0.565 0.06,-0.589 0.083,-0.611C0.105,-0.633 0.131,-0.644 0.161,-0.644C0.184,-0.644 0.204,-0.636 0.22,-0.622C0.237,-0.607 0.246,-0.589 0.246,-0.567C0.246,-0.539 0.234,-0.514 0.212,-0.492C0.19,-0.47 0.164,-0.459 0.133,-0.459Z" style="fill:rgb(9,154,155);fill-rule:nonzero;"/>
                </g>
                <g transform="matrix(1328.53,0,0,1328.53,5742.26,11013.5)">
                    <path d="M0.325,-0C0.275,-0 0.231,-0.01 0.194,-0.028C0.156,-0.047 0.125,-0.072 0.1,-0.103C0.075,-0.134 0.056,-0.17 0.043,-0.209C0.031,-0.248 0.024,-0.289 0.024,-0.331C0.024,-0.374 0.031,-0.416 0.045,-0.457C0.058,-0.499 0.079,-0.536 0.106,-0.569C0.133,-0.603 0.168,-0.629 0.209,-0.649C0.25,-0.669 0.298,-0.679 0.353,-0.679C0.403,-0.679 0.446,-0.669 0.484,-0.651C0.521,-0.632 0.553,-0.607 0.578,-0.576C0.603,-0.545 0.622,-0.509 0.634,-0.47C0.647,-0.43 0.653,-0.39 0.653,-0.348C0.653,-0.305 0.647,-0.263 0.633,-0.221C0.62,-0.18 0.599,-0.143 0.572,-0.11C0.544,-0.077 0.51,-0.05 0.469,-0.03C0.428,-0.01 0.38,-0 0.325,-0ZM0.322,-0.634C0.308,-0.634 0.296,-0.627 0.285,-0.612C0.275,-0.597 0.266,-0.577 0.259,-0.551C0.252,-0.526 0.246,-0.497 0.242,-0.465C0.239,-0.433 0.237,-0.399 0.237,-0.364C0.237,-0.326 0.239,-0.287 0.244,-0.25C0.249,-0.212 0.256,-0.178 0.266,-0.147C0.275,-0.116 0.288,-0.092 0.303,-0.073C0.318,-0.055 0.335,-0.045 0.356,-0.045C0.361,-0.045 0.367,-0.047 0.372,-0.049C0.376,-0.052 0.381,-0.056 0.385,-0.06C0.39,-0.065 0.394,-0.071 0.398,-0.078C0.401,-0.084 0.405,-0.092 0.408,-0.101C0.412,-0.109 0.415,-0.119 0.418,-0.129C0.42,-0.139 0.423,-0.15 0.426,-0.161C0.428,-0.173 0.43,-0.184 0.432,-0.197C0.433,-0.21 0.435,-0.222 0.436,-0.236C0.437,-0.249 0.438,-0.262 0.438,-0.276C0.439,-0.29 0.439,-0.303 0.439,-0.317C0.439,-0.356 0.437,-0.394 0.432,-0.432C0.428,-0.469 0.42,-0.503 0.411,-0.534C0.401,-0.564 0.389,-0.588 0.374,-0.607C0.359,-0.625 0.342,-0.634 0.322,-0.634Z" style="fill:rgb(9,154,155);fill-rule:nonzero;"/>
                </g>
                <g transform="matrix(1328.53,0,0,1328.53,6642.65,11013.5)">
                    <path d="M0.325,-0C0.275,-0 0.231,-0.01 0.194,-0.028C0.156,-0.047 0.125,-0.072 0.1,-0.103C0.075,-0.134 0.056,-0.17 0.043,-0.209C0.031,-0.248 0.024,-0.289 0.024,-0.331C0.024,-0.374 0.031,-0.416 0.045,-0.457C0.058,-0.499 0.079,-0.536 0.106,-0.569C0.133,-0.603 0.168,-0.629 0.209,-0.649C0.25,-0.669 0.298,-0.679 0.353,-0.679C0.403,-0.679 0.446,-0.669 0.484,-0.651C0.521,-0.632 0.553,-0.607 0.578,-0.576C0.603,-0.545 0.622,-0.509 0.634,-0.47C0.647,-0.43 0.653,-0.39 0.653,-0.348C0.653,-0.305 0.647,-0.263 0.633,-0.221C0.62,-0.18 0.599,-0.143 0.572,-0.11C0.544,-0.077 0.51,-0.05 0.469,-0.03C0.428,-0.01 0.38,-0 0.325,-0ZM0.322,-0.634C0.308,-0.634 0.296,-0.627 0.285,-0.612C0.275,-0.597 0.266,-0.577 0.259,-0.551C0.252,-0.526 0.246,-0.497 0.242,-0.465C0.239,-0.433 0.237,-0.399 0.237,-0.364C0.237,-0.326 0.239,-0.287 0.244,-0.25C0.249,-0.212 0.256,-0.178 0.266,-0.147C0.275,-0.116 0.288,-0.092 0.303,-0.073C0.318,-0.055 0.335,-0.045 0.356,-0.045C0.361,-0.045 0.367,-0.047 0.372,-0.049C0.376,-0.052 0.381,-0.056 0.385,-0.06C0.39,-0.065 0.394,-0.071 0.398,-0.078C0.401,-0.084 0.405,-0.092 0.408,-0.101C0.412,-0.109 0.415,-0.119 0.418,-0.129C0.42,-0.139 0.423,-0.15 0.426,-0.161C0.428,-0.173 0.43,-0.184 0.432,-0.197C0.433,-0.21 0.435,-0.222 0.436,-0.236C0.437,-0.249 0.438,-0.262 0.438,-0.276C0.439,-0.29 0.439,-0.303 0.439,-0.317C0.439,-0.356 0.437,-0.394 0.432,-0.432C0.428,-0.469 0.42,-0.503 0.411,-0.534C0.401,-0.564 0.389,-0.588 0.374,-0.607C0.359,-0.625 0.342,-0.634 0.322,-0.634Z" style="fill:rgb(9,154,155);fill-rule:nonzero;"/>
                </g>
                <g transform="matrix(1328.53,0,0,1328.53,7872.58,11013.5)">
                    <path d="M0.255,-0.436C0.272,-0.468 0.292,-0.491 0.315,-0.505C0.338,-0.519 0.361,-0.526 0.386,-0.526C0.417,-0.526 0.445,-0.52 0.469,-0.507C0.492,-0.494 0.512,-0.476 0.528,-0.454C0.543,-0.432 0.555,-0.407 0.563,-0.379C0.571,-0.351 0.575,-0.321 0.575,-0.291C0.575,-0.228 0.565,-0.176 0.545,-0.132C0.526,-0.089 0.497,-0.056 0.461,-0.034C0.425,-0.012 0.382,-0 0.333,-0C0.307,-0 0.281,-0.01 0.256,-0.03L0.256,0.106C0.256,0.112 0.257,0.118 0.257,0.122C0.258,0.127 0.259,0.131 0.26,0.134C0.261,0.137 0.262,0.14 0.264,0.142C0.265,0.145 0.267,0.147 0.269,0.149C0.27,0.15 0.277,0.157 0.278,0.158C0.28,0.16 0.281,0.162 0.282,0.164C0.283,0.166 0.284,0.168 0.285,0.17C0.285,0.173 0.286,0.176 0.286,0.18C0.286,0.188 0.28,0.195 0.268,0.199C0.256,0.203 0.24,0.206 0.222,0.207C0.204,0.208 0.186,0.208 0.167,0.208L0.132,0.208C0.118,0.208 0.104,0.208 0.09,0.207C0.076,0.207 0.063,0.206 0.052,0.204C0.04,0.202 0.031,0.199 0.024,0.196C0.017,0.192 0.014,0.187 0.014,0.18C0.014,0.173 0.015,0.168 0.017,0.165C0.019,0.161 0.021,0.158 0.024,0.156C0.027,0.153 0.03,0.15 0.032,0.146C0.035,0.143 0.038,0.138 0.04,0.132C0.042,0.126 0.042,0.117 0.042,0.106C0.043,0.107 0.043,-0.026 0.043,-0.293C0.043,-0.324 0.042,-0.348 0.039,-0.363C0.036,-0.379 0.033,-0.39 0.029,-0.397C0.025,-0.404 0.022,-0.41 0.019,-0.413C0.017,-0.417 0.015,-0.422 0.015,-0.429C0.015,-0.439 0.022,-0.447 0.036,-0.453C0.051,-0.459 0.068,-0.464 0.089,-0.469C0.11,-0.475 0.131,-0.48 0.151,-0.487C0.172,-0.494 0.19,-0.502 0.204,-0.513C0.215,-0.522 0.225,-0.526 0.233,-0.526C0.24,-0.526 0.246,-0.523 0.25,-0.516C0.253,-0.51 0.255,-0.501 0.255,-0.491L0.255,-0.436ZM0.284,-0.079C0.301,-0.079 0.316,-0.089 0.327,-0.11C0.339,-0.13 0.347,-0.156 0.353,-0.188C0.358,-0.219 0.361,-0.251 0.361,-0.283C0.361,-0.302 0.36,-0.32 0.358,-0.338C0.356,-0.356 0.353,-0.372 0.348,-0.385C0.344,-0.399 0.339,-0.41 0.332,-0.418C0.326,-0.426 0.318,-0.43 0.31,-0.43C0.3,-0.43 0.292,-0.424 0.285,-0.413C0.278,-0.402 0.273,-0.389 0.269,-0.374C0.264,-0.359 0.261,-0.344 0.259,-0.33C0.257,-0.316 0.256,-0.306 0.255,-0.298C0.256,-0.299 0.256,-0.239 0.256,-0.12C0.257,-0.11 0.26,-0.101 0.264,-0.092C0.269,-0.083 0.275,-0.079 0.284,-0.079Z" style="fill:rgb(9,154,155);fill-rule:nonzero;"/>
                </g>
                <g transform="matrix(1328.53,0,0,1328.53,8647.12,11013.5)">
                    <path d="M0.899,-0.318L0.899,-0.104C0.899,-0.053 0.905,-0.013 0.918,0.017C0.931,0.046 0.947,0.067 0.967,0.08C0.986,0.093 1.007,0.1 1.027,0.1C1.056,0.1 1.081,0.091 1.104,0.073C1.126,0.055 1.138,0.034 1.138,0.01C1.138,-0.007 1.132,-0.02 1.122,-0.031C1.111,-0.042 1.098,-0.051 1.082,-0.059C1.066,-0.067 1.051,-0.075 1.035,-0.084C1.02,-0.092 1.006,-0.103 0.996,-0.115C0.985,-0.127 0.979,-0.143 0.979,-0.163C0.979,-0.182 0.984,-0.201 0.993,-0.219C1.002,-0.238 1.015,-0.253 1.031,-0.265C1.047,-0.277 1.065,-0.283 1.085,-0.283C1.112,-0.283 1.135,-0.276 1.156,-0.263C1.176,-0.25 1.192,-0.23 1.203,-0.205C1.215,-0.179 1.221,-0.147 1.221,-0.11C1.221,-0.062 1.213,-0.02 1.198,0.015C1.182,0.051 1.162,0.08 1.136,0.103C1.111,0.126 1.082,0.143 1.05,0.154C1.018,0.165 0.985,0.17 0.952,0.17C0.918,0.17 0.886,0.165 0.854,0.155C0.822,0.144 0.794,0.128 0.768,0.108C0.743,0.087 0.723,0.062 0.708,0.032C0.693,0.003 0.685,-0.031 0.685,-0.07L0.686,-0.339C0.686,-0.348 0.685,-0.358 0.684,-0.368C0.683,-0.379 0.68,-0.388 0.677,-0.398C0.673,-0.407 0.668,-0.415 0.661,-0.421C0.654,-0.427 0.645,-0.43 0.634,-0.43C0.627,-0.43 0.62,-0.425 0.613,-0.417C0.606,-0.408 0.601,-0.397 0.595,-0.383C0.59,-0.37 0.587,-0.355 0.584,-0.34C0.581,-0.325 0.58,-0.311 0.58,-0.299L0.58,-0.102C0.58,-0.094 0.58,-0.087 0.581,-0.082C0.582,-0.077 0.583,-0.073 0.585,-0.069C0.587,-0.066 0.589,-0.063 0.591,-0.06C0.593,-0.058 0.601,-0.05 0.603,-0.048C0.605,-0.045 0.606,-0.043 0.607,-0.04C0.608,-0.037 0.608,-0.033 0.608,-0.028C0.608,-0.024 0.607,-0.021 0.605,-0.018C0.602,-0.016 0.599,-0.013 0.595,-0.011C0.59,-0.009 0.585,-0.007 0.58,-0.006C0.574,-0.005 0.567,-0.004 0.56,-0.003C0.553,-0.002 0.546,-0.002 0.538,-0.001C0.53,-0.001 0.522,-0.001 0.514,-0.001C0.506,-0.001 0.498,-0 0.49,-0L0.456,-0C0.442,-0 0.427,-0.001 0.413,-0.001C0.399,-0.002 0.386,-0.003 0.375,-0.004C0.364,-0.006 0.354,-0.009 0.347,-0.012C0.34,-0.016 0.337,-0.021 0.337,-0.028C0.337,-0.035 0.338,-0.04 0.34,-0.043C0.342,-0.047 0.344,-0.05 0.347,-0.052C0.35,-0.055 0.353,-0.058 0.356,-0.062C0.358,-0.065 0.361,-0.07 0.363,-0.076C0.365,-0.082 0.366,-0.091 0.366,-0.102C0.366,-0.162 0.367,-0.191 0.367,-0.186C0.367,-0.181 0.367,-0.228 0.367,-0.328C0.367,-0.336 0.367,-0.346 0.366,-0.358C0.365,-0.369 0.363,-0.38 0.36,-0.391C0.356,-0.402 0.351,-0.411 0.344,-0.419C0.337,-0.426 0.327,-0.43 0.315,-0.43C0.305,-0.43 0.296,-0.422 0.287,-0.407C0.279,-0.393 0.272,-0.375 0.268,-0.355C0.263,-0.334 0.26,-0.316 0.26,-0.299L0.261,-0.102C0.261,-0.088 0.263,-0.078 0.266,-0.072C0.269,-0.065 0.272,-0.06 0.276,-0.057C0.279,-0.053 0.283,-0.049 0.286,-0.046C0.289,-0.042 0.29,-0.036 0.29,-0.028C0.29,-0.02 0.284,-0.013 0.272,-0.009C0.26,-0.005 0.245,-0.003 0.227,-0.002C0.209,-0.001 0.19,-0 0.171,-0L0.137,-0C0.123,-0 0.109,-0.001 0.094,-0.001C0.08,-0.002 0.068,-0.003 0.056,-0.004C0.045,-0.006 0.036,-0.009 0.029,-0.012C0.022,-0.016 0.018,-0.021 0.018,-0.028C0.018,-0.034 0.019,-0.038 0.02,-0.041C0.022,-0.044 0.024,-0.047 0.026,-0.05C0.028,-0.052 0.03,-0.054 0.033,-0.057C0.035,-0.059 0.038,-0.062 0.04,-0.066C0.042,-0.069 0.044,-0.074 0.045,-0.079C0.047,-0.085 0.047,-0.092 0.047,-0.102L0.047,-0.203C0.047,-0.207 0.048,-0.237 0.048,-0.293C0.048,-0.324 0.046,-0.347 0.043,-0.363C0.04,-0.379 0.037,-0.39 0.034,-0.397C0.03,-0.404 0.027,-0.41 0.024,-0.413C0.021,-0.417 0.02,-0.422 0.02,-0.429C0.02,-0.439 0.027,-0.447 0.041,-0.453C0.055,-0.459 0.073,-0.464 0.094,-0.469C0.114,-0.475 0.135,-0.48 0.156,-0.487C0.177,-0.494 0.194,-0.502 0.208,-0.513C0.214,-0.518 0.22,-0.521 0.225,-0.523C0.229,-0.525 0.234,-0.526 0.237,-0.526C0.245,-0.526 0.25,-0.523 0.254,-0.516C0.257,-0.51 0.259,-0.501 0.259,-0.491C0.26,-0.491 0.26,-0.472 0.26,-0.436C0.276,-0.467 0.296,-0.491 0.32,-0.505C0.343,-0.519 0.367,-0.526 0.392,-0.526C0.426,-0.526 0.454,-0.521 0.478,-0.51C0.501,-0.499 0.519,-0.484 0.534,-0.466C0.548,-0.448 0.559,-0.428 0.566,-0.406C0.583,-0.448 0.604,-0.479 0.63,-0.498C0.656,-0.517 0.683,-0.526 0.711,-0.526C0.748,-0.526 0.778,-0.52 0.802,-0.507C0.826,-0.495 0.845,-0.478 0.86,-0.458C0.874,-0.437 0.884,-0.415 0.89,-0.39C0.896,-0.366 0.899,-0.342 0.899,-0.318Z" style="fill:rgb(9,154,155);fill-rule:nonzero;"/>
                </g>
            </g>
        </g>
    </g>
</svg>
